<svg width="329" height="362" viewBox="0 0 329 362" fill="none" xmlns="http://www.w3.org/2000/svg">
<path d="M4.49235 361.915C3.14102 360.236 1.2244 358.753 0.561984 356.845C-0.586211 353.533 2.29312 350.124 6.09099 349.912C9.35893 349.726 12.6445 349.876 16.4866 349.876C16.4866 348.145 16.4866 346.679 16.4866 345.213C16.4866 271.41 16.4866 197.599 16.4866 123.797C16.4866 116.13 18.1824 114.426 25.7604 114.426C40.2189 114.426 54.6685 114.426 69.1269 114.426C70.3899 114.426 71.6529 114.426 73.3134 114.426C73.3134 112.818 73.3134 111.555 73.3134 110.292C73.3134 95.6041 73.2957 80.9072 73.3222 66.2192C73.331 59.4978 75.1593 57.7049 81.9513 57.6784C86.9857 57.6607 92.0289 57.6784 97.6021 57.6784C97.6021 54.8962 97.6021 52.3702 97.6021 49.8442C97.6021 44.4388 97.5933 39.0335 97.6021 33.6281C97.6198 27.1982 99.5452 25.2816 106.063 25.2551C112.643 25.2286 119.223 25.2463 125.804 25.2463C127.075 25.2463 128.347 25.2463 130.034 25.2463C130.034 20.2473 130.025 15.5838 130.034 10.9292C130.034 9.51605 129.946 8.09405 130.123 6.70738C130.538 3.32463 133.125 0.922252 136.173 0.939916C139.467 0.948748 141.984 3.38645 142.117 7.09601C142.285 11.6711 142.187 16.2639 142.196 20.8478C142.196 22.1285 142.196 23.4004 142.196 25.052C143.707 25.1315 144.952 25.2463 146.197 25.2551C153.245 25.2728 160.302 25.1933 167.35 25.2905C172.535 25.3611 174.558 27.4455 174.611 32.6389C174.681 39.5722 174.628 46.5056 174.628 53.4389C174.628 54.7019 174.628 55.9561 174.628 57.4576C178.832 57.4576 182.639 57.4576 186.923 57.4576C186.923 53.695 186.923 50.1003 186.923 46.4967C186.932 41.5595 186.843 36.6223 186.976 31.6939C187.082 27.6928 189.087 25.7056 193.035 25.3346C194.201 25.2286 195.384 25.264 196.559 25.2551C232.056 25.2551 267.544 25.2551 303.041 25.2551C311.166 25.2551 312.632 26.7478 312.632 34.9706C312.632 138.273 312.632 241.584 312.632 344.886C312.632 346.396 312.632 347.898 312.632 349.841C315.468 349.841 318.02 349.912 320.564 349.823C324.097 349.691 327.223 350.274 328.477 354.151C329.705 357.931 327.294 360.033 324.627 361.95C217.942 361.915 111.221 361.915 4.49235 361.915ZM300.294 349.611C300.294 245.338 300.294 141.514 300.294 37.638C266.493 37.638 232.948 37.638 199.306 37.638C199.306 87.6198 199.306 137.372 199.306 187.274C206.018 187.274 212.528 187.274 218.984 187.274C220.22 181.63 221.96 179.511 225.281 179.396C228.646 179.281 230.404 181.321 232.109 187.363C235.818 187.363 239.554 187.363 243.37 187.363C243.555 186.32 243.67 185.393 243.891 184.492C244.668 181.286 247.256 179.193 250.144 179.405C253.2 179.634 255.373 181.842 255.717 185.207C255.859 186.603 255.832 188.025 255.832 189.429C255.841 241.372 255.832 293.306 255.85 345.248C255.85 346.714 256 348.172 256.079 349.602C271.041 349.611 285.57 349.611 300.294 349.611ZM57.115 349.602C57.115 348.163 57.115 346.9 57.115 345.637C57.1238 338.474 57.0443 331.302 57.1592 324.139C57.2298 319.829 59.2701 317.479 63.2181 317.435C74.0288 317.303 84.8395 317.312 95.6413 317.444C99.4745 317.488 101.585 319.997 101.718 324.218C101.842 328.096 101.744 331.973 101.753 335.851C101.753 340.39 101.753 344.93 101.753 349.567C111.398 349.567 120.601 349.567 129.769 349.567C129.769 275.146 129.769 200.973 129.769 126.862C95.9416 126.862 62.4143 126.862 28.8252 126.862C28.8252 201.238 28.8252 275.323 28.8252 349.611C38.1521 349.602 47.2758 349.602 57.115 349.602ZM142.452 199.781C142.452 249.913 142.452 299.665 142.452 349.611C176.209 349.611 209.737 349.611 243.387 349.611C243.387 299.568 243.387 249.736 243.387 199.781C209.675 199.781 176.218 199.781 142.452 199.781ZM142.726 122.622C148.511 122.622 154.137 122.543 159.764 122.649C163.941 122.728 166.617 125.219 166.573 128.699C166.538 132.161 163.826 134.581 159.658 134.758C157.308 134.855 154.959 134.775 152.609 134.775C149.253 134.775 145.888 134.775 142.223 134.775C142.223 140.764 142.364 146.275 142.161 151.769C142.064 154.489 143.026 155.187 145.597 155.098C150.525 154.93 155.471 154.957 160.399 155.134C164.1 155.266 166.556 157.819 166.556 161.087C166.564 164.134 164.171 166.695 160.762 167.128C159.375 167.304 157.944 167.216 156.54 167.225C151.876 167.234 147.222 167.225 142.214 167.225C142.214 173.037 142.364 178.424 142.152 183.794C142.037 186.682 142.876 187.619 145.862 187.583C158.2 187.424 170.539 187.407 182.878 187.592C186.101 187.636 187.011 186.771 187.002 183.503C186.887 146.955 186.932 110.416 186.932 73.8679C186.932 72.6226 186.932 71.3772 186.932 70.123C152.866 70.123 119.321 70.123 85.7668 70.123C85.7668 84.9789 85.7668 99.5875 85.7668 114.426C87.2948 114.426 88.5667 114.426 89.8385 114.426C104.058 114.426 118.278 114.426 132.49 114.426C140.041 114.426 140.995 115.15 142.726 122.622ZM109.932 57.3958C127.499 57.3958 144.89 57.3958 162.237 57.3958C162.237 50.6214 162.237 44.112 162.237 37.6821C144.669 37.6821 127.367 37.6821 109.932 37.6821C109.932 44.3417 109.932 50.7451 109.932 57.3958ZM72.8541 349.655C73.0749 349.09 73.225 348.878 73.2339 348.657C73.278 346.078 73.278 343.499 73.3487 340.92C73.4812 336.169 75.7422 333.537 79.5754 333.634C83.2055 333.722 85.4047 336.389 85.5019 340.929C85.5637 343.817 85.5107 346.714 85.5107 349.876C87.1182 349.735 88.2045 349.638 89.2909 349.541C89.2909 342.687 89.2909 336.177 89.2909 329.703C82.5254 329.703 76.016 329.703 69.4978 329.703C69.4978 336.469 69.4978 342.987 69.4978 349.647C70.7255 349.655 71.7412 349.655 72.8541 349.655Z" fill="black"/>
<path d="M280.333 189.641C280.2 191.39 280.271 193.183 279.9 194.879C279.255 197.846 276.517 199.904 273.726 199.533C270.617 199.118 268.453 197.405 268.224 194.11C268.021 191.187 268.021 188.237 268.18 185.313C268.365 181.869 270.847 179.475 273.991 179.387C277.065 179.307 279.715 181.674 280.121 185.048C280.306 186.55 280.147 188.096 280.147 189.624C280.209 189.632 280.271 189.641 280.333 189.641Z" fill="black"/>
<path d="M255.903 108.782C255.815 110.204 255.832 111.864 255.576 113.481C255.09 116.607 252.935 118.241 250.003 118.391C247.203 118.533 244.615 117.146 244.235 114.258C243.741 110.478 243.723 106.547 244.147 102.758C244.492 99.6936 247.071 98.1656 250.047 98.3422C253.165 98.5277 255.276 100.338 255.638 103.642C255.823 105.267 255.815 106.918 255.903 108.782Z" fill="black"/>
<path d="M280.316 270.88C280.201 272.488 280.28 274.281 279.918 275.977C279.291 278.944 276.562 281.029 273.771 280.684C270.644 280.304 268.471 278.582 268.242 275.297C268.021 272.258 268.03 269.185 268.215 266.146C268.419 262.94 270.936 260.511 273.947 260.573C277.118 260.635 279.318 262.287 279.971 265.466C280.316 267.171 280.21 268.964 280.316 270.88Z" fill="black"/>
<path d="M268.189 107.925C268.189 106.521 268.065 105.099 268.215 103.703C268.56 100.418 270.653 98.7043 273.762 98.3069C276.526 97.9536 279.52 100.038 279.865 103.014C280.271 106.477 280.307 110.063 279.909 113.525C279.547 116.722 277.1 118.356 273.938 118.427C270.927 118.497 268.498 116.069 268.189 112.854C268.038 111.228 268.162 109.568 268.162 107.925C268.18 107.925 268.189 107.925 268.189 107.925Z" fill="black"/>
<path d="M219.337 108.331C219.408 106.689 219.355 105.037 219.584 103.412C220.008 100.294 222.084 98.5718 225.034 98.351C228.019 98.1213 230.616 99.6051 231.031 102.643C231.534 106.309 231.517 110.133 231.119 113.816C230.801 116.802 227.736 118.824 224.972 118.409C221.872 117.95 219.805 116.21 219.522 112.915C219.39 111.405 219.505 109.868 219.505 108.34C219.452 108.331 219.39 108.331 219.337 108.331Z" fill="black"/>
<path d="M231.641 67.8709C231.517 69.6197 231.614 71.4215 231.217 73.1085C230.484 76.2262 228.373 77.9485 225.096 77.7542C221.854 77.5599 219.823 75.6963 219.567 72.4637C219.32 69.4342 219.337 66.3606 219.54 63.3311C219.761 59.9837 222.093 57.8993 225.255 57.811C228.382 57.7227 230.837 59.6746 231.349 62.9602C231.597 64.5588 231.393 66.2281 231.393 67.8709C231.473 67.8709 231.561 67.8709 231.641 67.8709Z" fill="black"/>
<path d="M268.171 67.8709C268.171 66.3429 268.048 64.8061 268.198 63.3046C268.516 60.0808 270.353 58.1731 273.603 57.8463C276.756 57.5283 279.538 59.4008 279.918 62.6422C280.316 65.9896 280.307 69.4519 279.954 72.8081C279.618 76.0319 276.853 77.9573 273.745 77.7895C270.618 77.6217 268.454 75.4755 268.154 72.0927C268.03 70.6972 268.136 69.2752 268.136 67.8709C268.154 67.8709 268.163 67.8709 268.171 67.8709Z" fill="black"/>
<path d="M280.315 149.198C280.2 150.797 280.324 152.608 279.909 154.286C279.149 157.386 277.021 159.099 273.744 158.887C270.494 158.675 268.489 156.794 268.232 153.561C267.994 150.532 268.003 147.458 268.215 144.42C268.436 141.196 270.361 139.289 273.611 138.971C276.756 138.661 279.343 140.569 279.962 143.775C280.306 145.498 280.209 147.291 280.315 149.198Z" fill="black"/>
<path d="M268.18 230.12C268.18 228.592 268.056 227.055 268.207 225.553C268.533 222.321 270.397 220.439 273.638 220.113C276.765 219.803 279.574 221.72 279.945 224.935C280.324 228.282 280.324 231.745 279.971 235.092C279.627 238.334 276.906 240.206 273.744 240.029C270.618 239.862 268.472 237.724 268.18 234.333C268.056 232.937 268.162 231.524 268.162 230.111C268.162 230.12 268.171 230.12 268.18 230.12Z" fill="black"/>
<path d="M268.18 310.811C268.18 309.407 268.047 307.985 268.215 306.598C268.595 303.383 270.467 301.511 273.717 301.237C276.844 300.972 279.609 302.924 279.953 306.156C280.315 309.513 280.315 312.966 279.935 316.314C279.564 319.546 276.791 321.445 273.647 321.154C270.397 320.844 268.533 318.963 268.206 315.739C268.047 314.105 268.18 312.454 268.18 310.811Z" fill="black"/>
<path d="M231.622 148.801C231.517 150.55 231.605 152.343 231.278 154.047C230.651 157.289 228.125 159.188 224.963 158.887C221.713 158.578 219.778 156.688 219.549 153.464C219.337 150.55 219.337 147.6 219.505 144.676C219.708 141.258 221.907 139.138 225.034 138.953C228.302 138.758 230.872 140.799 231.375 144.226C231.596 145.718 231.411 147.264 231.411 148.792C231.49 148.792 231.552 148.792 231.622 148.801Z" fill="black"/>
<path d="M255.893 68.2505C255.805 69.6549 255.84 71.3153 255.566 72.9228C255.072 75.811 253.226 77.4803 250.32 77.7364C247.237 78.0102 244.676 76.6235 244.234 73.6471C243.687 69.8845 243.669 65.9365 244.164 62.1651C244.579 58.9855 247.193 57.5458 250.417 57.8726C253.508 58.1818 255.275 60.0277 255.637 63.1013C255.831 64.7265 255.814 66.3781 255.893 68.2505Z" fill="black"/>
<path d="M255.902 149.278C255.814 150.797 255.832 152.334 255.611 153.835C255.152 156.9 253.288 158.667 250.206 158.879C246.955 159.099 244.5 157.518 244.094 154.339C243.634 150.788 243.634 147.087 244.085 143.528C244.491 140.348 246.938 138.75 250.188 138.979C253.447 139.209 255.319 141.126 255.646 144.349C255.814 145.975 255.673 147.626 255.673 149.269C255.752 149.278 255.832 149.278 255.902 149.278Z" fill="black"/>
<path d="M60.9659 205.813C60.9659 207.341 61.0895 208.878 60.9394 210.388C60.6038 213.683 58.4928 215.52 55.3839 215.741C52.3986 215.961 49.8195 214.416 49.4133 211.395C48.9187 207.721 48.9363 203.905 49.3515 200.213C49.6871 197.255 52.8137 195.25 55.5605 195.682C58.6607 196.177 60.6921 197.944 60.9659 201.238C61.0895 202.757 60.9835 204.285 60.9835 205.813C60.9747 205.813 60.9747 205.813 60.9659 205.813Z" fill="black"/>
<path d="M109.614 205.654C109.614 207.297 109.765 208.957 109.579 210.574C109.226 213.7 107.159 215.449 104.218 215.723C101.233 215.997 98.5741 214.566 98.159 211.537C97.6467 207.756 97.6555 203.817 98.1148 200.028C98.4858 196.981 101.118 195.479 104.085 195.7C107.186 195.93 109.296 197.767 109.614 201.07C109.756 202.581 109.641 204.117 109.641 205.645C109.632 205.654 109.623 205.654 109.614 205.654Z" fill="black"/>
<path d="M60.9571 286.69C60.9571 288.333 61.1073 289.993 60.9218 291.619C60.5861 294.639 58.2015 296.927 55.3045 296.927C52.2838 296.927 49.7666 295.469 49.3868 292.458C48.9187 288.783 48.9276 284.959 49.3868 281.276C49.7666 278.238 52.3192 276.825 55.3133 276.816C58.2103 276.807 60.595 279.112 60.9395 282.124C61.0984 283.625 60.9571 285.171 60.9571 286.69Z" fill="black"/>
<path d="M73.2432 205.504C73.3403 203.897 73.3227 202.236 73.57 200.62C74.0469 197.493 76.1931 195.85 79.1343 195.691C81.9429 195.532 84.5485 196.928 84.9106 199.807C85.3875 203.702 85.3964 207.747 84.9106 211.642C84.5485 214.513 81.9429 215.908 79.1254 215.741C76.1843 215.573 74.0381 213.93 73.5788 210.803C73.3227 209.072 73.3492 207.306 73.2432 205.504Z" fill="black"/>
<path d="M73.2607 287.043C73.3314 285.33 73.3402 283.802 73.4815 282.292C73.7995 278.988 75.8574 277.266 78.9575 276.824C81.7397 276.427 84.7162 278.441 85.0695 281.461C85.4846 285.03 85.4669 288.713 85.0695 292.29C84.725 295.363 82.2873 296.83 79.2931 296.936C76.4315 297.033 73.9849 294.789 73.5522 291.786C73.3137 290.161 73.3402 288.501 73.2607 287.043Z" fill="black"/>
<path d="M109.614 286.761C109.614 288.404 109.773 290.064 109.579 291.68C109.226 294.683 106.779 296.962 103.909 296.918C100.897 296.874 98.4062 295.416 98.0529 292.369C97.6289 288.686 97.6289 284.871 98.097 281.197C98.4857 278.132 101.082 276.639 104.05 276.842C107.15 277.054 109.279 278.874 109.614 282.177C109.764 283.687 109.641 285.224 109.641 286.752C109.632 286.761 109.623 286.761 109.614 286.761Z" fill="black"/>
<path d="M60.9658 165.238C60.9658 166.766 61.116 168.302 60.9393 169.804C60.5507 173.028 58.6429 174.9 55.3927 175.103C52.1159 175.306 49.7312 173.611 49.2984 170.484C48.8214 167.039 48.8568 163.454 49.2454 159.982C49.5987 156.759 52.4162 154.877 55.5605 155.195C58.8196 155.522 60.639 157.439 60.957 160.663C61.1072 162.173 60.9835 163.71 60.9835 165.229C60.9746 165.238 60.9658 165.238 60.9658 165.238Z" fill="black"/>
<path d="M60.9661 246.698C60.9661 248.102 61.0986 249.524 60.9396 250.911C60.5598 254.135 58.6697 256.025 55.4195 256.245C52.1515 256.457 49.7403 254.797 49.3075 251.661C48.8217 248.217 48.8571 244.631 49.228 241.16C49.5725 237.936 52.3988 236.02 55.5254 236.329C58.7757 236.647 60.6305 238.546 60.9485 241.769C61.1163 243.394 60.9749 245.046 60.9749 246.689C60.9749 246.698 60.9749 246.698 60.9661 246.698Z" fill="black"/>
<path d="M109.649 246.274C109.649 247.802 109.782 249.339 109.623 250.84C109.287 254.073 107.423 255.989 104.164 256.228C100.914 256.466 98.4409 254.876 98.0258 251.714C97.5489 248.155 97.5489 244.445 98.017 240.886C98.4321 237.742 100.879 236.099 104.138 236.329C107.388 236.567 109.269 238.466 109.614 241.699C109.782 243.218 109.649 244.755 109.649 246.274Z" fill="black"/>
<path d="M109.64 165.22C109.64 166.739 109.781 168.285 109.614 169.786C109.243 173.019 107.344 174.9 104.093 175.112C100.825 175.324 98.4054 173.655 98.008 170.511C97.5575 166.951 97.5664 163.233 98.0522 159.682C98.485 156.52 100.976 154.957 104.226 155.213C107.308 155.452 109.181 157.245 109.578 160.309C109.79 161.926 109.614 163.586 109.614 165.229C109.622 165.22 109.631 165.22 109.64 165.22Z" fill="black"/>
<path d="M73.251 246.088C73.3393 244.551 73.3039 242.891 73.5601 241.283C74.0459 238.219 75.9713 236.505 79.0449 236.329C82.1274 236.152 84.5827 237.636 84.9802 240.648C85.466 244.313 85.4925 248.128 85.0244 251.794C84.6181 254.973 82.092 256.493 78.8506 256.228C75.7681 255.972 73.9311 254.179 73.5248 251.105C73.3128 249.489 73.3393 247.837 73.251 246.088Z" fill="black"/>
<path d="M85.6517 165.697C85.4927 167.172 85.5103 169.089 85.0334 170.864C84.2385 173.84 82.0658 175.315 78.9833 175.103C75.9009 174.9 73.8606 173.169 73.5868 170.087C73.3042 166.951 73.3218 163.763 73.5161 160.61C73.7193 157.377 75.6712 155.487 78.9215 155.187C82.1011 154.895 84.5476 156.732 85.2101 160.044C85.5545 161.758 85.5015 163.542 85.6517 165.697Z" fill="black"/>
<path d="M223.356 274.466C223.356 292.431 223.365 310.387 223.347 328.352C223.347 329.756 223.365 331.187 223.127 332.565C222.632 335.462 220.795 337.105 217.88 337.379C214.974 337.652 212.802 336.381 211.821 333.634C211.327 332.238 211.212 330.648 211.212 329.147C211.176 292.873 211.185 256.599 211.203 220.325C211.203 218.929 211.3 217.489 211.68 216.165C212.545 213.17 214.806 211.695 217.792 211.96C220.733 212.217 222.782 213.948 223.171 217.083C223.347 218.479 223.347 219.892 223.347 221.296C223.356 239.014 223.356 256.74 223.356 274.466Z" fill="black"/>
<path d="M174.664 274.466C174.664 292.431 174.664 310.387 174.655 328.352C174.655 329.756 174.69 331.187 174.452 332.565C173.948 335.453 172.129 337.114 169.205 337.379C166.3 337.644 164.127 336.389 163.146 333.643C162.652 332.247 162.546 330.657 162.537 329.156C162.502 292.882 162.511 256.608 162.528 220.333C162.528 218.938 162.616 217.498 162.996 216.173C163.862 213.179 166.123 211.704 169.108 211.969C172.049 212.225 174.098 213.957 174.487 217.083C174.664 218.47 174.655 219.892 174.655 221.296C174.664 239.014 174.664 256.74 174.664 274.466Z" fill="black"/>
<path d="M186.958 274.59C186.958 256.749 186.958 238.899 186.967 221.058C186.967 219.768 186.967 218.47 187.108 217.189C187.453 214.054 189.44 212.296 192.39 211.969C195.384 211.642 197.637 213.091 198.59 216.041C198.979 217.242 199.076 218.576 199.076 219.848C199.103 256.36 199.103 292.864 199.067 329.376C199.067 330.878 198.935 332.477 198.387 333.846C197.31 336.548 195.075 337.714 192.178 337.343C189.255 336.972 187.532 335.241 187.117 332.335C186.932 331.063 186.958 329.756 186.958 328.467C186.958 310.511 186.958 292.546 186.958 274.59Z" fill="black"/>
<path d="M136.173 90.1369C143.813 90.1369 151.444 90.1457 159.084 90.1369C161.795 90.1281 164.242 90.658 165.717 93.2458C167.519 96.399 166.141 100.435 162.723 101.689C161.539 102.122 160.197 102.29 158.934 102.29C143.777 102.325 128.621 102.308 113.465 102.325C110.162 102.325 107.318 101.451 106.161 98.0329C104.774 93.9259 107.68 90.2782 112.564 90.1899C120.434 90.0486 128.303 90.1546 136.182 90.1546C136.173 90.1457 136.173 90.1457 136.173 90.1369Z" fill="black"/>
</svg>
