<?xml version="1.0" encoding="utf-8"?>
<!-- Generator: Adobe Illustrator 24.2.3, SVG Export Plug-In . SVG Version: 6.00 Build 0)  -->
<svg version="1.1" id="iconos" xmlns="http://www.w3.org/2000/svg" xmlns:xlink="http://www.w3.org/1999/xlink" x="0px" y="0px"
	 viewBox="0 0 2122 2122" style="enable-background:new 0 0 2122 2122;" xml:space="preserve">
<style type="text/css">
	.st0{fill:#FFFFFF;stroke:#636263;stroke-width:39.9119;stroke-linecap:round;stroke-linejoin:round;stroke-miterlimit:10;}
	.st1{fill:none;stroke:#636263;stroke-width:39.9119;stroke-linecap:round;stroke-linejoin:round;stroke-miterlimit:10;}
	.st2{fill:#636263;stroke:#636263;stroke-miterlimit:10;}
</style>
<g>
	<g>
		<path class="st0" d="M1475.03,312.67v758.5c0,49.81-28.75,90.14-64.3,90.14H286.9c-35.55,0-64.31-40.33-64.31-90.14v-758.5
			c0-49.81,28.77-90,64.31-90h1123.83c19.12,0,36.44,11.66,48.17,30.33C1468.9,268.98,1475.03,289.76,1475.03,312.67z"/>
	</g>
	<g>
		<g>
			<path class="st0" d="M1117.67,1007.1c0,31.14-25.26,56.4-56.4,56.4c-31.14,0-56.4-25.26-56.4-56.4
				c0-31.15,25.26-56.39,56.4-56.39C1092.41,950.71,1117.67,975.95,1117.67,1007.1z"/>
			<polyline class="st0" points="341.41,361.1 566.82,361.1 608.8,554.68 			"/>
			<polygon class="st0" points="1191.02,528.56 1112.81,798.72 1110.24,807.61 659.83,807.61 603.54,528.56 			"/>
			<polyline class="st1" points="659.83,807.6 680.63,939.78 1091.68,939.78 			"/>
			<path class="st0" d="M793.33,1007.1c0,31.14-25.26,56.4-56.39,56.4c-31.15,0-56.41-25.26-56.41-56.4
				c0-31.15,25.26-56.39,56.41-56.39C768.08,950.71,793.33,975.95,793.33,1007.1z"/>
			<path class="st2" d="M760.77,1007.1c0,13.16-10.67,23.83-23.82,23.83c-13.17,0-23.86-10.67-23.86-23.83
				c0-13.16,10.69-23.83,23.86-23.83C750.1,983.27,760.77,993.94,760.77,1007.1z"/>
			<path class="st2" d="M1085.1,1007.1c0,13.16-10.68,23.83-23.83,23.83c-13.17,0-23.82-10.67-23.82-23.83
				c0-13.16,10.65-23.83,23.82-23.83C1074.42,983.27,1085.1,993.94,1085.1,1007.1z"/>
		</g>
	</g>
	<g>
		<path class="st0" d="M512.54,1049.6l-8.94,9.32v0.07l-291.46,305.72l220.58,1.19c286.51,757.57,974.8,347.48,994.78,335.35
			c0.14-0.08,0.21-0.15,0.29-0.15c-10.94,3.62-539.38,176.81-783.22-335.21h184.27L512.54,1049.6z"/>
	</g>
	<g>
		<g>
			<path class="st0" d="M1548.61,1688.32c24.07,35.68,14.64,84.1-21.03,108.17l0,0c-35.67,24.05-84.12,14.63-108.17-21.05
				l-325.96-483.41c-24.07-35.69-14.65-84.12,21.03-108.17l0,0c35.68-24.07,84.11-14.65,108.18,21.04L1548.61,1688.32z"/>
			<path class="st0" d="M1909.18,1268.87v126.52v194.16c0,82.02-32.37,156.49-85.25,211.76c-57.19,59.93-138.47,97.33-228.65,97.33
				c-50.7,0-98.66-11.87-141.04-32.97c-102.45-50.84-172.79-155.41-172.79-276.08v-320.67"/>
			<path class="st0" d="M1438.54,1283.54l0.01-472.19c-0.01-43.04-34.89-77.92-77.92-77.92s-77.91,34.89-77.91,77.92v472.19"/>
			<path class="st0" d="M1595.32,1283.54v-160.02c0-43.06-34.89-77.94-77.92-77.92c-43.03-0.02-77.91,34.87-77.91,77.9v160.04"/>
			<path class="st0" d="M1751.15,1283.54V1123.5c0-43.03-34.88-77.9-77.92-77.92c-43.03,0-77.9,34.88-77.9,77.94v160.02"/>
			<path class="st0" d="M1908.23,1283.53l0.01-134.44c0-21.55-8.7-40.98-22.83-55.12c-14.05-14.13-33.5-22.84-55.04-22.82
				c-43.03,0-77.95,34.91-77.94,77.94l-0.01,134.45"/>
			<path class="st0" d="M1321.03,1731.21"/>
		</g>
	</g>
</g>
</svg>
