<svg width="92" height="92" viewBox="0 0 92 92" fill="none" xmlns="http://www.w3.org/2000/svg">
<circle cx="46" cy="46" r="46" fill="#DFF5F2"/>
<path d="M38.922 21.4122C38.922 22.9105 38.9183 24.3226 38.9233 25.736C38.9282 27.0133 38.4338 27.5277 37.1715 27.5302C35.6145 27.5327 34.0575 27.5314 32.4182 27.5314C32.4182 27.8136 32.4182 28.0546 32.4182 28.2956C32.4182 36.5974 32.4182 44.9004 32.4182 53.2022C32.4182 54.0513 32.2321 54.3747 31.7402 54.3834C31.2432 54.3934 31.0435 54.0625 31.0435 53.2297C31.0435 44.7606 31.051 36.2927 31.0322 27.8236C31.031 26.9496 31.2969 26.2704 31.9225 25.6611C33.5619 24.0641 35.1725 22.4372 36.7807 20.8091C37.3226 20.261 37.9294 19.9975 38.7185 20C47.0203 20.0162 55.3233 20.0088 63.6251 20.0113C65.1759 20.0113 65.9974 20.8466 65.9987 22.416C65.9999 35.3376 65.9999 48.2591 65.9987 61.1807C65.9987 62.7838 65.1721 63.6191 63.5902 63.6191C56.9527 63.6204 50.3153 63.6191 43.6778 63.6191C43.5118 63.6191 43.2983 63.6778 43.1884 63.5979C42.9599 63.4318 42.6178 63.1796 42.6303 62.9811C42.6453 62.7314 42.9337 62.4555 43.1697 62.2794C43.3058 62.1783 43.5717 62.2469 43.7802 62.2469C50.3353 62.2457 56.8891 62.247 63.4441 62.2457C64.418 62.2457 64.6253 62.0447 64.6253 61.0908C64.6265 48.2317 64.6265 35.3725 64.6253 22.5134C64.6253 21.5832 64.4242 21.3809 63.4903 21.3809C55.4794 21.3797 47.4685 21.3797 39.4576 21.3809C39.2741 21.3834 39.0918 21.4022 38.922 21.4122ZM37.4712 22.3985C36.2313 23.6409 34.9453 24.9282 33.7666 26.1093C34.8966 26.1093 36.2151 26.1093 37.4712 26.1093C37.4712 24.7833 37.4712 23.506 37.4712 22.3985Z" fill="black"/>
<path d="M23.902 57.631C22.5835 57.631 21.275 57.6222 19.9677 57.6359C19.4545 57.6409 18.995 57.5398 19 56.9417C19.005 56.3462 19.4695 56.2463 19.9789 56.2513C21.3311 56.2625 22.6833 56.2775 24.0343 56.245C24.6798 56.2288 25.0119 56.4698 25.203 57.0953C26.092 59.9933 27.0247 62.8775 27.9211 65.7729C28.051 66.1925 28.2233 66.3585 28.689 66.3548C31.4958 66.3298 34.3014 66.3423 37.1556 66.3423C37.8374 64.0187 38.5128 61.7163 39.217 59.3165C38.8862 59.3165 38.6427 59.3165 38.3992 59.3165C35.3215 59.3165 32.2425 59.3178 29.1647 59.314C28.9387 59.314 28.6553 59.3527 28.4992 59.2379C28.297 59.0893 28.0872 58.8046 28.0835 58.5749C28.0797 58.3814 28.3344 58.1329 28.5354 58.0043C28.689 57.9069 28.9387 57.9468 29.146 57.9468C32.6607 57.9443 36.1755 57.9444 39.6915 57.9456C40.7753 57.9456 40.975 58.2215 40.6641 59.2828C39.9225 61.8137 39.1621 64.3383 38.4454 66.8754C38.2656 67.5147 37.9248 67.7332 37.2842 67.7295C34.1853 67.7095 31.0863 67.7082 27.9873 67.7307C27.3356 67.7357 27.0084 67.4822 26.8211 66.8704C25.9559 64.0524 25.0606 61.2431 24.1754 58.4313C24.093 58.1741 24.0006 57.9206 23.902 57.631Z" fill="black"/>
<path d="M48.9016 32.7068C52.4164 32.7068 55.9311 32.7068 59.4459 32.708C59.6531 32.708 59.9066 32.6518 60.0577 32.7492C60.2899 32.8991 60.6171 33.17 60.6021 33.3673C60.5833 33.6132 60.2899 33.8792 60.0527 34.0502C59.9116 34.1514 59.6494 34.0952 59.4421 34.0952C52.4339 34.0964 45.4243 34.0964 38.4161 34.0952C38.25 34.0952 38.0827 34.0964 37.9179 34.079C37.5133 34.0353 37.2536 33.8242 37.2549 33.3985C37.2561 32.9727 37.5146 32.7605 37.9204 32.7218C38.1064 32.703 38.2937 32.7093 38.481 32.7093C41.9558 32.7068 45.4281 32.7068 48.9016 32.7068Z" fill="black"/>
<path d="M48.9048 42.2559C52.4407 42.2559 55.9767 42.2559 59.5139 42.2559C59.7012 42.2559 59.9372 42.1947 60.0646 42.2846C60.2931 42.4457 60.599 42.6942 60.6064 42.9152C60.6139 43.1399 60.3268 43.4046 60.1158 43.5932C60.0196 43.6793 59.7961 43.6319 59.6301 43.6319C52.5157 43.6331 45.4012 43.6331 38.2881 43.6319C38.1021 43.6319 37.8511 43.6793 37.7437 43.5807C37.5377 43.3921 37.2942 43.115 37.293 42.874C37.2917 42.6742 37.5876 42.4232 37.8086 42.2896C37.9635 42.196 38.2144 42.2572 38.4217 42.2572C41.9152 42.2559 45.41 42.2559 48.9048 42.2559Z" fill="black"/>
<path d="M48.9691 48.3927C45.4544 48.3927 41.9384 48.3927 38.4236 48.3927C38.2364 48.3927 37.9991 48.4589 37.873 48.3702C37.632 48.2004 37.2937 47.9407 37.2949 47.7185C37.2949 47.4887 37.6221 47.2228 37.8605 47.0455C37.9829 46.9543 38.2239 47.0205 38.4099 47.0205C45.4407 47.0205 52.4714 47.0205 59.5022 47.0205C59.6894 47.0205 59.9329 46.9556 60.0515 47.048C60.2863 47.2303 60.6071 47.505 60.6009 47.7335C60.5947 47.9557 60.2501 48.2067 60.0041 48.3715C59.8742 48.4589 59.6395 48.3915 59.4522 48.3915C55.9574 48.3927 52.4639 48.3927 48.9691 48.3927Z" fill="black"/>
<path d="M48.9534 38.8711C45.4386 38.8711 41.9226 38.8711 38.4079 38.8698C38.2006 38.8698 37.9309 38.9248 37.8011 38.8186C37.5738 38.6339 37.3041 38.3467 37.2979 38.0957C37.2929 37.9022 37.6413 37.6625 37.8785 37.5164C38.0158 37.4315 38.2431 37.4902 38.4304 37.4902C45.4399 37.4902 52.4494 37.4889 59.4589 37.4902C60.3367 37.4902 60.6339 37.6562 60.6463 38.1507C60.6588 38.6626 60.3142 38.8698 59.4365 38.8698C55.9417 38.8711 52.4469 38.8711 48.9534 38.8711Z" fill="black"/>
<path d="M31.9231 71.5975C31.9231 72.7263 30.9992 73.6677 29.8705 73.6889C28.7155 73.7101 27.7666 72.765 27.7666 71.595C27.7679 70.4513 28.6743 69.5237 29.8105 69.5049C30.9567 69.4837 31.9231 70.4426 31.9231 71.5975ZM30.044 70.8309C29.4572 70.9483 29.1575 71.1281 29.1538 71.5901C29.15 72.0121 29.391 72.2618 29.7918 72.288C30.2251 72.3155 30.5647 72.0595 30.5172 71.635C30.4848 71.3378 30.1926 71.0694 30.044 70.8309Z" fill="black"/>
<path d="M38.0047 71.6263C37.9822 72.7787 36.9883 73.7302 35.8521 73.6865C34.7184 73.6428 33.7994 72.6851 33.8207 71.5664C33.8419 70.4189 34.8408 69.4625 35.9745 69.5037C37.1007 69.5449 38.0259 70.5113 38.0047 71.6263ZM36.0594 70.7835C35.9595 70.7848 35.8609 70.7848 35.761 70.786C35.5749 71.062 35.2703 71.3229 35.2328 71.6176C35.1804 72.0334 35.5287 72.3655 35.9383 72.2681C36.2017 72.2057 36.5613 71.8448 36.5713 71.6063C36.5825 71.3391 36.2454 71.0582 36.0594 70.7835Z" fill="black"/>
</svg>
