<?xml version="1.0" encoding="utf-8"?>
<!-- Generator: Adobe Illustrator 24.2.3, SVG Export Plug-In . SVG Version: 6.00 Build 0)  -->
<svg version="1.1" id="Layer_1" xmlns="http://www.w3.org/2000/svg" xmlns:xlink="http://www.w3.org/1999/xlink" x="0px" y="0px"
	 viewBox="0 0 595.28 841.89" style="enable-background:new 0 0 595.28 841.89;" xml:space="preserve">
<g>
	<path d="M231.55,233.74c0,12-0.03,23.31,0.01,34.63c0.04,10.23-3.92,14.35-14.03,14.37c-12.47,0.02-24.94,0.01-38.07,0.01
		c0,2.26,0,4.19,0,6.12c0,66.49,0,132.99,0,199.48c0,6.8-1.49,9.39-5.43,9.46c-3.98,0.08-5.58-2.57-5.58-9.24
		c0-67.83,0.06-135.65-0.09-203.48c-0.01-7,2.12-12.44,7.13-17.32c13.13-12.79,26.03-25.82,38.91-38.86
		c4.34-4.39,9.2-6.5,15.52-6.48c66.49,0.13,132.99,0.07,199.48,0.09c12.42,0,19,6.69,19.01,19.26c0.01,103.49,0.01,206.98,0,310.47
		c0,12.84-6.62,19.53-19.29,19.53c-53.16,0.01-106.32,0-159.48,0c-1.33,0-3.04,0.47-3.92-0.17c-1.83-1.33-4.57-3.35-4.47-4.94
		c0.12-2,2.43-4.21,4.32-5.62c1.09-0.81,3.22-0.26,4.89-0.26c52.5-0.01,104.99,0,157.49-0.01c7.8,0,9.46-1.61,9.46-9.25
		c0.01-102.99,0.01-205.98,0-308.97c0-7.45-1.61-9.07-9.09-9.07c-64.16-0.01-128.32-0.01-192.48,0
		C234.37,233.51,232.91,233.66,231.55,233.74z M219.93,241.64c-9.93,9.95-20.23,20.26-29.67,29.72c9.05,0,19.61,0,29.67,0
		C219.93,260.74,219.93,250.51,219.93,241.64z"/>
	<path d="M111.25,523.82c-10.56,0-21.04-0.07-31.51,0.04c-4.11,0.04-7.79-0.77-7.75-5.56c0.04-4.77,3.76-5.57,7.84-5.53
		c10.83,0.09,21.66,0.21,32.48-0.05c5.17-0.13,7.83,1.8,9.36,6.81c7.12,23.21,14.59,46.31,21.77,69.5c1.04,3.36,2.42,4.69,6.15,4.66
		c22.48-0.2,44.95-0.1,67.81-0.1c5.46-18.61,10.87-37.05,16.51-56.27c-2.65,0-4.6,0-6.55,0c-24.65,0-49.31,0.01-73.96-0.02
		c-1.81,0-4.08,0.31-5.33-0.61c-1.62-1.19-3.3-3.47-3.33-5.31c-0.03-1.55,2.01-3.54,3.62-4.57c1.23-0.78,3.23-0.46,4.89-0.46
		c28.15-0.02,56.3-0.02,84.46-0.01c8.68,0,10.28,2.21,7.79,10.71c-5.94,20.27-12.03,40.49-17.77,60.81
		c-1.44,5.12-4.17,6.87-9.3,6.84c-24.82-0.16-49.64-0.17-74.46,0.01c-5.22,0.04-7.84-1.99-9.34-6.89
		c-6.93-22.57-14.1-45.07-21.19-67.59C112.78,528.17,112.04,526.14,111.25,523.82z"/>
	<path d="M311.48,324.2c28.15,0,56.3,0,84.45,0.01c1.66,0,3.69-0.45,4.9,0.33c1.86,1.2,4.48,3.37,4.36,4.95
		c-0.15,1.97-2.5,4.1-4.4,5.47c-1.13,0.81-3.23,0.36-4.89,0.36c-56.13,0.01-112.27,0.01-168.4,0c-1.33,0-2.67,0.01-3.99-0.13
		c-3.24-0.35-5.32-2.04-5.31-5.45c0.01-3.41,2.08-5.11,5.33-5.42c1.49-0.15,2.99-0.1,4.49-0.1
		C255.85,324.2,283.66,324.2,311.48,324.2z"/>
	<path d="M311.5,400.68c28.32,0,56.64,0,84.97,0c1.5,0,3.39-0.49,4.41,0.23c1.83,1.29,4.28,3.28,4.34,5.05
		c0.06,1.8-2.24,3.92-3.93,5.43c-0.77,0.69-2.56,0.31-3.89,0.31c-56.98,0.01-113.96,0.01-170.93,0c-1.49,0-3.5,0.38-4.36-0.41
		c-1.65-1.51-3.6-3.73-3.61-5.66c-0.01-1.6,2.36-3.61,4.13-4.68c1.24-0.75,3.25-0.26,4.91-0.26
		C255.52,400.68,283.51,400.68,311.5,400.68z"/>
	<path d="M312.02,449.83c-28.15,0-56.31,0-84.46,0c-1.5,0-3.4,0.53-4.41-0.18c-1.93-1.36-4.64-3.44-4.63-5.22
		c0-1.84,2.62-3.97,4.53-5.39c0.98-0.73,2.91-0.2,4.4-0.2c56.31,0,112.62,0,168.93,0c1.5,0,3.45-0.52,4.4,0.22
		c1.88,1.46,4.45,3.66,4.4,5.49c-0.05,1.78-2.81,3.79-4.78,5.11c-1.04,0.7-2.92,0.16-4.42,0.16
		C367.99,449.83,340.01,449.83,312.02,449.83z"/>
	<path d="M311.88,373.57c-28.15,0-56.31,0-84.46-0.01c-1.66,0-3.82,0.44-4.86-0.41c-1.82-1.48-3.98-3.78-4.03-5.79
		c-0.04-1.55,2.75-3.47,4.65-4.64c1.1-0.68,2.92-0.21,4.42-0.21c56.14,0,112.28-0.01,168.42,0c7.03,0,9.41,1.33,9.51,5.29
		c0.1,4.1-2.66,5.76-9.69,5.76C367.85,373.57,339.86,373.57,311.88,373.57z"/>
	<path d="M175.49,635.68c0,9.04-7.4,16.58-16.44,16.75c-9.25,0.17-16.85-7.4-16.85-16.77c0.01-9.16,7.27-16.59,16.37-16.74
		C167.75,618.75,175.49,626.43,175.49,635.68z M160.44,629.54c-4.7,0.94-7.1,2.38-7.13,6.08c-0.03,3.38,1.9,5.38,5.11,5.59
		c3.47,0.22,6.19-1.83,5.81-5.23C163.97,633.6,161.63,631.45,160.44,629.54z"/>
	<path d="M224.19,635.91c-0.18,9.23-8.14,16.85-17.24,16.5c-9.08-0.35-16.44-8.02-16.27-16.98c0.17-9.19,8.17-16.85,17.25-16.52
		C216.95,619.24,224.36,626.98,224.19,635.91z M208.61,629.16c-0.8,0.01-1.59,0.01-2.39,0.02c-1.49,2.21-3.93,4.3-4.23,6.66
		c-0.42,3.33,2.37,5.99,5.65,5.21c2.11-0.5,4.99-3.39,5.07-5.3C212.8,633.61,210.1,631.36,208.61,629.16z"/>
</g>
</svg>
