<?xml version="1.0" encoding="utf-8"?>
<!-- Generator: Adobe Illustrator 24.2.3, SVG Export Plug-In . SVG Version: 6.00 Build 0)  -->
<svg version="1.1" id="Layer_1" xmlns="http://www.w3.org/2000/svg" xmlns:xlink="http://www.w3.org/1999/xlink" x="0px" y="0px"
	 viewBox="0 0 533 524" style="enable-background:new 0 0 533 524;" xml:space="preserve">
<style type="text/css">
	.st0{fill:#676767;}
</style>
<g>
	<path class="st0" d="M214.15,234.96c-38.43-25.05-55.83-40.38-65.92-58.27c27.58-20.69,58.74-27.44,93.89-23.74
		C229.6,124.12,223.58,95.24,226.29,63c10.4,1.05,20.41,1.23,30.06,3.18c56.72,11.46,96.97,59.69,98.41,117.6
		c0.23,9.22-0.25,18.48-0.71,27.7c-1.44,29.35-17.34,51.05-38.21,69.56c-45.84,40.68-99.07,54.83-159.19,42.79
		c-2.33-0.47-4.57-1.34-7.65-2.26C157.77,282.78,179.36,254.41,214.15,234.96z M344.96,237.82c6.24-19.67,7.83-37.58,6.64-55.85
		c-4.19-64.12-53.03-112.97-114.98-115.38c-6.3-0.25-8.19,1.65-8.18,7.59c0.03,20.88,3.26,41.1,10.07,60.91
		c4.06,11.8,8.37,22.45,23.2,23.04c1.04,0.04,2.07,0.65,3.08,1.05c34.33,13.46,58.38,38.03,75.58,69.99
		C341.58,231.42,342.77,233.69,344.96,237.82z M152.01,318.15c55.04,24.68,163.4-17.05,186.7-70.39c-0.8-0.12-1.59-0.47-2.27-0.32
		c-39.09,9.14-77.15,6.16-114.28-9.29c-2.23-0.93-5.85-0.15-8.17,1.08c-20.46,10.83-36.75,26.26-47.79,46.59
		C160.58,296.16,156.66,307.39,152.01,318.15z M152.23,177.87c17.57,23.22,38.17,40.94,63.3,53.13c2.44,1.18,6.38,0.56,9.16-0.46
		c15.5-5.73,31.39-8.88,47.93-8.01c9.92,0.52,19.82,1.5,30.83,2.36c-2.1-1.72-3.44-2.94-4.9-4c-17.75-12.98-34.35-27.78-44.05-47.4
		c-8.19-16.56-19.9-20.26-35.98-18.39c-0.54,0.06-1.09,0-1.63,0.03C193.53,156.4,172.29,163.61,152.23,177.87z M250.76,159.34
		c19.82,37.3,48.05,64.93,90.8,79.41C321.37,198.5,293.57,170.39,250.76,159.34z M225.89,234.6c36.28,16.48,73.52,18.94,111.67,7.92
		C301.47,224.34,264.39,220.01,225.89,234.6z"/>
	<path class="st0" d="M248.04,349.42c-15.69,16.44-20.56,34.86-14.64,56.03c5.21,18.65,17.23,33.15,29.52,47.44
		c1.77,2.06,3.43,4.23,5.13,6.34c-0.73,0.59-1.46,1.18-2.18,1.77c-5.51-6.42-11.24-12.67-16.47-19.31
		c-10.39-13.19-18.85-27.38-20.71-44.57c-1.75-16.14,2.19-30.65,11.88-43.8c2.35-3.2,3.14-7.54,4.43-10.81
		c2.62-0.97,6.37-1.75,9.48-3.62c14.68-8.83,29.01-18.22,43.77-26.9c17.05-10.03,32.32-22.07,45.3-37.04
		c19.64-22.65,25.46-49.31,23.22-78.43c-0.34-4.41-0.05-8.86-0.05-13.86c13.47,9.7,21.27,31.83,16.77,46.15
		c-1.22,3.88-2.51,7.86-4.51,11.37c-7.97,14.02-7.22,27.93-0.81,42.29c2.74,6.15,4.96,12.76,6.01,19.38
		c1.6,10.03-1.96,14.62-11.82,16.95c-6.09,1.44-10.01,3.45-7.77,11.07c1.38,4.69-1,8.79-6.33,9.57c-4.79,0.7-5.93,2.66-4.33,7.2
		c2.06,5.86-0.33,9.77-6.49,10.41c-6.1,0.64-8.18,4.23-9.09,9.64c-2.53,15.09-9.98,21.38-25.45,21.91
		c-21.64,0.74-37.99-9.67-52.09-24.73C256.56,359.34,252.57,354.57,248.04,349.42z M248.22,346.65
		c12.17,11.15,21.39,21.94,32.81,29.31c8.44,5.44,19.61,8.1,29.82,8.99c15.6,1.35,21.6-4.51,24.58-19.81
		c1.2-6.17,3.59-10.82,10.74-11.22c4.8-0.27,6.11-2.91,4.41-7.25c-2.22-5.66-0.13-8.39,5.61-10.09c2.22-0.66,5.39-4.64,5.02-6.47
		c-1.96-9.5,2.77-13.03,10.96-14.45c6.9-1.2,10.03-5.89,8.95-12.33c-1.06-6.36-2.74-12.87-5.56-18.62
		c-7.52-15.31-8.49-30.14,0.43-45.19c1.92-3.24,3.17-6.95,4.27-10.59c4.27-14.04-0.92-25.6-9.49-36.26
		c-0.78,2.49-0.92,4.84-0.76,7.17c2.28,33.72-8.02,62.43-32.38,86.47c-15.8,15.59-34.74,26.03-53.5,37.07
		C272.72,330.11,261.86,337.77,248.22,346.65z"/>
</g>
</svg>
