<svg width="281" height="300" viewBox="0 0 281 300" fill="none" xmlns="http://www.w3.org/2000/svg">
<path d="M66.7917 166.052C116.117 166.052 164.896 166.052 214.084 166.052C214.084 167.471 214.084 168.734 214.084 169.997C214.084 198.964 214.117 227.923 214.026 256.89C214.019 259.409 214.651 260.399 217.209 260.926C231.448 263.882 245.551 267.509 258.468 274.351C263.944 277.255 268.807 281.364 273.755 285.179C275.22 286.312 276.203 288.219 277.056 289.951C278.58 293.044 276.874 295.876 273.449 296.26C272.701 296.345 271.932 296.293 271.171 296.293C184.063 296.293 96.956 296.293 9.84875 296.293C8.98282 296.293 8.10388 296.358 7.25097 296.241C4.02164 295.804 2.04238 292.751 3.85888 290.127C6.34598 286.533 9.19768 282.952 12.6158 280.296C21.9067 273.075 32.9228 269.24 44.0432 265.881C50.3586 263.973 56.8108 262.476 63.2564 261.076C65.9128 260.503 66.8894 259.579 66.8764 256.675C66.7462 227.819 66.7983 198.964 66.7983 170.108C66.7918 168.838 66.7917 167.562 66.7917 166.052ZM130.617 253.817C137.173 253.817 143.293 253.817 149.628 253.817C149.628 243.757 149.621 233.913 149.634 224.062C149.634 222.031 148.599 221.054 146.646 221.041C142.31 221.015 137.974 221.002 133.638 221.054C131.756 221.074 130.597 221.927 130.604 224.03C130.63 233.881 130.617 243.731 130.617 253.817ZM181.947 240.209C184.115 240.209 186.283 240.216 188.445 240.209C190.568 240.196 191.648 239.109 191.655 236.993C191.668 232.767 191.668 228.542 191.655 224.316C191.648 222.246 190.672 221.041 188.504 221.035C184.167 221.028 179.838 221.009 175.502 221.061C173.587 221.087 172.468 222.096 172.461 224.095C172.448 228.431 172.429 232.761 172.474 237.097C172.494 239.206 173.64 240.242 175.769 240.216C177.826 240.19 179.89 240.209 181.947 240.209ZM191.661 194.549C191.661 192.603 191.635 190.649 191.668 188.703C191.707 186.202 190.743 184.874 188.009 184.959C184.005 185.083 179.994 185.044 175.99 184.972C173.516 184.926 172.416 186.04 172.442 188.481C172.481 192.485 172.474 196.496 172.442 200.5C172.422 202.889 173.399 204.153 175.938 204.042C177.989 203.957 180.053 204.048 182.11 204.022C192.788 203.918 191.603 205.448 191.661 194.549ZM107.998 230.612C107.998 228.555 107.946 226.497 108.011 224.44C108.083 222.135 107.041 221.015 104.736 221.028C100.511 221.048 96.2854 221.009 92.0665 221.054C89.9895 221.074 88.9152 222.077 88.9543 224.297C89.0259 228.412 89.0455 232.526 88.9478 236.641C88.8892 239.356 90.1979 240.287 92.7305 240.235C96.4091 240.157 100.094 240.242 103.779 240.209C107.542 240.177 107.979 239.708 108.005 235.808C108.018 234.076 108.005 232.344 107.998 230.612ZM140.064 204.029C142.121 204.029 144.178 203.97 146.229 204.042C148.729 204.133 149.726 202.994 149.66 200.513C149.556 196.509 149.589 192.505 149.647 188.501C149.687 186.072 148.723 184.861 146.19 184.972C144.139 185.063 142.082 184.978 140.025 184.991C129.165 185.07 130.636 183.741 130.636 194.543C130.636 205.487 129.217 203.905 140.064 204.029ZM107.992 195.428C107.992 192.375 107.992 190.213 107.992 188.045C107.992 186.092 107.126 184.991 105.068 184.998C100.739 185.004 96.4091 185.004 92.0795 184.998C89.9309 184.991 88.9283 186.027 88.9543 188.195C88.9934 192.414 88.9934 196.633 88.9608 200.858C88.9413 203 89.8788 204.081 92.0729 204.042C94.2345 204.009 96.4026 204.061 98.5642 204.035C109.535 203.918 107.855 205.39 107.992 195.428Z" stroke="black" stroke-width="6" stroke-miterlimit="10"/>
<path d="M67.6123 128.302C77.1049 94.2316 98.9224 74.8101 133.937 69.3085C133.937 68.5012 133.937 67.3683 133.937 66.2355C133.937 47.6798 133.931 29.1242 133.937 10.5686C133.937 5.3665 135.298 3.99273 140.448 3.99273C153.255 3.98622 166.055 3.94064 178.861 4.06435C180.3 4.07737 182.599 4.75448 182.944 5.69203C183.406 6.9486 182.735 9.02553 181.876 10.2886C178.881 14.6703 175.599 18.8568 172.207 23.4143C175.15 27.3598 178.243 31.2402 181.003 35.3485C182.11 36.9957 182.501 39.1312 183.211 41.0454C181.264 41.6574 179.324 42.7707 177.37 42.8098C167.396 42.9921 157.415 42.8944 147.18 42.8944C147.18 51.6644 147.18 60.2911 147.18 69.0481C181.752 74.2567 203.758 93.8084 213.232 127.918C217.639 127.918 222.177 127.905 226.715 127.918C231.787 127.931 232.901 129.025 232.914 133.954C232.92 138.186 232.966 142.418 232.894 146.65C232.842 149.814 231.488 151.142 228.343 151.331C227.588 151.376 226.826 151.35 226.064 151.35C168.991 151.35 111.911 151.35 54.8382 151.35C53.8616 151.35 52.8784 151.383 51.9083 151.285C49.3692 151.044 47.9628 149.671 47.9563 147.053C47.9433 142.281 47.9302 137.502 47.9628 132.73C47.9823 129.832 49.4993 128.315 52.4096 128.309C57.5076 128.289 62.599 128.302 67.6123 128.302Z" stroke="black" stroke-width="6" stroke-miterlimit="10"/>
</svg>
