<svg width="327" height="169" viewBox="0 0 327 169" fill="none" xmlns="http://www.w3.org/2000/svg">
<rect width="327" height="169" rx="7" fill="#990D38"/>
<rect x="20" y="20" width="153" height="129" rx="12" fill="white"/>
<path d="M70.8497 38.3494C71.5462 37.2602 72.2427 36.1737 72.9392 35.0845C73.3259 34.054 74.0992 33.4133 75.0552 32.9594C76.0245 32.3294 76.9911 31.6994 77.9604 31.0693C79.6659 30.3272 81.4641 29.916 83.2623 29.4996C85.042 29.4969 86.8137 29.5797 88.5589 29.9588C90.3254 30.4473 91.9488 31.2589 93.5325 32.1719C93.739 32.5056 94.0568 32.6978 94.3958 32.8633C95.7358 33.2798 96.4509 34.4304 97.2666 35.4288C98.1829 36.5528 98.8079 37.8716 99.4091 39.193C99.952 40.5786 100.307 42.0122 100.527 43.4831C100.701 45.3706 100.577 47.2313 100.029 49.052C99.8593 49.7221 99.6156 50.3708 99.3905 51.0249C98.9244 52.0874 98.31 53.0671 97.7433 54.0736C96.6945 55.5873 95.4233 56.8794 93.9218 57.9392C93.1432 58.4918 92.2639 58.8789 91.4668 59.4022C90.4896 59.9521 89.3958 60.1524 88.3444 60.4861C86.6469 61.004 84.9043 60.8037 83.1776 60.8011C81.3979 60.6302 79.7136 60.107 78.0743 59.4075C75.9768 58.2542 74.0833 56.8393 72.5526 54.9679C72.3354 54.6476 72.1103 54.3352 71.8614 54.0362C70.6643 52.3437 69.936 50.4482 69.454 48.4433C69.0171 46.8122 69.0886 45.1517 69.1309 43.4911C69.2581 42.1216 69.6023 40.8028 70.0737 39.5161C70.2379 39.0676 70.3518 38.5737 70.8497 38.3494Z" fill="#990D38"/>
<path d="M67.9577 138.079C66.0059 137.532 64.0541 136.985 62.1023 136.437C60.81 136.029 61.5382 134.884 61.2655 134.101C60.6034 133.148 60.9318 132.062 60.8735 131.031C60.8311 130.289 60.8364 129.542 60.8921 128.797C60.8576 127.043 60.8444 125.286 60.8974 123.532C60.8444 121.861 60.8762 120.192 61.1516 118.54C61.3529 117.323 61.578 116.111 61.999 114.947C62.3989 114.196 62.6903 113.39 63.0928 112.64C64.0409 110.699 65.2988 108.993 66.8878 107.538C67.1288 107.338 67.3513 107.119 67.5737 106.898C69.1256 105.493 70.9371 104.516 72.8227 103.654C74.3296 103.099 75.8788 102.714 77.4731 102.511C82.6638 102.482 87.8518 102.503 93.0399 102.495C93.4265 102.474 93.8132 102.503 94.1919 102.589C94.5971 102.701 95.0049 102.8 95.4207 102.853C96.1198 103.029 96.8269 103.187 97.5102 103.43C98.1061 103.651 98.7019 103.873 99.2687 104.169C100.908 104.954 102.425 105.929 103.755 107.183C104.014 107.45 104.33 107.653 104.594 107.912C105.966 109.41 107.237 110.982 108.133 112.83C108.898 114.442 109.404 116.137 109.777 117.881C109.82 118.099 109.841 118.324 109.865 118.545C110.135 120.192 110.18 121.85 110.124 123.514C110.172 125.257 110.169 126.997 110.129 128.741C110.164 130.476 110.177 132.211 110.124 133.946C110.121 134.571 110.182 135.204 109.957 135.807C109.229 136.795 108.045 136.963 107.028 137.425C106.194 137.801 105.302 138.036 104.443 138.357C102.971 138.768 101.517 139.288 99.952 139.208C99.658 139.174 99.3773 139.192 99.1442 139.409C97.7353 139.611 96.3264 139.812 94.9175 140.015C92.7989 140.175 90.6802 140.338 88.5589 140.498C87.3513 140.484 86.1437 140.471 84.936 140.46C82.6188 140.282 80.3015 140.103 77.9869 139.924C76.774 139.753 75.5584 139.582 74.3455 139.411C72.6797 139.176 70.9927 139.115 69.3534 138.698C68.8502 138.57 68.3073 138.541 67.9577 138.079Z" fill="#990D38"/>
<path d="M75.8337 64.9735C75.651 63.895 74.7823 63.1609 74.4089 62.1411C75.5424 61.5511 76.8189 61.9008 77.9736 61.5377C79.7373 61.5324 81.5011 61.527 83.2622 61.5217C84.9386 61.6418 86.615 61.6498 88.2887 61.5164C89.4116 61.6498 90.5345 61.6258 91.66 61.5431C92.5181 61.6392 93.3761 61.7353 94.2342 61.8314C95.0181 61.9168 95.4815 62.0957 94.8062 62.9847C94.3692 63.5613 93.9137 64.1753 93.821 64.9468C93.829 65.0136 93.8369 65.083 93.8449 65.1497C93.3708 66.9811 92.7776 68.7858 92.5393 70.6759C92.3221 71.3887 91.8189 71.3353 91.2813 71.1351C90.3782 70.796 89.454 70.5504 88.5085 70.3849C87.8888 70.2541 87.2691 70.1233 86.6309 70.15C85.9873 70.1313 85.3464 70.1393 84.7029 70.1446C84.2183 70.15 83.731 70.1633 83.2569 70.2888C81.3449 70.3689 79.6738 71.3113 77.8809 71.8238C76.8878 71.6343 77.1234 70.7293 76.8851 70.0992C76.7739 68.6843 76.4614 67.3148 75.9608 65.9853C75.839 65.6623 75.6695 65.3393 75.8337 64.9735Z" fill="#990D38"/>
<path d="M91.6602 100.445C91.353 100.4 91.1437 100.576 90.9425 100.768C90.7942 100.923 90.6247 101.022 90.4022 100.984C90.3175 101.006 90.2301 101.027 90.1453 101.048C89.9891 101.177 89.8249 101.281 89.613 101.259C87.5765 101.646 85.524 101.831 83.4504 101.764C82.738 101.74 82.068 101.532 81.4165 101.251C81.1225 101.278 80.8445 101.251 80.6141 101.035C80.3201 101.051 80.1109 100.886 79.9096 100.701C79.1575 100.6 78.4689 100.333 77.8519 99.8845C76.6893 98.9608 75.4154 98.1599 74.5309 96.9185C73.8662 96.0829 73.2094 95.2447 72.648 94.3317C72.1713 93.3466 71.7978 92.3214 71.4853 91.2723C71.0404 89.6037 70.8683 87.9112 70.9981 86.1866C71.2496 84.3632 71.7714 82.6146 72.407 80.8954C73.7073 78.797 75.3254 76.987 77.2851 75.4894C77.5923 75.2357 77.9366 75.0355 78.2836 74.8406C79.9123 73.9196 81.639 73.2709 83.4822 72.9532C85.1082 72.8277 86.7343 72.7156 88.3392 73.1321C92.7698 74.1973 96.1437 76.6854 98.3551 80.7272C99.3191 82.4171 99.7216 84.2805 100.021 86.1759C100.129 87.8978 100.069 89.6011 99.5415 91.2616C99.4488 91.7394 99.2926 92.1986 99.1231 92.6551C98.4425 94.1768 97.6586 95.6344 96.5278 96.8758C95.8604 97.8823 94.8461 98.5203 93.9721 99.3105C93.2862 99.8631 92.5606 100.336 91.6602 100.445Z" fill="#990D38"/>
<path d="M99.4091 101.041C98.7841 100.99 98.5087 100.274 97.5447 100.451C98.6411 99.2946 99.3694 98.3496 99.899 97.271C99.7957 96.9293 99.9838 96.673 100.167 96.4301C101.348 94.8417 101.901 93.0023 102.28 91.0908C102.399 90.5275 102.447 89.9536 102.542 89.3903C102.796 87.8686 103.032 87.663 104.579 87.5509C106.295 87.4788 108.008 87.5269 109.724 87.5429C111.432 87.5028 113.138 87.4948 114.843 87.5482C116.623 87.7618 118.432 87.8045 120.159 88.3758C122.126 89.0886 124.025 89.9455 125.747 91.1629C129.449 94.0221 131.997 97.6528 133.061 102.279C133.217 103.096 133.448 103.9 133.419 104.741C133.511 109.57 133.397 114.397 133.416 119.226C133.419 119.8 133.456 120.379 133.334 120.945C132.815 122.019 131.695 122.128 130.776 122.561C129.865 122.806 128.999 123.188 128.119 123.527C127.283 123.834 126.419 124.058 125.558 124.293C123.713 124.704 121.869 125.113 120.002 125.406C118.842 125.54 117.685 125.676 116.525 125.801C116.006 125.858 115.492 125.962 115.037 125.591C114.775 125.596 114.51 125.601 114.248 125.609C113.4 125.7 113.064 125.43 113.077 124.461C113.109 122.133 113.241 119.789 112.688 117.491C112.553 115.729 111.983 114.092 111.263 112.499C110.426 111.764 110.114 110.745 109.783 109.736C109.327 108.745 108.705 107.878 107.908 107.138C106.573 106.374 105.617 105.213 104.695 104.017C103.805 103.155 102.786 102.496 101.644 102.028C100.897 101.695 99.9944 101.729 99.4091 101.041Z" fill="#990D38"/>
<path d="M72.6639 99.4172C72.6427 99.8043 73.6067 99.9378 72.934 100.49C72.0097 101.035 71.1543 101.751 69.9864 101.686C69.0463 102.071 68.1697 102.57 67.3805 103.213C65.6379 104.348 64.1098 105.715 62.8916 107.418C62.5261 107.698 62.2454 108.046 62.0786 108.481C61.3794 109.954 60.7015 111.444 59.7057 112.752C58.9536 114.25 58.4875 115.827 58.3445 117.504C57.836 119.64 58.0081 121.815 57.9393 123.978C57.9234 124.506 57.8704 125.032 57.836 125.558C57.4838 125.556 57.1342 125.553 56.782 125.55C55.0261 125.353 53.2703 125.155 51.5145 124.958C50.0261 124.704 48.5378 124.448 47.0494 124.194C45.2936 123.714 43.5325 123.249 41.7051 123.121C41.4827 123.132 41.2708 123.086 41.059 123.022C39.9334 122.817 38.8423 122.472 37.7486 122.147C36.3132 121.719 36.0695 121.391 36.0272 119.893C36.0086 119.229 36.0166 118.567 36.0166 117.902C35.9901 116.185 35.9954 114.469 36.0113 112.752C35.998 111.022 35.9874 109.29 36.0139 107.562C35.9689 105.774 36.1861 104.014 36.5568 102.271C37.0547 100.344 37.6559 98.4535 38.7602 96.7716C39.3084 95.8426 39.9255 94.9616 40.6749 94.1821C41.5145 92.898 42.7989 92.1078 43.9456 91.1627C44.7586 90.5327 45.6591 90.0441 46.5357 89.5129C48.1882 88.7307 49.9255 88.2261 51.7078 87.855C53.4186 87.6228 55.1294 87.4359 56.8614 87.54C58.5934 87.4786 60.3227 87.5213 62.0521 87.5373C63.7708 87.5293 65.4922 87.4412 67.211 87.5774C68.0505 87.6895 68.3206 88.3142 68.453 89.0323C68.5775 89.7131 68.5828 90.4152 68.7444 91.0906C68.9933 93.0448 69.9176 94.7374 70.7889 96.4513C71.3026 97.5111 72.2083 98.32 72.6639 99.4172Z" fill="#990D38"/>
<path d="M65.9821 59.3967C68.6993 60.6728 70.8524 62.627 72.6506 65.0109C74.1469 66.2443 74.2978 68.1051 74.854 69.7789C74.8778 70.0886 74.9573 70.3849 75.0288 70.6839C75.5081 72.6648 74.8513 74.2105 73.2623 75.4038C73.1273 75.548 72.9816 75.6815 72.8386 75.8176C71.5436 77.2619 70.4551 78.845 69.7189 80.6577C69.2872 81.7229 68.8873 82.7961 68.6887 83.936C68.5695 84.6168 68.2729 85.1934 67.6055 85.4977C67.2454 85.6793 66.8852 85.8635 66.5303 86.0557C65.3201 86.5896 64.0674 86.9821 62.7591 87.1983C60.8841 87.4332 59.0197 87.4306 57.1765 86.9447C56.5277 86.7418 55.8841 86.5256 55.2459 86.2933C53.8608 85.6152 52.444 84.9878 51.3317 83.8586C50.177 83.0176 49.364 81.8644 48.5245 80.7324C47.0785 78.8637 46.6336 76.6159 46.1622 74.376C46.0483 73.2681 46.043 72.1629 46.1569 71.055C46.5647 68.93 47.1368 66.8637 48.2914 65.0056C49.2025 63.7669 50.1214 62.5308 51.337 61.5618C52.5128 60.5259 53.8396 59.7411 55.2697 59.1137C55.998 58.8467 56.7316 58.6011 57.4758 58.3876C59.1945 58.0886 60.908 57.9551 62.6002 58.5264C63.7311 58.8227 64.8566 59.1084 65.9821 59.3967Z" fill="#990D38"/>
<path d="M97.0336 64.9842C97.8545 64.0178 98.6755 63.0514 99.4965 62.0823C100.331 60.905 101.358 60.0267 102.847 59.8478C103.379 59.5996 103.911 59.3486 104.444 59.1003C105.188 58.4329 106.133 58.3795 107.047 58.2194C109.494 58.2167 111.936 58.0885 114.293 59.0843C116.787 60.1388 118.826 61.7219 120.46 63.8683C120.672 64.1379 120.887 64.4102 121.088 64.6906C122.251 66.3564 122.886 68.2358 123.297 70.2087C123.673 71.952 123.62 73.6952 123.265 75.4332C122.81 77.3073 122.224 79.1333 121.123 80.7458C120.911 81.0074 120.678 81.2503 120.476 81.52C117.817 84.8864 114.494 87.0328 110.114 87.2303C109.849 87.2437 109.597 87.3264 109.34 87.3798C107.698 87.3611 106.091 87.1209 104.515 86.651C103.977 86.4695 103.458 86.2532 103.003 85.9062C102.386 85.2388 102.436 84.3471 102.243 83.5409C102.023 82.6332 101.729 81.7522 101.374 80.8926C100.895 79.2961 99.9282 77.98 98.9721 76.6559C98.6278 76.1994 98.2041 75.8176 97.7936 75.4278C97.2852 74.934 96.8588 74.3146 96.2417 73.9862C94.7004 73.1693 94.3349 71.8959 94.6342 70.2968C94.9599 68.8232 95.389 67.3816 96.1172 66.0494C96.3476 65.6329 96.496 65.1391 97.0336 64.9842Z" fill="#990D38"/>
<path d="M120.598 50.2959C120.95 49.8554 121.305 49.4149 121.657 48.9744C122.953 47.5488 124.486 46.4356 126.149 45.4905C127.59 44.8311 129.099 44.404 130.654 44.1237C132.621 44.0462 134.573 44.1157 136.488 44.6416C138.178 45.2262 139.735 46.0618 141.17 47.1323C141.808 47.7517 142.449 48.3737 143.088 48.9931C144.07 49.3775 144.451 50.3039 144.915 51.1261C145.365 51.9243 145.797 52.7466 146.107 53.6196C147.349 57.3224 147.129 60.9477 145.54 64.4983C144.51 66.4792 143.249 68.2812 141.456 69.6534C141.213 69.8696 140.972 70.0886 140.709 70.2808C139.271 71.2632 137.741 72.0534 136.059 72.5313C134.557 72.8116 133.072 73.2254 131.52 72.9851C130.5 72.7155 129.438 72.7555 128.411 72.4806C126.803 72.0507 125.699 71.2552 125.686 69.4265C125.627 69.2289 125.588 69.0287 125.551 68.8285C125.278 67.2988 124.565 65.9453 123.871 64.5864C123.04 62.9152 121.774 61.5964 120.439 60.3364C120.045 59.9119 119.621 59.5275 119.123 59.2258C117.571 57.9764 117.463 56.3426 118.771 54.0414C119.38 52.792 119.989 51.5426 120.598 50.2959Z" fill="#990D38"/>
<path d="M130.921 73.5271C132.688 73.6366 134.454 73.6472 136.218 73.5271C137.979 73.6259 139.737 73.7247 141.499 73.8208C143.122 74.2506 144.724 74.7391 146.276 75.3825C146.599 75.5427 146.989 75.4786 147.296 75.6895C149.073 76.6906 150.707 77.8733 152.02 79.4644C152.359 79.9129 152.796 80.2759 153.127 80.7325C154.327 82.393 155.243 84.2057 155.964 86.1251C156.631 87.8817 156.687 89.7505 156.962 91.5792C157.026 93.2984 156.991 95.015 156.986 96.7343C156.999 98.4775 157.01 100.221 156.983 101.964C156.997 103.107 156.994 104.252 156.986 105.395C156.981 106.233 156.771 106.964 155.966 107.386C154.626 108.032 153.223 108.515 151.816 108.999C150.148 109.594 148.448 110.074 146.708 110.411C144.433 110.987 142.089 111.081 139.785 111.447C138.665 111.497 137.521 111.842 136.467 111.15C136.385 108.988 136.681 106.809 136.255 104.658C136.295 103.774 136.176 102.912 135.895 102.076C135.537 100.085 134.875 98.2079 133.824 96.478C132.629 95.1992 131.716 93.7202 130.842 92.2119C130.588 91.7874 130.267 91.427 129.846 91.1627C128.376 90.3859 127.124 89.3233 125.937 88.1674C124.526 86.9954 122.717 86.6377 121.146 85.7941C122.542 84.2724 123.89 82.716 124.65 80.7485C125.249 79.7447 125.603 78.6528 125.842 77.5129C125.821 76.8828 125.744 76.2448 126.17 75.6975C126.665 73.6019 126.665 73.6072 128.94 73.5938C129.608 73.5912 130.264 73.5511 130.921 73.5271Z" fill="#990D38"/>
<path d="M208.775 58.7777V78H205.488V58.7777H208.775ZM214.808 58.7777V61.4181H199.507V58.7777H214.808ZM214.107 71.0161V70.7124C214.107 69.6827 214.257 68.7277 214.556 67.8476C214.855 66.9586 215.287 66.1885 215.85 65.5372C216.422 64.8771 217.117 64.3666 217.936 64.0058C218.763 63.6361 219.696 63.4513 220.735 63.4513C221.782 63.4513 222.715 63.6361 223.533 64.0058C224.361 64.3666 225.061 64.8771 225.633 65.5372C226.205 66.1885 226.64 66.9586 226.94 67.8476C227.239 68.7277 227.388 69.6827 227.388 70.7124V71.0161C227.388 72.0458 227.239 73.0008 226.94 73.8809C226.64 74.7611 226.205 75.5312 225.633 76.1913C225.061 76.8426 224.365 77.3531 223.547 77.7228C222.728 78.0836 221.8 78.264 220.761 78.264C219.714 78.264 218.776 78.0836 217.949 77.7228C217.13 77.3531 216.435 76.8426 215.863 76.1913C215.291 75.5312 214.855 74.7611 214.556 73.8809C214.257 73.0008 214.107 72.0458 214.107 71.0161ZM217.289 70.7124V71.0161C217.289 71.6586 217.355 72.2659 217.487 72.838C217.619 73.4101 217.826 73.9117 218.107 74.343C218.389 74.7743 218.75 75.1131 219.19 75.3596C219.63 75.606 220.154 75.7292 220.761 75.7292C221.351 75.7292 221.861 75.606 222.292 75.3596C222.733 75.1131 223.093 74.7743 223.375 74.343C223.657 73.9117 223.864 73.4101 223.996 72.838C224.136 72.2659 224.207 71.6586 224.207 71.0161V70.7124C224.207 70.0787 224.136 69.4802 223.996 68.9169C223.864 68.3449 223.652 67.8388 223.362 67.3987C223.08 66.9586 222.719 66.6154 222.279 66.3689C221.848 66.1137 221.333 65.9861 220.735 65.9861C220.136 65.9861 219.617 66.1137 219.177 66.3689C218.745 66.6154 218.389 66.9586 218.107 67.3987C217.826 67.8388 217.619 68.3449 217.487 68.9169C217.355 69.4802 217.289 70.0787 217.289 70.7124ZM232.787 66.4614V83.4921H229.605V63.7153H232.536L232.787 66.4614ZM242.094 70.7256V71.0029C242.094 72.0414 241.971 73.0052 241.725 73.8941C241.487 74.7743 241.13 75.5444 240.655 76.2045C240.189 76.8558 239.612 77.3619 238.926 77.7228C238.239 78.0836 237.447 78.264 236.549 78.264C235.66 78.264 234.881 78.1012 234.213 77.7756C233.552 77.4411 232.994 76.9702 232.536 76.3629C232.078 75.7556 231.709 75.0427 231.427 74.2242C231.154 73.3969 230.96 72.4903 230.846 71.5046V70.4352C230.96 69.3878 231.154 68.4373 231.427 67.5835C231.709 66.7298 232.078 65.9949 232.536 65.3788C232.994 64.7627 233.552 64.2874 234.213 63.9529C234.873 63.6185 235.643 63.4513 236.523 63.4513C237.421 63.4513 238.217 63.6273 238.912 63.9794C239.608 64.3226 240.193 64.8155 240.668 65.458C241.144 66.0917 241.5 66.8574 241.738 67.7552C241.975 68.6441 242.094 69.6343 242.094 70.7256ZM238.912 71.0029V70.7256C238.912 70.0655 238.851 69.4538 238.728 68.8905C238.604 68.3184 238.411 67.8168 238.147 67.3855C237.883 66.9542 237.544 66.6198 237.13 66.3821C236.725 66.1357 236.237 66.0125 235.665 66.0125C235.101 66.0125 234.617 66.1093 234.213 66.3029C233.808 66.4878 233.469 66.7474 233.196 67.0819C232.923 67.4163 232.712 67.808 232.562 68.2568C232.413 68.6969 232.307 69.1766 232.245 69.6959V72.2571C232.351 72.8908 232.531 73.4717 232.787 73.9998C233.042 74.5278 233.403 74.9503 233.869 75.2672C234.345 75.5752 234.952 75.7292 235.691 75.7292C236.263 75.7292 236.752 75.606 237.157 75.3596C237.561 75.1131 237.892 74.7743 238.147 74.343C238.411 73.9029 238.604 73.3969 238.728 72.8248C238.851 72.2527 238.912 71.6454 238.912 71.0029ZM254.237 58.7777V78H250.924V58.7777H254.237ZM262.079 67.1875V69.8147H253.392V67.1875H262.079ZM263.175 58.7777V61.4181H253.392V58.7777H263.175ZM268.441 63.7153V78H265.246V63.7153H268.441ZM265.035 59.9659C265.035 59.4818 265.194 59.0814 265.51 58.7645C265.836 58.4389 266.285 58.276 266.857 58.276C267.42 58.276 267.865 58.4389 268.19 58.7645C268.516 59.0814 268.679 59.4818 268.679 59.9659C268.679 60.4412 268.516 60.8373 268.19 61.1541C267.865 61.471 267.42 61.6294 266.857 61.6294C266.285 61.6294 265.836 61.471 265.51 61.1541C265.194 60.8373 265.035 60.4412 265.035 59.9659ZM276.11 75.4784L279.609 63.7153H282.909L277.945 78H275.886L276.11 75.4784ZM273.43 63.7153L276.995 75.5312L277.166 78H275.107L270.117 63.7153H273.43ZM290.526 78.264C289.469 78.264 288.514 78.0924 287.661 77.7492C286.816 77.3971 286.094 76.9086 285.496 76.2837C284.906 75.6588 284.453 74.9239 284.136 74.079C283.819 73.234 283.66 72.3231 283.66 71.3461V70.818C283.66 69.7003 283.823 68.6881 284.149 67.7816C284.475 66.875 284.928 66.1005 285.509 65.458C286.09 64.8067 286.776 64.3094 287.568 63.9662C288.36 63.6229 289.219 63.4513 290.143 63.4513C291.164 63.4513 292.057 63.6229 292.823 63.9662C293.588 64.3094 294.222 64.7935 294.724 65.4184C295.234 66.0345 295.613 66.7694 295.859 67.6231C296.114 68.4769 296.242 69.4186 296.242 70.4484V71.8082H285.205V69.5242H293.1V69.2734C293.082 68.7013 292.968 68.1644 292.757 67.6627C292.554 67.1611 292.242 66.7562 291.819 66.4481C291.397 66.1401 290.834 65.9861 290.13 65.9861C289.601 65.9861 289.131 66.1005 288.717 66.3293C288.312 66.5494 287.973 66.8706 287.7 67.2931C287.428 67.7156 287.216 68.226 287.067 68.8245C286.926 69.4142 286.855 70.0787 286.855 70.818V71.3461C286.855 71.971 286.939 72.5519 287.106 73.0888C287.282 73.6169 287.538 74.079 287.872 74.475C288.206 74.8711 288.611 75.1835 289.087 75.4124C289.562 75.6324 290.103 75.7424 290.71 75.7424C291.476 75.7424 292.158 75.5884 292.757 75.2804C293.355 74.9723 293.875 74.5366 294.315 73.9734L295.991 75.5972C295.683 76.0461 295.283 76.4774 294.79 76.891C294.297 77.2959 293.694 77.6259 292.981 77.8812C292.277 78.1364 291.459 78.264 290.526 78.264ZM203.798 103.742H207.098C206.993 105.001 206.641 106.123 206.042 107.109C205.444 108.086 204.603 108.856 203.52 109.419C202.438 109.982 201.122 110.264 199.573 110.264C198.385 110.264 197.315 110.053 196.365 109.63C195.414 109.199 194.6 108.592 193.923 107.808C193.245 107.016 192.726 106.061 192.365 104.944C192.013 103.826 191.837 102.576 191.837 101.194V99.5967C191.837 98.2149 192.017 96.9651 192.378 95.8473C192.748 94.7296 193.276 93.7746 193.962 92.9825C194.649 92.1815 195.472 91.5698 196.431 91.1474C197.399 90.7249 198.486 90.5137 199.692 90.5137C201.223 90.5137 202.517 90.7953 203.573 91.3586C204.629 91.9219 205.448 92.7008 206.029 93.6954C206.619 94.6899 206.979 95.8297 207.111 97.1147H203.811C203.723 96.2874 203.529 95.5789 203.23 94.9892C202.94 94.3995 202.508 93.9506 201.936 93.6426C201.364 93.3257 200.616 93.1673 199.692 93.1673C198.935 93.1673 198.275 93.3081 197.712 93.5898C197.148 93.8714 196.677 94.2851 196.299 94.8308C195.92 95.3765 195.634 96.0498 195.441 96.8507C195.256 97.6428 195.164 98.5494 195.164 99.5703V101.194C195.164 102.162 195.247 103.042 195.414 103.835C195.59 104.618 195.854 105.291 196.207 105.855C196.567 106.418 197.025 106.853 197.58 107.162C198.134 107.47 198.799 107.624 199.573 107.624C200.515 107.624 201.276 107.474 201.857 107.175C202.447 106.875 202.891 106.44 203.19 105.868C203.498 105.287 203.701 104.578 203.798 103.742ZM217.923 106.633V95.7153H221.117V110H218.107L217.923 106.633ZM218.371 103.663L219.441 103.637C219.441 104.596 219.335 105.48 219.124 106.29C218.913 107.091 218.587 107.791 218.147 108.389C217.707 108.979 217.144 109.441 216.457 109.776C215.771 110.101 214.948 110.264 213.988 110.264C213.293 110.264 212.655 110.163 212.074 109.96C211.493 109.758 210.991 109.446 210.569 109.023C210.155 108.601 209.834 108.05 209.605 107.373C209.376 106.695 209.262 105.885 209.262 104.944V95.7153H212.444V104.97C212.444 105.489 212.505 105.925 212.629 106.277C212.752 106.62 212.919 106.898 213.13 107.109C213.341 107.32 213.588 107.47 213.87 107.558C214.151 107.646 214.45 107.69 214.767 107.69C215.674 107.69 216.387 107.514 216.906 107.162C217.434 106.801 217.808 106.317 218.028 105.709C218.257 105.102 218.371 104.42 218.371 103.663ZM231.929 106.132C231.929 105.815 231.849 105.529 231.691 105.274C231.533 105.01 231.229 104.772 230.78 104.561C230.34 104.349 229.689 104.156 228.826 103.98C228.069 103.813 227.374 103.615 226.74 103.386C226.115 103.148 225.578 102.862 225.129 102.528C224.681 102.193 224.333 101.797 224.087 101.339C223.84 100.882 223.717 100.354 223.717 99.7552C223.717 99.1743 223.844 98.6242 224.1 98.1049C224.355 97.5856 224.72 97.1279 225.195 96.7319C225.671 96.3358 226.247 96.0234 226.925 95.7945C227.611 95.5657 228.377 95.4513 229.222 95.4513C230.419 95.4513 231.444 95.6537 232.298 96.0586C233.161 96.4546 233.821 96.9959 234.279 97.6824C234.736 98.3601 234.965 99.1259 234.965 99.9796H231.783C231.783 99.6011 231.687 99.2491 231.493 98.9234C231.308 98.589 231.026 98.3205 230.648 98.1181C230.27 97.9069 229.794 97.8012 229.222 97.8012C228.676 97.8012 228.223 97.8893 227.862 98.0653C227.51 98.2325 227.246 98.4526 227.07 98.7254C226.903 98.9982 226.819 99.2975 226.819 99.6231C226.819 99.8608 226.863 100.076 226.951 100.27C227.048 100.455 227.207 100.626 227.427 100.785C227.647 100.935 227.946 101.075 228.324 101.207C228.712 101.339 229.196 101.467 229.777 101.59C230.868 101.819 231.805 102.114 232.589 102.475C233.381 102.827 233.988 103.285 234.411 103.848C234.833 104.402 235.044 105.106 235.044 105.96C235.044 106.594 234.908 107.175 234.635 107.703C234.371 108.222 233.984 108.675 233.473 109.063C232.963 109.441 232.351 109.736 231.638 109.947C230.934 110.158 230.142 110.264 229.262 110.264C227.968 110.264 226.872 110.035 225.974 109.578C225.077 109.111 224.395 108.517 223.928 107.795C223.47 107.065 223.242 106.308 223.242 105.524H226.318C226.353 106.114 226.516 106.585 226.806 106.937C227.105 107.28 227.475 107.531 227.915 107.69C228.364 107.839 228.826 107.914 229.301 107.914C229.873 107.914 230.353 107.839 230.74 107.69C231.128 107.531 231.422 107.32 231.625 107.056C231.827 106.783 231.929 106.475 231.929 106.132ZM243.915 95.7153V98.0389H235.861V95.7153H243.915ZM238.185 92.2168H241.367V106.053C241.367 106.493 241.428 106.831 241.551 107.069C241.684 107.298 241.864 107.452 242.093 107.531C242.322 107.61 242.59 107.65 242.898 107.65C243.118 107.65 243.329 107.637 243.532 107.61C243.734 107.584 243.897 107.558 244.02 107.531L244.033 109.96C243.769 110.04 243.461 110.11 243.109 110.172C242.766 110.233 242.37 110.264 241.921 110.264C241.191 110.264 240.544 110.136 239.98 109.881C239.417 109.617 238.977 109.19 238.66 108.601C238.343 108.011 238.185 107.228 238.185 106.251V92.2168ZM244.983 103.016V102.712C244.983 101.683 245.132 100.728 245.431 99.8476C245.731 98.9586 246.162 98.1885 246.725 97.5372C247.297 96.8771 247.993 96.3666 248.811 96.0058C249.639 95.6361 250.571 95.4513 251.61 95.4513C252.657 95.4513 253.59 95.6361 254.409 96.0058C255.236 96.3666 255.936 96.8771 256.508 97.5372C257.08 98.1885 257.516 98.9586 257.815 99.8476C258.114 100.728 258.264 101.683 258.264 102.712V103.016C258.264 104.046 258.114 105.001 257.815 105.881C257.516 106.761 257.08 107.531 256.508 108.191C255.936 108.843 255.241 109.353 254.422 109.723C253.604 110.084 252.675 110.264 251.636 110.264C250.589 110.264 249.652 110.084 248.824 109.723C248.006 109.353 247.311 108.843 246.738 108.191C246.166 107.531 245.731 106.761 245.431 105.881C245.132 105.001 244.983 104.046 244.983 103.016ZM248.164 102.712V103.016C248.164 103.659 248.23 104.266 248.362 104.838C248.494 105.41 248.701 105.912 248.983 106.343C249.264 106.774 249.625 107.113 250.065 107.36C250.505 107.606 251.029 107.729 251.636 107.729C252.226 107.729 252.737 107.606 253.168 107.36C253.608 107.113 253.969 106.774 254.25 106.343C254.532 105.912 254.739 105.41 254.871 104.838C255.012 104.266 255.082 103.659 255.082 103.016V102.712C255.082 102.079 255.012 101.48 254.871 100.917C254.739 100.345 254.528 99.8388 254.237 99.3987C253.956 98.9586 253.595 98.6154 253.155 98.3689C252.723 98.1137 252.209 97.9861 251.61 97.9861C251.012 97.9861 250.492 98.1137 250.052 98.3689C249.621 98.6154 249.264 98.9586 248.983 99.3987C248.701 99.8388 248.494 100.345 248.362 100.917C248.23 101.48 248.164 102.079 248.164 102.712ZM263.649 98.6198V110H260.467V95.7153H263.464L263.649 98.6198ZM263.134 102.33L262.052 102.316C262.052 101.331 262.175 100.42 262.421 99.5835C262.668 98.7474 263.028 98.0213 263.504 97.4052C263.979 96.7803 264.569 96.3006 265.273 95.9662C265.986 95.6229 266.809 95.4513 267.742 95.4513C268.393 95.4513 268.987 95.5481 269.524 95.7417C270.07 95.9265 270.54 96.2214 270.937 96.6263C271.341 97.0311 271.649 97.5504 271.861 98.1841C272.081 98.8178 272.191 99.5835 272.191 100.481V110H269.009V100.759C269.009 100.063 268.903 99.5175 268.692 99.1215C268.49 98.7254 268.195 98.4437 267.808 98.2765C267.429 98.1005 266.976 98.0125 266.448 98.0125C265.849 98.0125 265.339 98.1269 264.916 98.3557C264.503 98.5846 264.164 98.897 263.9 99.2931C263.636 99.6891 263.442 100.147 263.319 100.666C263.196 101.185 263.134 101.74 263.134 102.33ZM271.993 101.485L270.501 101.815C270.501 100.952 270.62 100.138 270.857 99.3723C271.104 98.5978 271.46 97.9201 271.927 97.3392C272.402 96.7495 272.987 96.2874 273.683 95.9529C274.378 95.6185 275.174 95.4513 276.072 95.4513C276.803 95.4513 277.454 95.5525 278.026 95.7549C278.607 95.9485 279.1 96.2566 279.505 96.6791C279.91 97.1015 280.218 97.6516 280.429 98.3293C280.64 98.9982 280.746 99.808 280.746 100.759V110H277.551V100.745C277.551 100.024 277.445 99.4647 277.234 99.0686C277.032 98.6726 276.741 98.3997 276.363 98.2501C275.984 98.0917 275.531 98.0125 275.003 98.0125C274.51 98.0125 274.074 98.1049 273.696 98.2897C273.326 98.4658 273.014 98.7166 272.758 99.0422C272.503 99.3591 272.31 99.7244 272.178 100.138C272.054 100.552 271.993 101.001 271.993 101.485ZM289.854 110.264C288.798 110.264 287.843 110.092 286.989 109.749C286.144 109.397 285.422 108.909 284.824 108.284C284.234 107.659 283.781 106.924 283.464 106.079C283.147 105.234 282.989 104.323 282.989 103.346V102.818C282.989 101.7 283.151 100.688 283.477 99.7816C283.803 98.875 284.256 98.1005 284.837 97.458C285.418 96.8067 286.104 96.3094 286.896 95.9662C287.689 95.6229 288.547 95.4513 289.471 95.4513C290.492 95.4513 291.385 95.6229 292.151 95.9662C292.917 96.3094 293.55 96.7935 294.052 97.4184C294.562 98.0345 294.941 98.7694 295.187 99.6231C295.443 100.477 295.57 101.419 295.57 102.448V103.808H284.533V101.524H292.428V101.273C292.411 100.701 292.296 100.164 292.085 99.6627C291.882 99.1611 291.57 98.7562 291.148 98.4481C290.725 98.1401 290.162 97.9861 289.458 97.9861C288.93 97.9861 288.459 98.1005 288.045 98.3293C287.64 98.5494 287.301 98.8706 287.028 99.2931C286.756 99.7156 286.544 100.226 286.395 100.825C286.254 101.414 286.184 102.079 286.184 102.818V103.346C286.184 103.971 286.267 104.552 286.434 105.089C286.61 105.617 286.866 106.079 287.2 106.475C287.535 106.871 287.939 107.184 288.415 107.412C288.89 107.632 289.431 107.742 290.039 107.742C290.804 107.742 291.486 107.588 292.085 107.28C292.683 106.972 293.203 106.537 293.643 105.973L295.319 107.597C295.011 108.046 294.611 108.477 294.118 108.891C293.625 109.296 293.022 109.626 292.309 109.881C291.605 110.136 290.787 110.264 289.854 110.264ZM300.784 98.4349V110H297.602V95.7153H300.638L300.784 98.4349ZM305.154 95.6229L305.127 98.5802C304.933 98.545 304.722 98.5186 304.493 98.501C304.273 98.4834 304.053 98.4746 303.833 98.4746C303.288 98.4746 302.808 98.5538 302.394 98.7122C301.981 98.8618 301.633 99.0819 301.351 99.3723C301.078 99.6539 300.867 99.9972 300.718 100.402C300.568 100.807 300.48 101.26 300.454 101.762L299.727 101.815C299.727 100.917 299.815 100.085 299.992 99.3195C300.168 98.5538 300.432 97.8805 300.784 97.2996C301.144 96.7187 301.593 96.2654 302.13 95.9397C302.676 95.6141 303.305 95.4513 304.018 95.4513C304.212 95.4513 304.419 95.4689 304.639 95.5041C304.867 95.5393 305.039 95.5789 305.154 95.6229Z" fill="white"/>
<mask id="path-14-inside-1_309_3353" fill="white">
<path d="M292.656 137L300.943 143.906C301.28 144.187 301.28 144.704 300.943 144.985L292 152.437"/>
</mask>
<path d="M290.859 139.156L299.146 146.063L302.74 141.75L294.453 134.844L290.859 139.156ZM299.146 142.828L290.203 150.281L293.797 154.594L302.74 147.141L299.146 142.828ZM299.146 146.063C298.136 145.221 298.136 143.67 299.146 142.828L302.74 147.141C304.423 145.738 304.423 143.153 302.74 141.75L299.146 146.063Z" fill="white" mask="url(#path-14-inside-1_309_3353)"/>
<mask id="path-16-inside-2_309_3353" fill="white">
<path d="M298.036 137L306.323 143.906C306.66 144.187 306.66 144.704 306.323 144.985L297.38 152.437"/>
</mask>
<path d="M296.239 139.156L304.526 146.063L308.12 141.75L299.832 134.844L296.239 139.156ZM304.526 142.828L295.583 150.281L299.177 154.594L308.12 147.141L304.526 142.828ZM304.526 146.063C303.516 145.221 303.516 143.67 304.526 142.828L308.12 147.141C309.803 145.738 309.803 143.153 308.12 141.75L304.526 146.063Z" fill="white" mask="url(#path-16-inside-2_309_3353)"/>
</svg>
