<?xml version="1.0" standalone="no"?>
<!DOCTYPE svg PUBLIC "-//W3C//DTD SVG 20010904//EN"
 "http://www.w3.org/TR/2001/REC-SVG-20010904/DTD/svg10.dtd">
<svg version="1.0" xmlns="http://www.w3.org/2000/svg"
 width="225.000000pt" height="225.000000pt" viewBox="0 0 225.000000 225.000000"
 preserveAspectRatio="xMidYMid meet">

<g transform="translate(0.000000,225.000000) scale(0.100000,-0.100000)"
fill="#000000" stroke="none">
<path d="M805 2116 l-30 -24 -5 -224 -5 -223 -275 -5 c-311 -6 -321 -8 -375
-83 l-30 -42 -3 -502 c-2 -480 -2 -504 17 -540 22 -44 53 -74 98 -97 29 -14
107 -16 727 -16 l694 0 47 -70 c25 -38 70 -94 98 -125 46 -48 58 -55 90 -55
50 0 76 19 134 98 84 114 113 159 150 237 33 70 35 81 31 144 -8 113 -85 222
-189 268 l-39 17 0 303 c0 251 -3 310 -15 341 -33 79 -89 114 -190 122 l-70 5
-3 205 c-1 113 -7 217 -13 231 -23 58 -32 59 -441 59 l-373 0 -30 -24z m483
-151 c45 -53 25 -101 -72 -170 -30 -22 -56 -43 -56 -46 0 -3 27 -4 61 -3 68 3
89 -2 89 -21 0 -19 -24 -25 -100 -25 -83 0 -100 6 -100 34 1 27 15 44 65 81
93 67 113 98 80 125 -18 15 -47 17 -98 6 -34 -6 -38 -5 -35 11 2 10 19 24 38
30 49 18 101 9 128 -22z m251 1 c51 -51 26 -105 -80 -178 -27 -18 -49 -35 -49
-38 0 -3 32 -6 71 -7 78 -3 84 -5 76 -28 -9 -22 -169 -22 -187 0 -21 25 2 59
80 117 55 42 70 58 70 79 0 36 -33 50 -95 38 -27 -5 -50 -7 -53 -4 -11 11 10
35 40 44 48 15 98 5 127 -23z m-539 -101 c5 -116 6 -120 28 -123 15 -2 22 -9
20 -20 -5 -24 -139 -30 -158 -8 -13 17 -8 21 35 28 18 3 20 12 23 101 3 97 3
98 -18 87 -23 -12 -50 -7 -50 9 0 15 71 51 95 48 18 -2 20 -11 25 -122z m-232
-382 c2 -93 4 -102 24 -108 16 -6 35 8 94 66 l74 74 321 5 321 5 29 33 c25 28
35 32 76 32 56 0 93 -9 93 -21 0 -5 -57 -64 -127 -132 -181 -173 -341 -327
-378 -362 -17 -16 -80 -76 -138 -132 -99 -96 -110 -103 -147 -103 -35 0 -48 7
-107 64 -38 35 -88 83 -113 107 -25 23 -135 128 -245 233 -110 105 -228 218
-262 250 -35 33 -63 65 -63 72 0 20 27 22 295 20 l250 -1 3 -102z m92 -619
c61 -62 101 -84 155 -84 49 0 70 12 142 83 l62 60 71 -59 c39 -32 113 -93 163
-135 l92 -75 -3 -60 c-3 -42 2 -74 17 -112 12 -29 21 -55 21 -57 0 -10 -1335
-5 -1350 5 -13 9 -11 13 10 31 14 11 82 67 152 125 70 58 149 122 175 143 26
22 89 73 138 115 50 42 92 76 95 76 3 0 30 -25 60 -56z m1105 -68 c120 -56
174 -182 130 -306 -34 -96 -204 -330 -239 -330 -28 0 -168 185 -223 293 -14
28 -27 76 -30 107 -17 184 188 317 362 236z"/>
<path d="M1800 723 c-29 -10 -80 -67 -91 -100 -35 -107 66 -219 177 -198 39 7
89 46 109 86 34 66 2 165 -65 200 -33 18 -97 24 -130 12z"/>
</g>
</svg>
