<svg width="327" height="169" viewBox="0 0 327 169" fill="none" xmlns="http://www.w3.org/2000/svg">
<rect width="327" height="169" rx="7" fill="#990D38"/>
<rect x="20" y="20" width="153" height="129" rx="12" fill="white"/>
<path d="M26.9022 129.491V95.9332H53.4366V73.796H129.461V79.6262H157.345L157.804 129.491H26.9022Z" fill="#F1F2F5"/>
<path d="M111.978 129.704H59.8874C58.0997 129.704 56.6502 128.254 56.6502 126.466V57.6583C56.6502 55.8706 58.0997 54.421 59.8874 54.421H111.978C113.765 54.421 115.215 55.8706 115.215 57.6583V126.466C115.215 128.254 113.766 129.704 111.978 129.704Z" fill="#1D2238"/>
<path d="M111.567 58.9034H60.2982V125.221H111.567V58.9034Z" fill="white"/>
<path d="M89.9062 53.2391C89.8834 51.0635 88.1138 49.3069 85.9325 49.3069C83.7512 49.3069 81.9817 51.0635 81.9589 53.2391H78.2766V59.5351H93.5874V53.2391H89.9062ZM85.9325 53.8682C85.1582 53.8682 84.5307 53.2406 84.5307 52.4663C84.5307 51.692 85.1582 51.0645 85.9325 51.0645C86.7068 51.0645 87.3344 51.692 87.3344 52.4663C87.3344 53.2406 86.7068 53.8682 85.9325 53.8682Z" fill="#990D38"/>
<path d="M109.473 65.8291H74.7702V67.9487H109.473V65.8291Z" fill="#F1F2F5"/>
<path d="M109.473 69.9688H74.7702V72.0884H109.473V69.9688Z" fill="#F1F2F5"/>
<path d="M91.6825 74.1077H74.7702V76.2273H91.6825V74.1077Z" fill="#F1F2F5"/>
<path d="M73.3249 76.3836H63.5649V65.6741H73.3249V76.3836ZM63.8761 76.0724H73.0137V65.9852H63.8761V76.0724Z" fill="#9EA9BD"/>
<path d="M67.1398 67.7251L69.4274 70.9068L75.7334 64.9753L76.8525 66.4218L69.1002 73.8287L65.7577 68.9827L67.1398 67.7251Z" fill="#990D38"/>
<path d="M109.473 79.4865H74.7702V81.6061H109.473V79.4865Z" fill="#F1F2F5"/>
<path d="M109.473 83.6261H74.7702V85.7457H109.473V83.6261Z" fill="#F1F2F5"/>
<path d="M91.6825 87.7653H74.7702V89.8849H91.6825V87.7653Z" fill="#F1F2F5"/>
<path d="M73.3249 90.0405H63.5649V79.3309H73.3249V90.0405ZM63.8761 89.7293H73.0137V79.6421H63.8761V89.7293Z" fill="#9EA9BD"/>
<path d="M67.1398 81.3825L69.4274 84.5638L75.7334 78.6328L76.8525 80.0787L69.1002 87.4862L65.7577 82.6402L67.1398 81.3825Z" fill="#990D38"/>
<path d="M109.473 93.1439H74.7702V95.2635H109.473V93.1439Z" fill="#F1F2F5"/>
<path d="M109.473 97.2831H74.7702V99.4027H109.473V97.2831Z" fill="#F1F2F5"/>
<path d="M91.6825 101.422H74.7702V103.542H91.6825V101.422Z" fill="#F1F2F5"/>
<path d="M73.3249 103.698H63.5649V92.9882H73.3249V103.698ZM63.8761 103.387H73.0137V93.2993H63.8761V103.387Z" fill="#9EA9BD"/>
<path d="M67.1398 95.0392L69.4274 98.221L75.7334 92.29L76.8525 93.7359L69.1002 101.143L65.7577 96.2969L67.1398 95.0392Z" fill="#990D38"/>
<path d="M109.473 106.801H74.7702V108.921H109.473V106.801Z" fill="#F1F2F5"/>
<path d="M109.473 110.94H74.7702V113.06H109.473V110.94Z" fill="#F1F2F5"/>
<path d="M91.6825 115.079H74.7702V117.199H91.6825V115.079Z" fill="#F1F2F5"/>
<path d="M73.3249 117.355H63.5649V106.646H73.3249V117.355ZM63.8761 117.044H73.0137V106.957H63.8761V117.044Z" fill="#9EA9BD"/>
<path d="M67.1398 108.697L69.4274 111.878L75.7334 105.947L76.8525 107.393L69.1002 114.8L65.7577 109.954L67.1398 108.697Z" fill="#990D38"/>
<path d="M141.047 113.515H124.927V129.704H141.047V113.515Z" fill="#9EA9BD"/>
<path d="M133.959 113.515H132.016V116.078H133.959V113.515Z" fill="#1D2238"/>
<path d="M152.589 113.515H141.047V129.704H152.589V113.515Z" fill="#D2D6E1"/>
<path d="M147.558 113.515H146.08V116.078H147.558V113.515Z" fill="#1D2238"/>
<path d="M137.941 82.5323H121.821V113.515H137.941V82.5323Z" fill="#990D38"/>
<path d="M130.852 82.5323H128.909V87.438H130.852V82.5323Z" fill="#1D2238"/>
<path d="M149.483 82.5323H137.941V113.515H149.483V82.5323Z" fill="#990D38"/>
<path d="M144.451 82.5323H142.973V87.438H144.451V82.5323Z" fill="#1D2238"/>
<path d="M115.449 113.515H94.716V129.704H115.449V113.515Z" fill="#990D38"/>
<path d="M106.332 113.515H103.833V116.078H106.332V113.515Z" fill="#1D2238"/>
<path d="M129.168 113.515H115.449V129.704H129.168V113.515Z" fill="#F6DBA6"/>
<path d="M123.961 113.515H121.462V116.078H123.961V113.515Z" fill="#1D2238"/>
<path d="M113.385 97.3254H97.265V113.514H113.385V97.3254Z" fill="#D2D6E1"/>
<path d="M106.297 97.3254H104.354V99.889H106.297V97.3254Z" fill="#1D2238"/>
<path d="M124.927 97.3254H113.385V113.514H124.927V97.3254Z" fill="#F1F2F5"/>
<path d="M119.895 97.3254H118.417V99.889H119.895V97.3254Z" fill="#1D2238"/>
<path d="M161.706 129.491H23V129.846H161.706V129.491Z" fill="#1D2238"/>
<path d="M48.8714 81.9588L48.3367 82.3166L45.4863 78.0541C45.3878 77.9063 45.4272 77.7066 45.575 77.6076C45.7228 77.509 45.9225 77.5484 46.0215 77.6962L48.8714 81.9588Z" fill="#1D2238"/>
<path d="M46.0475 83.0811C46.0475 83.0811 46.2679 81.2498 46.7258 81.1653C47.1838 81.0808 48.54 81.1145 48.8112 81.1653C49.0825 81.2161 49.8282 81.6907 49.9812 82.1657L47.0821 84.9803L46.0475 83.0811Z" fill="#EB9481"/>
<path d="M43.3744 67.6992C43.3744 67.6992 43.9512 68.4097 44.1296 69.4138C44.2006 69.8131 44.0824 70.2192 43.7297 70.4204L41.7631 67.6992H43.3744Z" fill="#1D2238"/>
<path d="M40.5755 67.2179C38.8889 67.2179 37.5078 68.5217 37.3834 70.1766L37.3574 70.1725L36.6651 74.4926C36.5126 75.4437 37.1598 76.3384 38.111 76.4908C39.0621 76.6433 39.7913 76.9135 40.1092 75.0449L40.1585 74.7384C40.2949 74.7561 40.4344 74.7664 40.5755 74.7664C42.344 74.7664 43.778 73.333 43.778 71.5639V70.4204C43.7774 68.6519 42.344 67.2179 40.5755 67.2179Z" fill="#EB9481"/>
<path d="M42.5291 69.8759C42.5551 69.9599 42.5737 70.0434 42.5898 70.1274C42.5992 70.1695 42.6043 70.2115 42.6111 70.2535C42.6178 70.2955 42.6246 70.3375 42.6287 70.3795C42.6386 70.4635 42.6479 70.547 42.652 70.631L42.6603 70.7571L42.6629 70.8831L42.5208 70.741C42.5743 70.7405 42.6277 70.7373 42.6811 70.7384C42.7086 70.7394 42.7293 70.7384 42.776 70.7425C42.8165 70.7477 42.8559 70.7586 42.8932 70.7742C43.0457 70.8364 43.138 71.0018 43.1281 71.1564C43.1219 71.2337 43.0929 71.3073 43.0472 71.3654C43.0011 71.4235 42.9368 71.4629 42.8699 71.4826C42.8362 71.4925 42.8014 71.495 42.7682 71.4935C42.7324 71.4909 42.7086 71.4847 42.6811 71.4795C42.6277 71.4676 42.5743 71.4541 42.5208 71.4375L42.5188 71.437C42.5146 71.4359 42.512 71.4313 42.5136 71.4271C42.5146 71.424 42.5177 71.4214 42.5208 71.4214L42.6811 71.4193C42.7075 71.4188 42.735 71.4193 42.7599 71.4167C42.7853 71.4131 42.8102 71.4064 42.8336 71.397C42.9285 71.3576 42.9938 71.2586 42.9923 71.1564C42.9928 71.0542 42.9269 70.9562 42.8325 70.9183C42.8092 70.909 42.7843 70.9028 42.7594 70.9002C42.735 70.8986 42.7075 70.8992 42.6811 70.8992L42.5208 70.8986H42.5053V70.8831C42.5074 70.5475 42.5068 70.212 42.5125 69.8764C42.5125 69.8723 42.5162 69.8687 42.5208 69.8687C42.5245 69.8687 42.5271 69.8712 42.5281 69.8744L42.5291 69.8759Z" fill="#1D2238"/>
<path d="M43.1914 70.1223C43.3143 70.1223 43.4139 70.0227 43.4139 69.8999C43.4139 69.777 43.3143 69.6774 43.1914 69.6774C43.0685 69.6774 42.9689 69.777 42.9689 69.8999C42.9689 70.0227 43.0685 70.1223 43.1914 70.1223Z" fill="#1D2238"/>
<path d="M43.0062 72.1487C43.0062 72.1487 42.6375 71.6119 41.5634 71.6259L43.0062 72.1487Z" fill="white"/>
<path d="M42.6308 69.0032C42.6105 69.0862 42.7827 69.1987 43.0156 69.2552C43.2479 69.3118 43.4528 69.29 43.473 69.207C43.4932 69.124 43.321 69.0115 43.0882 68.9549C42.8553 68.8989 42.651 68.9202 42.6308 69.0032Z" fill="#1D2238"/>
<path d="M41.9026 70.226C42.0255 70.226 42.1251 70.1264 42.1251 70.0035C42.1251 69.8806 42.0255 69.781 41.9026 69.781C41.7797 69.781 41.6801 69.8806 41.6801 70.0035C41.6801 70.1264 41.7797 70.226 41.9026 70.226Z" fill="#1D2238"/>
<path d="M41.3436 69.3164C41.3648 69.3989 41.5697 69.4175 41.8015 69.3574C42.0333 69.2977 42.2034 69.1821 42.1822 69.0996C42.1609 69.0171 41.956 68.9985 41.7242 69.0586C41.4929 69.1188 41.3223 69.2339 41.3436 69.3164Z" fill="#1D2238"/>
<path d="M43.2225 72.2991C43.0597 72.2866 42.9051 72.2534 42.7532 72.2135C42.6764 72.1953 42.6028 72.1694 42.5276 72.1471C42.4534 72.1222 42.3798 72.0952 42.3061 72.0693C42.234 72.0392 42.1609 72.0112 42.0888 71.9801C42.0178 71.9469 41.9457 71.9168 41.8762 71.8795C41.7356 71.8084 41.5982 71.7307 41.4685 71.6316L41.467 71.6306C41.4644 71.6285 41.4639 71.6243 41.4659 71.6217C41.4675 71.6197 41.4706 71.6186 41.4732 71.6197L42.3528 71.9474L43.2277 72.2871C43.2308 72.2882 43.2329 72.2923 43.2313 72.2954C43.2303 72.298 43.2277 72.2996 43.2251 72.2996L43.2225 72.2991Z" fill="#1D2238"/>
<path d="M36.9218 70.4956C36.9218 70.4956 39.711 68.0379 42.4114 68.0384C42.4114 68.0384 43.5908 67.9865 44.0264 68.9854C44.0264 68.9854 43.5067 64.9059 38.9978 65.5936C34.489 66.2813 36.2875 70.8856 36.2875 70.8856L36.9218 70.4956Z" fill="#990D38"/>
<path d="M40.0994 68.541C40.0994 68.541 39.5502 69.208 38.4024 70.4205C38.1188 70.7203 37.6271 71.1352 37.6271 71.1352C37.6271 71.1352 37.7453 70.5081 37.5338 70.0502C37.5343 70.0502 38.8163 69.015 40.0994 68.541Z" fill="#1D2238"/>
<path d="M41.8715 67.9789C41.8715 67.9789 42.2247 68.6183 43.1245 68.6624C43.1245 68.6624 41.6864 69.1349 41.1257 68.135L41.8715 67.9789Z" fill="#1D2238"/>
<path d="M37.1536 71.5164L36.941 72.7693L36.2886 70.8857L37.3834 70.1768L37.1536 71.5164Z" fill="#1D2238"/>
<path d="M37.123 71.4417C37.4751 71.4417 37.7604 71.0885 37.7604 70.6528C37.7604 70.2172 37.4751 69.864 37.123 69.864C36.771 69.864 36.4857 70.2172 36.4857 70.6528C36.4857 71.0885 36.771 71.4417 37.123 71.4417Z" fill="#EB9481"/>
<path d="M37.4881 70.4371C37.4295 70.3894 37.373 70.3536 37.3159 70.3385C37.2884 70.3297 37.2615 70.3256 37.2361 70.3266C37.2112 70.3277 37.1878 70.3287 37.1661 70.3375C37.0826 70.3666 37.0198 70.4381 36.983 70.5325C36.9726 70.5553 36.9669 70.5807 36.9607 70.6056C36.9586 70.6186 36.9555 70.6311 36.9539 70.6445L36.9519 70.6642L36.9498 70.6782C36.9488 70.6829 36.9493 70.6814 36.9482 70.6829C36.9477 70.6808 36.9462 70.6798 36.9425 70.6741C36.9368 70.6627 36.9124 70.6476 36.9026 70.6482C36.8834 70.6492 36.913 70.6565 36.9394 70.6528C36.9965 70.6461 37.0691 70.6305 37.1417 70.6196C37.2148 70.6119 37.2967 70.6005 37.373 70.629L37.3756 70.63C37.3797 70.6316 37.3818 70.6362 37.3802 70.6404C37.3792 70.6435 37.3761 70.6456 37.373 70.6456C37.3045 70.6487 37.2376 70.6751 37.1728 70.7011C37.1074 70.7265 37.0426 70.756 36.9731 70.7768C36.9384 70.7861 36.9016 70.796 36.8611 70.7851C36.8409 70.7799 36.8222 70.7649 36.8124 70.7462C36.802 70.728 36.7989 70.7078 36.7973 70.6891C36.7942 70.6155 36.8056 70.5429 36.8321 70.4749C36.8585 70.407 36.9 70.3443 36.9555 70.296C37.0099 70.2478 37.081 70.2146 37.1546 70.2099C37.2283 70.2032 37.303 70.2255 37.3636 70.2659C37.4238 70.3074 37.4705 70.366 37.5021 70.4303C37.5042 70.434 37.5026 70.4386 37.4985 70.4407C37.4959 70.4423 37.4923 70.4418 37.4902 70.4397L37.4881 70.4371Z" fill="#1D2238"/>
<path d="M40.6927 68.3268C40.6927 68.3268 42.6058 65.7628 44.9184 66.3825C47.2309 67.0023 44.0269 68.986 44.0269 68.986C44.0269 68.986 43.1359 67.4846 40.6927 68.3268Z" fill="#F1F2F5"/>
<path d="M38.7961 65.7166C38.8179 65.8292 38.5772 65.9707 38.2583 66.0325C37.9393 66.0942 37.6634 66.0527 37.6416 65.9401C37.6198 65.8276 37.8605 65.686 38.1794 65.6243C38.4979 65.5626 38.7743 65.6041 38.7961 65.7166Z" fill="#1D2238"/>
<path d="M40.158 74.7386C40.158 74.7386 39.4672 74.3636 38.7323 73.6152C38.7323 73.6152 39.0403 74.6841 40.1092 75.0451L40.158 74.7386Z" fill="#1D2238"/>
<path d="M45.5532 125.766L50.3997 127.879C51.1227 128.195 51.5848 128.915 51.5703 129.703L41.0329 129.681L41.5936 125.758L45.5532 125.766Z" fill="#4A4E60"/>
<path d="M41.034 128.982C41.9022 129.032 42.7698 129.059 43.638 129.078C44.0721 129.09 44.5062 129.093 44.9402 129.1L46.2425 129.11L47.5448 129.107C47.9788 129.101 48.4129 129.1 48.847 129.09C49.7152 129.075 50.5834 129.051 51.4515 129.004C50.5834 128.954 49.7157 128.927 48.8475 128.908C48.4135 128.896 47.9794 128.893 47.5453 128.886L46.243 128.877L44.9408 128.88C44.5067 128.886 44.0726 128.887 43.6385 128.897C42.7703 128.912 41.9022 128.935 41.034 128.982Z" fill="#1D2238"/>
<path d="M43.9351 128.101C44.3088 127.728 44.3088 127.122 43.9351 126.748C43.5614 126.374 42.9556 126.374 42.5819 126.748C42.2083 127.122 42.2083 127.728 42.5819 128.101C42.9556 128.475 43.5614 128.475 43.9351 128.101Z" fill="#1D2238"/>
<path d="M49.7458 127.497C49.6213 127.446 49.5015 127.446 49.3879 127.464C49.2744 127.483 49.1665 127.527 49.0695 127.59C48.9725 127.653 48.888 127.74 48.8252 127.842C48.7635 127.944 48.7257 128.068 48.7423 128.199L48.7625 128.211C48.7931 128.169 48.8185 128.125 48.8538 128.088C48.8704 128.068 48.8854 128.047 48.903 128.029L48.9564 127.974C49.0306 127.904 49.1105 127.84 49.1976 127.785C49.2827 127.729 49.3724 127.678 49.4652 127.634C49.5119 127.613 49.5591 127.592 49.6068 127.574C49.654 127.554 49.7027 127.536 49.7515 127.52L49.7458 127.497Z" fill="#1D2238"/>
<path d="M48.5088 126.969C48.3844 126.918 48.2646 126.918 48.151 126.936C48.0374 126.955 47.9295 126.999 47.8326 127.062C47.7356 127.125 47.651 127.212 47.5883 127.314C47.5266 127.417 47.4887 127.54 47.5053 127.671L47.5255 127.683C47.5561 127.641 47.5816 127.597 47.6168 127.56C47.6334 127.54 47.6485 127.519 47.6661 127.501L47.7195 127.446C47.7937 127.376 47.8735 127.312 47.9607 127.257C48.0457 127.201 48.1354 127.15 48.2283 127.106C48.2749 127.085 48.3221 127.064 48.3699 127.046C48.417 127.026 48.4658 127.008 48.5146 126.992L48.5088 126.969Z" fill="#1D2238"/>
<path d="M47.3643 126.491C47.2398 126.439 47.12 126.439 47.0064 126.457C46.8928 126.477 46.785 126.52 46.688 126.583C46.591 126.646 46.5065 126.733 46.4437 126.835C46.382 126.938 46.3441 127.061 46.3607 127.192L46.3809 127.204C46.4115 127.162 46.437 127.118 46.4722 127.081C46.4888 127.062 46.5039 127.04 46.5215 127.022L46.5749 126.967C46.6491 126.897 46.7289 126.833 46.8161 126.778C46.9011 126.722 46.9908 126.671 47.0837 126.628C47.1304 126.606 47.1775 126.586 47.2253 126.567C47.2725 126.547 47.3212 126.529 47.37 126.513L47.3643 126.491Z" fill="#1D2238"/>
<path d="M39.2375 125.766L44.084 127.879C44.8069 128.195 45.269 128.915 45.2545 129.703L34.7172 129.681L35.2778 125.758L39.2375 125.766Z" fill="#9EA9BD"/>
<path d="M34.7182 128.982C35.5864 129.032 36.4541 129.059 37.3222 129.078C37.7563 129.09 38.1904 129.093 38.6245 129.1L39.9267 129.11L41.229 129.107C41.6631 129.101 42.0972 129.1 42.5313 129.09C43.3994 129.075 44.2676 129.051 45.1358 129.004C44.2676 128.954 43.3999 128.927 42.5318 128.908C42.0977 128.896 41.6636 128.893 41.2295 128.886L39.9273 128.877L38.625 128.88C38.1909 128.886 37.7568 128.887 37.3227 128.897C36.4546 128.912 35.5864 128.935 34.7182 128.982Z" fill="#1D2238"/>
<path d="M37.6194 128.101C37.993 127.728 37.9931 127.122 37.6194 126.748C37.2457 126.374 36.6399 126.374 36.2662 126.748C35.8925 127.122 35.8925 127.728 36.2662 128.101C36.6399 128.475 37.2457 128.475 37.6194 128.101Z" fill="#1D2238"/>
<path d="M43.43 127.497C43.3055 127.446 43.1857 127.446 43.0721 127.464C42.9585 127.483 42.8507 127.527 42.7537 127.59C42.6567 127.653 42.5722 127.74 42.5094 127.842C42.4477 127.944 42.4098 128.068 42.4264 128.199L42.4467 128.211C42.4773 128.169 42.5027 128.125 42.5379 128.088C42.5545 128.068 42.5696 128.047 42.5872 128.029L42.6406 127.974C42.7148 127.904 42.7946 127.84 42.8818 127.785C42.9668 127.729 43.0565 127.678 43.1494 127.634C43.1961 127.613 43.2433 127.592 43.291 127.574C43.3382 127.554 43.3869 127.536 43.4357 127.52L43.43 127.497Z" fill="#1D2238"/>
<path d="M42.1931 126.969C42.0686 126.918 41.9488 126.918 41.8352 126.936C41.7217 126.955 41.6138 126.999 41.5168 127.062C41.4198 127.125 41.3353 127.212 41.2725 127.314C41.2108 127.417 41.173 127.54 41.1895 127.671L41.2098 127.683C41.2404 127.641 41.2658 127.597 41.301 127.56C41.3176 127.54 41.3327 127.519 41.3503 127.501L41.4037 127.446C41.4779 127.376 41.5578 127.312 41.6449 127.257C41.7299 127.201 41.8197 127.15 41.9125 127.106C41.9592 127.085 42.0064 127.064 42.0541 127.046C42.1013 127.026 42.15 127.008 42.1988 126.992L42.1931 126.969Z" fill="#1D2238"/>
<path d="M41.0485 126.491C40.924 126.439 40.8042 126.439 40.6906 126.457C40.5771 126.477 40.4692 126.52 40.3722 126.583C40.2752 126.646 40.1907 126.733 40.1279 126.835C40.0662 126.938 40.0284 127.061 40.045 127.192L40.0652 127.204C40.0958 127.162 40.1212 127.118 40.1565 127.081C40.1731 127.062 40.1881 127.04 40.2057 127.022L40.2591 126.967C40.3333 126.897 40.4132 126.833 40.5003 126.778C40.5854 126.722 40.6751 126.671 40.7679 126.628C40.8146 126.606 40.8618 126.586 40.9095 126.567C40.9567 126.547 41.0054 126.529 41.0542 126.513L41.0485 126.491Z" fill="#1D2238"/>
<path d="M47.2289 125.727L46.2824 106.293C46.256 105.747 46.1911 105.204 46.089 104.667L44.0783 94.1053L31.8902 93.1521C31.8902 93.1521 30.6932 98.0209 33.1457 102.708L34.4086 125.881L40.9131 125.84L40.9121 125.767L47.2289 125.727Z" fill="#1D2238"/>
<path d="M39.935 94.7412L40.018 95.7105L40.0953 96.6803L40.2498 98.6205L40.5335 102.503L40.604 103.474L40.6684 104.445L40.7965 106.387L41.0521 110.271L41.0667 110.514C41.0708 110.594 41.0672 110.676 41.0682 110.757L41.0667 111.243L41.0635 112.216L41.0568 114.163L41.0501 116.109L41.0459 117.082L41.0355 118.055L40.994 121.947L40.9609 123.893L40.9443 124.866L40.922 125.839H40.9043L40.9002 118.057L40.8981 114.166L40.8971 112.221L40.8965 111.248L40.896 110.761C40.895 110.681 40.8981 110.599 40.8934 110.518L40.8784 110.275L39.9179 94.7412H39.935Z" fill="#4A4E60"/>
<path d="M49.5347 88.2034L47.8642 85.6036L44.0062 86.6481L42.9964 79.7333C42.9866 79.6591 42.9772 79.5964 42.9689 79.5466C42.7164 78.0255 40.0252 75.3795 40.0252 75.3795L39.4309 75.9915L36.6646 74.4932C36.6646 74.4932 34.365 75.4173 32.9523 77.2102C31.5396 79.0031 31.8891 93.1521 31.8891 93.1521C31.8891 93.1521 34.7452 95.4662 36.8113 95.8463C38.8775 96.2265 44.2992 94.7412 44.2992 94.7412C44.2992 94.7412 44.2058 93.5535 44.0668 91.84L49.5347 88.2034Z" fill="#990D38"/>
<path d="M39.4314 75.991L38.1286 77.1091C37.916 77.2912 37.6022 77.2937 37.3891 77.1127C36.7875 76.6029 35.7196 75.5553 36.0557 74.779L36.6656 74.4927L39.4314 75.991Z" fill="white"/>
<path d="M39.4314 75.991L40.075 76.6849C40.2498 76.8732 40.5568 76.8364 40.6823 76.6123L40.8711 76.2747L40.0258 75.379L39.4314 75.991Z" fill="white"/>
<path d="M35.9909 78.988L38.3957 85.8629L45.8758 82.0754L47.0593 84.9781L40.4023 90.4869C39.7696 91.0102 38.9922 91.3276 38.1743 91.396C36.786 91.5122 35.4365 90.9023 34.6072 89.7831C33.4803 88.262 32.053 86.1777 31.9083 85.2011C31.6661 83.5659 30.4318 80.45 32.9523 77.2102L35.9909 78.988Z" fill="#990D38"/>
<path d="M43.3553 83.355C42.9503 83.5806 42.5437 83.8021 42.1355 84.0209C41.7279 84.2414 41.3182 84.4571 40.909 84.6739C40.4982 84.8881 40.0896 85.1054 39.6773 85.317C39.2655 85.5291 38.8552 85.7433 38.4419 85.9528L38.3247 86.0119L38.2977 85.8828C38.236 85.5861 38.1681 85.2885 38.0981 84.9923C38.028 84.6957 37.9575 84.3995 37.8828 84.1044C37.7319 83.5143 37.5748 82.9256 37.3984 82.3427C37.2242 81.7592 37.0339 81.181 36.814 80.6136C36.703 80.3304 36.5858 80.0499 36.4514 79.7766C36.3182 79.5032 36.1714 79.2356 35.9914 78.9888C36.1916 79.2201 36.3586 79.4799 36.51 79.746C36.6589 80.0141 36.7958 80.2895 36.9187 80.57C37.1671 81.1312 37.3756 81.7079 37.567 82.2898C37.7547 82.8727 37.9269 83.4608 38.0789 84.0536C38.2339 84.6464 38.3729 85.2413 38.4948 85.8429L38.3506 85.7728C38.764 85.5638 39.1799 85.36 39.5948 85.1547C40.0092 84.9482 40.4267 84.7475 40.8426 84.5437C41.2596 84.3425 41.6765 84.1402 42.0956 83.9426C42.5141 83.744 42.9337 83.5474 43.3553 83.355Z" fill="#1D2238"/>
<path d="M31.9088 85.2007L32.1583 85.6519L32.4046 86.1046C32.5696 86.406 32.735 86.7073 32.9025 87.0065C33.069 87.3068 33.236 87.6066 33.4071 87.9043L33.6644 88.3497C33.7505 88.4991 33.8355 88.649 33.9195 88.7989C34.2561 89.3958 34.586 90 35.0387 90.4979C35.1539 90.6192 35.2711 90.739 35.4012 90.8417C35.464 90.8962 35.533 90.9423 35.5999 90.9911C35.6699 91.0347 35.7389 91.0808 35.8125 91.1187C36.1029 91.2784 36.424 91.3801 36.7522 91.4345C37.4114 91.545 38.0981 91.4651 38.7401 91.266C39.0622 91.1664 39.3744 91.0352 39.671 90.8739C39.8188 90.7925 39.9625 90.7043 40.101 90.6089C40.2395 90.5129 40.3696 90.4076 40.5039 90.2987C41.0376 89.8662 41.5739 89.4368 42.1112 89.0079L42.9202 88.3689L43.3247 88.0495L43.7318 87.7331L43.345 88.0738L42.9555 88.4115L42.1765 89.0862C41.6548 89.5338 41.1325 89.9798 40.6077 90.4232C40.478 90.5337 40.3437 90.6478 40.2021 90.751C40.0595 90.8526 39.9117 90.9465 39.7597 91.0331C39.4548 91.2048 39.1327 91.3453 38.8003 91.4537C38.4673 91.5611 38.1224 91.6337 37.7729 91.6689C37.4233 91.7026 37.0686 91.6974 36.7191 91.6399C36.3711 91.5802 36.0277 91.4703 35.716 91.2976C35.6372 91.2566 35.563 91.2068 35.4878 91.1591C35.4158 91.1067 35.3421 91.0564 35.2752 90.9978C35.1362 90.8868 35.0123 90.7603 34.894 90.6301C34.6617 90.3656 34.461 90.0783 34.2821 89.7817C34.1011 89.4855 33.9387 89.1806 33.7785 88.8772C33.6981 88.7252 33.6177 88.5743 33.5352 88.4244C33.4523 88.2735 33.3698 88.1226 33.2894 87.9706C33.1281 87.6667 32.9694 87.3618 32.8144 87.0553C32.6603 86.7482 32.5084 86.4397 32.3575 86.1311L32.1319 85.6674L31.9088 85.2007Z" fill="#1D2238"/>
<path d="M37.5229 88.3436C37.5042 88.2813 37.4897 88.2181 37.4762 88.1543C37.4632 88.0905 37.4472 88.0262 37.4435 87.9613C37.4337 87.8317 37.4212 87.7 37.4332 87.5693C37.442 87.3063 37.5047 87.046 37.5945 86.7981C37.6847 86.5491 37.819 86.3178 37.9814 86.1109C38.1447 85.9061 38.3397 85.7214 38.5736 85.6027C38.4274 85.8174 38.3003 86.029 38.1852 86.2458C38.0711 86.462 37.9679 86.6809 37.8854 86.9075C37.8035 87.1342 37.7262 87.3639 37.6743 87.6035C37.6401 87.7223 37.624 87.8441 37.595 87.9665C37.5696 88.0905 37.5561 88.2155 37.5229 88.3436Z" fill="#1D2238"/>
<path d="M47.7983 87.6652L44.7105 86.3748C44.5181 86.2944 44.4735 86.0419 44.6265 85.9003L52.592 78.5224C52.732 78.3927 52.9565 78.4337 53.0421 78.6038L54.7282 81.9484C54.7925 82.076 54.7598 82.2305 54.6493 82.3213L48.1956 87.6071C48.0841 87.6983 47.9311 87.7206 47.7983 87.6652Z" fill="#4A4E60"/>
<path d="M44.0269 91.8672C43.9766 91.5498 43.9357 91.2324 43.8988 90.914C43.8797 90.7547 43.8625 90.596 43.8465 90.4363C43.8299 90.2771 43.8133 90.1179 43.7998 89.9587C43.7692 89.6402 43.7453 89.3213 43.721 89.0023C43.7075 88.8431 43.6997 88.6829 43.6888 88.5236C43.6789 88.3639 43.6675 88.2047 43.6603 88.0444L43.6577 87.9817L43.7085 87.9542C43.8651 87.8691 44.0207 87.782 44.1784 87.6985C44.336 87.6155 44.4927 87.53 44.6519 87.4491C44.8106 87.3671 44.9693 87.2857 45.1295 87.2063C45.2893 87.1265 45.4506 87.0487 45.6129 86.974C45.4661 87.0762 45.3178 87.1763 45.1679 87.2738C45.0185 87.3723 44.8681 87.4677 44.7172 87.5632C44.5668 87.6596 44.4138 87.7514 44.2624 87.8453C44.1104 87.9391 43.9569 88.0294 43.8039 88.1217L43.8522 88.0315C43.8677 88.1907 43.8786 88.3504 43.8911 88.5096C43.9025 88.6694 43.9175 88.8286 43.9263 88.9883C43.9471 89.3078 43.9678 89.6267 43.9829 89.9467C43.9917 90.1065 43.9984 90.2662 44.0041 90.4265C44.0109 90.5862 44.0161 90.7464 44.0197 90.9067C44.028 91.2257 44.0321 91.5462 44.0269 91.8672Z" fill="#1D2238"/>
<path d="M51.7964 85.1613C51.7845 85.082 51.7622 85.0021 51.743 84.9254C51.7031 84.7656 51.6652 84.6054 51.6263 84.4451C51.5724 84.2226 51.5179 83.9996 51.464 83.7771C51.409 83.5505 51.1803 83.4115 50.9536 83.4665C50.727 83.5214 50.588 83.7502 50.643 83.9768L50.6585 84.0406C50.559 83.9561 50.4221 83.9187 50.2857 83.9519C50.059 84.0069 49.92 84.2356 49.975 84.4622C49.9921 84.5322 50.0092 84.6028 50.0264 84.6728C50.017 84.6505 49.9978 84.6339 49.9776 84.6199C49.8412 84.5271 49.6146 84.5494 49.5243 84.6977C49.4699 84.7864 49.4875 84.8891 49.4948 84.9876C49.5274 85.4362 49.5928 85.8843 49.6415 86.3319L48.82 87.0958L49.0078 87.3888C49.1774 87.3302 49.3345 87.297 49.5041 87.2384C49.7297 87.1606 49.961 87.0979 50.1793 87.0004C50.3536 86.9231 50.503 86.8126 50.6471 86.6897C50.9246 86.4532 51.1735 86.183 51.4095 85.9061C51.5179 85.779 51.6247 85.6499 51.7259 85.5166C51.8083 85.4066 51.8151 85.2842 51.7964 85.1613Z" fill="#EB9481"/>
<path d="M49.6415 86.3318C49.6415 86.3318 49.5492 86.6855 49.7229 86.9458C49.7229 86.9458 49.418 86.8748 49.5243 86.4407L49.6415 86.3318Z" fill="#1D2238"/>
<path d="M50.658 84.0405C50.7746 84.1323 50.8664 84.2609 50.9105 84.4062C50.9562 84.5483 50.992 84.6919 51.0288 84.8356C51.064 84.9798 51.0983 85.1239 51.1283 85.2691L51.173 85.487C51.1859 85.5601 51.2004 85.6327 51.2118 85.7063C51.189 85.6358 51.1698 85.5642 51.1486 85.4932L51.09 85.2785C51.0506 85.1353 51.0153 84.9917 50.979 84.848L50.8732 84.417C50.8561 84.346 50.8281 84.2791 50.7912 84.2158C50.7544 84.1531 50.7093 84.0939 50.658 84.0405Z" fill="#1D2238"/>
<path d="M50.0258 84.6732C50.1357 84.7432 50.2369 84.8454 50.2742 84.9797C50.3121 85.1073 50.339 85.2359 50.3665 85.3645C50.3925 85.4937 50.4179 85.6228 50.4386 85.7525L50.4697 85.9475C50.478 86.0128 50.4879 86.0776 50.4946 86.1435C50.4765 86.0802 50.4614 86.0159 50.4448 85.9521L50.3997 85.7602C50.3696 85.6321 50.3432 85.5035 50.3157 85.3749C50.2892 85.2463 50.2638 85.1172 50.2358 84.9901C50.2229 84.9273 50.1949 84.8703 50.157 84.8179C50.1212 84.7645 50.0756 84.7168 50.0258 84.6732Z" fill="#1D2238"/>
<path d="M45.0865 85.863C45.3924 85.5637 45.7041 85.2697 46.0138 84.9746C46.3228 84.6784 46.6361 84.3864 46.9478 84.0939L47.8886 83.2206L48.8345 82.3529C49.4683 81.7778 50.1015 81.2021 50.7399 80.6321L51.2181 80.2038L51.6989 79.778C52.0189 79.4938 52.3394 79.2106 52.662 78.9295L52.7397 78.8616L52.7849 78.9513L53.15 79.6758L53.5115 80.4024L53.8683 81.1316C53.9881 81.3743 54.1053 81.618 54.2214 81.8628C54.0866 81.6284 53.9528 81.393 53.8216 81.1565L53.4254 80.448L53.0338 79.737L52.6459 79.0244L52.7688 79.0462C52.4555 79.3377 52.1407 79.6276 51.8249 79.9164L51.3519 80.35L50.8763 80.781C50.2436 81.3572 49.6052 81.9271 48.9673 82.4976L48.0063 83.3487L47.0401 84.194C46.7165 84.4741 46.3939 84.7552 46.0672 85.0321C45.7404 85.3101 45.4158 85.5896 45.0865 85.863Z" fill="#1D2238"/>
<mask id="path-92-inside-1_117_4996" fill="white">
<path d="M292.656 137L300.943 143.906C301.28 144.187 301.28 144.704 300.943 144.985L292 152.437"/>
</mask>
<path d="M290.859 139.156L299.146 146.063L302.74 141.75L294.453 134.844L290.859 139.156ZM299.146 142.828L290.203 150.281L293.797 154.594L302.74 147.141L299.146 142.828ZM299.146 146.063C298.136 145.221 298.136 143.67 299.146 142.828L302.74 147.141C304.423 145.738 304.423 143.153 302.74 141.75L299.146 146.063Z" fill="white" mask="url(#path-92-inside-1_117_4996)"/>
<mask id="path-94-inside-2_117_4996" fill="white">
<path d="M298.035 137L306.323 143.906C306.659 144.187 306.659 144.704 306.323 144.985L297.38 152.437"/>
</mask>
<path d="M296.239 139.156L304.526 146.063L308.12 141.75L299.832 134.844L296.239 139.156ZM304.526 142.828L295.583 150.281L299.177 154.594L308.12 147.141L304.526 142.828ZM304.526 146.063C303.516 145.221 303.516 143.67 304.526 142.828L308.12 147.141C309.803 145.738 309.803 143.153 308.12 141.75L304.526 146.063Z" fill="white" mask="url(#path-94-inside-2_117_4996)"/>
<path d="M204.506 84.6249V85.4973C204.506 86.6969 204.349 87.7729 204.037 88.7252C203.724 89.6776 203.277 90.4882 202.696 91.1571C202.121 91.8259 201.431 92.3384 200.624 92.6947C199.817 93.0436 198.922 93.2181 197.941 93.2181C196.967 93.2181 196.076 93.0436 195.269 92.6947C194.469 92.3384 193.775 91.8259 193.186 91.1571C192.597 90.4882 192.139 89.6776 191.812 88.7252C191.492 87.7729 191.332 86.6969 191.332 85.4973V84.6249C191.332 83.4254 191.492 82.3531 191.812 81.408C192.132 80.4556 192.583 79.645 193.165 78.9761C193.753 78.3 194.448 77.7875 195.247 77.4385C196.054 77.0823 196.945 76.9042 197.919 76.9042C198.901 76.9042 199.795 77.0823 200.602 77.4385C201.409 77.7875 202.103 78.3 202.685 78.9761C203.266 79.645 203.713 80.4556 204.026 81.408C204.346 82.3531 204.506 83.4254 204.506 84.6249ZM201.769 85.4973V84.6031C201.769 83.7162 201.681 82.9347 201.507 82.2585C201.34 81.5752 201.089 81.0045 200.754 80.5465C200.427 80.0812 200.024 79.7322 199.544 79.4996C199.064 79.2597 198.523 79.1397 197.919 79.1397C197.316 79.1397 196.778 79.2597 196.305 79.4996C195.833 79.7322 195.429 80.0812 195.095 80.5465C194.768 81.0045 194.517 81.5752 194.342 82.2585C194.168 82.9347 194.081 83.7162 194.081 84.6031V85.4973C194.081 86.3843 194.168 87.1694 194.342 87.8528C194.517 88.5362 194.771 89.1142 195.106 89.5867C195.447 90.052 195.854 90.4046 196.327 90.6445C196.8 90.8772 197.338 90.9935 197.941 90.9935C198.552 90.9935 199.093 90.8772 199.566 90.6445C200.038 90.4046 200.438 90.052 200.765 89.5867C201.092 89.1142 201.34 88.5362 201.507 87.8528C201.681 87.1694 201.769 86.3843 201.769 85.4973ZM209.237 83.4472V93H206.609V81.2008H209.117L209.237 83.4472ZM212.847 81.1244L212.825 83.5671C212.665 83.5381 212.491 83.5163 212.302 83.5017C212.12 83.4872 211.938 83.4799 211.756 83.4799C211.306 83.4799 210.909 83.5453 210.568 83.6762C210.226 83.7998 209.939 83.9815 209.706 84.2215C209.481 84.4541 209.306 84.7376 209.183 85.072C209.059 85.4065 208.987 85.7809 208.965 86.1953L208.365 86.2389C208.365 85.4973 208.438 84.8103 208.583 84.1778C208.728 83.5453 208.947 82.9892 209.237 82.5094C209.535 82.0295 209.906 81.6551 210.35 81.3861C210.8 81.1172 211.32 80.9827 211.909 80.9827C212.069 80.9827 212.24 80.9972 212.422 81.0263C212.611 81.0554 212.752 81.0881 212.847 81.1244ZM221.09 90.5573V76.2499H223.729V93H221.341L221.09 90.5573ZM213.413 87.2312V87.0022C213.413 86.108 213.518 85.2938 213.729 84.5595C213.94 83.818 214.245 83.1818 214.645 82.6511C215.045 82.1131 215.532 81.7024 216.106 81.4189C216.681 81.1281 217.328 80.9827 218.047 80.9827C218.76 80.9827 219.385 81.1208 219.923 81.397C220.461 81.6733 220.919 82.0695 221.297 82.5857C221.675 83.0946 221.977 83.7053 222.202 84.4177C222.428 85.1229 222.588 85.9081 222.682 86.7732V87.5039C222.588 88.3472 222.428 89.1178 222.202 89.8157C221.977 90.5137 221.675 91.1171 221.297 91.626C220.919 92.1349 220.457 92.5274 219.912 92.8037C219.374 93.08 218.745 93.2181 218.026 93.2181C217.313 93.2181 216.67 93.0691 216.095 92.771C215.528 92.4729 215.045 92.0549 214.645 91.5169C214.245 90.9789 213.94 90.3464 213.729 89.6194C213.518 88.8852 213.413 88.0891 213.413 87.2312ZM216.041 87.0022V87.2312C216.041 87.7692 216.088 88.2709 216.183 88.7361C216.284 89.2014 216.441 89.6122 216.652 89.9684C216.862 90.3174 217.135 90.5936 217.469 90.7972C217.811 90.9935 218.218 91.0916 218.691 91.0916C219.287 91.0916 219.778 90.9608 220.163 90.699C220.548 90.4373 220.85 90.0847 221.068 89.6413C221.294 89.1905 221.446 88.6889 221.526 88.1364V86.1625C221.483 85.7336 221.392 85.3338 221.254 84.963C221.123 84.5922 220.945 84.2687 220.719 83.9924C220.494 83.7089 220.214 83.4908 219.879 83.3381C219.552 83.1782 219.163 83.0982 218.713 83.0982C218.233 83.0982 217.826 83.2 217.491 83.4036C217.157 83.6071 216.881 83.887 216.662 84.2433C216.452 84.5995 216.295 85.0139 216.194 85.4864C216.092 85.959 216.041 86.4643 216.041 87.0022ZM231.296 93.2181C230.423 93.2181 229.635 93.0763 228.929 92.7928C228.232 92.502 227.635 92.0985 227.141 91.5823C226.654 91.0662 226.28 90.4591 226.018 89.7612C225.756 89.0633 225.625 88.3108 225.625 87.5039V87.0677C225.625 86.1444 225.76 85.3083 226.029 84.5595C226.298 83.8107 226.672 83.1709 227.152 82.6402C227.632 82.1022 228.199 81.6915 228.853 81.408C229.507 81.1244 230.216 80.9827 230.98 80.9827C231.823 80.9827 232.561 81.1244 233.193 81.408C233.826 81.6915 234.349 82.0913 234.764 82.6075C235.185 83.1164 235.498 83.7235 235.701 84.4286C235.912 85.1338 236.018 85.9117 236.018 86.7623V87.8855H226.901V85.999H233.422V85.7918C233.408 85.3192 233.313 84.8758 233.139 84.4614C232.972 84.047 232.714 83.7126 232.365 83.4581C232.016 83.2036 231.55 83.0764 230.969 83.0764C230.533 83.0764 230.144 83.1709 229.802 83.36C229.467 83.5417 229.188 83.8071 228.962 84.156C228.737 84.505 228.562 84.9266 228.439 85.421C228.322 85.9081 228.264 86.457 228.264 87.0677V87.5039C228.264 88.02 228.333 88.4999 228.471 88.9433C228.617 89.3795 228.828 89.7612 229.104 90.0884C229.38 90.4155 229.715 90.6736 230.107 90.8626C230.5 91.0444 230.947 91.1352 231.449 91.1352C232.081 91.1352 232.644 91.008 233.139 90.7536C233.633 90.4991 234.062 90.1392 234.426 89.674L235.811 91.0153C235.556 91.3861 235.225 91.7423 234.818 92.084C234.411 92.4184 233.913 92.691 233.324 92.9019C232.743 93.1127 232.066 93.2181 231.296 93.2181ZM240.324 83.4472V93H237.696V81.2008H240.204L240.324 83.4472ZM243.934 81.1244L243.912 83.5671C243.752 83.5381 243.577 83.5163 243.388 83.5017C243.207 83.4872 243.025 83.4799 242.843 83.4799C242.392 83.4799 241.996 83.5453 241.654 83.6762C241.313 83.7998 241.026 83.9815 240.793 84.2215C240.568 84.4541 240.393 84.7376 240.27 85.072C240.146 85.4065 240.073 85.7809 240.051 86.1953L239.452 86.2389C239.452 85.4973 239.524 84.8103 239.67 84.1778C239.815 83.5453 240.033 82.9892 240.324 82.5094C240.622 82.0295 240.993 81.6551 241.436 81.3861C241.887 81.1172 242.407 80.9827 242.996 80.9827C243.156 80.9827 243.327 80.9972 243.508 81.0263C243.697 81.0554 243.839 81.0881 243.934 81.1244ZM256.821 79.2379L252.077 93H249.209L255.185 77.1223H257.017L256.821 79.2379ZM260.79 93L256.036 79.2379L255.829 77.1223H257.672L263.669 93H260.79ZM260.561 87.1113V89.2814H251.925V87.1113H260.561ZM272.359 81.2008H274.748V92.6728C274.748 93.7343 274.522 94.6358 274.072 95.3773C273.621 96.1188 272.992 96.6823 272.185 97.0676C271.378 97.4602 270.444 97.6564 269.382 97.6564C268.932 97.6564 268.43 97.591 267.877 97.4602C267.332 97.3293 266.802 97.1185 266.285 96.8277C265.776 96.5441 265.351 96.1697 265.009 95.7044L266.242 94.1559C266.663 94.6576 267.129 95.0247 267.638 95.2573C268.146 95.49 268.681 95.6063 269.241 95.6063C269.844 95.6063 270.357 95.4936 270.778 95.2682C271.207 95.0501 271.538 94.7266 271.771 94.2977C272.003 93.8688 272.12 93.3453 272.12 92.7274V83.8725L272.359 81.2008ZM264.344 87.2312V87.0022C264.344 86.108 264.453 85.2938 264.671 84.5595C264.89 83.818 265.202 83.1818 265.609 82.6511C266.016 82.1131 266.511 81.7024 267.092 81.4189C267.674 81.1281 268.332 80.9827 269.066 80.9827C269.83 80.9827 270.48 81.1208 271.018 81.397C271.563 81.6733 272.018 82.0695 272.381 82.5857C272.745 83.0946 273.028 83.7053 273.232 84.4177C273.443 85.1229 273.599 85.9081 273.701 86.7732V87.5039C273.606 88.3472 273.446 89.1178 273.221 89.8157C272.996 90.5137 272.698 91.1171 272.327 91.626C271.956 92.1349 271.498 92.5274 270.953 92.8037C270.415 93.08 269.779 93.2181 269.044 93.2181C268.325 93.2181 267.674 93.0691 267.092 92.771C266.518 92.4729 266.024 92.0549 265.609 91.5169C265.202 90.9789 264.89 90.3464 264.671 89.6194C264.453 88.8852 264.344 88.0891 264.344 87.2312ZM266.972 87.0022V87.2312C266.972 87.7692 267.023 88.2709 267.125 88.7361C267.234 89.2014 267.398 89.6122 267.616 89.9684C267.841 90.3174 268.125 90.5936 268.466 90.7972C268.815 90.9935 269.226 91.0916 269.699 91.0916C270.317 91.0916 270.822 90.9608 271.214 90.699C271.614 90.4373 271.92 90.0847 272.13 89.6413C272.349 89.1905 272.501 88.6889 272.588 88.1364V86.1625C272.545 85.7336 272.454 85.3338 272.316 84.963C272.185 84.5922 272.007 84.2687 271.782 83.9924C271.556 83.7089 271.273 83.4908 270.931 83.3381C270.589 83.1782 270.186 83.0982 269.72 83.0982C269.248 83.0982 268.837 83.2 268.488 83.4036C268.139 83.6071 267.852 83.887 267.627 84.2433C267.409 84.5995 267.245 85.0139 267.136 85.4864C267.027 85.959 266.972 86.4643 266.972 87.0022ZM279.905 81.2008V93H277.266V81.2008H279.905ZM277.091 78.1037C277.091 77.7039 277.222 77.3731 277.484 77.1114C277.753 76.8424 278.123 76.7079 278.596 76.7079C279.061 76.7079 279.428 76.8424 279.697 77.1114C279.966 77.3731 280.101 77.7039 280.101 78.1037C280.101 78.4963 279.966 78.8235 279.697 79.0852C279.428 79.3469 279.061 79.4778 278.596 79.4778C278.123 79.4778 277.753 79.3469 277.484 79.0852C277.222 78.8235 277.091 78.4963 277.091 78.1037ZM285.007 83.7198V93H282.379V81.2008H284.854L285.007 83.7198ZM284.538 86.6642L283.687 86.6533C283.695 85.8172 283.811 85.0502 284.036 84.3523C284.269 83.6544 284.589 83.0546 284.996 82.553C285.41 82.0514 285.905 81.666 286.479 81.397C287.053 81.1208 287.693 80.9827 288.398 80.9827C288.965 80.9827 289.478 81.0626 289.936 81.2226C290.401 81.3752 290.798 81.6261 291.125 81.975C291.459 82.324 291.714 82.7784 291.888 83.3381C292.062 83.8907 292.15 84.5704 292.15 85.3774V93H289.511V85.3665C289.511 84.7994 289.427 84.3523 289.26 84.0252C289.1 83.6907 288.864 83.4545 288.551 83.3163C288.246 83.1709 287.864 83.0982 287.406 83.0982C286.955 83.0982 286.552 83.1927 286.196 83.3818C285.839 83.5708 285.538 83.8289 285.29 84.156C285.051 84.4832 284.865 84.8612 284.734 85.2901C284.603 85.7191 284.538 86.1771 284.538 86.6642ZM302.007 81.2008H304.395V92.6728C304.395 93.7343 304.17 94.6358 303.719 95.3773C303.268 96.1188 302.639 96.6823 301.832 97.0676C301.025 97.4602 300.091 97.6564 299.03 97.6564C298.579 97.6564 298.077 97.591 297.525 97.4602C296.979 97.3293 296.449 97.1185 295.933 96.8277C295.424 96.5441 294.998 96.1697 294.657 95.7044L295.889 94.1559C296.311 94.6576 296.776 95.0247 297.285 95.2573C297.794 95.49 298.328 95.6063 298.888 95.6063C299.491 95.6063 300.004 95.4936 300.425 95.2682C300.854 95.0501 301.185 94.7266 301.418 94.2977C301.65 93.8688 301.767 93.3453 301.767 92.7274V83.8725L302.007 81.2008ZM293.991 87.2312V87.0022C293.991 86.108 294.101 85.2938 294.319 84.5595C294.537 83.818 294.849 83.1818 295.256 82.6511C295.664 82.1131 296.158 81.7024 296.74 81.4189C297.321 81.1281 297.979 80.9827 298.713 80.9827C299.477 80.9827 300.127 81.1208 300.665 81.397C301.211 81.6733 301.665 82.0695 302.028 82.5857C302.392 83.0946 302.676 83.7053 302.879 84.4177C303.09 85.1229 303.246 85.9081 303.348 86.7732V87.5039C303.253 88.3472 303.094 89.1178 302.868 89.8157C302.643 90.5137 302.345 91.1171 301.974 91.626C301.603 92.1349 301.145 92.5274 300.6 92.8037C300.062 93.08 299.426 93.2181 298.692 93.2181C297.972 93.2181 297.321 93.0691 296.74 92.771C296.165 92.4729 295.671 92.0549 295.256 91.5169C294.849 90.9789 294.537 90.3464 294.319 89.6194C294.101 88.8852 293.991 88.0891 293.991 87.2312ZM296.62 87.0022V87.2312C296.62 87.7692 296.67 88.2709 296.772 88.7361C296.881 89.2014 297.045 89.6122 297.263 89.9684C297.488 90.3174 297.772 90.5936 298.114 90.7972C298.463 90.9935 298.873 91.0916 299.346 91.0916C299.964 91.0916 300.469 90.9608 300.862 90.699C301.262 90.4373 301.567 90.0847 301.778 89.6413C301.996 89.1905 302.148 88.6889 302.236 88.1364V86.1625C302.192 85.7336 302.101 85.3338 301.963 84.963C301.832 84.5922 301.654 84.2687 301.429 83.9924C301.203 83.7089 300.92 83.4908 300.578 83.3381C300.236 83.1782 299.833 83.0982 299.368 83.0982C298.895 83.0982 298.484 83.2 298.135 83.4036C297.786 83.6071 297.499 83.887 297.274 84.2433C297.056 84.5995 296.892 85.0139 296.783 85.4864C296.674 85.959 296.62 86.4643 296.62 87.0022Z" fill="white"/>
</svg>
