<svg width="327" height="169" viewBox="0 0 327 169" fill="none" xmlns="http://www.w3.org/2000/svg">
<rect width="327" height="169" rx="7" fill="#990D38"/>
<rect x="20" y="20" width="153" height="129" rx="12" fill="white"/>
<path d="M65.4617 135.564C71.993 142.458 88.0279 139.934 94.9743 135.564C117.518 121.381 157.033 97.7684 158.823 63.5622C159.584 49.0218 146.762 41.3891 141.407 39.1502C128.544 33.7702 114.43 32.1567 100.501 31.534C85.9522 30.8837 70.3463 31.3901 57.2423 38.4887C52.2801 41.1787 47.5975 44.6243 44.39 49.3318C41.1327 54.114 39.2619 59.8067 38.7637 65.5548C37.9611 74.8259 40.4574 84.1219 44.2295 92.6292C48.0016 101.136 53.0301 109.013 57.6491 117.094C60.6601 122.369 59.9599 129.755 65.4617 135.564Z" fill="#990D38"/>
<path opacity="0.7" d="M65.4617 135.564C71.993 142.458 88.0279 139.934 94.9743 135.564C117.518 121.381 157.033 97.7684 158.823 63.5622C159.584 49.0218 146.762 41.3891 141.407 39.1502C128.544 33.7702 114.43 32.1567 100.501 31.534C85.9522 30.8837 70.3463 31.3901 57.2423 38.4887C52.2801 41.1787 47.5975 44.6243 44.39 49.3318C41.1327 54.114 39.2619 59.8067 38.7637 65.5548C37.9611 74.8259 40.4574 84.1219 44.2295 92.6292C48.0016 101.136 53.0301 109.013 57.6491 117.094C60.6601 122.369 59.9599 129.755 65.4617 135.564Z" fill="white"/>
<path d="M64.9608 65.6878L51.7322 61.6804C51.2174 61.5255 50.9296 60.983 51.0846 60.4683L53.4453 52.6778C53.6002 52.163 54.1427 51.8752 54.6574 52.0302L67.886 56.0375C68.4008 56.1925 68.6886 56.7349 68.5336 57.2497L66.173 65.0402C66.018 65.5549 65.4755 65.8455 64.9608 65.6878Z" stroke="#263238" stroke-miterlimit="10"/>
<path d="M53.0468 53.9979L68.1352 58.5698" stroke="#263238" stroke-miterlimit="10"/>
<path d="M52.5873 55.5117L67.6757 60.0836" stroke="#263238" stroke-miterlimit="10"/>
<path d="M63.0844 62.9148C63.0042 63.1832 63.0429 63.4572 63.1702 63.6841C62.9544 63.7921 62.6942 63.8197 62.4424 63.745C61.9221 63.5873 61.6287 63.0421 61.7865 62.5218C61.9442 62.0015 62.4922 61.7082 63.0125 61.8659C63.2643 61.9434 63.4636 62.1122 63.5826 62.3225C63.3501 62.4415 63.1675 62.6491 63.0844 62.9148Z" stroke="#263238" stroke-miterlimit="10"/>
<path d="M64.9636 63.4849C64.8058 64.0024 64.2579 64.2957 63.7403 64.1408C63.2228 63.983 62.9295 63.4351 63.0844 62.9175C63.2422 62.4 63.7902 62.1067 64.3077 62.2616C64.828 62.4166 65.1213 62.9646 64.9636 63.4849Z" stroke="#263238" stroke-miterlimit="10"/>
<path d="M155.712 83.2116L144.739 79.8878C144.225 79.7328 143.937 79.1904 144.092 78.6756L146.015 72.3298C146.17 71.815 146.713 71.5272 147.227 71.6822L158.2 75.0059C158.715 75.1609 159.003 75.7033 158.848 76.2181L156.925 82.564C156.77 83.0787 156.227 83.3665 155.712 83.2116Z" stroke="#263238" stroke-miterlimit="10"/>
<path d="M145.719 73.3094L158.552 77.1978" stroke="#263238" stroke-miterlimit="10"/>
<path d="M145.329 74.5991L158.159 78.4874" stroke="#263238" stroke-miterlimit="10"/>
<path d="M154.257 80.8951C154.188 81.1221 154.221 81.3573 154.329 81.5483C154.146 81.6396 153.925 81.6645 153.712 81.6009C153.269 81.468 153.02 81.0031 153.152 80.5603C153.285 80.1175 153.753 79.8684 154.193 80.004C154.406 80.0677 154.578 80.2143 154.677 80.3915C154.484 80.4911 154.326 80.6682 154.257 80.8951Z" stroke="#263238" stroke-miterlimit="10"/>
<path d="M155.854 81.3795C155.721 81.8196 155.253 82.0686 154.813 81.9358C154.373 81.803 154.124 81.3353 154.257 80.8952C154.39 80.4552 154.857 80.2061 155.297 80.339C155.74 80.4718 155.989 80.9367 155.854 81.3795Z" stroke="#263238" stroke-miterlimit="10"/>
<path d="M140.635 44.6927L124.617 52.027L128.433 60.3606L144.451 53.0263L140.635 44.6927Z" stroke="#263238" stroke-miterlimit="10"/>
<path d="M143.076 51.8172L140.652 46.523C140.181 46.7388 139.622 46.5313 139.406 46.0608L126.457 51.9888C126.673 52.4592 126.466 53.0183 125.995 53.2341L128.419 58.5283C128.89 58.3125 129.449 58.52 129.665 58.9905L142.614 53.0625C142.395 52.5893 142.603 52.033 143.076 51.8172Z" stroke="#263238" stroke-miterlimit="10"/>
<path d="M136.001 54.4335C137.055 53.6234 137.253 52.1119 136.443 51.0574C135.633 50.0029 134.122 49.8048 133.067 50.6149C132.013 51.425 131.814 52.9365 132.624 53.991C133.435 55.0455 134.946 55.2436 136.001 54.4335Z" stroke="#263238" stroke-miterlimit="10"/>
<path d="M135.189 53.6934L135.369 54.0864L135.197 54.1639L135.017 53.7737C134.674 53.9093 134.303 53.9315 134.057 53.8374L134.068 53.5966C134.295 53.6796 134.621 53.6685 134.917 53.5551L134.505 52.6556C134.087 52.7359 133.65 52.794 133.442 52.3429C133.293 52.0136 133.398 51.6234 133.902 51.3411L133.722 50.9481L133.893 50.8706L134.073 51.2608C134.334 51.1529 134.627 51.1114 134.865 51.1557L134.87 51.3964C134.621 51.3605 134.375 51.3964 134.17 51.4767L134.585 52.3844C135.014 52.2986 135.471 52.2239 135.681 52.6805C135.836 53.0126 135.717 53.4139 135.189 53.6934ZM134.397 52.4176L134.004 51.5625C133.667 51.7534 133.592 52.008 133.691 52.2239C133.81 52.4841 134.084 52.473 134.397 52.4176ZM135.441 52.8079C135.316 52.5366 135.025 52.5588 134.699 52.6224L135.092 53.4776C135.454 53.2783 135.54 53.0265 135.441 52.8079Z" fill="#263238"/>
<path d="M51.8912 82.5063L39.6187 83.5669L40.1703 89.9499L52.4428 88.8893L51.8912 82.5063Z" stroke="#263238" stroke-miterlimit="10"/>
<path d="M51.8207 87.7668L51.4693 83.7124C51.1067 83.7428 50.7885 83.4772 50.758 83.1146L40.8393 83.9725C40.8698 84.3351 40.6041 84.6534 40.2415 84.6838L40.593 88.7382C40.9556 88.7077 41.2738 88.9734 41.3043 89.336L51.223 88.478C51.1925 88.1183 51.461 87.8 51.8207 87.7668Z" stroke="#263238" stroke-miterlimit="10"/>
<path d="M47.711 86.0814C47.7913 87.0085 47.105 87.825 46.1778 87.9052C45.2507 87.9855 44.4343 87.2991 44.3541 86.372C44.2738 85.4449 44.9601 84.6285 45.8873 84.5482C46.8144 84.468 47.6308 85.1543 47.711 86.0814Z" stroke="#263238" stroke-miterlimit="10"/>
<path d="M46.1889 87.1495L46.2138 87.4512L46.0837 87.4623L46.0588 87.1634C45.8014 87.1717 45.5524 87.0997 45.4112 86.9779L45.4749 86.823C45.6049 86.9309 45.8236 87.0001 46.045 86.9945L45.9841 86.3054C45.6907 86.2584 45.3891 86.1947 45.3586 85.8488C45.3365 85.597 45.4998 85.3645 45.8983 85.2981L45.8734 84.9964L46.0035 84.9854L46.0284 85.2842C46.2249 85.2759 46.4269 85.3147 46.5736 85.4005L46.521 85.561C46.366 85.4807 46.1944 85.4448 46.0422 85.4503L46.1031 86.1449C46.4047 86.1892 46.7258 86.2473 46.7534 86.5988C46.7756 86.8534 46.6012 87.0886 46.1889 87.1495ZM45.9675 86.1228L45.9121 85.4669C45.6437 85.5139 45.5358 85.6634 45.5496 85.8294C45.5662 86.0287 45.7461 86.0868 45.9675 86.1228ZM46.5625 86.6265C46.5459 86.4189 46.3466 86.3663 46.1169 86.3304L46.1723 86.9862C46.4601 86.9392 46.5763 86.7925 46.5625 86.6265Z" fill="#263238"/>
<path d="M151.888 48.4269C153.217 48.4269 154.295 47.3489 154.295 46.0192C154.295 44.6894 153.217 43.6115 151.888 43.6115C150.558 43.6115 149.48 44.6894 149.48 46.0192C149.48 47.3489 150.558 48.4269 151.888 48.4269Z" stroke="#263238" stroke-miterlimit="10"/>
<path d="M151.996 47.3559V47.7876H151.807V47.3586C151.439 47.3393 151.093 47.2036 150.908 47.0155L151.016 46.8024C151.19 46.9712 151.489 47.0985 151.807 47.1179V46.1271C151.392 46.0247 150.972 45.8974 150.972 45.402C150.972 45.0395 151.232 44.7295 151.807 44.6825V44.2507H151.996V44.6797C152.278 44.6908 152.56 44.7738 152.759 44.9122L152.665 45.1336C152.455 44.998 152.214 44.926 151.996 44.9149V45.9112C152.422 46.0136 152.867 46.1326 152.867 46.6363C152.867 47.0072 152.593 47.3227 151.996 47.3559ZM151.807 45.8669V44.926C151.42 44.9592 151.246 45.1585 151.246 45.3965C151.246 45.6815 151.498 45.7867 151.807 45.8669ZM152.593 46.6557C152.593 46.3596 152.319 46.2572 151.996 46.1769V47.1179C152.408 47.0874 152.593 46.8965 152.593 46.6557Z" fill="#263238"/>
<path d="M136.028 78.2244C137.323 77.9193 138.125 76.6229 137.82 75.3286C137.514 74.0344 136.218 73.2325 134.924 73.5375C133.63 73.8426 132.828 75.139 133.133 76.4333C133.438 77.7275 134.734 78.5294 136.028 78.2244Z" stroke="#263238" stroke-miterlimit="10"/>
<path d="M134.873 77.0787L134.646 77.4468L134.486 77.3472L134.71 76.9819C134.405 76.7715 134.181 76.4754 134.123 76.218L134.328 76.0935C134.386 76.3287 134.577 76.5944 134.834 76.7771L135.352 75.933C135.053 75.6286 134.76 75.2992 135.02 74.8758C135.208 74.5686 135.593 74.4385 136.107 74.7015L136.334 74.3334L136.495 74.433L136.271 74.7983C136.506 74.9561 136.702 75.1747 136.799 75.3961L136.603 75.5372C136.495 75.3103 136.326 75.1249 136.146 75.0003L135.623 75.85C135.933 76.1599 136.251 76.4976 135.986 76.9265C135.798 77.2365 135.399 77.361 134.873 77.0787ZM135.493 75.7088L135.986 74.9062C135.637 74.7319 135.385 74.8122 135.261 75.0142C135.111 75.2605 135.269 75.4819 135.493 75.7088ZM135.748 76.7937C135.903 76.5418 135.723 76.3094 135.488 76.0741L134.995 76.8767C135.363 77.0677 135.62 77.0012 135.748 76.7937Z" fill="#263238"/>
<path d="M100.924 29.4086C101.478 30.618 100.944 32.0488 99.7343 32.5995C98.5249 33.153 97.0941 32.6189 96.5434 31.4095C95.9899 30.2001 96.524 28.7693 97.7334 28.2186C98.9428 27.6651 100.374 28.1992 100.924 29.4086Z" stroke="#263238" stroke-miterlimit="10"/>
<path d="M99.3884 31.5783L99.5683 31.9713L99.3967 32.0488L99.2196 31.6586C98.8764 31.7942 98.5055 31.8163 98.2592 31.7222L98.2703 31.4815C98.4972 31.5645 98.8238 31.5562 99.1199 31.44L98.7076 30.5405C98.2897 30.6208 97.8524 30.6789 97.6449 30.2278C97.4954 29.8985 97.6006 29.5083 98.107 29.226L97.9271 28.833L98.0987 28.7555L98.2758 29.1457C98.536 29.0378 98.8293 28.9963 99.0673 29.0405L99.0729 29.2813C98.8238 29.2453 98.5775 29.2813 98.3727 29.3616L98.7878 30.2693C99.2168 30.1863 99.6734 30.1088 99.8838 30.5682C100.036 30.8975 99.917 31.2988 99.3884 31.5783ZM98.5969 30.3025L98.2067 29.4474C97.869 29.6383 97.7943 29.8929 97.8912 30.1088C98.0102 30.3689 98.2841 30.3579 98.5969 30.3025ZM99.6402 30.6955C99.5157 30.4243 99.2251 30.4464 98.8985 30.5101L99.2887 31.3652C99.6513 31.1632 99.7398 30.9141 99.6402 30.6955Z" fill="#263238"/>
<path d="M92.8156 126.918C93.6458 128.737 92.846 130.881 91.0278 131.712C89.2096 132.542 87.0647 131.742 86.2345 129.924C85.4042 128.106 86.2041 125.961 88.0223 125.131C89.8405 124.303 91.9853 125.103 92.8156 126.918Z" stroke="#263238" stroke-miterlimit="10"/>
<path d="M90.5048 130.179L90.776 130.771L90.5186 130.887L90.2501 130.3C89.7354 130.505 89.1764 130.536 88.8083 130.394L88.8249 130.035C89.1681 130.159 89.6579 130.145 90.1007 129.974L89.4835 128.623C88.8553 128.742 88.1994 128.831 87.8895 128.153C87.6653 127.66 87.823 127.071 88.5813 126.65L88.3101 126.058L88.5675 125.942L88.836 126.528C89.2289 126.368 89.6662 126.304 90.026 126.37L90.037 126.733C89.6634 126.68 89.2898 126.733 88.9854 126.852L89.6081 128.214C90.2529 128.086 90.9392 127.973 91.2547 128.662C91.4789 129.157 91.3018 129.761 90.5048 130.179ZM89.3203 128.261L88.7336 126.977C88.2243 127.264 88.1136 127.646 88.2603 127.97C88.4374 128.36 88.847 128.346 89.3203 128.261ZM90.8867 128.85C90.7012 128.443 90.264 128.477 89.7714 128.571L90.3581 129.855C90.9033 129.556 91.0361 129.179 90.8867 128.85Z" fill="#263238"/>
<path d="M41.0026 70.7107C39.5026 72.0281 37.2167 71.8814 35.8994 70.3814C34.582 68.8814 34.7287 66.5955 36.2287 65.2781C37.7287 63.9608 40.0146 64.1075 41.3319 65.6075C42.6493 67.1075 42.5026 69.3906 41.0026 70.7107Z" stroke="#263238" stroke-miterlimit="10"/>
<path d="M37.2139 69.4377L36.7268 69.8667L36.5414 69.6536L37.0257 69.2274C36.6825 68.7929 36.4916 68.2671 36.5192 67.8741L36.8707 67.7855C36.8513 68.1481 37.0063 68.6158 37.2969 68.9894L38.4122 68.0097C38.1161 67.4424 37.8421 66.839 38.4039 66.3464C38.8107 65.9894 39.4223 65.9728 40.0423 66.5761L40.5293 66.1472L40.7148 66.3603L40.2305 66.7865C40.4961 67.1158 40.6843 67.5171 40.7231 67.8796L40.3799 67.9931C40.3245 67.6222 40.1668 67.2791 39.962 67.0217L38.8384 68.0097C39.1456 68.5909 39.4528 69.2136 38.8855 69.7145C38.4731 70.077 37.8449 70.0798 37.2139 69.4377ZM38.7083 67.7496L39.7683 66.8169C39.3449 66.4128 38.9491 66.4156 38.6807 66.6509C38.3596 66.9331 38.4925 67.3234 38.7083 67.7496ZM38.5949 69.4183C38.9297 69.125 38.772 68.7126 38.5423 68.2698L37.4823 69.2025C37.9251 69.6397 38.3237 69.6564 38.5949 69.4183Z" fill="#263238"/>
<path d="M57.3921 101.202C57.4264 100.238 56.6729 99.4291 55.709 99.3948C54.7452 99.3605 53.9359 100.114 53.9016 101.078C53.8673 102.042 54.6208 102.851 55.5847 102.885C56.5486 102.92 57.3578 102.166 57.3921 101.202Z" stroke="#263238" stroke-miterlimit="10"/>
<path d="M56.3234 101.831L56.5255 102.072L56.4203 102.16L56.2211 101.922C56.008 102.083 55.7506 102.169 55.5624 102.149L55.5236 101.981C55.698 101.994 55.9249 101.925 56.1104 101.79L55.6509 101.239C55.3742 101.375 55.0781 101.499 54.8484 101.222C54.6796 101.02 54.6796 100.727 54.9812 100.434L54.7792 100.193L54.8844 100.104L55.0836 100.342C55.2469 100.218 55.4406 100.132 55.6177 100.118L55.6676 100.284C55.4877 100.306 55.3188 100.378 55.1943 100.472L55.6565 101.029C55.9415 100.887 56.246 100.746 56.4812 101.029C56.6472 101.231 56.6417 101.535 56.3234 101.831ZM55.5264 101.087L55.0891 100.564C54.8899 100.763 54.8844 100.954 54.9951 101.087C55.1279 101.244 55.3188 101.186 55.5264 101.087ZM56.3317 101.164C56.1934 100.998 55.9941 101.07 55.7755 101.175L56.2127 101.698C56.4286 101.491 56.4424 101.297 56.3317 101.164Z" fill="#263238"/>
<path d="M111.278 136.007C111.895 136.749 111.795 137.85 111.053 138.467C110.312 139.084 109.21 138.985 108.593 138.243C107.976 137.501 108.076 136.4 108.817 135.783C109.556 135.166 110.658 135.265 111.278 136.007Z" stroke="#263238" stroke-miterlimit="10"/>
<path d="M110.613 137.82L110.815 138.06L110.71 138.149L110.511 137.911C110.298 138.072 110.04 138.157 109.852 138.138L109.814 137.969C109.988 137.983 110.215 137.914 110.4 137.778L109.941 137.227C109.664 137.363 109.368 137.488 109.138 137.211C108.969 137.009 108.969 136.715 109.271 136.422L109.069 136.181L109.174 136.093L109.374 136.331C109.537 136.206 109.731 136.12 109.908 136.107L109.957 136.273C109.778 136.295 109.609 136.367 109.484 136.461L109.946 137.017C110.231 136.876 110.536 136.735 110.771 137.017C110.937 137.219 110.932 137.524 110.613 137.82ZM109.819 137.075L109.382 136.552C109.183 136.751 109.177 136.942 109.288 137.075C109.421 137.233 109.609 137.175 109.819 137.075ZM110.622 137.153C110.483 136.987 110.284 137.059 110.065 137.164L110.503 137.687C110.721 137.479 110.735 137.286 110.622 137.153Z" fill="#263238"/>
<path d="M63.4845 36.5207C63.5726 35.5603 62.8655 34.7103 61.9051 34.6221C60.9447 34.534 60.0947 35.2411 60.0066 36.2015C59.9184 37.1619 60.6255 38.0119 61.5859 38.1C62.5463 38.1882 63.3963 37.4811 63.4845 36.5207Z" stroke="#263238" stroke-miterlimit="10"/>
<path d="M62.4257 37.0553L62.6278 37.2961L62.5226 37.3846L62.3233 37.1466C62.1102 37.3071 61.8529 37.3929 61.6647 37.3735L61.6259 37.2047C61.8003 37.2186 62.0272 37.1494 62.2126 37.0138L61.7532 36.463C61.4765 36.5986 61.1804 36.7232 60.9507 36.4464C60.7819 36.2444 60.7819 35.9511 61.0835 35.6577L60.8815 35.4169L60.9866 35.3284L61.1859 35.5664C61.3492 35.4418 61.5429 35.356 61.72 35.3422L61.7698 35.5083C61.59 35.5304 61.4211 35.6024 61.2966 35.6964L61.7588 36.2527C62.0438 36.1116 62.3483 35.9704 62.5835 36.2527C62.7495 36.4547 62.7412 36.7592 62.4257 37.0553ZM61.6287 36.3108L61.1914 35.7878C60.9922 35.987 60.9866 36.178 61.0973 36.3108C61.2302 36.4686 61.4184 36.4105 61.6287 36.3108ZM62.434 36.3883C62.2957 36.2223 62.0964 36.2942 61.8778 36.3994L62.315 36.9224C62.5309 36.7149 62.5447 36.5212 62.434 36.3883Z" fill="#263238"/>
<path opacity="0.2" d="M101.099 107.956C101.099 107.956 98.965 118.788 85.8775 121.229C85.8775 121.229 82.4596 123.955 81.3222 125.568C80.1847 127.181 74.1156 129.924 67.9552 138.481C61.7948 147.038 52.5956 119.864 52.5956 119.864L72.9035 93.4872L101.099 107.956Z" fill="black" fill-opacity="0.7"/>
<path d="M112.73 57.1086C112.73 57.1086 119.788 53.6603 121.34 54.2553C122.893 54.8503 124.376 58.4204 118.445 61.8382C112.517 65.2561 114.28 71.6241 114.28 71.6241H118.515C118.515 71.6241 121.055 72.6591 122.043 73.9875C123.031 75.3159 123.737 79.8574 124.301 81.3989C124.866 82.9404 124.584 84.4791 123.031 84.98C123.031 84.98 122.043 89.2862 122.325 91.1958C122.608 93.1054 122.467 94.3341 120.632 94.5666C118.797 94.7991 116.962 93.241 117.103 91.1958L115.692 96.3101L116.68 98.275C116.68 98.275 118.515 98.8894 120.491 100.583C122.467 102.277 124.443 102.739 123.878 104.626C123.313 106.514 122.184 108.548 116.256 106.19C110.328 103.832 105.388 94.5666 105.388 94.5666L101.827 62.2589L112.73 57.1086Z" fill="white"/>
<path opacity="0.4" d="M120.158 75.6674C116.959 80.029 120.499 85.0519 120.499 85.0519C120.499 85.0519 118.285 86.2863 118.221 89.4357C118.196 90.7447 118.526 92.574 118.919 94.2677C117.82 93.7336 117.009 92.574 117.109 91.1902L115.694 96.3046L116.682 98.2695C116.682 98.2695 117.994 98.7095 119.594 99.8691C118.717 101.884 118.448 104.375 118.528 106.943C117.864 106.771 117.111 106.525 116.262 106.185C110.331 103.824 105.394 94.5611 105.394 94.5611L101.832 62.2533L112.733 57.1058C112.733 57.1058 116.588 55.2211 119.229 54.4767C119.024 56.9481 119.511 59.4997 119.854 60.9249C119.442 61.2294 118.974 61.5338 118.451 61.8354C112.52 65.2505 114.286 71.6213 114.286 71.6213H118.523C118.523 71.6213 120.939 72.6038 121.971 73.8879C121.384 74.2615 120.773 74.8316 120.158 75.6674Z" fill="#990D38"/>
<path d="M101.691 102.742C101.691 102.742 94.0139 117.794 80.1737 121.209C80.1737 121.209 79.6451 124.187 77.3038 125.466C76.0529 126.146 71.0078 133.713 66.5743 140.615L42.046 125.568C43.557 124.074 45.2784 122.352 47.0385 120.556C52.1584 115.337 57.6186 109.472 59.293 106.591C60.7874 104.018 62.6776 99.5508 64.3243 95.3525C66.4331 89.9836 68.149 85.0519 68.149 85.0519L76.3297 75.958L89.193 61.6583L89.7492 63.4876L101.691 102.742Z" fill="white"/>
<path opacity="0.4" d="M89.1929 61.6583L101.691 102.742C101.691 102.742 94.0139 117.794 80.1737 121.209C80.1737 121.209 79.6451 124.187 77.3038 125.466C76.1829 126.077 72.0013 132.235 67.9524 138.481C69.4524 133.334 73.7974 125.128 73.7974 125.128C71.0105 121.826 71.8214 118.348 72.9367 119.338C74.016 120.302 76.8554 123.111 77.0353 123.288C75.8038 121.837 75.5187 119.565 75.5187 119.565C75.5187 119.565 78.9726 121.862 79.2521 118.171C79.5316 114.481 77.182 105.495 77.182 105.495L71.0271 81.8527L89.1929 61.6583Z" fill="#990D38"/>
<path d="M101.829 62.2561L112.73 57.1086C112.73 57.1086 119.788 53.6603 121.34 54.2553C122.893 54.8503 124.376 58.4204 118.445 61.8382C112.517 65.2561 114.28 71.6241 114.28 71.6241H118.515C118.515 71.6241 121.055 72.6591 122.043 73.9875C123.031 75.3159 123.737 79.8574 124.301 81.3989C124.866 82.9404 124.584 84.4791 123.031 84.98C123.031 84.98 122.043 89.2862 122.325 91.1958C122.608 93.1054 122.467 94.3341 120.632 94.5666C118.797 94.7991 116.962 93.241 117.103 91.1958L115.692 96.3101L116.68 98.275C116.68 98.275 118.515 98.8894 120.491 100.583C122.467 102.277 124.442 102.739 123.878 104.626C123.313 106.514 122.184 108.548 116.256 106.19C110.328 103.832 105.388 94.5666 105.388 94.5666" stroke="#263238" stroke-miterlimit="10" stroke-linecap="round" stroke-linejoin="round"/>
<path d="M123.034 84.9772C120.917 85.5501 118.445 85.1266 117.529 81.385C116.61 77.6433 118.448 73.6499 119.646 73.2679" stroke="#263238" stroke-miterlimit="10" stroke-linecap="round" stroke-linejoin="round"/>
<path d="M117.106 91.1931C117.106 91.1931 116.965 86.3749 118.73 85.1876" stroke="#263238" stroke-miterlimit="10" stroke-linecap="round" stroke-linejoin="round"/>
<path opacity="0.4" d="M65.6222 115.124C65.6222 115.124 60.4498 114.479 59.2957 112.165C58.3409 110.25 53.1657 117.412 47.0413 120.556C52.1611 115.337 57.6214 109.472 59.2957 106.591C60.7902 104.018 62.6804 99.5508 64.327 95.3525C64.327 95.3553 64.327 95.3553 64.327 95.3581C64.244 98.8396 62.387 104.17 62.9184 106.946C62.9184 106.946 60.9258 107.438 61.3271 109.641C61.7228 111.844 65.6222 115.124 65.6222 115.124Z" fill="#990D38"/>
<path d="M101.691 102.742C101.691 102.742 94.0139 117.797 80.1737 121.209C80.1737 121.209 79.6451 124.187 77.3038 125.466C76.0529 126.146 71.0077 133.71 66.5742 140.615" stroke="#263238" stroke-miterlimit="10" stroke-linecap="round" stroke-linejoin="round"/>
<path d="M42.0487 125.568C47.9601 119.726 57.0458 110.463 59.2957 106.591C62.6997 100.73 68.1517 85.0492 68.1517 85.0492L89.1957 61.6583" stroke="#263238" stroke-miterlimit="10" stroke-linecap="round" stroke-linejoin="round"/>
<path d="M77.182 79.5226C77.182 79.5226 80.4144 82.4174 81.3222 85.052" stroke="#263238" stroke-miterlimit="10" stroke-linecap="round" stroke-linejoin="round"/>
<path d="M115.337 115.124H80.5556C79.5261 115.124 78.6931 114.291 78.6931 113.261V39.2223C78.6931 38.1928 79.5261 37.3597 80.5556 37.3597H115.337C116.367 37.3597 117.2 38.1928 117.2 39.2223V113.264C117.2 114.291 116.367 115.124 115.337 115.124Z" fill="#263238"/>
<path d="M105.582 39.477L104.846 40.8275C104.685 41.1236 104.375 41.3063 104.038 41.3063H91.8553C91.5177 41.3063 91.2077 41.1209 91.0472 40.8275L90.311 39.477C90.1505 39.1809 89.8406 38.9982 89.5029 38.9982H80.9984C80.4892 38.9982 80.0796 39.4106 80.0796 39.917V112.719C80.0796 113.228 80.492 113.637 80.9984 113.637H114.889C115.398 113.637 115.808 113.225 115.808 112.719V39.917C115.808 39.4078 115.396 38.9982 114.889 38.9982H106.385C106.053 38.9954 105.743 39.1809 105.582 39.477Z" fill="#990D38" stroke="#263238" stroke-miterlimit="10" stroke-linecap="round" stroke-linejoin="round"/>
<path d="M95.3063 40.13C95.5799 40.13 95.8017 39.9083 95.8017 39.6347C95.8017 39.3611 95.5799 39.1393 95.3063 39.1393C95.0327 39.1393 94.8109 39.3611 94.8109 39.6347C94.8109 39.9083 95.0327 40.13 95.3063 40.13Z" stroke="white" stroke-miterlimit="10"/>
<path d="M101.082 39.6345C101.082 39.8033 100.944 39.9417 100.775 39.9417C100.606 39.9417 100.468 39.8033 100.468 39.6345C100.468 39.4656 100.606 39.3273 100.775 39.3273C100.946 39.3273 101.082 39.4629 101.082 39.6345Z" stroke="white" stroke-miterlimit="10"/>
<path d="M99.7039 39.4409H96.6956C96.5877 39.4409 96.5019 39.5267 96.5019 39.6346C96.5019 39.7398 96.5877 39.8284 96.6956 39.8284H99.7039C99.8118 39.8284 99.8976 39.7426 99.8976 39.6346C99.8949 39.5267 99.8091 39.4409 99.7039 39.4409Z" fill="white"/>
<path d="M86.3839 40.8467H83.1377V42.2249H86.3839V40.8467Z" stroke="#263238" stroke-miterlimit="10" stroke-linecap="round" stroke-linejoin="round"/>
<path d="M86.8849 41.0791H86.3812V41.9951H86.8849V41.0791Z" stroke="#263238" stroke-miterlimit="10" stroke-linecap="round" stroke-linejoin="round"/>
<path d="M109.387 41.7269H108.812V42.2278H109.387V41.7269Z" stroke="#263238" stroke-miterlimit="10" stroke-linecap="round" stroke-linejoin="round"/>
<path d="M110.511 41.2231H109.935V42.2277H110.511V41.2231Z" stroke="#263238" stroke-miterlimit="10" stroke-linecap="round" stroke-linejoin="round"/>
<path d="M111.635 40.7194H111.059V42.2249H111.635V40.7194Z" stroke="#263238" stroke-miterlimit="10" stroke-linecap="round" stroke-linejoin="round"/>
<path d="M112.755 40.2185H112.18V42.2277H112.755V40.2185Z" stroke="#263238" stroke-miterlimit="10" stroke-linecap="round" stroke-linejoin="round"/>
<path opacity="0.5" d="M115.581 55.0854H80.3121V88.7243H115.581V55.0854Z" fill="white"/>
<path d="M90.0536 49.711V50.2977C90.0536 51.0173 89.7049 51.4102 88.9992 51.4102H88.6643V53.1039H87.9559V48.5957H88.9992C89.7077 48.5957 90.0536 48.9887 90.0536 49.711ZM88.6643 49.2405V50.7654H88.9992C89.2234 50.7654 89.3479 50.663 89.3479 50.342V49.6667C89.3479 49.3457 89.2262 49.2433 88.9992 49.2433H88.6643V49.2405Z" fill="white"/>
<path d="M92.5914 53.1012H91.8774L91.7556 52.2848H90.8866L90.7621 53.1012H90.1117L90.8313 48.5957H91.8691L92.5914 53.1012ZM90.9752 51.6732H91.656L91.3211 49.3955H91.3073L90.9752 51.6732Z" fill="white"/>
<path d="M93.2667 51.6097L92.3728 48.5986H93.1117L93.6458 50.6521H93.6597L94.1938 48.5986H94.8691L93.9752 51.6097V53.1041H93.2667V51.6097Z" fill="white"/>
<path d="M96.6458 51.7949H96.6596L97.1356 48.5957H98.1209V53.1012H97.4511V49.8715H97.4373L96.9613 53.1012H96.2916L95.7768 49.9158H95.763V53.1012H95.1458V48.5957H96.131L96.6458 51.7949Z" fill="white"/>
<path d="M99.3441 50.497H100.315V51.1418H99.3441V52.4619H100.567V53.1067H98.6356V48.5957H100.567V49.2405H99.3441V50.497Z" fill="white"/>
<path d="M101.649 49.8383H101.636V53.1012H100.999V48.5957H101.887L102.601 51.2912H102.615V48.5957H103.246V53.1012H102.518L101.649 49.8383Z" fill="white"/>
<path d="M103.548 48.5957H105.737V49.2405H104.998V53.1012H104.29V49.2405H103.551V48.5957H103.548Z" fill="white"/>
<path d="M106.999 48.5459C107.688 48.5459 108.042 48.9583 108.042 49.6778V49.8189H107.373V49.6335C107.373 49.3125 107.245 49.1907 107.018 49.1907C106.794 49.1907 106.664 49.3125 106.664 49.6335C106.664 49.9629 106.805 50.2064 107.27 50.6104C107.862 51.1307 108.048 51.5043 108.048 52.0191C108.048 52.7387 107.688 53.151 106.993 53.151C106.299 53.151 105.939 52.7387 105.939 52.0191V51.7424H106.609V52.0634C106.609 52.3844 106.75 52.5006 106.977 52.5006C107.201 52.5006 107.345 52.3844 107.345 52.0634C107.345 51.7341 107.204 51.4905 106.739 51.0865C106.147 50.5662 105.961 50.1926 105.961 49.6778C105.956 48.9583 106.31 48.5459 106.999 48.5459Z" fill="white"/>
<path d="M112.755 59.1594H83.1377V63.5846H112.755V59.1594Z" fill="white" stroke="#263238" stroke-miterlimit="10" stroke-linecap="round" stroke-linejoin="round"/>
<path d="M112.755 67.459H83.1377V71.8842H112.755V67.459Z" fill="white" stroke="#263238" stroke-miterlimit="10" stroke-linecap="round" stroke-linejoin="round"/>
<path d="M112.755 75.006H83.1377V79.4312H112.755V75.006Z" fill="white" stroke="#263238" stroke-miterlimit="10" stroke-linecap="round" stroke-linejoin="round"/>
<path d="M97.1606 81.0447H83.1377V86.2254H97.1606V81.0447Z" fill="white" stroke="#263238" stroke-miterlimit="10" stroke-linecap="round" stroke-linejoin="round"/>
<path d="M112.758 81.0447H98.7352V86.2254H112.758V81.0447Z" fill="white" stroke="#263238" stroke-miterlimit="10" stroke-linecap="round" stroke-linejoin="round"/>
<path d="M84.9836 58.3872V58.5062H84.0565V57.1971H84.9532V57.3161H84.1949V57.7811H84.8729V57.9001H84.1949V58.3872H84.9836Z" fill="#263238"/>
<path d="M86.9042 57.9361V58.5062H86.7714V57.95C86.7714 57.7424 86.6662 57.6345 86.4891 57.6345C86.2871 57.6345 86.1598 57.7645 86.1598 57.9887V58.5062H86.0269V57.95C86.0269 57.7424 85.9218 57.6345 85.7419 57.6345C85.5426 57.6345 85.4126 57.7645 85.4126 57.9887V58.5062H85.2797V57.521H85.407V57.7009C85.4762 57.5819 85.6035 57.5127 85.7668 57.5127C85.9301 57.5127 86.0574 57.5819 86.1155 57.7203C86.1875 57.593 86.3258 57.5127 86.5057 57.5127C86.7465 57.5155 86.9042 57.6538 86.9042 57.9361Z" fill="#263238"/>
<path d="M88.0085 57.8974V58.5063H87.8812V58.3541C87.8203 58.4537 87.7041 58.5173 87.5435 58.5173C87.3221 58.5173 87.1838 58.4011 87.1838 58.2323C87.1838 58.0801 87.2806 57.9528 87.5629 57.9528H87.8757V57.8919C87.8757 57.7231 87.7816 57.6317 87.5961 57.6317C87.4688 57.6317 87.3498 57.676 87.2696 57.748L87.2087 57.6483C87.3083 57.5653 87.455 57.5155 87.61 57.5155C87.8646 57.5155 88.0085 57.6428 88.0085 57.8974ZM87.8757 58.2129V58.0524H87.5657C87.3747 58.0524 87.3138 58.1271 87.3138 58.2295C87.3138 58.343 87.4052 58.4149 87.5629 58.4149C87.7124 58.4122 87.8231 58.3402 87.8757 58.2129Z" fill="#263238"/>
<path d="M88.3378 57.2137C88.3378 57.1639 88.3821 57.1196 88.4347 57.1196C88.49 57.1196 88.5315 57.1611 88.5315 57.211C88.5315 57.2663 88.49 57.3078 88.4347 57.3078C88.3821 57.3078 88.3378 57.2663 88.3378 57.2137ZM88.3682 57.5237H88.5011V58.5089H88.3682V57.5237Z" fill="#263238"/>
<path d="M88.8719 57.1196H89.0048V58.5089H88.8719V57.1196Z" fill="#263238"/>
<path d="M85.8996 61.7857V61.9047H84.9725V60.5957H85.8691V60.7147H85.1108V61.1796H85.7889V61.2986H85.1108V61.7857H85.8996Z" fill="#263238"/>
<path d="M87.8202 61.3347V61.9048H87.6874V61.3485C87.6874 61.141 87.5822 61.033 87.4051 61.033C87.2031 61.033 87.0758 61.1631 87.0758 61.3873V61.9048H86.9429V61.3485C86.9429 61.141 86.8378 61.033 86.6579 61.033C86.4586 61.033 86.3285 61.1631 86.3285 61.3873V61.9048H86.1957V60.9196H86.323V61.0994C86.3922 60.9804 86.5195 60.9113 86.6828 60.9113C86.8461 60.9113 86.9734 60.9804 87.0315 61.1188C87.1034 60.9915 87.2418 60.9113 87.4217 60.9113C87.6625 60.914 87.8202 61.0524 87.8202 61.3347Z" fill="#263238"/>
<path d="M88.9217 61.296V61.9048H88.7944V61.7526C88.7335 61.8522 88.6173 61.9159 88.4568 61.9159C88.2354 61.9159 88.097 61.7997 88.097 61.6308C88.097 61.4786 88.1938 61.3513 88.4761 61.3513H88.7889V61.2904C88.7889 61.1216 88.6948 61.0303 88.5093 61.0303C88.382 61.0303 88.263 61.0746 88.1828 61.1465L88.1219 61.0469C88.2215 60.9639 88.3682 60.9141 88.5232 60.9141C88.7778 60.9141 88.9217 61.0414 88.9217 61.296ZM88.7916 61.6087V61.4482H88.4817C88.2907 61.4482 88.2298 61.5229 88.2298 61.6253C88.2298 61.7388 88.3212 61.8107 88.4789 61.8107C88.6283 61.8107 88.739 61.7388 88.7916 61.6087Z" fill="#263238"/>
<path d="M89.2538 60.6094C89.2538 60.5595 89.2981 60.5153 89.3507 60.5153C89.406 60.5153 89.4475 60.5568 89.4475 60.6066C89.4475 60.6619 89.406 60.7034 89.3507 60.7034C89.2953 60.7062 89.2538 60.6619 89.2538 60.6094ZM89.2843 60.9221H89.4171V61.9073H89.2843V60.9221Z" fill="#263238"/>
<path d="M89.7879 60.5182H89.9207V61.9075H89.7879V60.5182Z" fill="#263238"/>
<path d="M91.1938 61.3347V61.9048H91.061V61.3486C91.061 61.141 90.953 61.0331 90.7649 61.0331C90.5545 61.0331 90.4217 61.1631 90.4217 61.3873V61.9048H90.2888V60.9196H90.4162V61.1023C90.4881 60.9832 90.621 60.9141 90.7898 60.9141C91.0305 60.9141 91.1938 61.0524 91.1938 61.3347Z" fill="#263238"/>
<path d="M92.298 61.296V61.9048H92.1707V61.7526C92.1098 61.8522 91.9936 61.9159 91.8331 61.9159C91.6117 61.9159 91.4733 61.7997 91.4733 61.6308C91.4733 61.4786 91.5702 61.3513 91.8525 61.3513H92.1652V61.2904C92.1652 61.1216 92.0711 61.0303 91.8857 61.0303C91.7584 61.0303 91.6394 61.0746 91.5591 61.1465L91.4982 61.0469C91.5979 60.9639 91.7445 60.9141 91.8995 60.9141C92.1541 60.9141 92.298 61.0414 92.298 61.296ZM92.1652 61.6087V61.4482H91.8552C91.6643 61.4482 91.6034 61.5229 91.6034 61.6253C91.6034 61.7388 91.6947 61.8107 91.8525 61.8107C92.0019 61.8107 92.1126 61.7388 92.1652 61.6087Z" fill="#263238"/>
<path d="M94.2823 61.3347V61.9048H94.1495V61.3485C94.1495 61.141 94.0443 61.033 93.8672 61.033C93.6652 61.033 93.5379 61.1631 93.5379 61.3873V61.9048H93.405V61.3485C93.405 61.141 93.2999 61.033 93.12 61.033C92.9207 61.033 92.7906 61.1631 92.7906 61.3873V61.9048H92.6578V60.9196H92.7851V61.0994C92.8543 60.9804 92.9816 60.9113 93.1449 60.9113C93.3082 60.9113 93.4355 60.9804 93.4936 61.1188C93.5655 60.9915 93.7039 60.9113 93.8838 60.9113C94.1246 60.914 94.2823 61.0524 94.2823 61.3347Z" fill="#263238"/>
<path d="M95.5028 61.4537H94.6808C94.6947 61.6585 94.8524 61.7969 95.0683 61.7969C95.1873 61.7969 95.2952 61.7526 95.3699 61.6668L95.4447 61.7526C95.3561 61.8578 95.2205 61.9131 95.0655 61.9131C94.7583 61.9131 94.548 61.7028 94.548 61.4122C94.548 61.1216 94.7528 60.9141 95.0295 60.9141C95.3063 60.9141 95.5056 61.1189 95.5056 61.4122C95.5056 61.4233 95.5028 61.4399 95.5028 61.4537ZM94.6808 61.3541H95.3783C95.3616 61.1604 95.2205 61.0275 95.0295 61.0275C94.8386 61.0275 94.6975 61.1631 94.6808 61.3541Z" fill="#263238"/>
<path d="M97.429 61.4094C97.429 61.7277 97.31 61.9158 97.119 61.9158C96.9972 61.9158 96.9142 61.8411 96.9087 61.711C96.834 61.8411 96.6983 61.9158 96.5351 61.9158C96.2694 61.9158 96.0701 61.7138 96.0701 61.4315C96.0701 61.152 96.2694 60.95 96.5351 60.95C96.6956 60.95 96.8284 61.0219 96.9059 61.1465V60.9583H97.0277V61.6668C97.0277 61.7719 97.0803 61.8079 97.1439 61.8079C97.2601 61.8079 97.3349 61.664 97.3349 61.4122C97.3349 60.9721 97.0194 60.6815 96.5655 60.6815C96.1061 60.6815 95.7934 60.9887 95.7934 61.4315C95.7934 61.8743 96.1033 62.1843 96.5572 62.1843C96.6707 62.1843 96.809 62.1594 96.917 62.1013L96.9474 62.1926C96.834 62.2507 96.6817 62.2784 96.5572 62.2784C96.0425 62.2784 95.691 61.9241 95.691 61.4288C95.691 60.9306 96.048 60.5819 96.5655 60.5819C97.0692 60.5847 97.429 60.9195 97.429 61.4094ZM96.9031 61.4288C96.9031 61.2018 96.7509 61.0552 96.5489 61.0552C96.3413 61.0552 96.1919 61.2018 96.1919 61.4288C96.1919 61.6529 96.3413 61.8051 96.5489 61.8051C96.7509 61.8051 96.9031 61.6585 96.9031 61.4288Z" fill="#263238"/>
<path d="M98.5636 61.4537H97.7417C97.7555 61.6585 97.9133 61.7969 98.1291 61.7969C98.2481 61.7969 98.3561 61.7526 98.4308 61.6668L98.5055 61.7526C98.417 61.8578 98.2814 61.9131 98.1264 61.9131C97.8192 61.9131 97.6089 61.7028 97.6089 61.4122C97.6089 61.1216 97.8136 60.9141 98.0904 60.9141C98.3671 60.9141 98.5664 61.1189 98.5664 61.4122C98.5664 61.4233 98.5636 61.4399 98.5636 61.4537ZM97.7417 61.3541H98.4391C98.4225 61.1604 98.2814 61.0275 98.0904 61.0275C97.8994 61.0275 97.7583 61.1631 97.7417 61.3541Z" fill="#263238"/>
<path d="M100.462 61.3347V61.9048H100.329V61.3485C100.329 61.141 100.224 61.033 100.047 61.033C99.845 61.033 99.7177 61.1631 99.7177 61.3873V61.9048H99.5849V61.3485C99.5849 61.141 99.4797 61.033 99.2998 61.033C99.1006 61.033 98.9705 61.1631 98.9705 61.3873V61.9048H98.8376V60.9196H98.965V61.0994C99.0341 60.9804 99.1614 60.9113 99.3247 60.9113C99.488 60.9113 99.6153 60.9804 99.6734 61.1188C99.7454 60.9915 99.8838 60.9113 100.064 60.9113C100.304 60.914 100.462 61.0524 100.462 61.3347Z" fill="#263238"/>
<path d="M101.564 61.296V61.9048H101.436V61.7526C101.375 61.8522 101.262 61.9159 101.099 61.9159C100.877 61.9159 100.739 61.7997 100.739 61.6308C100.739 61.4786 100.836 61.3513 101.118 61.3513H101.431V61.2904C101.431 61.1216 101.334 61.0303 101.151 61.0303C101.024 61.0303 100.905 61.0746 100.825 61.1465L100.764 61.0469C100.863 60.9639 101.01 60.9141 101.165 60.9141C101.42 60.9141 101.564 61.0414 101.564 61.296ZM101.431 61.6087V61.4482H101.121C100.93 61.4482 100.869 61.5229 100.869 61.6253C100.869 61.7388 100.96 61.8107 101.118 61.8107C101.267 61.8107 101.378 61.7388 101.431 61.6087Z" fill="#263238"/>
<path d="M101.896 60.6094C101.896 60.5595 101.94 60.5153 101.993 60.5153C102.048 60.5153 102.089 60.5568 102.089 60.6066C102.089 60.6619 102.048 60.7034 101.993 60.7034C101.937 60.7062 101.896 60.6619 101.896 60.6094ZM101.923 60.9221H102.056V61.9073H101.923V60.9221Z" fill="#263238"/>
<path d="M102.427 60.5182H102.56V61.9075H102.427V60.5182Z" fill="#263238"/>
<path d="M102.845 61.8106C102.845 61.7525 102.889 61.7083 102.945 61.7083C103 61.7083 103.047 61.7525 103.047 61.8106C103.047 61.8688 103 61.913 102.945 61.913C102.889 61.9158 102.845 61.8688 102.845 61.8106Z" fill="#263238"/>
<path d="M103.199 61.4122C103.199 61.1189 103.412 60.9141 103.706 60.9141C103.872 60.9141 104.013 60.9805 104.09 61.1078L103.991 61.1742C103.924 61.0746 103.819 61.0275 103.706 61.0275C103.49 61.0275 103.332 61.1797 103.332 61.4122C103.332 61.6447 103.49 61.7969 103.706 61.7969C103.819 61.7969 103.924 61.7526 103.991 61.653L104.09 61.7194C104.013 61.8467 103.872 61.9131 103.706 61.9131C103.412 61.9159 103.199 61.7083 103.199 61.4122Z" fill="#263238"/>
<path d="M104.237 61.4122C104.237 61.1216 104.45 60.9141 104.738 60.9141C105.026 60.9141 105.239 61.1216 105.239 61.4122C105.239 61.7028 105.029 61.9131 104.738 61.9131C104.447 61.9131 104.237 61.7056 104.237 61.4122ZM105.103 61.4122C105.103 61.1825 104.948 61.0275 104.738 61.0275C104.528 61.0275 104.373 61.1797 104.373 61.4122C104.373 61.6419 104.53 61.7969 104.738 61.7969C104.945 61.7969 105.103 61.6447 105.103 61.4122Z" fill="#263238"/>
<path d="M107.132 61.3347V61.9048H106.999V61.3485C106.999 61.141 106.894 61.033 106.717 61.033C106.515 61.033 106.387 61.1631 106.387 61.3873V61.9048H106.254V61.3485C106.254 61.141 106.149 61.033 105.969 61.033C105.77 61.033 105.64 61.1631 105.64 61.3873V61.9048H105.507V60.9196H105.635V61.0994C105.704 60.9804 105.831 60.9113 105.994 60.9113C106.158 60.9113 106.285 60.9804 106.343 61.1188C106.415 60.9915 106.553 60.9113 106.733 60.9113C106.974 60.914 107.132 61.0524 107.132 61.3347Z" fill="#263238"/>
<path d="M85.2078 69.6953L85.4402 69.8254L85.3959 69.9029L85.1607 69.7673V70.0329H85.0749L85.0777 69.7673L84.8452 69.9029L84.8009 69.8254L85.0334 69.6953L84.8009 69.5652L84.8452 69.485L85.0777 69.6233L85.0749 69.3577H85.1607V69.6233L85.3959 69.485L85.4402 69.5652L85.2078 69.6953Z" fill="#263238"/>
<path d="M85.9688 69.6953L86.2013 69.8254L86.157 69.9029L85.9218 69.7673V70.0329H85.836L85.8387 69.7673L85.6063 69.9029L85.562 69.8254L85.7944 69.6953L85.562 69.5652L85.6063 69.485L85.8387 69.6233L85.836 69.3577H85.9218V69.6233L86.157 69.485L86.2013 69.5652L85.9688 69.6953Z" fill="#263238"/>
<path d="M86.7271 69.6953L86.9595 69.8254L86.9153 69.9029L86.68 69.7673V70.0329H86.5942L86.597 69.7673L86.3645 69.9029L86.3203 69.8254L86.5527 69.6953L86.3203 69.5652L86.3645 69.485L86.597 69.6233L86.5942 69.3577H86.68V69.6233L86.9153 69.485L86.9595 69.5652L86.7271 69.6953Z" fill="#263238"/>
<path d="M87.4854 69.6953L87.7179 69.8254L87.6736 69.9029L87.4384 69.7673V70.0329H87.3526L87.3553 69.7673L87.1229 69.9029L87.0786 69.8254L87.3111 69.6953L87.0786 69.5652L87.1229 69.485L87.3553 69.6233L87.3526 69.3577H87.4411V69.6233L87.6764 69.485L87.7206 69.5652L87.4854 69.6953Z" fill="#263238"/>
<path d="M88.2465 69.6953L88.4789 69.8254L88.4346 69.9029L88.1994 69.7673V70.0329H88.1136L88.1164 69.7673L87.8839 69.9029L87.8396 69.8254L88.0721 69.6953L87.8396 69.5652L87.8839 69.485L88.1164 69.6233L88.1136 69.3577H88.1994V69.6233L88.4346 69.485L88.4789 69.5652L88.2465 69.6953Z" fill="#263238"/>
<path d="M89.0047 69.6953L89.2372 69.8254L89.1929 69.9029L88.9577 69.7673V70.0329H88.8719L88.8746 69.7673L88.6422 69.9029L88.5979 69.8254L88.8304 69.6953L88.5979 69.5652L88.6422 69.485L88.8746 69.6233L88.8719 69.3577H88.9577V69.6233L89.1929 69.485L89.2372 69.5652L89.0047 69.6953Z" fill="#263238"/>
<path d="M89.763 69.6953L89.9955 69.8254L89.9512 69.9029L89.716 69.7673V70.0329H89.6302L89.633 69.7673L89.4005 69.9029L89.3562 69.8254L89.5887 69.6953L89.3562 69.5652L89.4005 69.485L89.633 69.6233L89.6302 69.3577H89.716V69.6233L89.9512 69.485L89.9955 69.5652L89.763 69.6953Z" fill="#263238"/>
<path d="M90.5241 69.6953L90.7566 69.8254L90.7123 69.9029L90.4771 69.7673V70.0329H90.3913L90.394 69.7673L90.1616 69.9029L90.1173 69.8254L90.3497 69.6953L90.1173 69.5652L90.1616 69.485L90.394 69.6233L90.3913 69.3577H90.4771V69.6233L90.7123 69.485L90.7566 69.5652L90.5241 69.6953Z" fill="#263238"/>
<path d="M91.2824 69.6953L91.5149 69.8254L91.4706 69.9029L91.2354 69.7673V70.0329H91.1496L91.1523 69.7673L90.9199 69.9029L90.8756 69.8254L91.108 69.6953L90.8756 69.5652L90.9199 69.485L91.1523 69.6233L91.1496 69.3577H91.2354V69.6233L91.4706 69.485L91.5149 69.5652L91.2824 69.6953Z" fill="#263238"/>
<path d="M92.0407 69.6953L92.2731 69.8254L92.2289 69.9029L91.9936 69.7673V70.0329H91.9078L91.9106 69.7673L91.6781 69.9029L91.6339 69.8254L91.8663 69.6953L91.6339 69.5652L91.6781 69.485L91.9106 69.6233L91.9078 69.3577H91.9936V69.6233L92.2289 69.485L92.2731 69.5652L92.0407 69.6953Z" fill="#263238"/>
<path d="M92.8017 69.6953L93.0342 69.8254L92.9899 69.9029L92.7547 69.7673V70.0329H92.6689L92.6717 69.7673L92.4392 69.9029L92.3949 69.8254L92.6274 69.6953L92.3949 69.5652L92.4392 69.485L92.6717 69.6233L92.6689 69.3577H92.7547V69.6233L92.9899 69.485L93.0342 69.5652L92.8017 69.6953Z" fill="#263238"/>
<path d="M85.0832 65.948C85.0832 66.2275 84.8812 66.3963 84.5491 66.3963H84.1976V66.8087H84.0592V65.4996H84.5491C84.8812 65.4996 85.0832 65.6684 85.0832 65.948ZM84.9448 65.948C84.9448 65.7376 84.8064 65.6186 84.5435 65.6186H84.1948V66.2745H84.5435C84.8064 66.2745 84.9448 66.1555 84.9448 65.948Z" fill="#263238"/>
<path d="M86.0878 66.1999V66.8088H85.9605V66.6565C85.8996 66.7562 85.7834 66.8198 85.6229 66.8198C85.4015 66.8198 85.2631 66.7036 85.2631 66.5348C85.2631 66.3826 85.36 66.2553 85.6422 66.2553H85.955V66.1944C85.955 66.0256 85.8609 65.9342 85.6754 65.9342C85.5481 65.9342 85.4291 65.9785 85.3489 66.0505L85.288 65.9508C85.3876 65.8678 85.5343 65.818 85.6893 65.818C85.9439 65.818 86.0878 65.9453 86.0878 66.1999ZM85.955 66.5126V66.3521H85.645C85.454 66.3521 85.3932 66.4268 85.3932 66.5292C85.3932 66.6427 85.4845 66.7147 85.6422 66.7147C85.7917 66.7147 85.9024 66.6427 85.955 66.5126Z" fill="#263238"/>
<path d="M86.312 66.698L86.3728 66.5928C86.4503 66.6537 86.5832 66.7035 86.7215 66.7035C86.9097 66.7035 86.9845 66.6399 86.9845 66.543C86.9845 66.2856 86.3452 66.4876 86.3452 66.1002C86.3452 65.9397 86.4835 65.8207 86.7354 65.8207C86.8627 65.8207 87.0011 65.8567 87.0841 65.912L87.026 66.0199C86.9402 65.9591 86.8378 65.9369 86.7354 65.9369C86.5583 65.9369 86.478 66.0061 86.478 66.1002C86.478 66.3659 87.1173 66.1666 87.1173 66.543C87.1173 66.7118 86.9678 66.8225 86.7105 66.8225C86.55 66.8197 86.3922 66.7672 86.312 66.698Z" fill="#263238"/>
<path d="M87.2252 66.698L87.2861 66.5928C87.3636 66.6537 87.4964 66.7035 87.6348 66.7035C87.823 66.7035 87.8977 66.6399 87.8977 66.543C87.8977 66.2856 87.2584 66.4876 87.2584 66.1002C87.2584 65.9397 87.3968 65.8207 87.6486 65.8207C87.7759 65.8207 87.9143 65.8567 87.9973 65.912L87.9392 66.0199C87.8534 65.9591 87.751 65.9369 87.6486 65.9369C87.4715 65.9369 87.3912 66.0061 87.3912 66.1002C87.3912 66.3659 88.0305 66.1666 88.0305 66.543C88.0305 66.7118 87.8811 66.8225 87.6237 66.8225C87.4632 66.8197 87.3054 66.7672 87.2252 66.698Z" fill="#263238"/>
<path d="M89.7021 65.8262L89.3285 66.8114H89.204L88.894 66.0061L88.5841 66.8114H88.4595L88.0887 65.8262H88.216L88.5259 66.662L88.8414 65.8262H88.9549L89.2704 66.662L89.5831 65.8262H89.7021Z" fill="#263238"/>
<path d="M89.7741 66.3161C89.7741 66.0256 89.9872 65.818 90.275 65.818C90.5628 65.818 90.7732 66.0256 90.7732 66.3161C90.7732 66.6067 90.5628 66.8171 90.275 66.8171C89.9872 66.8171 89.7741 66.6095 89.7741 66.3161ZM90.6403 66.3161C90.6403 66.0864 90.4854 65.9315 90.275 65.9315C90.0647 65.9315 89.9097 66.0837 89.9097 66.3161C89.9097 66.5458 90.0675 66.7008 90.275 66.7008C90.4854 66.7008 90.6403 66.5486 90.6403 66.3161Z" fill="#263238"/>
<path d="M91.5425 65.818V65.9481C91.5314 65.9481 91.5204 65.9453 91.5121 65.9453C91.3073 65.9453 91.18 66.0754 91.18 66.3078V66.8088H91.0471V65.8235H91.1744V66.0173C91.2353 65.8872 91.3598 65.818 91.5425 65.818Z" fill="#263238"/>
<path d="M92.6689 65.4222V66.8115H92.5416V66.6178C92.4613 66.7506 92.3257 66.8226 92.1624 66.8226C91.8829 66.8226 91.6726 66.6178 91.6726 66.3217C91.6726 66.0256 91.8829 65.8235 92.1624 65.8235C92.3202 65.8235 92.453 65.8899 92.536 66.0173V65.425H92.6689V65.4222ZM92.5388 66.3161C92.5388 66.0864 92.3811 65.9315 92.1735 65.9315C91.9632 65.9315 91.8082 66.0837 91.8082 66.3161C91.8082 66.5458 91.9659 66.7008 92.1735 66.7008C92.3811 66.7008 92.5388 66.5486 92.5388 66.3161Z" fill="#263238"/>
<path d="M94.6366 76.733V78.0421H94.501V76.852H94.191V76.733H94.6366Z" fill="#263238"/>
<path d="M95.8432 77.9202V78.0392H94.9244V77.9451L95.4696 77.4109C95.6162 77.2643 95.6467 77.1785 95.6467 77.0872C95.6467 76.9349 95.5388 76.8408 95.3395 76.8408C95.1873 76.8408 95.0683 76.8879 94.9825 76.9875L94.8884 76.9045C94.9908 76.7855 95.1513 76.7163 95.3533 76.7163C95.619 76.7163 95.7878 76.8519 95.7878 77.0705C95.7878 77.1951 95.7491 77.3086 95.572 77.4801L95.1264 77.9174H95.8432V77.9202Z" fill="#263238"/>
<path d="M96.8782 77.6657C96.8782 77.8843 96.7205 78.0531 96.4022 78.0531C96.214 78.0531 96.0314 77.9867 95.9317 77.8843L95.9982 77.7764C96.0812 77.8649 96.2334 77.9286 96.405 77.9286C96.6208 77.9286 96.7426 77.829 96.7426 77.6657C96.7426 77.5079 96.6319 77.4055 96.3884 77.4055H96.2943V77.3059L96.6568 76.852H95.9871V76.733H96.8284V76.8271L96.4576 77.2921C96.7371 77.3087 96.8782 77.4554 96.8782 77.6657Z" fill="#263238"/>
<path d="M98.1789 77.696H97.916V78.0391H97.7804V77.696H97.0415V77.5991L97.7361 76.7301H97.8856L97.2159 77.577H97.786V77.2725H97.916V77.577H98.1789V77.696Z" fill="#263238"/>
<path d="M99.6817 77.6544C99.6817 77.8758 99.5267 78.0502 99.2057 78.0502C99.0175 78.0502 98.8376 77.9837 98.7352 77.8813L98.8017 77.7734C98.8847 77.862 99.0369 77.9256 99.2029 77.9256C99.4243 77.9256 99.5433 77.8177 99.5433 77.6572C99.5433 77.4884 99.4382 77.3832 99.1061 77.3832H98.8266L98.893 76.7273H99.6098V76.8463H99.012L98.9677 77.2642H99.1365C99.5323 77.2697 99.6817 77.4247 99.6817 77.6544Z" fill="#263238"/>
<path d="M100.836 77.649C100.836 77.8953 100.642 78.0502 100.387 78.0502C100.039 78.0502 99.8505 77.8095 99.8505 77.3943C99.8505 76.9488 100.094 76.7163 100.448 76.7163C100.567 76.7163 100.678 76.7357 100.758 76.7883L100.703 76.8962C100.636 76.8519 100.545 76.8353 100.448 76.8353C100.166 76.8353 99.9834 77.018 99.9834 77.3722C99.9834 77.4026 99.9861 77.4386 99.9889 77.4801C100.055 77.3362 100.208 77.256 100.39 77.256C100.653 77.256 100.836 77.4109 100.836 77.649ZM100.703 77.6545C100.703 77.4829 100.576 77.3722 100.374 77.3722C100.174 77.3722 100.036 77.4967 100.036 77.6573C100.036 77.8012 100.155 77.9368 100.382 77.9368C100.57 77.9395 100.703 77.8288 100.703 77.6545Z" fill="#263238"/>
<path d="M101.898 76.733V76.8271L101.35 78.0421H101.204L101.743 76.852H101.071V77.0983H100.938V76.733H101.898Z" fill="#263238"/>
<path d="M103.047 77.6766C103.047 77.9091 102.85 78.053 102.538 78.053C102.222 78.053 102.031 77.9091 102.031 77.6766C102.031 77.5188 102.12 77.4081 102.283 77.3556C102.15 77.303 102.078 77.2033 102.078 77.0677C102.078 76.8546 102.258 76.7218 102.538 76.7218C102.815 76.7218 103 76.8546 103 77.0677C103 77.2033 102.925 77.303 102.79 77.3556C102.956 77.4081 103.047 77.5216 103.047 77.6766ZM102.909 77.6738C102.909 77.5133 102.77 77.4109 102.538 77.4109C102.305 77.4109 102.17 77.5133 102.17 77.6738C102.17 77.8371 102.305 77.9367 102.538 77.9367C102.77 77.9395 102.909 77.8371 102.909 77.6738ZM102.538 77.3057C102.743 77.3057 102.864 77.2144 102.864 77.0733C102.864 76.9266 102.734 76.8353 102.538 76.8353C102.339 76.8353 102.214 76.9238 102.214 77.0705C102.214 77.2144 102.333 77.3057 102.538 77.3057Z" fill="#263238"/>
<path d="M104.669 77.375C104.669 77.8206 104.425 78.053 104.071 78.053C103.952 78.053 103.844 78.0337 103.761 77.9811L103.816 77.8732C103.883 77.9174 103.974 77.934 104.071 77.934C104.353 77.934 104.536 77.7514 104.536 77.3972C104.536 77.3667 104.533 77.3307 104.53 77.2892C104.464 77.4331 104.312 77.5134 104.129 77.5134C103.869 77.5134 103.689 77.3612 103.689 77.1204C103.689 76.8741 103.883 76.7191 104.137 76.7191C104.478 76.7191 104.669 76.9627 104.669 77.375ZM104.483 77.1149C104.483 76.971 104.364 76.8354 104.137 76.8354C103.949 76.8354 103.816 76.9461 103.816 77.1204C103.816 77.292 103.944 77.4027 104.146 77.4027C104.345 77.4027 104.483 77.2782 104.483 77.1149Z" fill="#263238"/>
<path d="M105.222 76.733V78.0421H105.087V76.852H104.777V76.733H105.222Z" fill="#263238"/>
<path d="M105.535 77.3861C105.535 76.9682 105.754 76.7191 106.058 76.7191C106.36 76.7191 106.581 76.9682 106.581 77.3861C106.581 77.804 106.36 78.053 106.058 78.053C105.754 78.053 105.535 77.804 105.535 77.3861ZM106.44 77.3861C106.44 77.0374 106.282 76.8437 106.055 76.8437C105.828 76.8437 105.671 77.0374 105.671 77.3861C105.671 77.7348 105.828 77.9285 106.055 77.9285C106.285 77.9285 106.44 77.7376 106.44 77.3861Z" fill="#263238"/>
<path d="M107.132 76.733V78.0421H106.996V76.852H106.686V76.733H107.132Z" fill="#263238"/>
<path d="M108.297 76.733V78.0421H108.161V76.852H107.851V76.733H108.297Z" fill="#263238"/>
<path d="M108.969 76.733V78.0421H108.834V76.852H108.524V76.733H108.969Z" fill="#263238"/>
<path d="M110.176 77.9202V78.0392H109.257V77.9451L109.802 77.4109C109.949 77.2643 109.98 77.1785 109.98 77.0872C109.98 76.9349 109.872 76.8408 109.672 76.8408C109.52 76.8408 109.401 76.8879 109.315 76.9875L109.221 76.9045C109.321 76.7855 109.484 76.7163 109.686 76.7163C109.952 76.7163 110.121 76.8519 110.121 77.0705C110.121 77.1951 110.082 77.3086 109.905 77.4801L109.459 77.9174H110.176V77.9202Z" fill="#263238"/>
<path d="M110.707 76.733V78.0421H110.572V76.852H110.262V76.733H110.707Z" fill="#263238"/>
<path d="M88.6394 76.4313V76.232C88.6394 76.0383 88.4844 75.8833 88.2907 75.8833H84.7566C84.5629 75.8833 84.4079 76.0383 84.4079 76.232V76.4313H88.6394Z" fill="#263238"/>
<path d="M84.4079 76.7051V78.1718C84.4079 78.3656 84.5629 78.5206 84.7566 78.5206H88.2907C88.4844 78.5206 88.6394 78.3656 88.6394 78.1718V76.7051H84.4079Z" fill="#263238"/>
<path d="M84.4605 84.4294C84.4605 84.0115 84.6792 83.7625 84.9836 83.7625C85.288 83.7625 85.5067 84.0115 85.5067 84.4294C85.5067 84.8473 85.2853 85.0964 84.9836 85.0964C84.6792 85.0964 84.4605 84.8473 84.4605 84.4294ZM85.3683 84.4294C85.3683 84.0807 85.2105 83.887 84.9836 83.887C84.7567 83.887 84.5989 84.0807 84.5989 84.4294C84.5989 84.7781 84.7567 84.9718 84.9836 84.9718C85.2105 84.9718 85.3683 84.7809 85.3683 84.4294Z" fill="#263238"/>
<path d="M86.705 84.7199C86.705 84.9524 86.5085 85.0963 86.1958 85.0963C85.8803 85.0963 85.6893 84.9524 85.6893 84.7199C85.6893 84.5622 85.7779 84.4515 85.9411 84.3989C85.8083 84.3463 85.7363 84.2467 85.7363 84.1111C85.7363 83.898 85.919 83.7651 86.1958 83.7651C86.4725 83.7651 86.6579 83.898 86.6579 84.1111C86.6579 84.2467 86.5832 84.3463 86.4476 84.3989C86.6136 84.4515 86.705 84.5649 86.705 84.7199ZM86.5666 84.7172C86.5666 84.5566 86.4282 84.4542 86.1958 84.4542C85.9633 84.4542 85.8277 84.5539 85.8277 84.7172C85.8277 84.8804 85.9633 84.9801 86.1958 84.9801C86.4282 84.9828 86.5666 84.8804 86.5666 84.7172ZM86.1958 84.3491C86.4005 84.3491 86.5223 84.2578 86.5223 84.1166C86.5223 83.9699 86.3922 83.8786 86.1958 83.8786C85.9965 83.8786 85.872 83.9672 85.872 84.1138C85.872 84.2577 85.9937 84.3491 86.1958 84.3491Z" fill="#263238"/>
<path d="M87.3664 83.5105H87.4882L86.871 85.2734H86.7492L87.3664 83.5105Z" fill="#263238"/>
<path d="M88.4125 84.9663V85.0853H87.4937V84.9912L88.0389 84.4571C88.1856 84.3104 88.216 84.2219 88.216 84.1333C88.216 83.9811 88.1081 83.887 87.9088 83.887C87.7566 83.887 87.6376 83.934 87.5518 84.0337L87.4577 83.9506C87.5601 83.8316 87.7206 83.7625 87.9227 83.7625C88.1884 83.7625 88.3572 83.8981 88.3572 84.1167C88.3572 84.2412 88.3184 84.3547 88.1413 84.5263L87.6957 84.9635H88.4125V84.9663Z" fill="#263238"/>
<path d="M89.4697 84.7005C89.4697 84.9219 89.3147 85.0963 88.9937 85.0963C88.8055 85.0963 88.6256 85.0299 88.5232 84.9275L88.5896 84.8195C88.6727 84.9081 88.8249 84.9718 88.9909 84.9718C89.2123 84.9718 89.3313 84.8638 89.3313 84.7033C89.3313 84.5345 89.2262 84.4293 88.8941 84.4293H88.6146L88.681 83.7734H89.3978V83.8924H88.8L88.7557 84.3103H88.9245C89.3203 84.3131 89.4697 84.4681 89.4697 84.7005Z" fill="#263238"/>
<path d="M85.0721 82.9323V83.007H84.4965V82.1934H85.0528V82.2681H84.5823V82.5559H85.0029V82.6279H84.5823V82.9295H85.0721V82.9323Z" fill="#263238"/>
<path d="M85.7723 83.007L85.5094 82.65L85.2493 83.007H85.1496L85.4596 82.5891L85.1718 82.1934H85.2714L85.5177 82.5255L85.7612 82.1934H85.8553L85.5675 82.5863L85.8775 83.007H85.7723Z" fill="#263238"/>
<path d="M86.6357 82.4729C86.6357 82.6472 86.5112 82.7496 86.3036 82.7496H86.085V83.007H85.9992V82.1934H86.3036C86.5084 82.1934 86.6357 82.2985 86.6357 82.4729ZM86.5499 82.4729C86.5499 82.3428 86.4641 82.2681 86.3009 82.2681H86.085V82.6749H86.3009C86.4641 82.6749 86.5499 82.6002 86.5499 82.4729Z" fill="#263238"/>
<path d="M87.1394 82.1934H87.4715C87.7317 82.1934 87.906 82.3594 87.906 82.6002C87.906 82.8382 87.7317 83.007 87.4715 83.007H87.1394V82.1934ZM87.4632 82.9323C87.6791 82.9323 87.8175 82.7939 87.8175 82.6002C87.8175 82.4037 87.6791 82.2681 87.4632 82.2681H87.2225V82.9323H87.4632Z" fill="#263238"/>
<path d="M88.5426 82.6278V83.0069H88.4623V82.9128C88.4264 82.9765 88.3544 83.0152 88.252 83.0152C88.1136 83.0152 88.0278 82.9432 88.0278 82.8381C88.0278 82.744 88.0887 82.6637 88.2631 82.6637H88.4568V82.6278C88.4568 82.5226 88.3987 82.4672 88.2824 82.4672C88.2022 82.4672 88.1302 82.4949 88.0804 82.5392L88.0444 82.4783C88.1053 82.4257 88.1967 82.3953 88.2935 82.3953C88.454 82.3898 88.5426 82.47 88.5426 82.6278ZM88.4596 82.8242V82.7246H88.2686C88.1496 82.7246 88.1109 82.7717 88.1109 82.8326C88.1109 82.9045 88.169 82.9488 88.2658 82.9488C88.3599 82.946 88.4264 82.9017 88.4596 82.8242Z" fill="#263238"/>
<path d="M89.0878 82.9682C89.0545 82.9959 89.0075 83.0125 88.9577 83.0125C88.8442 83.0125 88.7778 82.9488 88.7778 82.8354V82.4673H88.6699V82.3981H88.7778V82.2653H88.8608V82.3981H89.0462V82.4673H88.8608V82.8326C88.8608 82.9046 88.8968 82.9433 88.966 82.9433C88.9992 82.9433 89.0324 82.9322 89.0573 82.9129L89.0878 82.9682Z" fill="#263238"/>
<path d="M89.7492 82.7274H89.2372C89.2455 82.8548 89.3451 82.9405 89.478 82.9405C89.5527 82.9405 89.6191 82.9129 89.6662 82.8603L89.7132 82.9129C89.6579 82.9765 89.5748 83.0125 89.478 83.0125C89.287 83.0125 89.157 82.8824 89.157 82.7025C89.157 82.5227 89.2843 82.3926 89.4558 82.3926C89.6274 82.3926 89.752 82.5199 89.752 82.7025C89.7492 82.7081 89.7492 82.7164 89.7492 82.7274ZM89.2372 82.6638H89.6717C89.6606 82.5448 89.5748 82.4618 89.4558 82.4618C89.3368 82.4618 89.2483 82.5448 89.2372 82.6638Z" fill="#263238"/>
<path d="M99.917 83.7762V85.0853H99.7814V83.8952H99.4714V83.7762H99.917Z" fill="#263238"/>
<path d="M101.124 84.9662V85.0852H100.205V84.9911L100.75 84.457C100.897 84.3103 100.927 84.2217 100.927 84.1332C100.927 83.981 100.822 83.8869 100.62 83.8869C100.468 83.8869 100.349 83.9339 100.263 84.0335L100.169 83.9505C100.271 83.8315 100.432 83.7623 100.634 83.7623C100.899 83.7623 101.068 83.8979 101.068 84.1166C101.068 84.2411 101.03 84.3546 100.852 84.5262L100.407 84.9634H101.124V84.9662Z" fill="#263238"/>
<path d="M102.159 84.7088C102.159 84.9274 102.001 85.0962 101.683 85.0962C101.494 85.0962 101.312 85.0298 101.212 84.9274L101.279 84.8195C101.362 84.908 101.514 84.9717 101.685 84.9717C101.901 84.9717 102.023 84.8721 102.023 84.7088C102.023 84.551 101.912 84.4486 101.669 84.4486H101.575V84.349L101.937 83.8951H101.268V83.7761H102.109V83.8702L101.738 84.3352C102.018 84.3518 102.159 84.4984 102.159 84.7088Z" fill="#263238"/>
<path d="M99.5185 82.6C99.5185 82.362 99.7011 82.1876 99.9447 82.1876C100.064 82.1876 100.169 82.2264 100.241 82.3066L100.185 82.362C100.119 82.2956 100.039 82.2651 99.9447 82.2651C99.7482 82.2651 99.6015 82.409 99.6015 82.6027C99.6015 82.7965 99.7482 82.9404 99.9447 82.9404C100.039 82.9404 100.119 82.9127 100.185 82.8435L100.241 82.8989C100.169 82.9791 100.061 83.0179 99.9419 83.0179C99.6983 83.0123 99.5185 82.838 99.5185 82.6Z" fill="#263238"/>
<path d="M101.533 82.1931L101.259 83.0068H101.168L100.93 82.3149L100.689 83.0068H100.601L100.327 82.1931H100.415L100.65 82.8933L100.894 82.1931H100.974L101.215 82.8961L101.453 82.1931H101.533Z" fill="#263238"/>
<path d="M92.6578 92.1201H91.9272L91.7695 92.4688H91.6255L92.2233 91.1598H92.3589L92.9567 92.4688H92.81L92.6578 92.1201ZM92.6052 92.0066L92.2898 91.3037L91.9743 92.0066H92.6052Z" fill="#263238"/>
<path d="M93.0397 91.9763C93.0397 91.6829 93.2528 91.4753 93.5462 91.4753C93.7122 91.4753 93.8534 91.5418 93.9309 91.6691L93.8312 91.7355C93.7648 91.6359 93.6597 91.5888 93.5462 91.5888C93.3303 91.5888 93.1753 91.741 93.1753 91.9735C93.1753 92.206 93.3331 92.3582 93.5462 92.3582C93.6597 92.3582 93.7648 92.3139 93.8312 92.2143L93.9309 92.2807C93.8534 92.408 93.7122 92.4744 93.5462 92.4744C93.2528 92.4772 93.0397 92.2696 93.0397 91.9763Z" fill="#263238"/>
<path d="M94.7196 92.4079C94.667 92.455 94.5895 92.4771 94.5121 92.4771C94.3266 92.4771 94.2242 92.3719 94.2242 92.192V91.597H94.0471V91.4836H94.2242V91.2677H94.3571V91.4836H94.656V91.597H94.3571V92.1837C94.3571 92.3 94.418 92.3636 94.5259 92.3636C94.5812 92.3636 94.6338 92.347 94.6726 92.3138L94.7196 92.4079Z" fill="#263238"/>
<path d="M94.9327 91.1737C94.9327 91.1239 94.977 91.0796 95.0296 91.0796C95.0849 91.0796 95.1265 91.1211 95.1265 91.1709C95.1265 91.2263 95.0849 91.2678 95.0296 91.2678C94.9742 91.2705 94.9327 91.2263 94.9327 91.1737ZM94.9632 91.4836H95.096V92.4689H94.9632V91.4836Z" fill="#263238"/>
<path d="M95.3644 91.9763C95.3644 91.6857 95.5775 91.4753 95.8654 91.4753C96.1532 91.4753 96.3635 91.6829 96.3635 91.9763C96.3635 92.2668 96.1532 92.4772 95.8654 92.4772C95.5803 92.4772 95.3644 92.2696 95.3644 91.9763ZM96.2307 91.9763C96.2307 91.7466 96.0757 91.5916 95.8654 91.5916C95.655 91.5916 95.5 91.7438 95.5 91.9763C95.5 92.206 95.6578 92.3609 95.8654 92.3609C96.0757 92.3609 96.2307 92.206 96.2307 91.9763Z" fill="#263238"/>
<path d="M97.5425 91.8988V92.4689H97.4096V91.9126C97.4096 91.705 97.3017 91.5971 97.1135 91.5971C96.9032 91.5971 96.7703 91.7272 96.7703 91.9541V92.4716H96.6375V91.4864H96.7648V91.6691C96.8367 91.5501 96.9696 91.4809 97.1384 91.4809C97.3792 91.4781 97.5425 91.6165 97.5425 91.8988Z" fill="#263238"/>
<path d="M98.5609 91.2788V91.7935H99.239V91.9125H98.5609V92.4688H98.4225V91.1598H99.322V91.2788H98.5609Z" fill="#263238"/>
<path d="M99.5295 91.1737C99.5295 91.1239 99.5738 91.0796 99.6264 91.0796C99.6817 91.0796 99.7232 91.1211 99.7232 91.1709C99.7232 91.2263 99.6817 91.2678 99.6264 91.2678C99.571 91.2705 99.5295 91.2263 99.5295 91.1737ZM99.5572 91.4836H99.69V92.4689H99.5572V91.4836Z" fill="#263238"/>
<path d="M100.971 91.4836V92.3471C100.971 92.6847 100.805 92.8397 100.479 92.8397C100.299 92.8397 100.122 92.7844 100.019 92.6875L100.086 92.5851C100.18 92.6681 100.321 92.7207 100.473 92.7207C100.722 92.7207 100.836 92.6072 100.836 92.3637V92.2392C100.753 92.3637 100.614 92.4301 100.454 92.4301C100.174 92.4301 99.9585 92.2336 99.9585 91.9514C99.9585 91.6691 100.172 91.4753 100.454 91.4753C100.617 91.4753 100.761 91.5418 100.844 91.6718V91.4836H100.971ZM100.844 91.9514C100.844 91.7383 100.686 91.5916 100.47 91.5916C100.255 91.5916 100.097 91.7383 100.097 91.9514C100.097 92.1644 100.252 92.3111 100.47 92.3111C100.686 92.3139 100.844 92.1644 100.844 91.9514Z" fill="#263238"/>
<path d="M102.231 91.4836V92.4688H102.103V92.2889C102.034 92.4079 101.907 92.4771 101.749 92.4771C101.497 92.4771 101.334 92.336 101.334 92.0537V91.4836H101.467V92.0399C101.467 92.2502 101.575 92.3554 101.763 92.3554C101.968 92.3554 102.098 92.2225 102.098 91.9984V91.4808H102.231V91.4836Z" fill="#263238"/>
<path d="M103.1 91.4779V91.608C103.089 91.608 103.077 91.6052 103.066 91.6052C102.862 91.6052 102.734 91.7353 102.734 91.9678V92.4687H102.601V91.4834H102.729V91.6772C102.792 91.5471 102.917 91.4779 103.1 91.4779Z" fill="#263238"/>
<path d="M104.184 92.0178H103.362C103.376 92.2226 103.534 92.3609 103.75 92.3609C103.869 92.3609 103.977 92.3167 104.052 92.2309L104.126 92.3167C104.038 92.4218 103.902 92.4772 103.747 92.4772C103.44 92.4772 103.23 92.2668 103.23 91.9763C103.23 91.6857 103.434 91.4753 103.711 91.4753C103.988 91.4753 104.187 91.6801 104.187 91.9763C104.187 91.9873 104.184 92.0039 104.184 92.0178ZM103.362 91.9181H104.06C104.043 91.7244 103.902 91.5916 103.711 91.5916C103.52 91.5916 103.379 91.7272 103.362 91.9181Z" fill="#263238"/>
<path d="M93.2445 97.7215V98.2972H92.7298V97.7381C92.2206 97.7077 91.7335 97.5472 91.4512 97.3258L91.7335 96.6976C91.9909 96.8885 92.3617 97.0269 92.7298 97.0629V96.2049C92.1597 96.0666 91.5232 95.8756 91.5232 95.1422C91.5232 94.597 91.9189 94.1293 92.7298 94.038V93.4679H93.2445V94.0269C93.6292 94.0574 94.0056 94.1598 94.2879 94.3397L94.0305 94.9706C93.7676 94.8212 93.5019 94.7354 93.2445 94.7022V95.5767C93.8146 95.7096 94.4429 95.9005 94.4429 96.6256C94.4429 97.1597 94.0526 97.6219 93.2445 97.7215ZM92.7325 95.4494V94.7188C92.4613 94.7797 92.3534 94.9291 92.3534 95.0979C92.3506 95.2806 92.5056 95.3775 92.7325 95.4494ZM93.6154 96.6865C93.6154 96.5066 93.4659 96.4097 93.2445 96.3323V97.0407C93.5019 96.9854 93.6154 96.8525 93.6154 96.6865Z" fill="#263238"/>
<path d="M96.2888 97.7215V98.2972H95.774V97.7381C95.2648 97.7077 94.7777 97.5472 94.4955 97.3258L94.7777 96.6976C95.0351 96.8885 95.406 97.0269 95.774 97.0629V96.2049C95.2039 96.0666 94.5674 95.8756 94.5674 95.1422C94.5674 94.597 94.9632 94.1293 95.774 94.038V93.4679H96.2888V94.0269C96.6735 94.0574 97.0498 94.1598 97.3321 94.3397L97.0748 94.9706C96.8118 94.8212 96.5462 94.7354 96.2888 94.7022V95.5767C96.8589 95.7096 97.4871 95.9005 97.4871 96.6256C97.4871 97.1597 97.0969 97.6219 96.2888 97.7215ZM95.7768 95.4494V94.7188C95.5056 94.7797 95.3977 94.9291 95.3977 95.0979C95.3949 95.2806 95.5499 95.3775 95.7768 95.4494ZM96.6596 96.6865C96.6596 96.5066 96.5102 96.4097 96.2888 96.3323V97.0407C96.5462 96.9854 96.6596 96.8525 96.6596 96.6865Z" fill="#263238"/>
<path d="M99.6098 97.7215V98.2972H99.095V97.7381C98.5858 97.7077 98.0987 97.5472 97.8164 97.3258L98.0987 96.6976C98.3561 96.8885 98.7269 97.0269 99.095 97.0629V96.2049C98.5249 96.0666 97.8884 95.8756 97.8884 95.1422C97.8884 94.597 98.2841 94.1293 99.095 94.038V93.4679H99.6098V94.0269C99.9945 94.0574 100.371 94.1598 100.653 94.3397L100.396 94.9706C100.133 94.8212 99.8671 94.7354 99.6098 94.7022V95.5767C100.18 95.7096 100.808 95.9005 100.808 96.6256C100.808 97.1597 100.418 97.6219 99.6098 97.7215ZM99.0978 95.4494V94.7188C98.8266 94.7797 98.7186 94.9291 98.7186 95.0979C98.7159 95.2806 98.8708 95.3775 99.0978 95.4494ZM99.9806 96.6865C99.9806 96.5066 99.8312 96.4097 99.6098 96.3323V97.0407C99.8671 96.9854 99.9806 96.8525 99.9806 96.6865Z" fill="#263238"/>
<path d="M103.208 97.7215V98.2972H102.693V97.7381C102.184 97.7077 101.696 97.5472 101.414 97.3258L101.696 96.6976C101.954 96.8885 102.325 97.0269 102.693 97.0629V96.2049C102.123 96.0666 101.486 95.8756 101.486 95.1422C101.486 94.597 101.882 94.1293 102.693 94.038V93.4679H103.208V94.0269C103.592 94.0574 103.969 94.1598 104.251 94.3397L103.993 94.9706C103.731 94.8212 103.465 94.7354 103.208 94.7022V95.5767C103.778 95.7096 104.406 95.9005 104.406 96.6256C104.406 97.1597 104.016 97.6219 103.208 97.7215ZM102.696 95.4494V94.7188C102.424 94.7797 102.316 94.9291 102.316 95.0979C102.314 95.2806 102.469 95.3775 102.696 95.4494ZM103.578 96.6865C103.578 96.5066 103.429 96.4097 103.208 96.3323V97.0407C103.465 96.9854 103.578 96.8525 103.578 96.6865Z" fill="#263238"/>
<path d="M103.684 106.84H92.2095C90.7261 106.84 89.5251 105.639 89.5251 104.156C89.5251 102.673 90.7261 101.472 92.2095 101.472H103.684C105.167 101.472 106.368 102.673 106.368 104.156C106.368 105.639 105.167 106.84 103.684 106.84Z" fill="#263238"/>
<path d="M94.2657 103.868C94.2657 104.203 94.0222 104.408 93.6209 104.408H93.1975V104.906H93.0314V103.329H93.6237C94.0222 103.329 94.2657 103.531 94.2657 103.868ZM94.0969 103.868C94.0969 103.616 93.9309 103.473 93.6154 103.473H93.1947V104.261H93.6154C93.9309 104.261 94.0969 104.117 94.0969 103.868Z" fill="white"/>
<path d="M95.4751 104.173V104.909H95.3229V104.723C95.251 104.845 95.1098 104.92 94.9161 104.92C94.6477 104.92 94.4844 104.779 94.4844 104.574C94.4844 104.391 94.6006 104.239 94.941 104.239H95.3174V104.167C95.3174 103.965 95.2012 103.854 94.9825 103.854C94.8303 103.854 94.6836 103.91 94.5868 103.993L94.5148 103.874C94.6338 103.771 94.8109 103.713 94.9964 103.713C95.3008 103.71 95.4751 103.865 95.4751 104.173ZM95.3146 104.552V104.358H94.9438C94.7141 104.358 94.6394 104.449 94.6394 104.571C94.6394 104.709 94.7501 104.795 94.9382 104.795C95.1181 104.792 95.2537 104.707 95.3146 104.552Z" fill="white"/>
<path d="M96.8838 103.722L96.2915 105.05C96.1919 105.283 96.0673 105.357 95.8958 105.357C95.7851 105.357 95.6799 105.321 95.6079 105.249L95.6827 105.13C95.7408 105.188 95.8127 105.222 95.8985 105.222C96.0037 105.222 96.0756 105.172 96.1448 105.022L96.1974 104.906L95.6688 103.722H95.8349L96.2804 104.729L96.726 103.722H96.8838Z" fill="white"/>
<path d="M98.2371 104.917V105.177H98.1236V104.92C97.9022 104.909 97.6947 104.829 97.584 104.715L97.6504 104.588C97.7555 104.69 97.9354 104.765 98.1236 104.776V104.184C97.8745 104.123 97.6227 104.045 97.6227 103.749C97.6227 103.534 97.7777 103.345 98.1236 103.318V103.057H98.2371V103.315C98.4059 103.32 98.5747 103.37 98.6937 103.456L98.6384 103.589C98.5111 103.509 98.3672 103.464 98.2371 103.459V104.057C98.4917 104.117 98.7601 104.189 98.7601 104.491C98.7601 104.71 98.5941 104.898 98.2371 104.917ZM98.1236 104.026V103.462C97.8911 103.481 97.7887 103.6 97.7887 103.744C97.786 103.915 97.9382 103.979 98.1236 104.026ZM98.5941 104.499C98.5941 104.322 98.4308 104.261 98.2343 104.212V104.776C98.4834 104.757 98.5941 104.643 98.5941 104.499Z" fill="white"/>
<path d="M99.6208 104.917V105.177H99.5073V104.92C99.2859 104.909 99.0784 104.829 98.9677 104.715L99.0341 104.588C99.1393 104.69 99.3192 104.765 99.5073 104.776V104.184C99.2583 104.123 99.0064 104.045 99.0064 103.749C99.0064 103.534 99.1614 103.345 99.5073 103.318V103.057H99.6208V103.315C99.7896 103.32 99.9584 103.37 100.077 103.456L100.022 103.589C99.8948 103.509 99.7509 103.464 99.6208 103.459V104.057C99.8754 104.117 100.144 104.189 100.144 104.491C100.144 104.71 99.9778 104.898 99.6208 104.917ZM99.5073 104.026V103.462C99.2749 103.481 99.1725 103.6 99.1725 103.744C99.1697 103.915 99.3219 103.979 99.5073 104.026ZM99.9778 104.499C99.9778 104.322 99.8145 104.261 99.618 104.212V104.776C99.8671 104.757 99.9778 104.643 99.9778 104.499Z" fill="white"/>
<path d="M101.005 104.917V105.177H100.891V104.92C100.67 104.909 100.462 104.829 100.351 104.715L100.418 104.588C100.523 104.69 100.703 104.765 100.891 104.776V104.184C100.642 104.123 100.39 104.045 100.39 103.749C100.39 103.534 100.545 103.345 100.891 103.318V103.057H101.005V103.315C101.173 103.32 101.342 103.37 101.461 103.456L101.406 103.589C101.279 103.509 101.135 103.464 101.005 103.459V104.057C101.259 104.117 101.528 104.189 101.528 104.491C101.528 104.71 101.362 104.898 101.005 104.917ZM100.891 104.026V103.462C100.659 103.481 100.556 103.6 100.556 103.744C100.553 103.915 100.706 103.979 100.891 104.026ZM101.362 104.499C101.362 104.322 101.198 104.261 101.002 104.212V104.776C101.251 104.757 101.362 104.643 101.362 104.499Z" fill="white"/>
<path d="M102.388 104.917V105.177H102.275V104.92C102.053 104.909 101.846 104.829 101.735 104.715L101.802 104.588C101.907 104.69 102.087 104.765 102.275 104.776V104.184C102.026 104.123 101.774 104.045 101.774 103.749C101.774 103.534 101.929 103.345 102.275 103.318V103.057H102.388V103.315C102.557 103.32 102.726 103.37 102.845 103.456L102.79 103.589C102.662 103.509 102.518 103.464 102.388 103.459V104.057C102.643 104.117 102.911 104.189 102.911 104.491C102.911 104.71 102.745 104.898 102.388 104.917ZM102.275 104.026V103.462C102.042 103.481 101.94 103.6 101.94 103.744C101.937 103.915 102.089 103.979 102.275 104.026ZM102.745 104.499C102.745 104.322 102.582 104.261 102.386 104.212V104.776C102.635 104.757 102.745 104.643 102.745 104.499Z" fill="white"/>
<path d="M80.586 98.3885C81.0011 104.768 78.0455 111.872 78.0455 111.872L62.0826 107.377L59.2985 106.591C62.0604 102.745 63.3833 95.1755 62.661 89.0483C62.6056 88.5861 62.5696 88.1488 62.5475 87.7365C62.2846 82.683 64.3685 81.2024 66.1452 78.969C68.0686 76.5503 72.3942 67.4175 72.3942 65.2561C72.3942 63.0919 77.8019 57.806 76.6008 51.7978C76.6008 51.7978 78.2364 50.7849 79.8803 51.6179C80.6248 51.9943 81.372 52.7498 81.9698 54.1474C83.3784 57.4407 81.4024 66.7395 79.717 69.0227L76.4763 82.4395C76.4763 82.4395 77.5695 84.3241 78.6432 87.7448C79.479 90.4154 80.301 94.0159 80.586 98.3885Z" fill="white"/>
<path opacity="0.4" d="M62.5448 87.7391C63.447 90.2133 64.4101 91.8765 64.327 95.358C64.244 98.8395 62.387 104.17 62.9184 106.946C62.9184 106.946 62.4977 107.048 62.0798 107.377L59.2957 106.591C62.0577 102.744 63.3806 95.1754 62.6582 89.0482C62.6029 88.586 62.5697 88.1515 62.5448 87.7391Z" fill="#990D38"/>
<path opacity="0.4" d="M79.7171 69.0254L76.4763 82.4422C76.4763 82.4422 77.5695 84.3268 78.6433 87.7475C78.6405 87.7447 78.6405 87.7419 78.6377 87.7392C76.4459 84.2023 74.5917 83.1534 74.5917 83.1534C76.0529 81.3988 77.1793 68.5881 77.1793 68.5881C77.1793 68.5881 81.7595 63.2053 81.3194 57.5735C81.1147 54.9831 80.492 53.0016 79.8748 51.6206C80.6193 51.997 81.3665 52.7525 81.9643 54.1501C83.3785 57.4434 81.3997 66.7422 79.7171 69.0254Z" fill="#990D38"/>
<path d="M59.2957 106.591C62.0605 102.747 63.3806 95.1754 62.661 89.0481C61.9387 82.9209 64.2219 81.3877 66.1453 78.9689C68.0687 76.5529 72.3943 67.4202 72.3943 65.256C72.3943 63.0918 77.802 57.8059 76.6009 51.7977C76.6009 51.7977 80.0519 49.6584 81.9726 54.1473C83.3812 57.4406 81.4025 66.7394 79.7226 69.0225L76.4819 82.4394C76.4819 82.4394 79.9412 88.4033 80.5888 98.3884C81.004 104.767 78.0483 111.872 78.0483 111.872" stroke="#263238" stroke-miterlimit="10" stroke-linecap="round" stroke-linejoin="round"/>
<path d="M69.9672 116.978C69.9672 116.978 73.6009 119.217 75.7208 122.751" stroke="#263238" stroke-miterlimit="10" stroke-linecap="round" stroke-linejoin="round"/>
<path d="M80.1737 121.209C80.1737 121.209 77.0437 121.655 74.2153 118.27C72.4026 116.101 66.898 115.121 65.6305 109.453" stroke="#263238" stroke-miterlimit="10" stroke-linecap="round" stroke-linejoin="round"/>
<path opacity="0.2" d="M125.666 137.969C117.654 134.136 122.508 131.067 111.485 126.307C100.462 121.549 100.349 117.484 101.68 108.135C103.011 98.7841 101.954 88.846 105.161 88.0019C108.369 87.1579 102.651 74.2641 106.39 69.7061L124.777 105.473L125.666 137.969Z" fill="black" fill-opacity="0.7"/>
<path d="M155.519 137.595C155.142 136.519 154.758 135.343 154.464 134.28C154.082 132.888 153.783 131.786 153.078 130.505C152.967 130.298 152.845 130.082 152.712 129.852C151.962 128.515 150.936 126.686 150.335 124.439C149.934 122.925 150.327 119.197 150.712 115.588C150.983 112.992 151.24 110.543 151.168 109.154L151.146 108.661C150.958 105.028 150.565 97.4668 149.751 95.3746C148.963 93.3598 148.226 93.0582 146.884 92.5185C146.746 92.4576 146.602 92.4023 146.45 92.3386C145.946 92.1283 145.088 91.6855 144.1 91.1735C141.872 90.0195 139.099 88.5831 137.691 88.3922C135.831 88.1459 134.037 88.5112 133.741 88.5748C132.006 87.2409 129.053 85.5251 128.173 85.4919C127.451 85.4559 125.882 85.907 125.121 86.1422C124.943 86.1976 124.808 86.2391 124.741 86.264C124.108 85.7935 123.576 85.442 123.233 85.2732C123.194 85.2566 123.161 85.24 123.131 85.2289C122.154 84.8277 120.679 84.8111 119.873 84.8332C119.63 84.8443 119.442 84.8581 119.353 84.8664C117.837 82.5306 116.339 80.2032 115.692 79.182C114.336 77.0344 110.137 68.195 110.093 68.1037C110.082 68.0816 110.065 68.065 110.038 68.0594C110.038 68.0594 110.024 68.0511 109.999 68.0456C109.672 67.9487 107.267 67.3399 106.302 69.6701C105.244 72.2051 106.755 77.7789 108.225 79.8019C108.934 80.7788 110.865 84.7502 112.83 88.8627C112.324 89.3304 108.297 93.0526 106.34 93.7473C104.738 94.3146 105.112 102.526 105.413 109.123C105.527 111.559 105.621 113.654 105.593 114.913C105.538 117.348 109.969 120.705 114.261 123.946C118.144 126.885 122.154 129.921 122.624 132.127C122.754 132.75 123.125 133.25 123.568 133.818C124.307 134.759 125.259 135.869 125.663 137.975C125.782 138.603 126.795 139.428 127.589 140.778H156.687C156.449 140.142 155.989 138.946 155.519 137.595ZM115.205 93.8414C116.613 96.7915 117.485 98.5572 117.69 98.7454C117.897 98.9336 117.889 99.8773 117.881 100.785C117.87 101.588 117.864 102.448 117.964 103.176C117.621 103.478 115.456 105.451 115.019 107.045L113.179 104.875L112.714 98.0784C112.993 97.7878 114.886 95.7869 115.205 93.8414Z" fill="white"/>
<path opacity="0.4" d="M147.177 112.799C147.861 119.178 147.869 122.637 148.636 124.483C149.928 127.599 151.838 128.23 151.838 128.23C151.287 127.151 150.723 125.881 150.338 124.436C149.937 122.922 150.33 119.194 150.714 115.586C150.986 112.99 151.246 110.538 151.171 109.148L151.146 108.656C150.958 105.022 150.565 97.4612 149.751 95.369C148.965 93.3542 148.226 93.0526 146.884 92.5129C146.746 92.452 146.602 92.3967 146.447 92.333C145.943 92.1227 145.088 91.6799 144.097 91.1679C141.869 90.0139 139.096 88.5775 137.688 88.3866C135.828 88.1403 134.035 88.5028 133.739 88.5692C132.003 87.2381 129.05 85.5222 128.17 85.4863C127.451 85.4531 125.5 86.0204 124.741 86.2584C128.054 88.9678 132.845 92.3386 132.845 92.3386C136.628 93.0913 136.143 94.7352 137.671 95.6513C139.058 96.4815 140.381 94.0517 141.537 93.8386C143.062 93.5563 144.8 95.1753 144.723 97.1263C144.507 102.54 146.591 107.325 147.177 112.799Z" fill="#990D38"/>
<path opacity="0.4" d="M128.054 93.0306C128.054 93.0306 125.057 90.5453 123.621 89.7013C122.184 88.8599 121.963 86.0067 123.092 85.312C123.131 85.2871 123.175 85.2733 123.23 85.2677C123.194 85.2511 123.158 85.2318 123.128 85.2207C122.151 84.8166 120.676 84.8028 119.871 84.8277C121.542 87.919 122.857 90.2935 123.214 90.811C124.423 92.5601 128.054 93.0306 128.054 93.0306Z" fill="#990D38"/>
<path opacity="0.4" d="M123.507 131.764C123.632 131.103 122.544 129.166 122.065 128.38C120.975 126.586 108.347 115.428 110.179 112.447C112.003 109.461 113.677 111.675 114.837 111.866C115.67 112.004 117.947 110.646 117.936 110.532C117.676 108.238 119.796 106.746 119.796 106.746C119.796 106.746 119.599 97.6135 119.115 97.7713C118.628 97.9262 112.8 84.0556 112.8 84.0556C112.8 84.0556 106.642 75.8638 106.988 72.0446C107.334 68.2283 110.005 68.1425 110.005 68.1425L109.999 68.0401C109.672 67.9432 107.267 67.3344 106.302 69.6646C105.244 72.1996 106.755 77.7734 108.225 79.7964C108.934 80.7733 110.865 84.7447 112.83 88.8572C112.324 89.3249 108.297 93.0472 106.34 93.7418C104.738 94.3091 105.112 102.52 105.413 109.118C105.527 111.553 105.621 113.648 105.593 114.908C105.538 117.343 109.969 120.7 114.261 123.941C118.144 126.88 122.154 129.916 122.624 132.121C122.754 132.744 123.125 133.245 123.568 133.812C123.499 133.01 123.443 132.113 123.507 131.764ZM115.205 93.8414C116.613 96.7916 117.485 98.5572 117.69 98.7454C117.897 98.9336 117.889 99.8773 117.881 100.785C117.87 101.588 117.864 102.448 117.964 103.176C117.621 103.478 115.456 105.451 115.019 107.045L113.179 104.875L112.714 98.0785C112.993 97.7879 114.886 95.787 115.205 93.8414Z" fill="#990D38"/>
<path d="M126.324 92.9946C126.324 92.9946 124.476 92.5075 123.214 90.8138C121.949 89.1201 116.981 81.4071 115.606 79.229C114.23 77.051 110.002 68.1452 110.002 68.1452C110.002 68.1452 107.4 67.2735 106.387 69.7061C105.375 72.136 106.761 77.6239 108.303 79.741C109.844 81.8554 117.175 98.1476 117.756 98.6762C118.337 99.202 117.466 103.544 118.631 104.596" stroke="#263238" stroke-miterlimit="10" stroke-linecap="round" stroke-linejoin="round"/>
<path d="M118.072 103.215C118.072 103.215 115.387 105.553 115.072 107.261L113.079 104.917L112.609 98.0423C112.609 98.0423 115.014 95.6346 115.144 93.4926" stroke="#263238" stroke-miterlimit="10" stroke-linecap="round" stroke-linejoin="round"/>
<path d="M112.949 88.8792C112.949 88.8792 108.491 93.0857 106.371 93.8357C104.251 94.5857 105.795 110.347 105.69 114.91C105.585 119.474 121.73 127.422 122.718 132.096C123.111 133.953 124.739 134.332 125.732 137.894" stroke="#263238" stroke-miterlimit="10" stroke-linecap="round" stroke-linejoin="round"/>
<path d="M119.295 84.9633C119.295 84.9633 121.722 84.7447 123.089 85.312C124.456 85.8793 130.011 90.6505 131.347 91.5638C132.684 92.4743 134.702 92.8202 135.084 93.7999" stroke="#263238" stroke-miterlimit="10" stroke-linecap="round" stroke-linejoin="round"/>
<path d="M124.722 86.3689C124.722 86.3689 127.221 85.5442 128.162 85.5857C129.103 85.6273 132.695 87.7472 134.3 89.1558C135.905 90.5645 137.516 91.3449 138.482 91.6964" stroke="#263238" stroke-miterlimit="10" stroke-linecap="round" stroke-linejoin="round"/>
<path d="M133.719 88.6771C133.719 88.6771 135.654 88.215 137.679 88.4862C139.705 88.7602 144.792 91.7518 146.414 92.4271C148.033 93.1024 148.81 93.2269 149.663 95.4077C150.512 97.5885 150.905 105.88 151.077 109.157C151.249 112.433 149.541 121.818 150.244 124.461C150.947 127.101 152.223 129.138 152.995 130.552" stroke="#263238" stroke-miterlimit="10" stroke-linecap="round" stroke-linejoin="round"/>
<path d="M112.609 98.0395C112.609 98.0395 112.205 96.4261 111.673 96.2185" stroke="#263238" stroke-miterlimit="10" stroke-linecap="round" stroke-linejoin="round"/>
<path d="M113.079 104.914C113.079 104.914 113.439 106.713 113.835 107.695C114.23 108.678 113.613 110.098 113.613 110.098" stroke="#263238" stroke-miterlimit="10" stroke-linecap="round" stroke-linejoin="round"/>
<path d="M115.072 107.258C115.005 108.83 116.572 110.668 116.951 110.407" stroke="#263238" stroke-miterlimit="10" stroke-linecap="round" stroke-linejoin="round"/>
<path d="M123.034 98.0396C123.034 98.0396 124.711 95.3219 126.324 95.1891C127.935 95.0562 129.795 97.3422 130.788 97.1291C131.785 96.916 133.033 95.452 134.702 95.1835C136.373 94.9151 137.156 95.7204 138.482 95.7868C139.81 95.8533 139.943 94.0821 141.535 93.8385C143.126 93.595 143.657 94.4031 144.72 94.5968C145.783 94.7905 146.048 93.9658 146.909 93.4871" stroke="#263238" stroke-miterlimit="10" stroke-linecap="round" stroke-linejoin="round"/>
<path d="M197.504 86.8313H192.5V84.204H197.504C198.375 84.204 199.079 84.0632 199.616 83.7816C200.153 83.4999 200.545 83.1127 200.791 82.6198C201.046 82.1181 201.174 81.546 201.174 80.9035C201.174 80.2962 201.046 79.7285 200.791 79.2004C200.545 78.6635 200.153 78.2323 199.616 77.9066C199.079 77.581 198.375 77.4181 197.504 77.4181H193.517V94H190.203V74.7777H197.504C198.991 74.7777 200.254 75.0418 201.293 75.5698C202.34 76.0891 203.137 76.8108 203.682 77.735C204.228 78.6503 204.501 79.6977 204.501 80.8771C204.501 82.1181 204.228 83.1831 203.682 84.072C203.137 84.961 202.34 85.6431 201.293 86.1183C200.254 86.5936 198.991 86.8313 197.504 86.8313ZM214.586 91.1351V84.3228C214.586 83.8124 214.493 83.3723 214.309 83.0026C214.124 82.633 213.842 82.3469 213.464 82.1445C213.094 81.9421 212.627 81.8409 212.064 81.8409C211.545 81.8409 211.096 81.9289 210.718 82.1049C210.339 82.2809 210.044 82.5186 209.833 82.8178C209.622 83.1171 209.516 83.4559 209.516 83.8344H206.348C206.348 83.2711 206.484 82.7254 206.757 82.1973C207.03 81.6692 207.426 81.1983 207.945 80.7847C208.464 80.371 209.085 80.0454 209.807 79.8077C210.528 79.5701 211.338 79.4513 212.236 79.4513C213.31 79.4513 214.26 79.6317 215.087 79.9926C215.924 80.3534 216.579 80.8991 217.055 81.6296C217.539 82.3513 217.781 83.2579 217.781 84.3493V90.6995C217.781 91.3508 217.825 91.9361 217.913 92.4554C218.01 92.9658 218.146 93.4103 218.322 93.7888V94H215.061C214.911 93.6567 214.793 93.2211 214.705 92.693C214.625 92.1561 214.586 91.6368 214.586 91.1351ZM215.048 85.313L215.074 87.2801H212.79C212.201 87.2801 211.681 87.3373 211.232 87.4518C210.784 87.5574 210.41 87.7158 210.11 87.927C209.811 88.1383 209.587 88.3935 209.437 88.6927C209.287 88.992 209.213 89.3309 209.213 89.7093C209.213 90.0878 209.301 90.4354 209.477 90.7523C209.653 91.0603 209.908 91.3024 210.242 91.4784C210.586 91.6544 210.999 91.7424 211.483 91.7424C212.135 91.7424 212.702 91.6104 213.186 91.3464C213.679 91.0735 214.067 90.7435 214.348 90.3562C214.63 89.9602 214.779 89.5861 214.797 89.234L215.827 90.6467C215.721 91.0075 215.541 91.3948 215.286 91.8084C215.03 92.2221 214.696 92.6182 214.282 92.9966C213.877 93.3663 213.389 93.6699 212.817 93.9076C212.253 94.1452 211.602 94.264 210.863 94.264C209.93 94.264 209.098 94.0792 208.368 93.7096C207.637 93.3311 207.065 92.825 206.651 92.1913C206.238 91.5488 206.031 90.8227 206.031 90.013C206.031 89.256 206.172 88.5871 206.453 88.0062C206.744 87.4165 207.166 86.9237 207.721 86.5276C208.284 86.1315 208.97 85.8323 209.78 85.6299C210.59 85.4186 211.514 85.313 212.553 85.313H215.048ZM224.578 92.4422L228.46 79.7153H231.866L226.136 96.1783C226.004 96.5304 225.833 96.9133 225.621 97.3269C225.41 97.7406 225.133 98.1323 224.79 98.5019C224.455 98.8804 224.037 99.184 223.535 99.4129C223.034 99.6505 222.426 99.7693 221.713 99.7693C221.432 99.7693 221.159 99.7429 220.895 99.6901C220.64 99.6461 220.398 99.5977 220.169 99.5449L220.156 97.1157C220.244 97.1245 220.349 97.1333 220.473 97.1421C220.605 97.1509 220.71 97.1553 220.789 97.1553C221.317 97.1553 221.758 97.0893 222.11 96.9573C222.462 96.8341 222.748 96.6316 222.968 96.35C223.197 96.0683 223.39 95.6899 223.549 95.2146L224.578 92.4422ZM222.387 79.7153L225.78 90.409L226.347 93.7624L224.143 94.3301L218.954 79.7153H222.387ZM236.406 82.6198V94H233.224V79.7153H236.221L236.406 82.6198ZM235.891 86.3296L234.809 86.3164C234.809 85.3306 234.932 84.4197 235.178 83.5835C235.425 82.7474 235.786 82.0213 236.261 81.4052C236.736 80.7803 237.326 80.3006 238.03 79.9662C238.743 79.6229 239.566 79.4513 240.499 79.4513C241.15 79.4513 241.744 79.5481 242.281 79.7417C242.827 79.9265 243.298 80.2214 243.694 80.6263C244.098 81.0311 244.407 81.5504 244.618 82.1841C244.838 82.8178 244.948 83.5835 244.948 84.4813V94H241.766V84.7585C241.766 84.0632 241.66 83.5175 241.449 83.1215C241.247 82.7254 240.952 82.4437 240.565 82.2765C240.186 82.1005 239.733 82.0125 239.205 82.0125C238.606 82.0125 238.096 82.1269 237.673 82.3557C237.26 82.5846 236.921 82.897 236.657 83.2931C236.393 83.6891 236.199 84.1468 236.076 84.6661C235.953 85.1854 235.891 85.7399 235.891 86.3296ZM244.75 85.4846L243.258 85.8147C243.258 84.9522 243.377 84.138 243.614 83.3723C243.861 82.5978 244.217 81.9201 244.684 81.3392C245.159 80.7495 245.744 80.2874 246.44 79.9529C247.135 79.6185 247.931 79.4513 248.829 79.4513C249.56 79.4513 250.211 79.5525 250.783 79.7549C251.364 79.9485 251.857 80.2566 252.262 80.6791C252.667 81.1015 252.975 81.6516 253.186 82.3293C253.397 82.9982 253.503 83.808 253.503 84.7585V94H250.308V84.7453C250.308 84.0236 250.202 83.4647 249.991 83.0686C249.789 82.6726 249.498 82.3997 249.12 82.2501C248.741 82.0917 248.288 82.0125 247.76 82.0125C247.267 82.0125 246.831 82.1049 246.453 82.2897C246.083 82.4658 245.771 82.7166 245.515 83.0422C245.26 83.3591 245.067 83.7244 244.935 84.138C244.811 84.5517 244.75 85.0006 244.75 85.4846ZM262.611 94.264C261.555 94.264 260.6 94.0924 259.746 93.7492C258.901 93.3971 258.179 92.9086 257.581 92.2837C256.991 91.6588 256.538 90.9239 256.221 90.079C255.904 89.234 255.746 88.3231 255.746 87.3461V86.818C255.746 85.7003 255.909 84.6881 256.234 83.7816C256.56 82.875 257.013 82.1005 257.594 81.458C258.175 80.8067 258.861 80.3094 259.654 79.9662C260.446 79.6229 261.304 79.4513 262.228 79.4513C263.249 79.4513 264.142 79.6229 264.908 79.9662C265.674 80.3094 266.307 80.7935 266.809 81.4184C267.32 82.0345 267.698 82.7694 267.944 83.6231C268.2 84.4769 268.327 85.4186 268.327 86.4484V87.8082H257.29V85.5242H265.185V85.2734C265.168 84.7013 265.053 84.1644 264.842 83.6627C264.64 83.1611 264.327 82.7562 263.905 82.4481C263.482 82.1401 262.919 81.9861 262.215 81.9861C261.687 81.9861 261.216 82.1005 260.802 82.3293C260.397 82.5494 260.058 82.8706 259.786 83.2931C259.513 83.7156 259.301 84.226 259.152 84.8245C259.011 85.4142 258.941 86.0787 258.941 86.818V87.3461C258.941 87.971 259.024 88.5519 259.191 89.0888C259.367 89.6169 259.623 90.079 259.957 90.475C260.292 90.8711 260.696 91.1835 261.172 91.4124C261.647 91.6324 262.188 91.7424 262.796 91.7424C263.561 91.7424 264.243 91.5884 264.842 91.2804C265.44 90.9723 265.96 90.5366 266.4 89.9734L268.076 91.5972C267.768 92.0461 267.368 92.4774 266.875 92.891C266.382 93.2959 265.779 93.6259 265.066 93.8812C264.362 94.1364 263.544 94.264 262.611 94.264ZM273.501 82.765V94H270.319V79.7153H273.316L273.501 82.765ZM272.933 86.3296L271.904 86.3164C271.912 85.3042 272.053 84.3757 272.326 83.5307C272.608 82.6858 272.995 81.9597 273.488 81.3524C273.99 80.7451 274.588 80.2786 275.283 79.9529C275.979 79.6185 276.753 79.4513 277.607 79.4513C278.293 79.4513 278.914 79.5481 279.468 79.7417C280.032 79.9265 280.511 80.2302 280.907 80.6527C281.312 81.0751 281.62 81.6252 281.832 82.3029C282.043 82.9718 282.148 83.7948 282.148 84.7717V94H278.954V84.7585C278.954 84.072 278.852 83.5307 278.65 83.1347C278.456 82.7298 278.17 82.4437 277.792 82.2765C277.422 82.1005 276.96 82.0125 276.406 82.0125C275.86 82.0125 275.371 82.1269 274.94 82.3557C274.509 82.5846 274.144 82.897 273.844 83.2931C273.554 83.6891 273.329 84.1468 273.171 84.6661C273.013 85.1854 272.933 85.7399 272.933 86.3296ZM291.481 79.7153V82.0389H283.428V79.7153H291.481ZM285.751 76.2168H288.933V90.0526C288.933 90.4926 288.995 90.8315 289.118 91.0691C289.25 91.298 289.43 91.452 289.659 91.5312C289.888 91.6104 290.156 91.65 290.464 91.65C290.684 91.65 290.896 91.6368 291.098 91.6104C291.301 91.584 291.463 91.5576 291.587 91.5312L291.6 93.9604C291.336 94.0396 291.028 94.11 290.676 94.1716C290.332 94.2332 289.936 94.264 289.487 94.264C288.757 94.264 288.11 94.1364 287.547 93.8812C286.983 93.6171 286.543 93.1903 286.227 92.6006C285.91 92.0109 285.751 91.2276 285.751 90.2506V76.2168ZM301.487 90.1318C301.487 89.8149 301.408 89.5289 301.249 89.2736C301.091 89.0096 300.787 88.772 300.338 88.5607C299.898 88.3495 299.247 88.1559 298.384 87.9798C297.627 87.8126 296.932 87.6146 296.298 87.3857C295.673 87.1481 295.136 86.8621 294.688 86.5276C294.239 86.1931 293.891 85.7971 293.645 85.3394C293.398 84.8817 293.275 84.3537 293.275 83.7552C293.275 83.1743 293.403 82.6242 293.658 82.1049C293.913 81.5856 294.278 81.1279 294.754 80.7319C295.229 80.3358 295.805 80.0234 296.483 79.7945C297.17 79.5657 297.935 79.4513 298.78 79.4513C299.977 79.4513 301.003 79.6537 301.856 80.0586C302.719 80.4546 303.379 80.9959 303.837 81.6824C304.294 82.3601 304.523 83.1259 304.523 83.9796H301.341C301.341 83.6011 301.245 83.2491 301.051 82.9234C300.866 82.589 300.585 82.3205 300.206 82.1181C299.828 81.9069 299.352 81.8012 298.78 81.8012C298.235 81.8012 297.781 81.8893 297.42 82.0653C297.068 82.2325 296.804 82.4526 296.628 82.7254C296.461 82.9982 296.377 83.2975 296.377 83.6231C296.377 83.8608 296.422 84.0764 296.51 84.27C296.606 84.4549 296.765 84.6265 296.985 84.7849C297.205 84.9345 297.504 85.0754 297.883 85.2074C298.27 85.3394 298.754 85.467 299.335 85.5903C300.426 85.8191 301.363 86.1139 302.147 86.4748C302.939 86.8269 303.546 87.2845 303.969 87.8478C304.391 88.4023 304.602 89.1064 304.602 89.9602C304.602 90.5939 304.466 91.1747 304.193 91.7028C303.929 92.2221 303.542 92.6754 303.031 93.0626C302.521 93.4411 301.909 93.736 301.196 93.9472C300.492 94.1584 299.7 94.264 298.82 94.264C297.526 94.264 296.43 94.0352 295.533 93.5775C294.635 93.1111 293.953 92.517 293.486 91.7952C293.029 91.0647 292.8 90.3078 292.8 89.5245H295.876C295.911 90.1142 296.074 90.5851 296.364 90.9371C296.664 91.2804 297.033 91.5312 297.473 91.6896C297.922 91.8393 298.384 91.9141 298.859 91.9141C299.432 91.9141 299.911 91.8393 300.299 91.6896C300.686 91.5312 300.981 91.32 301.183 91.0559C301.385 90.7831 301.487 90.475 301.487 90.1318Z" fill="white"/>
<mask id="path-200-inside-1_117_4995" fill="white">
<path d="M292.656 137L300.943 143.906C301.28 144.187 301.28 144.704 300.943 144.985L292 152.437"/>
</mask>
<path d="M290.859 139.156L299.146 146.063L302.74 141.75L294.453 134.844L290.859 139.156ZM299.146 142.828L290.203 150.281L293.797 154.594L302.74 147.141L299.146 142.828ZM299.146 146.063C298.136 145.221 298.136 143.67 299.146 142.828L302.74 147.141C304.423 145.738 304.423 143.153 302.74 141.75L299.146 146.063Z" fill="white" mask="url(#path-200-inside-1_117_4995)"/>
<mask id="path-202-inside-2_117_4995" fill="white">
<path d="M298.035 137L306.323 143.906C306.659 144.187 306.659 144.704 306.323 144.985L297.38 152.437"/>
</mask>
<path d="M296.239 139.156L304.526 146.063L308.12 141.75L299.832 134.844L296.239 139.156ZM304.526 142.828L295.583 150.281L299.177 154.594L308.12 147.141L304.526 142.828ZM304.526 146.063C303.516 145.221 303.516 143.67 304.526 142.828L308.12 147.141C309.803 145.738 309.803 143.153 308.12 141.75L304.526 146.063Z" fill="white" mask="url(#path-202-inside-2_117_4995)"/>
</svg>
