<svg width="371" height="305" viewBox="0 0 371 305" fill="none" xmlns="http://www.w3.org/2000/svg">
<g opacity="0.55" clip-path="url(#clip0_109_4629)">
<path d="M151.564 305V301.415H158.076V305H177.657V303.483H184.191V305H371V301.679H365.676V297.522H371V226.353H368.932V222.196H371V122.985L355.885 111.505V179.002H320.024V243.309L315.866 237.261V0L254.022 58.1057V201.545L247.729 210.694V35.9147H212.022V227.342H201.528V277.289H195.807V64.4177H186.765V31.9559H177.723V63.7139H147.23V103.543H137.219V252.305H115.064V97.8252L90.5334 88.0603V166.708H77.1789V126.548H49.5679V242.21H16.6986V204.162H0V305H151.564ZM354.807 293.388H348.009V289.231H354.807V293.388ZM369.966 264.841H363.168V260.684H369.966V264.841ZM358.218 228.442H365.016V232.599H358.218V236.756H351.397V232.599H358.218V228.442ZM351.419 214.345H344.621V210.188H351.419V214.345ZM337.801 199.829H344.599V203.964H337.801V199.829ZM335.931 224.307H342.729V228.442H335.931V224.307ZM335.931 252.415H342.729V256.571H335.931V252.415ZM284.647 175.307H277.848V171.15H284.647V175.307ZM274.416 159.186V155.051H281.215V159.208H274.416V159.186ZM297.429 198.883H290.609V194.727H297.429V198.883ZM289.575 130.639V126.482H296.373V130.639H289.575ZM308.474 167.477H301.675V163.321H308.474V167.477ZM305.064 92.173V88.0163H311.884V92.173H305.064ZM291.445 73.9187H298.243V78.0754H305.064V82.2321H298.243V78.0754H291.445V73.9187ZM284.647 94.2623H291.467V98.419H284.647V102.576H277.848V98.419H284.647V94.2623ZM277.826 80.1428H271.028V75.9861H277.826V80.1428ZM264.208 65.6273H271.028V69.784H264.208V65.6273ZM262.338 90.1056H269.136V94.2403H262.338V90.1056ZM262.338 118.213H269.136V122.348H262.338V118.213ZM232.395 186.919H225.597V182.762H232.395V186.919ZM245.771 90.5895H238.951V86.4548H245.771V90.5895ZM242.383 74.4906H235.563V70.3559H242.383V74.4906ZM232.153 44.6899H238.951V48.8466H232.153V44.6899ZM227.467 130.177H234.265V134.312H227.467V130.177ZM227.467 158.284H234.265V162.441H227.467V158.284ZM218.776 172.404H225.575V176.538H218.776V172.404ZM187.689 261.278H194.487V265.412H187.689V261.278ZM187.689 289.363H194.487V293.52H187.689V289.363ZM182.409 224.439V228.574H175.589V224.439H182.409ZM172.2 208.318H179.021V212.453H172.2V208.318ZM172.2 281.072H179.021V285.228H172.2V289.363H165.402V285.228H172.2V281.072ZM167.272 257.121H160.452V252.964H167.272V257.121ZM159.418 184.742H166.216V188.899H159.418V184.742ZM158.582 216.126H165.402V220.283H158.582V216.126ZM95.7256 253.448H88.9054V249.292H95.7256V253.448ZM109.102 157.119H102.304V152.984H109.102V157.119ZM105.714 141.02H98.9157V136.885H105.714V141.02ZM95.5056 111.219H102.304V115.376H95.5056V111.219ZM90.7974 196.728H97.5957V200.863H90.7974V196.728ZM90.7974 224.813H97.5957V228.97H90.7974V224.813ZM88.9274 238.933V243.068H82.1291V238.933H88.9274ZM75.3088 220.679V216.522H82.1291V220.679H75.3088V224.813H68.4886V220.679H75.3088ZM70.3587 192.571H63.5384V188.415H70.3587V192.571ZM61.6903 151.576H68.4886V155.733H61.6903V151.576ZM54.8701 236.865H61.6683V241H68.4666V245.135H61.6683V241H54.8701V236.865Z" fill="#DCE9EF"/>
</g>
<g clip-path="url(#clip1_109_4629)">
<path d="M198.737 210.283C198.737 210.283 217.053 210.065 222.573 216.1C227.691 221.683 203.688 257.912 197.014 265.692C196.563 267.905 190.274 264.702 190.274 264.702C190.274 264.702 200.494 244.467 201.464 239.638C202.886 232.547 212.085 226.645 210.764 224.734C209.442 222.84 195.844 222.571 195.844 222.571L198.737 210.283Z" fill="#FAC1AD"/>
<path d="M180.12 206.125C180.12 206.125 193.167 207.231 201.313 208.355C201.313 208.355 217.053 210.065 222.573 216.1C227.307 221.281 207.05 252.766 198.754 263.546C196.295 263.361 193.937 262.925 191.896 261.45C194.823 255.532 198.52 242.606 199.256 238.985C200.677 231.893 209.727 228.49 208.071 226.88C207.101 225.941 203.922 225.036 203.922 225.036C202.333 224.114 185.975 223.024 183.532 223.242C179.133 223.644 175.052 223.125 171.857 222.27V204.465C176.072 204.951 180.12 206.125 180.12 206.125Z" fill="#353941"/>
<path d="M190.692 263.328C190.692 263.328 194.505 266.463 197.918 265.256C196.078 267.552 196.429 269.648 199.038 270.168C201.648 270.688 205.963 271.174 208.221 271.861C210.48 272.532 211.333 274.611 211.399 275.214C211.466 275.818 206.448 277.042 202.584 276.371C199.39 275.818 192.348 276.036 186.878 275.466C185.205 275.097 185.557 272.85 185.724 271.442C185.908 270.05 190.692 263.328 190.692 263.328Z" fill="#4C4C4C"/>
<path d="M185.59 273.336C185.757 273.471 185.958 273.571 186.209 273.621C191.662 274.191 198.486 275.063 201.698 275.449C205.177 275.868 208.874 276.237 211.399 275.214C212.186 275.6 211.868 276.539 211.901 276.941C211.968 277.545 206.214 277.612 202.367 277.293C199.139 277.025 192.331 276.036 186.878 275.466C185.874 275.248 185.607 274.342 185.59 273.336Z" fill="white"/>
<path d="M226.621 187.448H227.558V177.138L218.793 167.917L218.107 168.571L226.621 177.523V187.448Z" fill="#4C4C4C"/>
<path d="M214.745 168.235C214.745 171.32 216.116 173.802 217.823 173.802C219.529 173.802 220.9 171.304 220.9 168.235C220.9 165.151 219.529 162.669 217.823 162.669C216.116 162.669 214.745 165.167 214.745 168.235Z" fill="#4C4C4C"/>
<path d="M245.806 279.355C245.806 292.968 256.813 304 270.395 304C283.977 304 294.983 292.968 294.983 279.355C294.983 265.742 283.977 254.71 270.395 254.71C256.829 254.71 245.806 265.742 245.806 279.355Z" fill="#4C4C4C"/>
<path d="M255.391 279.355C255.391 287.671 262.115 294.41 270.412 294.41C278.708 294.41 285.432 287.671 285.432 279.355C285.432 271.04 278.708 264.3 270.412 264.3C262.115 264.3 255.391 271.04 255.391 279.355Z" fill="#C4C4C4"/>
<path d="M265.828 279.355C265.828 281.887 267.886 283.949 270.412 283.949C272.937 283.949 274.995 281.887 274.995 279.355C274.995 276.824 272.937 274.761 270.412 274.761C267.886 274.761 265.828 276.824 265.828 279.355Z" fill="#4C4C4C"/>
<path d="M96.5701 279.355C96.5701 292.968 107.576 304 121.158 304C134.741 304 145.747 292.968 145.747 279.355C145.747 265.742 134.741 254.71 121.158 254.71C107.576 254.71 96.5701 265.742 96.5701 279.355Z" fill="#4C4C4C"/>
<path d="M106.138 279.355C106.138 287.671 112.862 294.41 121.158 294.41C129.455 294.41 136.179 287.671 136.179 279.355C136.179 271.04 129.455 264.3 121.158 264.3C112.862 264.3 106.138 271.04 106.138 279.355Z" fill="#C4C4C4"/>
<path d="M116.575 279.355C116.575 281.887 118.633 283.949 121.158 283.949C123.684 283.949 125.742 281.887 125.742 279.355C125.742 276.824 123.684 274.761 121.158 274.761C118.633 274.761 116.575 276.824 116.575 279.355Z" fill="#4C4C4C"/>
<path d="M255.642 240.728C255.642 240.728 279.862 239.27 290.183 258.6C277.069 263.428 278.407 255.783 262.031 261.299C245.656 266.815 245.539 278.165 230.067 270.855C240.052 260.947 255.642 240.728 255.642 240.728Z" fill="#990D38"/>
<path d="M231.037 191.908C231.037 191.908 256.16 209.21 264.825 238.616C261.831 238.364 254.655 244.199 250.925 251.994C247.178 259.79 236.573 281.518 214.594 285.558C192.615 289.599 115.906 277.477 92.5723 256.789C95.2653 244.199 122.011 222.571 150.447 231.155C164.799 226.21 189.019 225.304 197.55 232.061C190.825 238.348 184.536 255.448 185.891 260.394C187.229 265.339 218.191 264.887 218.191 264.887C218.191 264.887 238.831 239.488 238.831 233.871C238.831 228.255 223.794 193.182 223.794 193.182L231.037 191.908Z" fill="#990D38"/>
<path d="M173.413 283.831C173.413 283.831 173.313 260.846 162.54 241.952C151.785 223.074 125.825 223.259 109.065 235.229C97.5569 243.444 90.9833 255.448 90.9833 255.448C90.9833 255.448 113.431 278.718 173.413 283.831Z" fill="#990D38"/>
<path d="M157.573 249.748C165.919 263.529 166.839 279.992 166.94 283.178C160.533 282.541 154.595 281.702 149.126 280.73C148.741 275.13 147.252 262.674 141.465 251.944C135.845 241.499 126.294 237.492 116.475 238.918C131.663 232.295 148.691 235.095 157.573 249.748Z" fill="#990D38"/>
<path d="M231.455 198.195C231.455 198.195 243.548 226.377 245.806 236.269C248.081 246.16 221.352 274.929 217.823 277.042C214.293 279.137 172.978 277.042 172.978 277.042C172.978 277.042 204.608 284.603 220.265 279.355C227.742 276.74 249.871 248.574 249.871 239.135C249.871 229.663 231.455 198.195 231.455 198.195Z" fill="#990D38"/>
<path d="M219.512 189.695C219.512 189.695 229.381 184.079 233.412 182.285C237.443 180.491 242.277 179.82 244.401 180.373C245.188 187.012 245.07 195.429 245.07 195.429C245.07 195.429 233.746 195.999 228.243 196.217C222.774 196.435 214.143 193.735 219.512 189.695Z" fill="#990D38"/>
<path d="M156.837 229.378C156.837 229.378 186.778 232.681 196.529 233.1C206.281 233.536 202.25 223.862 198.888 221.498C195.526 219.135 162.658 215.765 159.864 215.882C157.054 216 151.568 223.192 156.837 229.378Z" fill="#4C4C4C"/>
<path d="M106.138 229.378C106.138 230.736 107.242 231.843 108.597 231.843H152.354C153.726 231.843 154.813 230.736 154.813 229.378C154.813 228.02 153.709 226.914 152.354 226.914H108.597C107.242 226.914 106.138 228.02 106.138 229.378Z" fill="#4C4C4C"/>
<path d="M217.304 187.784C217.304 187.784 225.182 185.185 228.862 186.694C232.542 188.203 231.037 194.909 227.29 195.311C223.543 195.714 223.995 190.265 218.475 191.656C212.972 193.048 217.304 187.784 217.304 187.784Z" fill="#FAC1AD"/>
<path d="M223.426 191.187C223.426 192.847 224.764 194.171 226.403 194.171C228.059 194.171 229.398 192.83 229.398 191.187C229.398 189.544 228.059 188.203 226.403 188.203C224.764 188.203 223.426 189.527 223.426 191.187Z" fill="#4C4C4C"/>
<path d="M200.243 212.16C200.243 212.16 218.475 210.35 224.497 215.882C230.067 221.012 209.292 259.187 203.32 267.502C203.07 269.749 196.513 267.1 196.513 267.1C196.513 267.1 204.96 246.043 205.512 241.147C206.315 233.955 214.962 227.282 213.49 225.505C212.018 223.728 198.436 224.65 198.436 224.65L200.243 212.16Z" fill="#FAC1AD"/>
<path d="M164.046 211.456C165.836 206.51 181.341 209.629 181.341 209.629C181.341 209.629 194.439 209.612 202.651 210.014C202.651 210.014 218.475 210.35 224.497 215.882C229.665 220.627 212.202 253.755 204.859 265.205C202.4 265.222 200.009 265.004 197.851 263.713C200.259 257.56 202.835 244.366 203.237 240.695C204.04 233.502 212.754 229.328 210.965 227.869C209.911 227.014 206.683 226.394 206.683 226.394C205.01 225.606 188.618 225.941 186.209 226.377C180.99 227.316 176.106 226.897 172.643 226.059C164.665 224.131 162.306 216.285 164.046 211.456Z" fill="#353941"/>
<path d="M196.814 265.692C196.814 265.692 200.878 268.491 204.19 266.982C202.551 269.43 203.086 271.492 205.729 271.777C208.372 272.062 212.721 272.18 215.029 272.666C217.338 273.152 218.375 275.13 218.475 275.734C218.592 276.337 213.691 277.98 209.794 277.662C206.565 277.394 199.557 278.215 194.071 278.131C192.364 277.913 192.515 275.65 192.565 274.225C192.615 272.8 196.814 265.692 196.814 265.692Z" fill="#4C4C4C"/>
<path d="M192.582 276.103C192.766 276.22 192.967 276.304 193.234 276.337C198.721 276.438 205.595 276.706 208.824 276.807C212.336 276.924 216.05 276.975 218.475 275.734C219.295 276.052 219.06 277.008 219.144 277.41C219.261 278.014 213.541 278.567 209.677 278.584C206.448 278.601 199.574 278.198 194.087 278.115C193.033 277.98 192.682 277.092 192.582 276.103Z" fill="white"/>
<path d="M184.269 169.895C184.269 169.895 180.973 162.938 179.518 160.306C178.063 157.657 180.906 150.129 180.906 150.129L174.567 148.805C174.567 148.805 170.971 155.46 168.763 162.602C171.539 174.053 186.175 178.311 184.269 169.895Z" fill="#FAC1AD"/>
<path d="M185.757 138.276C185.757 138.276 186.644 140.154 186.811 141.746C186.978 143.339 189.721 144.781 190.658 145.217C191.428 146.038 190.625 147.128 189.253 147.614C188.517 148.654 188.986 149.274 189.136 149.576C188.751 149.995 188.35 150.179 188.35 150.179L188.802 151.001C188.802 151.001 188.3 151.336 188.35 152.275C188.4 153.214 189.086 156.114 185.757 155.812C182.429 155.511 181.458 155.427 180.087 156.634C178.715 157.841 177.879 161.278 177.879 161.278L171.489 158.847C171.489 158.847 173.413 153.599 173.078 151.839C172.744 150.079 171.205 149.358 170.435 147.698C169.666 146.038 170.77 144.764 171.874 144.882C172.71 143.172 172.643 139.969 173.697 139.299C174.734 138.662 185.757 138.276 185.757 138.276Z" fill="#FAC1AD"/>
<path d="M170.469 157.824C170.469 157.824 162.39 166.609 163.343 185.386C163.929 197.038 163.343 211.456 163.343 211.456C163.343 211.456 182.746 215.782 192.515 209.729C190.541 204.448 191.662 202.772 190.006 192.31C188.668 183.81 186.694 170.901 181.09 163.323C179.435 163.692 177.595 163.424 175.236 162.737C173.129 162.099 171.857 160.473 170.469 157.824Z" fill="#990D38"/>
<path d="M172.326 166.626C170.804 167.079 169.315 169.107 170.118 172.896C170.921 176.685 172.827 182.167 175.169 188.203C176.29 191.07 179.903 202.688 186.778 202.671C190.859 202.654 220.064 190.952 220.064 190.952C220.549 189.293 219.897 187.012 219.897 187.012C219.897 187.012 196.981 192.629 189.822 193.517C183.733 191.908 182.111 180.373 180.589 175.361C178.648 168.99 173.346 166.307 172.326 166.626Z" fill="#FAC1AD"/>
<path d="M184.703 143.188C184.703 143.507 184.837 143.775 185.005 143.775C185.172 143.775 185.306 143.507 185.306 143.188C185.306 142.87 185.172 142.602 185.005 142.602C184.837 142.602 184.703 142.853 184.703 143.188Z" fill="#4C4C4C"/>
<path d="M185.724 141.646C185.172 141.109 184.302 140.992 183.533 141.21C183.165 141.361 182.797 141.529 182.529 141.814C182.245 142.082 182.044 142.417 181.927 142.769C182.579 142.384 183.098 141.998 183.717 141.847C184.335 141.612 184.988 141.629 185.724 141.646Z" fill="#4C4C4C"/>
<path d="M189.036 140.623C189.036 140.623 182.813 141.26 180.572 141.814C178.314 142.367 177.294 149.71 177.294 152.241C177.294 154.773 171.222 155.477 168.077 152.946C164.916 150.414 163.343 140.053 166.505 136.18C169.666 132.308 175.504 130.179 182.128 131.285C188.735 132.392 189.354 138.477 189.036 140.623Z" fill="#990D38"/>
<path opacity="0.7" d="M175.119 140.254C175.119 140.254 180.12 137.17 190.24 137.052C192.615 142.987 192.615 151.101 191.361 154.957C185.205 157.388 177.862 154.605 176.608 150.682C175.336 146.776 175.119 140.254 175.119 140.254Z" fill="white"/>
<path d="M175.755 141.126C175.755 141.461 176.022 141.713 176.34 141.713C176.675 141.713 176.942 141.445 176.942 141.126C176.942 140.791 176.675 140.539 176.34 140.539C176.022 140.539 175.755 140.808 175.755 141.126Z" fill="#4C4C4C"/>
<path d="M171.857 165.754C170.335 166.207 167.977 168.889 168.78 172.695C169.582 176.484 171.406 182.972 173.747 188.991C174.868 191.858 179.468 203.644 186.343 203.61C190.407 203.593 220.9 193.802 220.9 193.802C221.385 192.143 219.88 186.996 219.88 186.996C219.88 186.996 197.148 191.405 189.989 192.294C183.901 190.684 182.245 177.104 180.723 172.075C178.782 165.721 172.861 165.452 171.857 165.754Z" fill="#990D38"/>
<path d="M128.635 189.879L133.603 183.089L111.942 163.122L111.122 168.118L106.991 169.929L128.635 189.879Z" fill="#990D38"/>
<path d="M128.067 189.879L123.115 183.089L144.76 163.122L145.58 168.118L149.711 169.929L128.067 189.879Z" fill="#990D38"/>
<path d="M158.024 179.217H98.7445L104.599 227.215H152.939L158.024 179.217Z" fill="#353941"/>
<path d="M124.805 178.781H132.616V227.551H124.805V178.781Z" fill="#990D38"/>
<path d="M100.601 194.657H156.502L157.389 187.784H99.7816L100.601 194.657Z" fill="#990D38"/>
</g>
<defs>
<clipPath id="clip0_109_4629">
<rect width="371" height="305" fill="white"/>
</clipPath>
<clipPath id="clip1_109_4629">
<rect width="204" height="173" fill="white" transform="matrix(-1 0 0 1 295 131)"/>
</clipPath>
</defs>
</svg>
