<svg width="327" height="169" viewBox="0 0 327 169" fill="none" xmlns="http://www.w3.org/2000/svg">
<rect width="327" height="169" rx="7" fill="#990D38"/>
<rect x="20" y="20" width="153" height="129" rx="12" fill="white"/>
<path d="M96.055 137.11C125.356 137.11 149.11 113.356 149.11 84.055C149.11 54.7535 125.356 31 96.055 31C66.7535 31 43 54.7535 43 84.055C43 113.356 66.7535 137.11 96.055 137.11Z" fill="#E0B6C3"/>
<path d="M79.597 118.826H75.9921C75.9214 118.826 75.8646 118.769 75.8646 118.698C75.8646 118.628 75.922 118.571 75.9921 118.571H79.597C79.6677 118.571 79.7245 118.628 79.7245 118.698C79.7245 118.769 79.6677 118.826 79.597 118.826Z" fill="#990D38"/>
<path d="M54.7045 118.826H46.824C46.7533 118.826 46.6964 118.769 46.6964 118.698V43.8486C46.6964 43.7779 46.7538 43.7211 46.824 43.7211H60.9459C61.0166 43.7211 61.0735 43.7785 61.0735 43.8486C61.0735 43.9194 61.0161 43.9762 60.9459 43.9762H46.9516V118.57H54.7045C54.7753 118.57 54.8321 118.628 54.8321 118.698C54.8327 118.769 54.7753 118.826 54.7045 118.826Z" fill="black"/>
<path d="M109.507 67.7245C109.436 67.7245 109.38 67.6671 109.38 67.5969V43.9767H94.4587C94.388 43.9767 94.3312 43.9193 94.3312 43.8492C94.3312 43.7784 94.3886 43.7216 94.4587 43.7216H109.507C109.578 43.7216 109.635 43.779 109.635 43.8492V67.5969C109.635 67.6671 109.577 67.7245 109.507 67.7245Z" fill="#9E6C5A"/>
<path d="M53.2059 113.326H103.125L103.125 46.1383H53.2059L53.2059 113.326Z" fill="#B20037"/>
<path d="M84.3557 39.9C84.3557 35.8405 81.0657 32.5494 77.0068 32.5494C72.948 32.5494 69.658 35.8405 69.658 39.9H61.6006V49.5867H92.4137V39.9H84.3557ZM71.5923 39.9C71.5923 36.9086 74.0166 34.4837 77.0074 34.4837C79.9976 34.4837 82.4225 36.9086 82.4225 39.9H71.5923Z" fill="#B30037"/>
<path d="M93.5721 48.5557H62.7585C62.6877 48.5557 62.6309 48.4983 62.6309 48.4281V38.7414C62.6309 38.6706 62.6883 38.6138 62.7585 38.6138H70.6895C70.7585 34.5486 74.0856 31.2632 78.1653 31.2632C82.245 31.2632 85.5721 34.5492 85.6405 38.6138H93.5715C93.6423 38.6138 93.6991 38.6712 93.6991 38.7414V48.4275C93.6997 48.4983 93.6428 48.5557 93.5721 48.5557ZM62.8866 48.3H93.4445V38.869H85.5141C85.4434 38.869 85.3866 38.8115 85.3866 38.7414C85.386 34.7585 82.147 31.519 78.1653 31.519C74.1835 31.519 70.9446 34.7591 70.9446 38.7414C70.9446 38.8121 70.8872 38.869 70.817 38.869H62.8866V48.3ZM83.5804 38.869H72.7508C72.68 38.869 72.6232 38.8115 72.6232 38.7414C72.6232 35.6845 75.1095 33.1976 78.1659 33.1976C81.2222 33.1976 83.7085 35.6845 83.7085 38.7414C83.7079 38.8115 83.6505 38.869 83.5804 38.869ZM72.8801 38.6132H83.4511C83.3832 35.7564 81.0384 33.4527 78.1659 33.4527C75.2928 33.4533 72.9479 35.7564 72.8801 38.6132Z" fill="white"/>
<path d="M81.6385 91.0937H62.5254V92.8848H81.6385V91.0937Z" fill="white"/>
<path d="M95.3858 95.5687H56.5977V97.3598H95.3858V95.5687Z" fill="white"/>
<path d="M81.6385 100.044H56.5977V101.835H81.6385V100.044Z" fill="white"/>
<path d="M83.9811 73.8267H57.2478V75.6178H83.9811V73.8267Z" fill="white"/>
<path d="M95.3859 78.3019H62.5672V80.093H95.3859V78.3019Z" fill="white"/>
<path d="M95.3859 82.7776H60.129V84.5688H95.3859V82.7776Z" fill="white"/>
<path d="M92.9882 55.8199H66.2549V57.611H92.9882V55.8199Z" fill="white"/>
<path d="M85.088 60.2951H57.2478V62.0862H85.088V60.2951Z" fill="white"/>
<path d="M99.0834 64.7701H62.3305V66.5613H99.0834V64.7701Z" fill="white"/>
<path d="M92.8966 109.329C92.8873 109.329 92.8781 109.329 92.8688 109.329C91.6146 109.322 90.4381 108.826 89.5562 107.934C88.6743 107.042 88.193 105.86 88.1999 104.606C88.2069 103.351 88.7021 102.174 89.5945 101.292C90.4799 100.417 91.6511 99.9355 92.8949 99.9355C92.9042 99.9355 92.9134 99.9355 92.9227 99.9355C95.5117 99.9506 97.606 102.069 97.591 104.659C97.584 105.914 97.0883 107.091 96.1965 107.973C95.3116 108.848 94.1404 109.329 92.8966 109.329ZM92.8949 100.191C91.719 100.191 90.6115 100.646 89.7742 101.474C88.9305 102.308 88.4626 103.42 88.4557 104.607C88.4487 105.793 88.9044 106.911 89.7377 107.755C90.5715 108.598 91.6836 109.067 92.8694 109.073C94.0557 109.083 95.1731 108.624 96.0161 107.791C96.8598 106.957 97.3277 105.844 97.3347 104.658C97.3486 102.209 95.3685 100.205 92.9204 100.191C92.9123 100.191 92.9036 100.191 92.8949 100.191Z" fill="#E6D0BE"/>
<path d="M92.896 108.143C92.889 108.143 92.8821 108.143 92.8757 108.143C90.9402 108.132 89.3746 106.548 89.3857 104.612C89.3909 103.674 89.7614 102.795 90.4282 102.135C91.095 101.476 91.9764 101.115 92.9163 101.121C94.8518 101.132 96.4173 102.716 96.4063 104.652C96.3947 106.582 94.8222 108.143 92.896 108.143ZM92.8954 101.377C92.0332 101.377 91.2214 101.71 90.608 102.317C89.9899 102.928 89.6466 103.744 89.6414 104.614C89.6309 106.409 91.0828 107.878 92.8774 107.888C92.8838 107.888 92.8902 107.888 92.8966 107.888C94.6825 107.888 96.1408 106.44 96.1512 104.651C96.1616 102.856 94.7097 101.388 92.9151 101.377C92.9082 101.377 92.9018 101.377 92.8954 101.377Z" fill="#E6D0BE"/>
<path opacity="0.5" d="M98.2862 102.733L87.0525 104.69L87.375 106.542L98.6088 104.585L98.2862 102.733Z" fill="#E6D0BE"/>
<path d="M98.3336 57.5741V55.8938H108.33V57.5741H98.3336Z" fill="white" stroke="#2F2F2F" stroke-width="0.25"/>
<path d="M99.8834 78.3919V56.8592H106.78V78.3919H99.8834Z" fill="white" stroke="#2F2F2F" stroke-width="0.25"/>
<path d="M110.541 57.5741V55.8938H120.538V57.5741H110.541Z" fill="white" stroke="#2F2F2F" stroke-width="0.25"/>
<path d="M112.091 83.811V56.8592H118.988V83.811H112.091Z" fill="white" stroke="#2F2F2F" stroke-width="0.25"/>
<path d="M122.726 57.5741V55.8938H132.723V57.5741H122.726Z" fill="white" stroke="#2F2F2F" stroke-width="0.25"/>
<path d="M122.726 85.7541V84.0739H132.723V85.7541H122.726Z" fill="white" stroke="#2F2F2F" stroke-width="0.25"/>
<path d="M124.276 84.8953V56.8592H131.173V84.8953H124.276Z" fill="white" stroke="#2F2F2F" stroke-width="0.25"/>
<path d="M99.2931 90.4786V87.1846H144.93V90.4786H99.2931Z" fill="white" stroke="#2F2F2F" stroke-width="0.25"/>
<path d="M99.2931 96.3042V91.8453H146.219V96.3042H99.2931Z" fill="white" stroke="#2F2F2F" stroke-width="0.25"/>
<path d="M99.2931 102.33V97.6983H147.946V102.33H99.2931Z" fill="white" stroke="#2F2F2F" stroke-width="0.25"/>
<path d="M134.933 57.5741V55.8938H144.93V57.5741H134.933Z" fill="white" stroke="#2F2F2F" stroke-width="0.25"/>
<path d="M134.933 85.7541V84.0739H144.93V85.7541H134.933Z" fill="white" stroke="#2F2F2F" stroke-width="0.25"/>
<path d="M136.483 84.8953V56.8592H143.38V84.8953H136.483Z" fill="white" stroke="#2F2F2F" stroke-width="0.25"/>
<path d="M144.751 48.1767H98.1159L121.433 32.4236L144.751 48.1767Z" fill="white" stroke="#2F2F2F" stroke-width="0.25"/>
<path d="M145.034 50.4041V54.1613L97.8324 54.1613V50.4041L145.034 50.4041Z" fill="white" stroke="#2F2F2F" stroke-width="0.25"/>
<path d="M142.936 100.59L117.212 110.119C116.289 110.461 115.273 110.013 114.941 109.12L112.329 102.072L112.879 99.5992L110.756 97.8255L109.953 95.661C109.622 94.7674 110.102 93.7655 111.025 93.424L136.749 83.8949C137.672 83.5528 138.689 84.0005 139.02 84.894L139.823 87.0585L139.323 89.4011L141.397 91.3047L144.009 98.352C144.339 99.2461 143.86 100.247 142.936 100.59Z" fill="#990D38"/>
<path d="M139.822 87.052L110.756 97.8206L112.33 102.067L141.396 91.299L139.822 87.052Z" fill="#2F2F2F"/>
<path d="M113.674 127.76C118.317 127.76 122.081 126.568 122.081 125.098C122.081 123.628 118.317 122.437 113.674 122.437C109.031 122.437 105.267 123.628 105.267 125.098C105.267 126.568 109.031 127.76 113.674 127.76Z" fill="#990D38"/>
<path d="M122.081 122.447H105.267V125.189H122.081V122.447Z" fill="#990D38"/>
<path d="M113.674 125.161C118.317 125.161 122.081 123.969 122.081 122.499C122.081 121.029 118.317 119.838 113.674 119.838C109.031 119.838 105.267 121.029 105.267 122.499C105.267 123.969 109.031 125.161 113.674 125.161Z" fill="#990D38"/>
<path d="M114.664 125.288C109.878 125.288 106.13 124.063 106.13 122.499C106.13 120.935 109.878 119.71 114.664 119.71C119.45 119.71 123.199 120.935 123.199 122.499C123.199 124.063 119.45 125.288 114.664 125.288ZM114.664 119.965C110.176 119.965 106.385 121.126 106.385 122.499C106.385 123.872 110.177 125.032 114.664 125.032C119.152 125.032 122.943 123.872 122.943 122.499C122.943 121.126 119.152 119.965 114.664 119.965Z" fill="white"/>
<path d="M115.407 123.428C120.05 123.428 123.814 122.236 123.814 120.766C123.814 119.296 120.05 118.105 115.407 118.105C110.764 118.105 107 119.296 107 120.766C107 122.236 110.764 123.428 115.407 123.428Z" fill="#990D38"/>
<path d="M123.814 118.115H107V120.857H123.814V118.115Z" fill="#990D38"/>
<path d="M115.407 120.829C120.05 120.829 123.814 119.637 123.814 118.167C123.814 116.698 120.05 115.506 115.407 115.506C110.764 115.506 107 116.698 107 118.167C107 119.637 110.764 120.829 115.407 120.829Z" fill="#990D38"/>
<path d="M116.397 120.956C111.611 120.956 107.863 119.731 107.863 118.167C107.863 116.604 111.611 115.378 116.397 115.378C121.183 115.378 124.932 116.604 124.932 118.167C124.932 119.731 121.183 120.956 116.397 120.956ZM116.397 115.633C111.909 115.633 108.118 116.794 108.118 118.167C108.118 119.54 111.91 120.7 116.397 120.7C120.885 120.7 124.676 119.54 124.676 118.167C124.676 116.794 120.885 115.633 116.397 115.633Z" fill="white"/>
<path d="M113.674 119.096C118.317 119.096 122.081 117.904 122.081 116.434C122.081 114.964 118.317 113.773 113.674 113.773C109.031 113.773 105.267 114.964 105.267 116.434C105.267 117.904 109.031 119.096 113.674 119.096Z" fill="#990D38"/>
<path d="M122.081 113.783H105.267V116.525H122.081V113.783Z" fill="#990D38"/>
<path d="M113.674 116.497C118.317 116.497 122.081 115.305 122.081 113.835C122.081 112.366 118.317 111.174 113.674 111.174C109.031 111.174 105.267 112.366 105.267 113.835C105.267 115.305 109.031 116.497 113.674 116.497Z" fill="#990D38"/>
<path d="M114.664 116.624C109.878 116.624 106.13 115.399 106.13 113.835C106.13 112.272 109.878 111.046 114.664 111.046C119.45 111.046 123.199 112.272 123.199 113.835C123.199 115.399 119.45 116.624 114.664 116.624ZM114.664 111.302C110.176 111.302 106.385 112.462 106.385 113.835C106.385 115.208 110.177 116.368 114.664 116.368C119.152 116.368 122.943 115.208 122.943 113.835C122.943 112.462 119.152 111.302 114.664 111.302Z" fill="white"/>
<path d="M116.397 115.243C121.04 115.243 124.804 114.052 124.804 112.582C124.804 111.112 121.04 109.92 116.397 109.92C111.754 109.92 107.99 111.112 107.99 112.582C107.99 114.052 111.754 115.243 116.397 115.243Z" fill="#990D38"/>
<path d="M124.804 109.931H107.99V112.673H124.804V109.931Z" fill="#990D38"/>
<path d="M116.397 112.644C121.04 112.644 124.804 111.452 124.804 109.982C124.804 108.513 121.04 107.321 116.397 107.321C111.754 107.321 107.99 108.513 107.99 109.982C107.99 111.452 111.754 112.644 116.397 112.644Z" fill="#990D38"/>
<path d="M117.388 112.772C112.602 112.772 108.853 111.547 108.853 109.983C108.853 108.419 112.602 107.194 117.388 107.194C122.174 107.194 125.922 108.419 125.922 109.983C125.922 111.547 122.174 112.772 117.388 112.772ZM117.388 107.449C112.9 107.449 109.109 108.609 109.109 109.982C109.109 111.356 112.9 112.516 117.388 112.516C121.876 112.516 125.667 111.356 125.667 109.982C125.667 108.609 121.876 107.449 117.388 107.449Z" fill="white"/>
<path d="M131.869 127.835C136.512 127.835 140.276 126.643 140.276 125.174C140.276 123.704 136.512 122.512 131.869 122.512C127.225 122.512 123.462 123.704 123.462 125.174C123.462 126.643 127.225 127.835 131.869 127.835Z" fill="#990D38"/>
<path d="M140.276 122.522H123.462V125.265H140.276V122.522Z" fill="#990D38"/>
<path d="M131.869 125.236C136.512 125.236 140.276 124.044 140.276 122.574C140.276 121.104 136.512 119.913 131.869 119.913C127.225 119.913 123.462 121.104 123.462 122.574C123.462 124.044 127.225 125.236 131.869 125.236Z" fill="#990D38"/>
<path d="M132.859 125.364C128.073 125.364 124.324 124.138 124.324 122.575C124.324 121.011 128.073 119.786 132.859 119.786C137.645 119.786 141.394 121.011 141.394 122.575C141.394 124.138 137.645 125.364 132.859 125.364ZM132.859 120.041C128.371 120.041 124.58 121.201 124.58 122.574C124.58 123.947 128.372 125.107 132.859 125.107C137.347 125.107 141.138 123.947 141.138 122.574C141.138 121.201 137.347 120.041 132.859 120.041Z" fill="white"/>
<path d="M133.602 123.481C138.245 123.481 142.009 122.293 142.009 120.827C142.009 119.361 138.245 118.173 133.602 118.173C128.959 118.173 125.195 119.361 125.195 120.827C125.195 122.293 128.959 123.481 133.602 123.481Z" fill="#990D38"/>
<path d="M142.009 118.183H125.195V120.917H142.009V118.183Z" fill="#990D38"/>
<path d="M133.602 120.889C138.245 120.889 142.009 119.701 142.009 118.235C142.009 116.769 138.245 115.581 133.602 115.581C128.959 115.581 125.195 116.769 125.195 118.235C125.195 119.701 128.959 120.889 133.602 120.889Z" fill="#990D38"/>
<path d="M134.592 121.017C129.806 121.017 126.058 119.795 126.058 118.235C126.058 116.675 129.806 115.453 134.592 115.453C139.378 115.453 143.127 116.674 143.127 118.235C143.127 119.795 139.378 121.017 134.592 121.017ZM134.592 115.709C130.104 115.709 126.313 116.866 126.313 118.235C126.313 119.605 130.105 120.761 134.592 120.761C139.08 120.761 142.871 119.605 142.871 118.235C142.871 116.866 139.08 115.709 134.592 115.709Z" fill="white"/>
<path d="M134.349 119.089C135.393 118.054 133.59 114.542 130.322 111.245C127.055 107.947 123.559 106.113 122.515 107.147C121.471 108.182 123.274 111.694 126.542 114.991C129.809 118.289 133.305 120.123 134.349 119.089Z" fill="#990D38"/>
<path d="M124.399 105.278L122.451 107.208L134.284 119.15L136.233 117.219L124.399 105.278Z" fill="#990D38"/>
<path d="M136.196 117.26C137.24 116.225 135.437 112.713 132.169 109.415C128.901 106.118 125.406 104.283 124.362 105.318C123.318 106.353 125.12 109.865 128.388 113.162C131.656 116.46 135.151 118.294 136.196 117.26Z" fill="#990D38"/>
<path d="M136.057 118.381C134.483 118.381 131.693 116.684 128.994 113.96C127.404 112.356 126.107 110.65 125.341 109.157C124.553 107.622 124.421 106.478 124.97 105.935C126.081 104.835 129.59 106.635 132.958 110.034C134.547 111.638 135.844 113.344 136.61 114.836C137.398 116.372 137.531 117.516 136.982 118.059C136.762 118.277 136.446 118.381 136.057 118.381ZM125.897 105.862C125.578 105.862 125.323 105.944 125.149 106.117C124.694 106.568 124.847 107.634 125.569 109.041C126.323 110.511 127.604 112.194 129.175 113.78C132.334 116.967 135.826 118.844 136.802 117.877C137.258 117.426 137.105 116.36 136.383 114.953C135.629 113.482 134.348 111.8 132.777 110.214C130.182 107.596 127.362 105.862 125.897 105.862Z" fill="white"/>
<path d="M79.9292 132.98H96.1606L85.6818 103.662L64.3125 103.688C58.9519 111.949 57.1637 121.915 57.6792 132.98H75.4088H79.9292V132.98Z" fill="#990D38"/>
<path d="M85.6818 100.601H64.2128V104.243H85.6818V100.601Z" fill="#990D38"/>
<path d="M78.9185 103.79H65.5197C65.449 103.79 65.3921 103.733 65.3921 103.663C65.3921 103.592 65.4495 103.535 65.5197 103.535H78.9191C78.9899 103.535 79.0467 103.593 79.0467 103.663C79.0467 103.733 78.9893 103.79 78.9185 103.79Z" fill="#363E44"/>
<path d="M88.0208 98.4454C88.0208 98.4454 91.6859 108.476 99.2771 108.476C104.717 108.476 107.483 104.824 108.064 99.5952C108.695 93.9128 100.038 84.7775 89.4837 76.2533C89.4843 76.2533 85.7983 90.1525 88.0208 98.4454Z" fill="#990D38"/>
<path d="M62.4581 97.8528C62.4581 97.8528 57.1555 111.384 49.3782 106.266C35.4824 97.1193 50.1476 83.4045 60.7551 78.023C74.5605 71.0192 84.5475 74.798 89.4837 76.2539L88.5994 105.449C88.5159 108.2 86.2621 110.387 83.5096 110.387H65.442C61.9983 110.387 59.5473 107.04 60.5876 103.757L62.4581 97.8528Z" fill="#990D38"/>
<path d="M60.3011 89.0689C60.2907 89.0689 60.2796 89.0678 60.2686 89.0649C60.2002 89.0469 60.159 88.9773 60.177 88.9089L61.0856 85.4078C61.103 85.3394 61.1732 85.2983 61.2416 85.3162C61.31 85.3342 61.3512 85.4038 61.3332 85.4722L60.4246 88.9733C60.4095 89.0307 60.3579 89.0689 60.3011 89.0689Z" fill="#363E44"/>
<path d="M88.6864 102.726C88.6852 102.726 88.6835 102.726 88.6823 102.726C88.6116 102.724 88.5565 102.665 88.5583 102.595L88.6841 98.4419C88.6864 98.3711 88.7438 98.3149 88.8157 98.3178C88.8864 98.3201 88.9415 98.3787 88.9398 98.4494L88.814 102.602C88.8122 102.671 88.7554 102.726 88.6864 102.726Z" fill="#363E44"/>
<path d="M52.5116 92.476C52.5116 92.476 61.9989 88.5064 67.08 86.5332C75.8831 83.1145 80.9526 84.0602 80.959 85.326C80.9653 86.6997 78.3248 85.9163 77.066 86.3158C77.2701 86.4167 77.8087 86.8301 77.8354 87.5091C77.8748 88.514 77.1402 88.8277 77.0851 88.8839C77.157 88.9123 77.9235 89.2388 78.0557 89.9061C78.2048 90.6582 77.8963 91.2369 77.4388 91.5859C77.6151 91.6619 78.239 92.0127 78.3485 92.6586C78.461 93.3231 78.1311 94.1042 77.506 94.3135C76.3597 94.6973 72.9317 95.7671 71.3227 96.507C68.1562 97.9624 57.5556 104.756 52.4629 105.557C48.6447 105.709 46.8698 100.38 48.4626 96.1765C49.4646 93.5313 52.5116 92.476 52.5116 92.476Z" fill="#84524D"/>
<path d="M76.0594 94.1934C75.9979 94.1934 75.9434 94.1488 75.9336 94.0861L75.7567 93.0105C75.7451 92.941 75.7927 92.8749 75.8622 92.8638C75.9318 92.8528 75.9979 92.8998 76.0089 92.9694L76.1858 94.045C76.1974 94.1146 76.1498 94.1806 76.0803 94.1917C76.0733 94.1928 76.0663 94.1934 76.0594 94.1934Z" fill="#363E44"/>
<path d="M75.5891 91.6072C75.5259 91.6072 75.4714 91.5608 75.4627 91.4965L75.2986 90.2742C75.2893 90.204 75.3386 90.1397 75.4081 90.1304C75.4777 90.1211 75.5427 90.1704 75.5519 90.24L75.716 91.4623C75.7253 91.5324 75.676 91.5968 75.6065 91.6061C75.6001 91.6067 75.5943 91.6072 75.5891 91.6072Z" fill="#363E44"/>
<path d="M75.2678 88.8542C75.2063 88.8542 75.1524 88.8095 75.142 88.7469C75.1089 88.5451 75.0799 88.3625 75.0509 88.1804C75.0225 88.0001 74.9941 87.8197 74.9611 87.6203C74.9495 87.5507 74.9964 87.4846 75.0666 87.473C75.1362 87.4614 75.2023 87.5089 75.2139 87.5785C75.2469 87.7786 75.2753 87.9595 75.3038 88.1404C75.3327 88.3225 75.3612 88.5039 75.3942 88.7051C75.4058 88.7747 75.3588 88.8408 75.2887 88.8524C75.2817 88.8536 75.2748 88.8542 75.2678 88.8542Z" fill="#363E44"/>
<path d="M74.8017 86.619C74.7437 86.619 74.6915 86.5796 74.6776 86.5204L74.4294 85.4692C74.4132 85.4008 74.4555 85.3318 74.5245 85.3155C74.5929 85.2993 74.6619 85.3416 74.6782 85.4106L74.9263 86.4619C74.9426 86.5303 74.9002 86.5993 74.8312 86.6155C74.8208 86.6178 74.811 86.619 74.8017 86.619Z" fill="#363E44"/>
<path d="M90.099 90.4535L94.5156 101.61C95.7112 104.63 99.1583 106.073 102.149 104.806C105.394 103.431 106.665 99.4966 104.837 96.4826L98.7043 86.3691L90.099 90.4535Z" fill="#84524D"/>
<path d="M79.8555 95.0882C79.8411 95.0882 79.8266 95.0859 79.8126 95.0807C79.746 95.0569 79.7112 94.9839 79.7349 94.9172L85.7676 77.9796C85.7861 77.9286 85.8337 77.8938 85.8893 77.8944L99.1142 78.0097C99.185 78.0103 99.2418 78.0683 99.2412 78.1385C99.2406 78.2086 99.1832 78.2655 99.1136 78.2655C99.1131 78.2655 99.1131 78.2655 99.1125 78.2655L85.9786 78.1506L79.9767 95.0024C79.957 95.0552 79.9077 95.0882 79.8555 95.0882Z" fill="#E6D0BE"/>
<path d="M94.0743 96.1162H80.8494L86.8814 79.1792H100.107L94.0743 96.1162Z" fill="#2F2F2F"/>
<path d="M95.8189 90.1392C96.9856 90.8031 97.1265 91.5801 96.7571 92.2295C96.3878 92.8789 95.6473 93.1544 94.4807 92.4905C93.314 91.8265 92.1637 90.4749 92.533 89.8255C92.9024 89.1761 94.6523 89.4753 95.8189 90.1392Z" fill="#84524D"/>
<path d="M96.8412 87.7486C98.1928 88.518 98.3569 89.4191 97.9284 90.1711C97.4999 90.9238 96.6418 91.2427 95.2902 90.4738C93.938 89.7044 92.6044 88.1376 93.0329 87.385C93.4614 86.6324 95.4896 86.9791 96.8412 87.7486Z" fill="#84524D"/>
<path d="M97.962 86.3732C99.1286 87.0371 99.8685 86.7617 100.238 86.1123C100.608 85.4629 100.467 84.6859 99.3003 84.022C98.1336 83.3581 96.3837 83.0589 96.0143 83.7083C95.645 84.3577 96.796 85.7093 97.962 86.3732Z" fill="#84524D"/>
<path d="M96.429 88.4733C97.7811 89.2428 98.6387 88.9233 99.0672 88.1706C99.4957 87.418 99.3316 86.5175 97.98 85.7481C96.6278 84.9786 94.6002 84.6319 94.1717 85.3845C93.7432 86.1366 95.0768 87.7039 96.429 88.4733Z" fill="#84524D"/>
<path d="M95.6804 93.0002C95.6323 93.0002 95.583 92.9978 95.5331 92.9932C95.463 92.9868 95.4108 92.9248 95.4172 92.8546C95.4235 92.7845 95.4856 92.734 95.5557 92.7387C96.1564 92.7932 96.4794 92.4574 96.6452 92.1664C96.876 91.7611 96.865 91.3633 96.6134 90.9847C96.5873 90.9458 96.5849 90.8959 96.6064 90.8548C96.6279 90.8136 96.6702 90.7869 96.7171 90.7863C97.1903 90.7759 97.5701 90.5417 97.8171 90.1085C98.0392 89.7183 98.0693 89.3292 97.9058 88.9523C97.8902 88.9152 97.8925 88.8735 97.9122 88.8381C97.9319 88.8033 97.9673 88.7795 98.0073 88.7743C98.4149 88.7221 98.7338 88.4977 98.9559 88.1075C98.9907 88.046 99.069 88.0246 99.1304 88.0594C99.1919 88.0942 99.2133 88.1724 99.1785 88.2339C98.9472 88.6404 98.6097 88.903 98.1969 88.9993C98.3245 89.4034 98.2711 89.8273 98.0398 90.2343C97.7829 90.6855 97.4025 90.9551 96.9317 91.0241C97.1311 91.4323 97.1109 91.8666 96.8685 92.2922C96.6064 92.7526 96.1883 93.0002 95.6804 93.0002Z" fill="#363E44"/>
<path opacity="0.6" d="M53.1205 91.1677C53.3907 91.0454 48.5149 101.144 55.5396 104.659C55.5396 104.659 53.1425 106.374 50.2579 105.56C47.3726 104.746 44.3638 95.135 53.1205 91.1677Z" fill="white"/>
<path opacity="0.6" d="M93.4643 101.241C93.4643 101.241 102.822 104.848 104.717 94.96L106.338 98.8205C106.338 98.8205 107.615 103.488 103.095 105.56C98.5749 107.632 94.9376 104.63 93.4643 101.241Z" fill="white"/>
<path d="M76.8899 72.5917C80.3622 71.9702 82.6733 68.6515 82.0518 65.1791C81.4302 61.7067 78.1115 59.3957 74.6391 60.0172C71.1668 60.6387 68.8557 63.9575 69.4773 67.4298C70.0988 70.9022 73.4175 73.2132 76.8899 72.5917Z" fill="white"/>
<path d="M80.1744 69.486C79.3661 69.0395 77.9814 67.8468 77.535 68.6551L73.41 74.4361C72.9635 75.2444 75.6435 74.9632 76.4518 75.4096C77.2601 75.8561 78.7944 75.8799 79.2408 75.0722L81.3462 72.0756C81.7933 71.2667 80.9827 69.9325 80.1744 69.486Z" fill="#84524D"/>
<path d="M80.6841 75.0832C81.4084 77.7354 79.3239 81.7473 79.3239 81.7473C79.3239 81.7473 71.648 78.0224 71.648 75.0832C71.648 74.3317 73.671 73.7229 76.1661 73.7229C78.6611 73.7229 80.4864 74.3584 80.6841 75.0832Z" fill="#84524D"/>
<path d="M84.4032 71.7908C83.6784 73.1477 79.7651 73.3117 79.7651 73.3117L75.7236 69.6744C74.7582 67.7378 75.545 65.3854 77.4817 64.42C79.4183 63.4545 81.7707 64.2414 82.7361 66.178C82.7361 66.178 85.1419 70.4091 84.4032 71.7908Z" fill="#84524D"/>
<path d="M82.793 67.3012C82.793 67.3012 84.2901 67.841 84.3736 68.1396C84.4734 68.4957 83.476 69.2396 83.476 69.2396C83.476 69.2396 82.8208 67.2908 82.793 67.3012Z" fill="#84524D"/>
<path d="M79.554 68.7288C79.554 68.7288 79.9836 68.1206 80.691 67.7675C80.8418 67.6927 81.1584 69.0391 80.9815 69.042C80.2034 69.0553 79.554 68.7288 79.554 68.7288Z" fill="white"/>
<mask id="mask0_127_1782" style="mask-type:luminance" maskUnits="userSpaceOnUse" x="79" y="67" width="5" height="3">
<path d="M79.554 68.7288C79.554 68.7288 80.186 67.8341 81.1793 67.5853C82.1725 67.3366 83.1513 67.8289 83.1513 67.8289C83.1513 67.8289 82.5193 68.7236 81.526 68.9723C80.5327 69.221 79.554 68.7288 79.554 68.7288Z" fill="white"/>
</mask>
<g mask="url(#mask0_127_1782)">
<path d="M80.7056 67.7216C80.9404 67.02 81.6989 66.642 82.4005 66.8768C83.1021 67.1116 83.4801 67.8701 83.2453 68.5717C83.0104 69.2733 82.252 69.6513 81.5504 69.4165C80.8494 69.1816 80.4713 68.4232 80.7056 67.7216Z" fill="#363E44"/>
</g>
<path d="M82.6666 70.4648C82.6417 70.4648 82.6162 70.4637 82.5906 70.4608C82.3367 70.4318 82.1163 70.2567 82.0294 70.0149C82.0056 69.9482 82.0404 69.8751 82.1065 69.8514C82.1726 69.8276 82.2462 69.8618 82.27 69.9285C82.3239 70.0792 82.4613 70.1888 82.6196 70.2068C82.7837 70.2259 82.9449 70.1453 83.0302 70.0021C83.0661 69.9412 83.1444 69.9215 83.2053 69.9575C83.2662 69.9934 83.2859 70.0723 83.2499 70.1326C83.1264 70.3396 82.9032 70.4648 82.6666 70.4648Z" fill="#363E44"/>
<path d="M72.9318 70.3871C72.9318 70.3871 78.4373 70.63 81.9192 65.1239C85.4005 59.6184 75.8466 59.9419 71.8793 61.8044C69.3379 62.9971 72.9318 70.3871 72.9318 70.3871Z" fill="white"/>
<path d="M74.2989 74.8512C74.1238 74.8512 74.0096 74.8333 73.9962 74.8315C73.9267 74.8199 73.8797 74.7544 73.8907 74.6848C73.9017 74.6152 73.9667 74.5677 74.0374 74.5793C74.0461 74.581 74.9124 74.7121 75.578 74.1775C76.0512 73.7977 76.3167 73.1738 76.3666 72.3237C76.4414 71.0562 75.5496 70.3563 74.8985 69.8455C74.5071 69.5382 74.2241 69.3161 74.2792 69.0471C74.3314 68.7925 74.6752 68.6064 75.5055 68.3843C78.5074 67.5812 80.2486 64.0524 80.2654 64.0164C80.2962 63.9526 80.3727 63.9265 80.4365 63.9573C80.5003 63.988 80.5263 64.0645 80.4956 64.1283C80.4231 64.2779 78.6848 67.7981 75.5717 68.6313C74.7007 68.8644 74.5453 69.0239 74.5303 69.0981C74.5071 69.2123 74.7866 69.4321 75.0568 69.6443C75.7131 70.1592 76.7047 70.9373 76.6217 72.3388C76.5672 73.2654 76.2692 73.9519 75.7357 74.3792C75.2324 74.7805 74.6462 74.8512 74.2989 74.8512Z" fill="#F7F1EB"/>
<path d="M77.513 63.2482C77.513 63.2482 75.1913 52.1009 71.7233 53.2269C68.2547 54.353 74.9913 64.3447 77.513 63.2482Z" fill="white"/>
<path d="M75.2383 64.2704C75.2383 64.2704 70.2627 51.1458 66.0444 53.1863C61.8261 55.2267 72.222 66.0923 75.2383 64.2704Z" fill="white"/>
<path d="M74.2624 64.2519C74.2624 64.2519 63.0791 52.3189 59.6685 56.2937C56.2579 60.2684 71.9906 67.4822 74.2624 64.2519Z" fill="white"/>
<path d="M72.2603 65.84C72.2603 65.84 62.2569 58.0632 59.9649 61.6188C57.6728 65.1738 70.7921 68.6615 72.2603 65.84Z" fill="white"/>
<path d="M73.2633 63.5642C72.5965 63.5642 71.7691 63.1601 70.8332 62.3715C68.2408 60.1872 65.4843 55.5717 65.9626 53.2994C66.1047 52.6233 66.5082 52.1838 67.1611 51.9924C67.7474 51.8208 68.3341 51.9089 68.9059 52.2545C71.9941 54.1239 73.7869 62.9507 73.8617 63.3259C73.8739 63.3862 73.8409 63.4471 73.7834 63.4697C73.6228 63.5329 73.4495 63.5642 73.2633 63.5642ZM67.7398 52.1635C67.5705 52.1635 67.4012 52.1884 67.2325 52.2377C66.677 52.4006 66.3337 52.7752 66.2125 53.3521C65.751 55.5439 68.4577 60.0359 70.9973 62.1761C72.0445 63.0586 72.9583 63.4413 73.5869 63.2656C73.3671 62.2265 71.5841 54.1749 68.7725 52.4731C68.4321 52.2667 68.0866 52.1635 67.7398 52.1635Z" fill="#F7F1EB"/>
<path d="M76.3284 61.8787C76.3284 61.8787 74.5517 56.6607 77.1506 56.8457C79.7494 57.0312 76.3284 61.8787 76.3284 61.8787Z" fill="white"/>
<path d="M70.5126 65.8093C70.5126 65.8093 63.4281 64.2316 64.2237 67.906C65.0198 71.581 70.5126 65.8093 70.5126 65.8093Z" fill="white"/>
<path d="M65.9185 66.4564C63.6038 66.4564 61.3964 66.0222 60.4298 65.0875C59.9329 64.6074 59.7752 64.0316 59.9607 63.3775C60.1271 62.7896 60.5145 62.3396 61.1111 62.0398C64.3373 60.4198 72.7647 63.599 73.1218 63.7353C73.1798 63.7573 73.2135 63.8176 73.2019 63.8779C73.0581 64.6532 72.1941 65.3148 70.7028 65.7914C69.343 66.2263 67.603 66.4564 65.9185 66.4564ZM63.5702 61.8398C62.65 61.8398 61.8348 61.9627 61.2259 62.2683C60.696 62.5344 60.3533 62.931 60.2072 63.4471C60.0494 64.0037 60.1845 64.4943 60.6078 64.9036C62.218 66.4605 67.4615 66.5597 70.6251 65.5478C71.9297 65.1309 72.7397 64.561 72.9259 63.9347C72.1355 63.6442 67.0904 61.8398 63.5702 61.8398Z" fill="#F7F1EB"/>
<path d="M198.504 70.8313H193.5V68.204H198.504C199.375 68.204 200.079 68.0632 200.616 67.7816C201.153 67.4999 201.545 67.1127 201.791 66.6198C202.046 66.1181 202.174 65.546 202.174 64.9035C202.174 64.2962 202.046 63.7285 201.791 63.2004C201.545 62.6635 201.153 62.2323 200.616 61.9066C200.079 61.581 199.375 61.4181 198.504 61.4181H194.517V78H191.203V58.7777H198.504C199.991 58.7777 201.254 59.0418 202.293 59.5698C203.34 60.0891 204.137 60.8108 204.682 61.735C205.228 62.6503 205.501 63.6977 205.501 64.8771C205.501 66.1181 205.228 67.1831 204.682 68.072C204.137 68.961 203.34 69.6431 202.293 70.1183C201.254 70.5936 199.991 70.8313 198.504 70.8313ZM215.586 75.1351V68.3228C215.586 67.8124 215.493 67.3723 215.309 67.0026C215.124 66.633 214.842 66.3469 214.464 66.1445C214.094 65.9421 213.627 65.8409 213.064 65.8409C212.545 65.8409 212.096 65.9289 211.718 66.1049C211.339 66.2809 211.044 66.5186 210.833 66.8178C210.622 67.1171 210.516 67.4559 210.516 67.8344H207.348C207.348 67.2711 207.484 66.7254 207.757 66.1973C208.03 65.6692 208.426 65.1983 208.945 64.7847C209.464 64.371 210.085 64.0454 210.807 63.8077C211.528 63.5701 212.338 63.4513 213.236 63.4513C214.31 63.4513 215.26 63.6317 216.087 63.9926C216.924 64.3534 217.579 64.8991 218.055 65.6296C218.539 66.3513 218.781 67.2579 218.781 68.3493V74.6995C218.781 75.3508 218.825 75.9361 218.913 76.4554C219.01 76.9658 219.146 77.4103 219.322 77.7888V78H216.061C215.911 77.6567 215.793 77.2211 215.705 76.693C215.625 76.1561 215.586 75.6368 215.586 75.1351ZM216.048 69.313L216.074 71.2801H213.79C213.201 71.2801 212.681 71.3373 212.232 71.4518C211.784 71.5574 211.41 71.7158 211.11 71.927C210.811 72.1383 210.587 72.3935 210.437 72.6927C210.287 72.992 210.213 73.3309 210.213 73.7093C210.213 74.0878 210.301 74.4354 210.477 74.7523C210.653 75.0603 210.908 75.3024 211.242 75.4784C211.586 75.6544 211.999 75.7424 212.483 75.7424C213.135 75.7424 213.702 75.6104 214.186 75.3464C214.679 75.0735 215.067 74.7435 215.348 74.3562C215.63 73.9602 215.779 73.5861 215.797 73.234L216.827 74.6467C216.721 75.0075 216.541 75.3948 216.286 75.8084C216.03 76.2221 215.696 76.6182 215.282 76.9966C214.877 77.3663 214.389 77.6699 213.817 77.9076C213.253 78.1452 212.602 78.264 211.863 78.264C210.93 78.264 210.098 78.0792 209.368 77.7096C208.637 77.3311 208.065 76.825 207.651 76.1913C207.238 75.5488 207.031 74.8227 207.031 74.013C207.031 73.256 207.172 72.5871 207.453 72.0062C207.744 71.4165 208.166 70.9237 208.721 70.5276C209.284 70.1315 209.97 69.8323 210.78 69.6299C211.59 69.4186 212.514 69.313 213.553 69.313H216.048ZM225.578 76.4422L229.46 63.7153H232.866L227.136 80.1783C227.004 80.5304 226.833 80.9133 226.621 81.3269C226.41 81.7406 226.133 82.1323 225.79 82.5019C225.455 82.8804 225.037 83.184 224.535 83.4129C224.034 83.6505 223.426 83.7693 222.713 83.7693C222.432 83.7693 222.159 83.7429 221.895 83.6901C221.64 83.6461 221.398 83.5977 221.169 83.5449L221.156 81.1157C221.244 81.1245 221.349 81.1333 221.473 81.1421C221.605 81.1509 221.71 81.1553 221.789 81.1553C222.317 81.1553 222.758 81.0893 223.11 80.9573C223.462 80.8341 223.748 80.6316 223.968 80.35C224.197 80.0683 224.39 79.6899 224.549 79.2146L225.578 76.4422ZM223.387 63.7153L226.78 74.409L227.347 77.7624L225.143 78.3301L219.954 63.7153H223.387ZM237.406 66.6198V78H234.224V63.7153H237.221L237.406 66.6198ZM236.891 70.3296L235.809 70.3164C235.809 69.3306 235.932 68.4197 236.178 67.5835C236.425 66.7474 236.786 66.0213 237.261 65.4052C237.736 64.7803 238.326 64.3006 239.03 63.9662C239.743 63.6229 240.566 63.4513 241.499 63.4513C242.15 63.4513 242.744 63.5481 243.281 63.7417C243.827 63.9265 244.298 64.2214 244.694 64.6263C245.098 65.0311 245.407 65.5504 245.618 66.1841C245.838 66.8178 245.948 67.5835 245.948 68.4813V78H242.766V68.7585C242.766 68.0632 242.66 67.5175 242.449 67.1215C242.247 66.7254 241.952 66.4437 241.565 66.2765C241.186 66.1005 240.733 66.0125 240.205 66.0125C239.606 66.0125 239.096 66.1269 238.673 66.3557C238.26 66.5846 237.921 66.897 237.657 67.2931C237.393 67.6891 237.199 68.1468 237.076 68.6661C236.953 69.1854 236.891 69.7399 236.891 70.3296ZM245.75 69.4846L244.258 69.8147C244.258 68.9522 244.377 68.138 244.614 67.3723C244.861 66.5978 245.217 65.9201 245.684 65.3392C246.159 64.7495 246.744 64.2874 247.44 63.9529C248.135 63.6185 248.931 63.4513 249.829 63.4513C250.56 63.4513 251.211 63.5525 251.783 63.7549C252.364 63.9485 252.857 64.2566 253.262 64.6791C253.667 65.1015 253.975 65.6516 254.186 66.3293C254.397 66.9982 254.503 67.808 254.503 68.7585V78H251.308V68.7453C251.308 68.0236 251.202 67.4647 250.991 67.0686C250.789 66.6726 250.498 66.3997 250.12 66.2501C249.741 66.0917 249.288 66.0125 248.76 66.0125C248.267 66.0125 247.831 66.1049 247.453 66.2897C247.083 66.4658 246.771 66.7166 246.515 67.0422C246.26 67.3591 246.067 67.7244 245.935 68.138C245.811 68.5517 245.75 69.0006 245.75 69.4846ZM263.611 78.264C262.555 78.264 261.6 78.0924 260.746 77.7492C259.901 77.3971 259.179 76.9086 258.581 76.2837C257.991 75.6588 257.538 74.9239 257.221 74.079C256.904 73.234 256.746 72.3231 256.746 71.3461V70.818C256.746 69.7003 256.909 68.6881 257.234 67.7816C257.56 66.875 258.013 66.1005 258.594 65.458C259.175 64.8067 259.861 64.3094 260.654 63.9662C261.446 63.6229 262.304 63.4513 263.228 63.4513C264.249 63.4513 265.142 63.6229 265.908 63.9662C266.674 64.3094 267.307 64.7935 267.809 65.4184C268.32 66.0345 268.698 66.7694 268.944 67.6231C269.2 68.4769 269.327 69.4186 269.327 70.4484V71.8082H258.29V69.5242H266.185V69.2734C266.168 68.7013 266.053 68.1644 265.842 67.6627C265.64 67.1611 265.327 66.7562 264.905 66.4481C264.482 66.1401 263.919 65.9861 263.215 65.9861C262.687 65.9861 262.216 66.1005 261.802 66.3293C261.397 66.5494 261.058 66.8706 260.786 67.2931C260.513 67.7156 260.301 68.226 260.152 68.8245C260.011 69.4142 259.941 70.0787 259.941 70.818V71.3461C259.941 71.971 260.024 72.5519 260.191 73.0888C260.367 73.6169 260.623 74.079 260.957 74.475C261.292 74.8711 261.696 75.1835 262.172 75.4124C262.647 75.6324 263.188 75.7424 263.796 75.7424C264.561 75.7424 265.243 75.5884 265.842 75.2804C266.44 74.9723 266.96 74.5366 267.4 73.9734L269.076 75.5972C268.768 76.0461 268.368 76.4774 267.875 76.891C267.382 77.2959 266.779 77.6259 266.066 77.8812C265.362 78.1364 264.544 78.264 263.611 78.264ZM274.501 66.765V78H271.319V63.7153H274.316L274.501 66.765ZM273.933 70.3296L272.904 70.3164C272.912 69.3042 273.053 68.3757 273.326 67.5307C273.608 66.6858 273.995 65.9597 274.488 65.3524C274.99 64.7451 275.588 64.2786 276.283 63.9529C276.979 63.6185 277.753 63.4513 278.607 63.4513C279.293 63.4513 279.914 63.5481 280.468 63.7417C281.032 63.9265 281.511 64.2302 281.907 64.6527C282.312 65.0751 282.62 65.6252 282.832 66.3029C283.043 66.9718 283.148 67.7948 283.148 68.7717V78H279.954V68.7585C279.954 68.072 279.852 67.5307 279.65 67.1347C279.456 66.7298 279.17 66.4437 278.792 66.2765C278.422 66.1005 277.96 66.0125 277.406 66.0125C276.86 66.0125 276.371 66.1269 275.94 66.3557C275.509 66.5846 275.144 66.897 274.844 67.2931C274.554 67.6891 274.329 68.1468 274.171 68.6661C274.013 69.1854 273.933 69.7399 273.933 70.3296ZM292.481 63.7153V66.0389H284.428V63.7153H292.481ZM286.751 60.2168H289.933V74.0526C289.933 74.4926 289.995 74.8315 290.118 75.0691C290.25 75.298 290.43 75.452 290.659 75.5312C290.888 75.6104 291.156 75.65 291.464 75.65C291.684 75.65 291.896 75.6368 292.098 75.6104C292.301 75.584 292.463 75.5576 292.587 75.5312L292.6 77.9604C292.336 78.0396 292.028 78.11 291.676 78.1716C291.332 78.2332 290.936 78.264 290.487 78.264C289.757 78.264 289.11 78.1364 288.547 77.8812C287.983 77.6171 287.543 77.1903 287.227 76.6006C286.91 76.0109 286.751 75.2276 286.751 74.2506V60.2168ZM302.487 74.1318C302.487 73.8149 302.408 73.5289 302.249 73.2736C302.091 73.0096 301.787 72.772 301.338 72.5607C300.898 72.3495 300.247 72.1559 299.384 71.9798C298.627 71.8126 297.932 71.6146 297.298 71.3857C296.673 71.1481 296.136 70.8621 295.688 70.5276C295.239 70.1931 294.891 69.7971 294.645 69.3394C294.398 68.8817 294.275 68.3537 294.275 67.7552C294.275 67.1743 294.403 66.6242 294.658 66.1049C294.913 65.5856 295.278 65.1279 295.754 64.7319C296.229 64.3358 296.805 64.0234 297.483 63.7945C298.17 63.5657 298.935 63.4513 299.78 63.4513C300.977 63.4513 302.003 63.6537 302.856 64.0586C303.719 64.4546 304.379 64.9959 304.837 65.6824C305.294 66.3601 305.523 67.1259 305.523 67.9796H302.341C302.341 67.6011 302.245 67.2491 302.051 66.9234C301.866 66.589 301.585 66.3205 301.206 66.1181C300.828 65.9069 300.352 65.8012 299.78 65.8012C299.235 65.8012 298.781 65.8893 298.42 66.0653C298.068 66.2325 297.804 66.4526 297.628 66.7254C297.461 66.9982 297.377 67.2975 297.377 67.6231C297.377 67.8608 297.422 68.0764 297.51 68.27C297.606 68.4549 297.765 68.6265 297.985 68.7849C298.205 68.9345 298.504 69.0754 298.883 69.2074C299.27 69.3394 299.754 69.467 300.335 69.5903C301.426 69.8191 302.363 70.1139 303.147 70.4748C303.939 70.8269 304.546 71.2845 304.969 71.8478C305.391 72.4023 305.602 73.1064 305.602 73.9602C305.602 74.5939 305.466 75.1747 305.193 75.7028C304.929 76.2221 304.542 76.6754 304.031 77.0626C303.521 77.4411 302.909 77.736 302.196 77.9472C301.492 78.1584 300.7 78.264 299.82 78.264C298.526 78.264 297.43 78.0352 296.533 77.5775C295.635 77.1111 294.953 76.517 294.486 75.7952C294.029 75.0647 293.8 74.3078 293.8 73.5245H296.876C296.911 74.1142 297.074 74.5851 297.364 74.9371C297.664 75.2804 298.033 75.5312 298.473 75.6896C298.922 75.8393 299.384 75.9141 299.859 75.9141C300.432 75.9141 300.911 75.8393 301.299 75.6896C301.686 75.5312 301.981 75.32 302.183 75.0559C302.385 74.7831 302.487 74.475 302.487 74.1318ZM226.225 93.3389L220.482 110H217.01L224.245 90.7777H226.463L226.225 93.3389ZM231.031 110L225.275 93.3389L225.024 90.7777H227.255L234.516 110H231.031ZM230.754 102.871V105.498H220.298V102.871H230.754ZM245.037 95.7153H247.928V109.604C247.928 110.889 247.655 111.98 247.11 112.878C246.564 113.776 245.803 114.458 244.826 114.924C243.849 115.4 242.718 115.637 241.433 115.637C240.887 115.637 240.28 115.558 239.611 115.4C238.951 115.241 238.308 114.986 237.683 114.634C237.067 114.291 236.552 113.837 236.139 113.274L237.63 111.399C238.141 112.007 238.704 112.451 239.32 112.733C239.936 113.014 240.583 113.155 241.261 113.155C241.992 113.155 242.612 113.019 243.123 112.746C243.642 112.482 244.042 112.09 244.324 111.571C244.606 111.052 244.746 110.418 244.746 109.67V98.9498L245.037 95.7153ZM235.333 103.016V102.739C235.333 101.656 235.465 100.671 235.729 99.7816C235.993 98.8838 236.372 98.1137 236.865 97.4712C237.358 96.8199 237.956 96.3226 238.66 95.9794C239.364 95.6273 240.161 95.4513 241.05 95.4513C241.974 95.4513 242.762 95.6185 243.413 95.9529C244.073 96.2874 244.623 96.7671 245.063 97.392C245.503 98.0081 245.847 98.7474 246.093 99.6099C246.348 100.464 246.537 101.414 246.661 102.462V103.346C246.546 104.367 246.353 105.3 246.08 106.145C245.807 106.99 245.446 107.72 244.997 108.337C244.548 108.953 243.994 109.428 243.334 109.762C242.682 110.097 241.912 110.264 241.023 110.264C240.152 110.264 239.364 110.084 238.66 109.723C237.965 109.362 237.366 108.856 236.865 108.205C236.372 107.553 235.993 106.787 235.729 105.907C235.465 105.018 235.333 104.055 235.333 103.016ZM238.515 102.739V103.016C238.515 103.667 238.577 104.275 238.7 104.838C238.832 105.401 239.03 105.899 239.294 106.33C239.567 106.752 239.91 107.087 240.324 107.333C240.746 107.571 241.243 107.69 241.816 107.69C242.564 107.69 243.175 107.531 243.651 107.214C244.135 106.898 244.504 106.471 244.76 105.934C245.024 105.388 245.208 104.781 245.314 104.112V101.722C245.261 101.203 245.151 100.719 244.984 100.27C244.826 99.8212 244.61 99.4295 244.337 99.0951C244.064 98.7518 243.721 98.4878 243.307 98.3029C242.894 98.1093 242.405 98.0125 241.842 98.0125C241.27 98.0125 240.773 98.1357 240.35 98.3821C239.928 98.6286 239.58 98.9674 239.307 99.3987C239.043 99.83 238.845 100.332 238.713 100.904C238.581 101.476 238.515 102.088 238.515 102.739ZM254.171 95.7153V110H250.976V95.7153H254.171ZM250.765 91.9659C250.765 91.4818 250.924 91.0814 251.24 90.7645C251.566 90.4389 252.015 90.276 252.587 90.276C253.15 90.276 253.595 90.4389 253.92 90.7645C254.246 91.0814 254.409 91.4818 254.409 91.9659C254.409 92.4412 254.246 92.8373 253.92 93.1541C253.595 93.471 253.15 93.6294 252.587 93.6294C252.015 93.6294 251.566 93.471 251.24 93.1541C250.924 92.8373 250.765 92.4412 250.765 91.9659ZM260.348 98.765V110H257.167V95.7153H260.164L260.348 98.765ZM259.781 102.33L258.751 102.316C258.76 101.304 258.901 100.376 259.173 99.5307C259.455 98.6858 259.842 97.9597 260.335 97.3524C260.837 96.7451 261.435 96.2786 262.131 95.9529C262.826 95.6185 263.601 95.4513 264.454 95.4513C265.141 95.4513 265.761 95.5481 266.316 95.7417C266.879 95.9265 267.359 96.2302 267.755 96.6527C268.16 97.0751 268.468 97.6252 268.679 98.3029C268.89 98.9718 268.996 99.7948 268.996 100.772V110H265.801V100.759C265.801 100.072 265.7 99.5307 265.497 99.1347C265.304 98.7298 265.018 98.4437 264.639 98.2765C264.269 98.1005 263.807 98.0125 263.253 98.0125C262.707 98.0125 262.219 98.1269 261.787 98.3557C261.356 98.5846 260.991 98.897 260.692 99.2931C260.401 99.6891 260.177 100.147 260.018 100.666C259.86 101.185 259.781 101.74 259.781 102.33ZM280.929 95.7153H283.82V109.604C283.82 110.889 283.548 111.98 283.002 112.878C282.456 113.776 281.695 114.458 280.718 114.924C279.741 115.4 278.61 115.637 277.325 115.637C276.779 115.637 276.172 115.558 275.503 115.4C274.843 115.241 274.2 114.986 273.576 114.634C272.959 114.291 272.445 113.837 272.031 113.274L273.523 111.399C274.033 112.007 274.596 112.451 275.213 112.733C275.829 113.014 276.476 113.155 277.153 113.155C277.884 113.155 278.504 113.019 279.015 112.746C279.534 112.482 279.935 112.09 280.216 111.571C280.498 111.052 280.639 110.418 280.639 109.67V98.9498L280.929 95.7153ZM271.226 103.016V102.739C271.226 101.656 271.358 100.671 271.622 99.7816C271.886 98.8838 272.264 98.1137 272.757 97.4712C273.25 96.8199 273.848 96.3226 274.552 95.9794C275.257 95.6273 276.053 95.4513 276.942 95.4513C277.866 95.4513 278.654 95.6185 279.305 95.9529C279.965 96.2874 280.515 96.7671 280.955 97.392C281.396 98.0081 281.739 98.7474 281.985 99.6099C282.24 100.464 282.43 101.414 282.553 102.462V103.346C282.439 104.367 282.245 105.3 281.972 106.145C281.699 106.99 281.338 107.72 280.889 108.337C280.441 108.953 279.886 109.428 279.226 109.762C278.575 110.097 277.805 110.264 276.916 110.264C276.044 110.264 275.257 110.084 274.552 109.723C273.857 109.362 273.259 108.856 272.757 108.205C272.264 107.553 271.886 106.787 271.622 105.907C271.358 105.018 271.226 104.055 271.226 103.016ZM274.407 102.739V103.016C274.407 103.667 274.469 104.275 274.592 104.838C274.724 105.401 274.922 105.899 275.186 106.33C275.459 106.752 275.802 107.087 276.216 107.333C276.638 107.571 277.136 107.69 277.708 107.69C278.456 107.69 279.068 107.531 279.543 107.214C280.027 106.898 280.397 106.471 280.652 105.934C280.916 105.388 281.101 104.781 281.206 104.112V101.722C281.154 101.203 281.044 100.719 280.876 100.27C280.718 99.8212 280.502 99.4295 280.229 99.0951C279.957 98.7518 279.613 98.4878 279.2 98.3029C278.786 98.1093 278.297 98.0125 277.734 98.0125C277.162 98.0125 276.665 98.1357 276.242 98.3821C275.82 98.6286 275.472 98.9674 275.199 99.3987C274.935 99.83 274.737 100.332 274.605 100.904C274.473 101.476 274.407 102.088 274.407 102.739Z" fill="white"/>
<mask id="path-109-inside-1_127_1782" fill="white">
<path d="M292.656 137L300.943 143.906C301.28 144.187 301.28 144.704 300.943 144.985L292 152.437"/>
</mask>
<path d="M290.859 139.156L299.146 146.063L302.74 141.75L294.453 134.844L290.859 139.156ZM299.146 142.828L290.203 150.281L293.797 154.594L302.74 147.141L299.146 142.828ZM299.146 146.063C298.136 145.221 298.136 143.67 299.146 142.828L302.74 147.141C304.423 145.738 304.423 143.153 302.74 141.75L299.146 146.063Z" fill="white" mask="url(#path-109-inside-1_127_1782)"/>
<mask id="path-111-inside-2_127_1782" fill="white">
<path d="M298.036 137L306.323 143.906C306.66 144.187 306.66 144.704 306.323 144.985L297.38 152.437"/>
</mask>
<path d="M296.239 139.156L304.526 146.063L308.12 141.75L299.832 134.844L296.239 139.156ZM304.526 142.828L295.583 150.281L299.177 154.594L308.12 147.141L304.526 142.828ZM304.526 146.063C303.516 145.221 303.516 143.67 304.526 142.828L308.12 147.141C309.803 145.738 309.803 143.153 308.12 141.75L304.526 146.063Z" fill="white" mask="url(#path-111-inside-2_127_1782)"/>
</svg>
