<svg width="280" height="308" viewBox="0 0 280 308" fill="none" xmlns="http://www.w3.org/2000/svg">
<path d="M195.411 276.247L101.39 275.816C90.0747 275.759 80.9531 266.582 81.0002 255.312L81.998 20.3354C82.0451 9.05577 91.2608 -0.0467396 102.576 0.00018058L196.597 0.431846C207.902 0.48815 217.033 9.66573 216.986 20.936L215.988 255.912C215.932 267.192 206.726 276.304 195.411 276.247Z" fill="#455A64"/>
<path d="M196.455 8.53946L178.222 8.45501C175.774 8.44562 173.788 10.5007 173.778 13.0438L173.76 16.3376C173.75 18.8807 171.755 20.9451 169.316 20.9264L133.781 20.7669C131.333 20.7575 129.366 18.6836 129.375 16.1311L129.394 12.8373C129.404 10.2943 127.427 8.21102 124.989 8.20164L118.578 8.17348L102.623 8.1078C94.7059 8.07026 88.2483 14.4514 88.2201 22.3528L87.2411 251.708C87.2034 259.6 93.5951 266.028 101.521 266.065L195.354 266.497C203.28 266.535 209.728 260.163 209.766 252.261L210.735 22.9064C210.773 15.0051 204.381 8.577 196.455 8.53946Z" fill="white"/>
<path d="M127.965 75.9458L103.753 75.8338L103.733 80.263L127.944 80.375L127.965 75.9458Z" fill="#E8505B"/>
<path opacity="0.1" d="M127.965 75.9458L103.753 75.8338L103.733 80.263L127.944 80.375L127.965 75.9458Z" fill="black"/>
<path d="M198.95 103.121C198.95 103.102 199.148 103.13 199.505 102.99C199.835 102.858 200.362 102.464 200.418 101.723C200.418 100.231 200.409 98.0537 200.409 95.2573C200.409 93.8497 200.409 92.2919 200.409 90.584C200.409 90.1524 200.409 89.7207 200.409 89.2703C200.418 88.8105 200.418 88.3882 200.145 88.041C199.901 87.6938 199.477 87.4685 199.035 87.4685C198.555 87.4685 198.056 87.4685 197.557 87.4685C193.556 87.4592 188.991 87.4498 183.964 87.4404C163.791 87.3747 135.955 87.2715 105.221 87.1589C104.816 87.1589 104.421 87.3559 104.185 87.6844C103.922 88.0128 103.931 88.4069 103.94 88.9137C103.94 89.8615 103.931 90.8186 103.931 91.757C103.922 93.6526 103.912 95.5294 103.903 97.3968C103.903 98.3259 103.893 99.2643 103.893 100.184C103.912 100.625 103.846 101.16 103.931 101.507C104.025 101.882 104.308 102.201 104.665 102.352C104.854 102.427 105.023 102.455 105.249 102.455H105.936L107.31 102.464C108.224 102.464 109.137 102.474 110.04 102.474C117.289 102.511 124.283 102.549 130.947 102.586C144.267 102.671 156.26 102.736 166.342 102.802C176.405 102.877 184.557 102.943 190.205 102.99C193.01 103.018 195.194 103.046 196.691 103.065C197.416 103.074 197.98 103.093 198.376 103.093C198.752 103.102 198.95 103.121 198.95 103.121C198.95 103.121 198.752 103.14 198.376 103.14C197.98 103.14 197.416 103.149 196.691 103.159C195.185 103.159 193.001 103.168 190.205 103.177C184.557 103.168 176.405 103.159 166.342 103.149C156.26 103.121 144.267 103.084 130.947 103.037C124.283 103.009 117.289 102.98 110.04 102.952C109.137 102.952 108.224 102.943 107.31 102.943L105.936 102.933H105.249C105.014 102.943 104.722 102.905 104.477 102.793C103.988 102.586 103.592 102.145 103.46 101.629C103.385 101.366 103.404 101.094 103.404 100.878V100.184C103.404 99.2549 103.413 98.3259 103.413 97.3968C103.423 95.5294 103.432 93.6526 103.432 91.757C103.432 90.8093 103.442 89.8615 103.442 88.9137C103.451 88.6697 103.432 88.4539 103.47 88.163C103.507 87.8908 103.62 87.6281 103.78 87.4029C104.1 86.9524 104.656 86.6709 105.211 86.6803C135.946 86.8492 163.781 86.9993 183.945 87.112C188.981 87.1495 193.537 87.1776 197.547 87.2152C198.046 87.2152 198.536 87.2246 199.025 87.2246C199.552 87.2339 200.051 87.4967 200.343 87.9096C200.663 88.3131 200.663 88.8668 200.644 89.289C200.644 89.7301 200.635 90.1711 200.635 90.6028C200.616 92.3107 200.607 93.8685 200.597 95.2761C200.56 98.0725 200.531 100.25 200.522 101.751C200.437 102.53 199.872 102.933 199.534 103.055C199.157 103.168 198.95 103.121 198.95 103.121Z" fill="#E0E0E0"/>
<path d="M154.529 93.0716L110.248 92.8667L110.229 97.005L154.51 97.21L154.529 93.0716Z" fill="#E8505B"/>
<path opacity="0.2" d="M154.529 93.0716L110.248 92.8667L110.229 97.005L154.51 97.21L154.529 93.0716Z" fill="white"/>
<path d="M127.786 116.363L103.574 116.251L103.554 120.68L127.765 120.792L127.786 116.363Z" fill="#E8505B"/>
<path opacity="0.1" d="M127.786 116.363L103.574 116.251L103.554 120.68L127.765 120.792L127.786 116.363Z" fill="black"/>
<path d="M198.329 143.529C198.329 143.51 198.526 143.529 198.884 143.426C199.223 143.313 199.778 143.031 200.079 142.365C200.24 142.037 200.258 141.633 200.24 141.173C200.24 140.714 200.24 140.216 200.23 139.681C200.23 138.602 200.23 137.354 200.221 135.965C200.221 134.567 200.221 133.009 200.221 131.311C200.221 130.888 200.221 130.447 200.221 130.006C200.24 129.556 200.183 129.143 199.948 128.768C199.722 128.402 199.355 128.111 198.922 127.979C198.498 127.848 197.999 127.923 197.5 127.895C193.509 127.886 188.972 127.876 183.945 127.867C163.847 127.792 136.115 127.689 105.484 127.576C104.637 127.557 103.846 128.252 103.762 129.087C103.733 129.978 103.743 130.964 103.733 131.893C103.724 133.779 103.715 135.656 103.705 137.514C103.705 138.443 103.696 139.372 103.696 140.291C103.715 140.751 103.649 141.23 103.752 141.605C103.856 141.99 104.11 142.337 104.439 142.572C104.788 142.806 105.155 142.891 105.607 142.872L106.972 142.881C107.885 142.881 108.788 142.891 109.692 142.891C116.912 142.928 123.887 142.966 130.524 143.003C143.797 143.088 155.752 143.153 165.796 143.219C175.821 143.294 183.945 143.36 189.574 143.407C192.37 143.444 194.544 143.463 196.041 143.482C196.766 143.501 197.321 143.51 197.726 143.51C198.14 143.51 198.329 143.529 198.329 143.529C198.329 143.529 198.131 143.548 197.754 143.548C197.359 143.548 196.804 143.557 196.069 143.566C194.573 143.566 192.398 143.576 189.602 143.585C183.973 143.576 175.849 143.566 165.824 143.557C155.78 143.529 143.825 143.491 130.552 143.444C123.916 143.416 116.94 143.388 109.72 143.36C108.817 143.36 107.913 143.35 107 143.35L105.635 143.341C105.174 143.369 104.609 143.257 104.195 142.956C103.771 142.665 103.451 142.224 103.31 141.727C103.169 141.202 103.253 140.742 103.234 140.291C103.234 139.372 103.244 138.443 103.244 137.514C103.253 135.656 103.263 133.779 103.263 131.893C103.272 130.935 103.253 130.035 103.291 129.03C103.394 127.951 104.402 127.06 105.503 127.088C136.134 127.257 163.866 127.407 183.964 127.52C188.981 127.557 193.518 127.585 197.51 127.623C197.999 127.651 198.498 127.567 199.006 127.726C199.496 127.876 199.91 128.214 200.164 128.636C200.437 129.049 200.494 129.575 200.465 130.006C200.465 130.447 200.456 130.888 200.456 131.311C200.437 133.009 200.428 134.567 200.418 135.965C200.4 137.363 200.39 138.602 200.381 139.681C200.371 140.216 200.371 140.714 200.362 141.173C200.371 141.624 200.343 142.065 200.164 142.403C199.835 143.097 199.251 143.379 198.893 143.472C198.526 143.566 198.329 143.529 198.329 143.529Z" fill="#E0E0E0"/>
<path d="M127.607 158.507L103.396 158.396L103.375 162.825L127.587 162.936L127.607 158.507Z" fill="#E8505B"/>
<path opacity="0.1" d="M127.607 158.507L103.396 158.396L103.375 162.825L127.587 162.936L127.607 158.507Z" fill="black"/>
<path d="M198.15 185.672C198.15 185.654 198.347 185.672 198.705 185.569C199.044 185.457 199.599 185.175 199.901 184.509C200.061 184.18 200.079 183.777 200.061 183.317C200.061 182.857 200.061 182.36 200.051 181.825C200.051 180.746 200.051 179.498 200.042 178.109C200.042 176.711 200.042 175.153 200.042 173.454C200.042 173.032 200.042 172.591 200.042 172.15C200.061 171.7 200.004 171.287 199.769 170.911C199.543 170.545 199.176 170.254 198.743 170.123C198.319 169.992 197.82 170.067 197.321 170.039C193.33 170.029 188.793 170.02 183.775 170.01C163.678 169.935 135.946 169.832 105.315 169.72C104.468 169.701 103.677 170.386 103.592 171.23C103.564 172.122 103.573 173.107 103.564 174.036C103.554 175.922 103.545 177.799 103.536 179.657C103.536 180.586 103.526 181.515 103.526 182.435C103.545 182.895 103.479 183.373 103.583 183.749C103.686 184.133 103.94 184.481 104.27 184.715C104.618 184.95 104.985 185.034 105.437 185.016L106.802 185.025C107.715 185.025 108.619 185.034 109.523 185.034C116.743 185.072 123.718 185.109 130.354 185.147C143.627 185.231 155.582 185.297 165.626 185.363C175.652 185.438 183.775 185.504 189.405 185.55C192.2 185.588 194.375 185.607 195.872 185.626C196.597 185.635 197.161 185.654 197.557 185.654C197.952 185.654 198.15 185.672 198.15 185.672C198.15 185.672 197.952 185.691 197.576 185.691C197.18 185.691 196.625 185.701 195.891 185.71C194.394 185.71 192.219 185.719 189.424 185.729C183.794 185.719 175.671 185.71 165.645 185.701C155.601 185.672 143.646 185.635 130.373 185.588C123.737 185.56 116.761 185.532 109.541 185.504C108.638 185.504 107.734 185.494 106.821 185.494L105.456 185.485C104.995 185.513 104.43 185.4 104.016 185.1C103.592 184.809 103.272 184.368 103.131 183.871C102.99 183.345 103.074 182.885 103.056 182.426C103.056 181.506 103.065 180.577 103.065 179.648C103.074 177.79 103.084 175.913 103.084 174.027C103.093 173.07 103.074 172.169 103.112 171.165C103.216 170.086 104.223 169.194 105.324 169.222C135.955 169.391 163.687 169.541 183.785 169.654C188.802 169.691 193.339 169.72 197.331 169.757C197.82 169.785 198.319 169.701 198.827 169.86C199.317 170.01 199.731 170.348 199.985 170.771C200.258 171.183 200.315 171.709 200.287 172.141C200.287 172.582 200.277 173.023 200.277 173.445C200.258 175.144 200.249 176.701 200.24 178.1C200.221 179.498 200.211 180.736 200.202 181.816C200.192 182.35 200.192 182.848 200.183 183.308C200.192 183.758 200.164 184.199 199.985 184.537C199.656 185.231 199.072 185.513 198.715 185.607C198.347 185.71 198.15 185.672 198.15 185.672Z" fill="#E0E0E0"/>
<path d="M154.35 133.489L110.069 133.284L110.05 137.422L154.331 137.627L154.35 133.489Z" fill="#E8505B"/>
<path opacity="0.2" d="M154.35 133.489L110.069 133.284L110.05 137.422L154.331 137.627L154.35 133.489Z" fill="white"/>
<path d="M114.098 178.015C114.088 179.151 113.222 180.07 112.149 180.061C111.076 180.051 110.219 179.132 110.219 177.996C110.229 176.861 111.095 175.941 112.168 175.951C113.241 175.951 114.098 176.88 114.098 178.015Z" fill="#E8505B"/>
<path d="M120.094 178.043C120.084 179.179 119.218 180.098 118.145 180.089C117.072 180.08 116.216 179.16 116.216 178.025C116.216 176.889 117.091 175.969 118.164 175.979C119.237 175.979 120.103 176.908 120.094 178.043Z" fill="#E8505B"/>
<path d="M126.09 178.071C126.09 179.207 125.215 180.126 124.142 180.117C123.068 180.117 122.212 179.188 122.212 178.053C122.221 176.917 123.087 175.997 124.16 176.007C125.234 176.007 126.1 176.936 126.09 178.071Z" fill="#E8505B"/>
<path d="M132.096 178.1C132.096 179.235 131.22 180.155 130.147 180.145C129.074 180.145 128.218 179.216 128.218 178.081C128.218 176.945 129.093 176.026 130.166 176.035C131.23 176.035 132.096 176.964 132.096 178.1Z" fill="#E8505B"/>
<path d="M138.092 178.128C138.092 179.263 137.217 180.183 136.144 180.173C135.071 180.173 134.214 179.244 134.214 178.109C134.223 176.973 135.089 176.054 136.163 176.063C137.236 176.063 138.092 176.992 138.092 178.128Z" fill="#E8505B"/>
<path d="M144.089 178.156C144.089 179.291 143.213 180.211 142.14 180.202C141.067 180.202 140.21 179.273 140.21 178.137C140.21 177.002 141.086 176.082 142.159 176.091C143.232 176.091 144.098 177.02 144.089 178.156Z" fill="#E8505B"/>
<path d="M150.094 178.184C150.085 179.319 149.219 180.239 148.146 180.23C147.073 180.22 146.216 179.301 146.216 178.165C146.216 177.03 147.091 176.11 148.165 176.119C149.228 176.119 150.094 177.039 150.094 178.184Z" fill="#E8505B"/>
<path d="M156.091 178.203C156.091 179.338 155.215 180.258 154.142 180.248C153.069 180.239 152.212 179.319 152.212 178.184C152.212 177.049 153.088 176.129 154.161 176.138C155.234 176.148 156.091 177.067 156.091 178.203Z" fill="#E8505B"/>
<path d="M162.087 178.231C162.087 179.366 161.212 180.286 160.138 180.277C159.065 180.277 158.209 179.348 158.209 178.212C158.218 177.077 159.084 176.157 160.157 176.166C161.23 176.176 162.096 177.095 162.087 178.231Z" fill="#E8505B"/>
<g opacity="0.2">
<path d="M114.098 178.015C114.088 179.151 113.222 180.07 112.149 180.061C111.076 180.051 110.219 179.132 110.219 177.996C110.229 176.861 111.095 175.941 112.168 175.951C113.241 175.951 114.098 176.88 114.098 178.015Z" fill="white"/>
<path d="M120.094 178.043C120.084 179.179 119.218 180.098 118.145 180.089C117.072 180.08 116.216 179.16 116.216 178.025C116.216 176.889 117.091 175.969 118.164 175.979C119.237 175.979 120.103 176.908 120.094 178.043Z" fill="white"/>
<path d="M126.09 178.071C126.09 179.207 125.215 180.126 124.142 180.117C123.068 180.117 122.212 179.188 122.212 178.053C122.221 176.917 123.087 175.997 124.16 176.007C125.234 176.007 126.1 176.936 126.09 178.071Z" fill="white"/>
<path d="M132.096 178.1C132.096 179.235 131.22 180.155 130.147 180.145C129.074 180.145 128.218 179.216 128.218 178.081C128.218 176.945 129.093 176.026 130.166 176.035C131.23 176.035 132.096 176.964 132.096 178.1Z" fill="white"/>
<path d="M138.092 178.128C138.092 179.263 137.217 180.183 136.144 180.173C135.071 180.173 134.214 179.244 134.214 178.109C134.223 176.973 135.089 176.054 136.163 176.063C137.236 176.063 138.092 176.992 138.092 178.128Z" fill="white"/>
<path d="M144.089 178.156C144.089 179.291 143.213 180.211 142.14 180.202C141.067 180.202 140.21 179.273 140.21 178.137C140.21 177.002 141.086 176.082 142.159 176.091C143.232 176.091 144.098 177.02 144.089 178.156Z" fill="white"/>
<path d="M150.094 178.184C150.085 179.319 149.219 180.239 148.146 180.23C147.073 180.22 146.216 179.301 146.216 178.165C146.216 177.03 147.091 176.11 148.165 176.119C149.228 176.119 150.094 177.039 150.094 178.184Z" fill="white"/>
<path d="M156.091 178.203C156.091 179.338 155.215 180.258 154.142 180.248C153.069 180.239 152.212 179.319 152.212 178.184C152.212 177.049 153.088 176.129 154.161 176.138C155.234 176.148 156.091 177.067 156.091 178.203Z" fill="white"/>
<path d="M162.087 178.231C162.087 179.366 161.212 180.286 160.138 180.277C159.065 180.277 158.209 179.348 158.209 178.212C158.218 177.077 159.084 176.157 160.157 176.166C161.23 176.176 162.096 177.095 162.087 178.231Z" fill="white"/>
</g>
<path d="M153.568 42.763C154.839 42.2375 155.733 40.9331 155.742 39.3942C155.752 37.386 154.227 35.7438 152.335 35.7344C150.443 35.725 148.908 37.3484 148.899 39.3566C148.889 40.905 149.803 42.2188 151.083 42.7536C145.811 43.5419 146.056 49.2568 146.056 49.2568L158.51 49.3131C158.51 49.3131 158.792 43.5513 153.568 42.763Z" fill="#E8505B"/>
<path opacity="0.1" d="M153.568 42.763C154.839 42.2375 155.733 40.9331 155.742 39.3942C155.752 37.386 154.227 35.7438 152.335 35.7344C150.443 35.725 148.908 37.3484 148.899 39.3566C148.889 40.905 149.803 42.2188 151.083 42.7536C145.811 43.5419 146.056 49.2568 146.056 49.2568L158.51 49.3131C158.51 49.3131 158.792 43.5513 153.568 42.763Z" fill="black"/>
<path d="M173.81 53.0579L129.388 52.8525L129.364 58.1451L173.786 58.3505L173.81 53.0579Z" fill="#E8505B"/>
<path opacity="0.2" d="M173.81 53.0579L129.388 52.8525L129.364 58.1451L173.786 58.3505L173.81 53.0579Z" fill="white"/>
<path d="M181.725 278.166C181.725 273.009 185.912 268.825 191.073 268.825H250.896C256.057 268.825 260.244 273.009 260.244 278.166V297.464C260.244 302.621 256.057 306.805 250.896 306.805H191.073C185.912 306.805 181.725 302.621 181.725 297.464V278.166Z" fill="black"/>
<path d="M250.896 268.825H191.073C188.617 268.825 186.388 269.798 184.722 271.344C186.064 270.598 187.589 270.144 189.234 270.144H249.056C254.217 270.144 258.404 274.328 258.404 279.485V294.383C258.404 299.54 254.217 303.724 249.056 303.724H189.234C186.475 303.724 184.03 302.513 182.309 300.61C183.608 304.21 187.016 306.816 191.073 306.816H250.896C256.057 306.816 260.244 302.632 260.244 297.475V278.177C260.244 273.009 256.057 268.825 250.896 268.825Z" fill="#353941"/>
<path d="M186.756 268.825C184.701 268.825 182.969 267.279 182.753 265.236L162.022 73.4651C161.903 72.3299 162.26 71.1947 163.029 70.3406C163.797 69.4865 164.879 69 166.026 69H275.943C277.09 69 278.172 69.4865 278.94 70.3406C279.708 71.1947 280.065 72.3191 279.946 73.4651L259.216 265.236C259 267.279 257.268 268.825 255.213 268.825H186.756Z" fill="#B61244"/>
<path d="M272.86 138.992C261.337 134.116 250.56 127.457 238.301 124.44C227.417 121.759 216.424 123.446 205.929 126.873C192.805 131.165 179.031 139.1 170.343 150.441L171.024 156.701C179.096 143.414 194.676 134.689 209.077 130.181C219.713 126.851 230.197 126.267 240.974 129.413C251.967 132.624 261.878 138.819 272.405 143.22L272.86 138.992Z" fill="#990D38"/>
<path d="M165.095 101.91C176.91 109.229 198.474 103.153 210.354 101.131C218.891 99.6824 228.401 100.828 236.711 102.937C244.804 104.991 251.058 108.969 257.604 113.91C262.57 117.662 268.337 121.986 274.428 124.473L274.872 120.386C268.012 117.381 261.499 111.683 256.295 107.813C243.949 98.6337 228.607 96.0607 213.492 96.6877C201.471 97.185 175.461 107.304 165.171 96.8066C174.454 99.4338 184.625 98.0824 194.06 96.4174C207.249 94.0822 220.719 89.6928 234.244 91.0118C246.427 92.201 262.678 103.066 276.668 103.791L277.155 99.2716C272.232 99.1527 267.071 97.6715 262.462 96.1471C252.832 92.9578 243.484 87.8008 233.259 86.8062C221.444 85.6602 209.196 89.2495 197.717 91.5523C187.005 93.693 174.595 96.1472 164.035 92.147L165.095 101.91Z" fill="#990D38"/>
<path d="M257.669 124.408C247.152 118.894 237.014 112.191 225.231 109.694C214.487 107.413 203.96 111.034 193.519 113.164C184.939 114.916 173.838 116.635 166.166 111.78L166.74 117.045C182.558 124.408 205.896 111.11 222.18 113.305C240.011 115.716 255.786 131.468 273.282 135.079L273.747 130.765C268.229 129.576 262.862 127.121 257.669 124.408Z" fill="#990D38"/>
<path d="M278.94 70.3406C278.172 69.4865 277.09 69 275.943 69H258.307H166.026C164.879 69 163.797 69.4865 163.029 70.3406C162.26 71.1947 161.903 72.3191 162.022 73.4651L162.596 78.7302H255.548C269.635 78.7302 268.304 106.753 265.946 144.441C263.555 182.605 264.269 271.841 182.764 265.236C182.98 267.279 184.711 268.825 186.767 268.825H255.213C257.268 268.825 259 267.279 259.216 265.236L279.384 78.7302L279.946 73.4651C280.065 72.3299 279.708 71.1947 278.94 70.3406Z" fill="#990D38"/>
<path d="M187.103 300.837C187.103 301.302 186.735 301.681 186.269 301.681C185.804 301.681 185.436 301.302 185.436 300.837V274.015C185.436 273.55 185.815 273.171 186.269 273.171C186.735 273.171 187.103 273.55 187.103 274.015V300.837Z" fill="#353941"/>
<path d="M194.817 300.837C194.817 301.302 194.438 301.681 193.973 301.681C193.508 301.681 193.129 301.302 193.129 300.837V274.015C193.129 273.55 193.508 273.171 193.973 273.171C194.438 273.171 194.817 273.55 194.817 274.015V300.837Z" fill="#353941"/>
<path d="M202.531 300.837C202.531 301.302 202.153 301.681 201.687 301.681C201.222 301.681 200.854 301.302 200.854 300.837V274.015C200.854 273.55 201.222 273.171 201.687 273.171C202.153 273.171 202.531 273.55 202.531 274.015V300.837Z" fill="#353941"/>
<path d="M210.257 300.837C210.257 301.302 209.878 301.681 209.413 301.681C208.948 301.681 208.569 301.302 208.569 300.837V274.015C208.569 273.55 208.948 273.171 209.413 273.171C209.878 273.171 210.257 273.55 210.257 274.015V300.837Z" fill="#353941"/>
<path d="M217.971 300.837C217.971 301.302 217.592 301.681 217.127 301.681C216.662 301.681 216.294 301.302 216.294 300.837V274.015C216.294 273.55 216.673 273.171 217.127 273.171C217.592 273.171 217.971 273.55 217.971 274.015V300.837Z" fill="#353941"/>
<path d="M225.686 300.837C225.686 301.302 225.307 301.681 224.852 301.681C224.387 301.681 224.009 301.302 224.009 300.837V274.015C224.009 273.55 224.387 273.171 224.852 273.171C225.318 273.171 225.686 273.55 225.686 274.015V300.837Z" fill="#353941"/>
<path d="M233.4 300.837C233.4 301.302 233.021 301.681 232.556 301.681C232.091 301.681 231.712 301.302 231.712 300.837V274.015C231.712 273.55 232.091 273.171 232.556 273.171C233.021 273.171 233.4 273.55 233.4 274.015V300.837Z" fill="#353941"/>
<path d="M241.115 300.837C241.115 301.302 240.747 301.681 240.281 301.681C239.816 301.681 239.448 301.302 239.448 300.837V274.015C239.448 273.55 239.816 273.171 240.281 273.171C240.747 273.171 241.115 273.55 241.115 274.015V300.837Z" fill="#353941"/>
<path d="M248.829 300.837C248.829 301.302 248.45 301.681 247.985 301.681C247.52 301.681 247.141 301.302 247.141 300.837V274.015C247.141 273.55 247.52 273.171 247.985 273.171C248.45 273.171 248.829 273.55 248.829 274.015V300.837Z" fill="#353941"/>
<path d="M256.543 300.837C256.543 301.302 256.165 301.681 255.71 301.681C255.245 301.681 254.877 301.302 254.877 300.837V274.015C254.877 273.55 255.245 273.171 255.71 273.171C256.176 273.171 256.543 273.55 256.543 274.015V300.837Z" fill="#353941"/>
<path d="M207.379 189.535C207.379 189.535 200.53 172.961 216.391 162.507C232.264 152.052 237.674 145.566 237.674 145.566C237.674 145.566 246.687 205.384 207.379 189.535Z" fill="#990D38"/>
<path d="M204.598 217.861C204.598 217.861 200.519 191.33 213.503 178.713C226.486 166.096 234.45 158.593 236.819 148.452" stroke="#990D38" stroke-miterlimit="10" stroke-linecap="round" stroke-linejoin="round"/>
<path d="M46.2319 302.96V294.83L31.6728 294.735L31.5494 307.005L32.4516 307.072C36.4689 307.328 52.8894 307.708 55.577 306.872C58.5781 305.951 46.2319 302.96 46.2319 302.96Z" fill="#990D38"/>
<path d="M55.9284 306.122C55.9284 306.255 50.4866 306.369 43.7626 306.369C37.0482 306.369 31.5968 306.255 31.5968 306.122C31.5968 305.989 37.0387 305.875 43.7626 305.875C50.4771 305.875 55.9284 305.98 55.9284 306.122Z" fill="#263238"/>
<path d="M46.4883 304.612C46.3649 304.546 46.4693 304.118 46.7827 303.7C47.0961 303.273 47.476 303.055 47.571 303.15C47.666 303.244 47.4665 303.605 47.1816 303.995C46.8872 304.384 46.6118 304.679 46.4883 304.612Z" fill="#263238"/>
<path d="M47.419 305.153C47.2956 305.106 47.362 304.622 47.6469 304.118C47.9319 303.605 48.3117 303.301 48.4162 303.387C48.5207 303.472 48.3402 303.89 48.0743 304.356C47.8084 304.831 47.5425 305.201 47.419 305.153Z" fill="#263238"/>
<path d="M35.9845 306.084C35.9275 306.122 35.7091 305.913 35.3957 305.552C35.0823 305.201 34.6644 304.698 34.1231 304.27C33.5817 303.852 32.9834 303.634 32.5466 303.586C32.1002 303.529 31.8153 303.596 31.7868 303.52C31.7583 303.463 32.0337 303.263 32.5561 303.235C33.0689 303.197 33.8002 303.396 34.4175 303.881C35.0348 304.356 35.4242 304.935 35.6711 305.343C35.9275 305.761 36.0415 306.046 35.9845 306.084Z" fill="#263238"/>
<path d="M46.5263 303.093C46.6023 303.206 46.3459 303.491 45.928 303.643C45.5101 303.795 45.1397 303.748 45.1207 303.605C45.1017 303.472 45.3962 303.311 45.757 303.178C46.1274 303.045 46.4598 302.969 46.5263 303.093Z" fill="#263238"/>
<path d="M46.2984 302.304C46.3079 302.437 45.928 302.561 45.4341 302.561C44.9403 302.57 44.5509 302.466 44.5604 302.323C44.5699 302.19 44.9593 302.067 45.4246 302.067C45.8995 302.067 46.2889 302.171 46.2984 302.304Z" fill="#263238"/>
<path d="M82.0834 302.96V294.83L67.5244 294.735L67.4009 306.882L68.3031 306.948C72.3204 307.205 88.7409 307.708 91.4286 306.882C94.4391 305.951 82.0834 302.96 82.0834 302.96Z" fill="#990D38"/>
<path d="M91.78 306.141C91.78 306.274 86.3381 306.388 79.6142 306.388C72.8997 306.388 67.4484 306.274 67.4484 306.141C67.4484 306.008 72.8902 305.894 79.6142 305.894C86.3286 305.894 91.78 305.999 91.78 306.141Z" fill="#263238"/>
<path d="M82.3398 304.612C82.2164 304.546 82.3209 304.118 82.6343 303.7C82.9477 303.273 83.3275 303.055 83.4225 303.15C83.5175 303.244 83.3181 303.605 83.0331 303.995C82.7482 304.384 82.4633 304.679 82.3398 304.612Z" fill="#263238"/>
<path d="M83.2706 305.153C83.1471 305.106 83.2136 304.622 83.4985 304.118C83.7834 303.605 84.1633 303.301 84.2678 303.387C84.3722 303.472 84.1918 303.89 83.9259 304.356C83.66 304.831 83.394 305.201 83.2706 305.153Z" fill="#263238"/>
<path d="M71.8361 306.084C71.7791 306.122 71.5607 305.913 71.2473 305.552C70.9339 305.201 70.516 304.698 69.9746 304.27C69.4333 303.852 68.835 303.634 68.3981 303.586C67.9518 303.529 67.6669 303.596 67.6384 303.52C67.6099 303.463 67.8853 303.263 68.4076 303.235C68.9205 303.197 69.6517 303.396 70.2691 303.881C70.8864 304.356 71.2757 304.935 71.5227 305.343C71.7791 305.761 71.8931 306.046 71.8361 306.084Z" fill="#263238"/>
<path d="M82.3873 303.093C82.4538 303.206 82.2069 303.491 81.789 303.643C81.3711 303.795 81.0008 303.748 80.9818 303.605C80.9628 303.472 81.2572 303.311 81.6181 303.178C81.979 303.045 82.3114 302.969 82.3873 303.093Z" fill="#263238"/>
<path d="M82.1499 302.304C82.1594 302.437 81.7795 302.561 81.2857 302.561C80.7918 302.57 80.4024 302.466 80.4119 302.323C80.4214 302.19 80.8108 302.067 81.2762 302.067C81.751 302.067 82.1404 302.171 82.1499 302.304Z" fill="#263238"/>
<path d="M135.723 61.8283C135.343 61.4389 134.412 61.6193 134.412 61.6193C134.412 61.6193 134.574 60.5082 134.403 59.9763C134.232 59.435 133.035 59.5395 133.035 59.5395C133.035 59.5395 132.959 59.0266 133.064 58.1909C133.092 57.9819 132.978 57.83 132.788 57.716C132.219 57.3741 131.003 57.3931 131.003 57.3931C130.272 56.8708 133.235 52.7206 134.336 51.391C135.419 50.0804 135.239 49.0262 134.26 49.0262C133.596 49.0262 130.129 53.015 129.075 54.3541C128.021 55.6931 125.181 59.416 125.086 56.4434C124.991 53.4708 123.795 51.22 123.054 50.8401C122.304 50.4602 121.506 51.353 121.914 52.1792C122.247 52.844 122.456 54.1356 122.579 55.1043C122.674 55.9021 122.646 56.7188 122.465 57.5071C121.971 59.7294 121.439 61.1825 121.183 61.7998L121.107 61.7618C121.107 61.7618 100.375 81.6392 98.8838 83.0543C97.5352 84.3269 70.6014 81.5442 65.2071 80.9744C63.735 80.813 61.5507 80.5091 59.6513 80.5945C57.315 80.699 56.8971 81.0314 54.5513 81.0599C47.381 81.1549 41.3978 81.8577 36.9532 82.6079C31.5778 83.5196 27.1617 87.347 25.4997 92.5419C20.0579 109.542 7.73063 149.781 5.5368 172.384C3.80833 175.632 1.87092 179.431 1.09216 181.568C-0.436875 185.727 -0.0664879 185.86 0.446355 185.965C1.82343 186.221 3.40945 178.757 3.99827 180.561C4.58709 182.365 1.00668 189.46 2.45974 189.669C4.35916 189.944 5.8692 182.1 6.04015 181.444C6.21109 180.808 7.1703 181.026 6.98036 181.606C6.70494 182.441 4.03626 191.302 5.88819 191.587C6.92338 191.749 7.02784 189.868 7.02784 189.868C7.02784 189.868 8.91777 181.397 9.7915 181.558C10.6747 181.72 9.73452 186.734 9.29765 188.406C8.87028 190.058 9.4781 190.932 10.3613 190.514C10.9691 190.229 12.4222 185.158 12.8211 183.496C13.2105 181.834 14.2171 177.266 15.5562 179.915C16.8953 182.565 18.9277 184.103 19.7635 184.141C20.5992 184.17 20.9506 183.021 20.2288 182.441C19.64 181.976 18.9087 180.903 18.3959 180.067C17.9685 179.383 17.6551 178.633 17.4842 177.845C16.8194 174.806 16.8194 173.039 16.8194 173.039L16.6674 172.061C18.7947 161.529 24.9204 130.616 33.7337 110.871L37.3616 118.336L38.9286 123.854L29.2606 147.73L70.4875 147.188L64.3428 123.502L71.8076 98.81C79.8896 98.9904 100.65 99.2943 104.136 97.7368C108.485 95.7899 130.993 67.4221 130.993 67.4221C132.513 66.2159 134.061 64.9053 135.201 63.7752C135.201 63.7657 136.54 62.6735 135.723 61.8283Z" fill="#FFBE9D"/>
<path d="M27.4656 130.15C28.6623 126.067 34.8069 105.876 34.8069 105.876C34.8069 105.876 37.8175 122.344 37.0292 124.329C36.1175 126.617 34.4365 129.229 34.4365 129.229C27.4656 139.847 28.3774 145.156 28.3774 145.156L70.4875 143.874C70.592 137.986 67.1065 124.291 66.3753 122.106C65.644 119.922 68.0657 112.761 68.0657 112.761C68.0657 112.761 72.8238 107.927 72.6433 105.439C72.2729 100.424 71.8171 98.81 71.8171 98.81L97.4403 99.7502L96.633 82.361L59.8033 78.6761C58.5306 82.304 46.9252 80.5281 46.9252 80.5281C34.3985 80.9364 33.6482 83.2442 28.4248 87.29C23.2014 91.3358 14.6066 126.057 14.6066 126.057L27.4656 130.15Z" fill="#990D38"/>
<path d="M52.367 126.048C52.367 126.114 51.5218 126.171 50.1447 126.162C48.7771 126.152 46.8777 126.067 44.7978 125.858C42.718 125.649 40.8375 125.354 39.4984 125.088C38.1499 124.823 37.3331 124.604 37.3426 124.538C37.3521 124.471 38.1973 124.566 39.5554 124.747C40.9135 124.917 42.7749 125.155 44.8453 125.364C46.9157 125.573 48.7961 125.715 50.1542 125.81C51.5218 125.905 52.367 125.981 52.367 126.048Z" fill="#263238"/>
<path d="M55.2541 122.467C55.2731 122.524 54.3994 122.857 52.9558 123.256C51.5123 123.645 49.4799 124.082 47.2006 124.357C44.9213 124.623 42.8414 124.68 41.3504 124.642C39.8498 124.604 38.9286 124.481 38.9286 124.414C38.9286 124.338 39.8593 124.338 41.3504 124.291C42.8414 124.243 44.8928 124.139 47.1436 123.863C49.3944 123.597 51.4173 123.218 52.8799 122.914C54.3329 122.61 55.2351 122.391 55.2541 122.467Z" fill="#263238"/>
<path d="M69.4143 106.493C69.4808 106.503 69.3763 107.329 69.1294 108.639C68.8825 109.95 68.5026 111.755 68.0182 113.739C67.5339 115.715 67.04 117.5 66.6506 118.773C66.2613 120.055 65.9763 120.834 65.9099 120.815C65.8434 120.796 66.0048 119.988 66.3087 118.687C66.6696 117.206 67.078 115.506 67.5339 113.625C67.9992 111.745 68.4171 110.055 68.7875 108.573C69.1199 107.272 69.3478 106.474 69.4143 106.493Z" fill="#263238"/>
<path d="M27.9025 127.738C27.8645 127.871 24.9584 127.197 21.416 126.228C17.8641 125.259 15.0244 124.367 15.0624 124.234C15.1004 124.101 18.0065 124.785 21.5489 125.744C25.1009 126.712 27.9405 127.605 27.9025 127.738Z" fill="#263238"/>
<path d="M72.2729 98.582C72.2729 98.601 71.8835 98.6485 71.1808 98.5725C70.4875 98.4966 69.4618 98.3351 68.2841 97.8793C67.1065 97.4329 65.7579 96.7016 64.5043 95.581C63.2507 94.4698 62.13 92.9313 61.4177 91.1268C60.696 89.3224 60.449 87.4419 60.563 85.7705C60.677 84.099 61.1138 82.5889 61.8641 81.5347C62.6049 80.4616 63.5831 79.9487 64.2669 79.7683C64.6088 79.6733 64.8937 79.6543 65.0741 79.6638C65.2641 79.6733 65.359 79.6923 65.359 79.7018C65.359 79.7493 64.9696 79.7303 64.3238 79.9487C63.697 80.1767 62.8043 80.7085 62.149 81.7342C60.8574 83.7666 60.4965 87.4799 61.8736 90.9464C62.5669 92.6843 63.6211 94.1564 64.8082 95.2391C65.9953 96.3312 67.2774 97.0815 68.4076 97.5564C70.7059 98.5061 72.2919 98.4776 72.2729 98.582Z" fill="#263238"/>
<path d="M94.4107 99.3988C94.2777 99.3988 94.1732 95.4765 94.1827 90.652C94.1922 85.8179 94.3062 81.8956 94.4486 81.8956C94.5816 81.8956 94.6861 85.8179 94.6766 90.652C94.6671 95.486 94.5531 99.4083 94.4107 99.3988Z" fill="#263238"/>
<path d="M59.5753 79.7398C59.6798 77.6219 59.8982 75.2287 59.8982 75.2287C59.8982 75.2287 65.1406 74.6494 65.454 69.236C65.7674 63.8227 65.454 51.334 65.454 51.334L55.9094 46.4715L45.4056 54.7529L47.0012 81.8197L56.6597 82.437C58.1887 82.5414 59.4898 81.3258 59.5753 79.7398Z" fill="#FFBE9D"/>
<path d="M60.5155 64.9528C60.5345 64.9528 60.5345 65.0573 60.43 65.1902C60.3351 65.3137 60.1261 65.4657 59.8317 65.4562C59.2239 65.4277 58.6351 64.7534 58.4261 63.9366C58.3217 63.5188 58.3217 63.1009 58.3977 62.7305C58.4641 62.3696 58.6731 62.0087 58.9675 61.9137C59.1099 61.8568 59.2619 61.8663 59.3664 61.9232C59.4803 61.9802 59.5468 62.0657 59.5848 62.1417C59.6513 62.3031 59.6038 62.3981 59.5848 62.3886C59.5658 62.3886 59.5658 62.3031 59.4898 62.1987C59.4138 62.0942 59.2334 61.9992 59.0435 62.1037C58.844 62.1987 58.7016 62.4551 58.6541 62.778C58.5971 63.1009 58.5971 63.4808 58.7016 63.8512C58.8915 64.5824 59.4043 65.1902 59.8507 65.2472C60.0786 65.2757 60.2591 65.1902 60.3636 65.1048C60.4585 65.0193 60.4965 64.9433 60.5155 64.9528Z" fill="#EB996E"/>
<path d="M68.7115 48.4089C67.9802 45.9206 65.3306 44.6765 62.9183 43.9927C59.2429 42.948 55.2636 42.4922 51.6832 43.8123C48.0933 45.1324 43.7816 47.4592 43.7816 51.4195C41.6638 51.2485 40.4577 53.1004 39.6124 55.3987C39.1186 56.7568 38.7862 58.2669 38.7102 59.7674L38.6722 59.7579C38.3968 64.9433 36.9532 72.0946 33.5913 75.9315C31.7298 78.0493 29.0611 79.5119 27.9785 82.1521C27.0383 84.4504 27.5226 87.157 26.6299 89.4743C25.8416 91.5162 24.1037 92.9693 22.8595 94.7452C20.1434 98.62 19.9629 104.09 21.9573 108.412C23.9517 112.733 27.9025 115.895 32.2901 117.348C36.6778 118.801 41.4643 118.64 45.928 117.472C49.2235 116.617 52.4335 115.192 55.0642 112.942C57.6949 110.7 59.7083 107.576 60.3066 104.09C60.9714 100.216 59.8887 96.2742 59.091 92.4184C56.5647 80.2241 57.2865 79.5973 60.4775 68.2863C60.5535 68.0869 60.5915 67.8779 60.6485 67.6785C60.6865 67.5265 60.734 67.3841 60.7719 67.2321H60.7624C60.8479 66.7858 60.9144 66.3394 60.9144 65.8835C59.9932 66.2444 58.8725 66.007 58.1697 65.2852C57.4575 64.5729 57.201 63.4143 57.5239 62.4456C57.8943 61.3249 58.92 60.5842 59.9742 60.1378C61.0284 59.6914 62.1585 59.473 63.1937 58.9791C65.3875 57.9345 66.9071 55.7691 67.9423 53.4993C68.664 51.9133 69.2054 50.0899 68.7115 48.4089Z" fill="#263238"/>
<path d="M60.8859 65.1807C60.9144 65.1712 61.1043 65.5226 61.3892 66.121C61.6742 66.7193 62.054 67.5645 62.4719 68.5427L62.5479 68.7232L62.3484 68.7422C62.035 68.7706 61.7121 68.7991 61.3797 68.8276C60.7149 68.8751 60.1641 68.9511 59.5183 68.9416C59.4138 68.9226 59.2999 68.8276 59.2714 68.7232C59.2334 68.6187 59.2429 68.5332 59.2524 68.4572C59.2809 68.3053 59.3094 68.2008 59.3379 68.0679L59.5088 67.3936C59.7177 66.5768 59.8697 66.0735 59.9077 66.083C59.9457 66.0925 59.8697 66.6148 59.7083 67.4411L59.5753 68.1248C59.5278 68.3528 59.4423 68.6947 59.5658 68.6757C60.0406 68.6567 60.7149 68.5807 61.3418 68.5332C61.6741 68.5047 61.9876 68.4857 62.3105 68.4572L62.206 68.6472C61.7976 67.669 61.4557 66.8047 61.2183 66.1874C60.9809 65.5701 60.8574 65.1902 60.8859 65.1807Z" fill="#990D38"/>
<path d="M28.3773 145.146L70.4875 143.864L88.7979 215.415L85.4264 297.489H63.1462L65.9099 217.163L49.6223 167.351L52.1296 300.661L29.631 300.994L27.2567 175.679C27.1617 172.194 26.0126 164.34 26.4399 160.883L28.3773 145.146Z" fill="#263238"/>
<path d="M55.2257 168.357C55.2162 168.424 54.4279 168.386 53.1648 168.234C51.9017 168.082 50.1542 167.816 48.2453 167.436C46.3364 167.047 44.6269 166.619 43.4018 166.268C42.1766 165.916 41.4359 165.651 41.4454 165.584C41.4834 165.451 44.5414 166.192 48.3403 166.952C52.1391 167.721 55.2447 168.224 55.2257 168.357Z" fill="#455A64"/>
<path d="M85.227 292.978C85.227 293.111 80.184 293.225 73.9539 293.225C67.7238 293.225 62.6808 293.111 62.6808 292.978C62.6808 292.845 67.7238 292.731 73.9539 292.731C80.184 292.741 85.227 292.845 85.227 292.978Z" fill="#455A64"/>
<path d="M51.9206 297.204C51.9206 297.337 47.0296 297.451 40.9895 297.451C34.9493 297.451 30.0583 297.337 30.0583 297.204C30.0583 297.071 34.9493 296.957 40.9895 296.957C47.0296 296.957 51.9206 297.062 51.9206 297.204Z" fill="#455A64"/>
<path d="M49.024 296.862C48.8911 296.862 48.2927 267.735 47.7039 231.807C47.1056 195.87 46.7447 166.733 46.8777 166.733C47.0106 166.733 47.6089 195.861 48.1978 231.798C48.7961 267.725 49.1665 296.862 49.024 296.862Z" fill="#455A64"/>
<path d="M82.2354 292.978C82.2259 292.978 82.2259 292.845 82.2259 292.589C82.2354 292.313 82.2354 291.933 82.2449 291.449C82.2734 290.423 82.3208 288.951 82.3683 287.08C82.5013 283.253 82.6912 277.773 82.9287 271.002C83.451 257.402 84.1633 238.664 84.961 217.961C84.9705 217.771 84.98 217.581 84.98 217.4L84.9895 217.467C79.9941 197.485 75.4829 179.421 72.2159 166.325C70.6109 159.8 69.3098 154.52 68.4076 150.835C67.9707 149.021 67.6383 147.606 67.4009 146.618C67.2964 146.153 67.211 145.792 67.154 145.517C67.097 145.27 67.078 145.137 67.0875 145.137C67.097 145.137 67.135 145.26 67.2015 145.507C67.2774 145.773 67.3724 146.134 67.4959 146.59C67.7523 147.578 68.1227 148.983 68.5975 150.788C69.5378 154.463 70.8958 159.734 72.5578 166.239C75.8628 179.326 80.4214 197.38 85.4739 217.353L85.4834 217.391V217.429C85.4739 217.6 85.4644 217.799 85.4644 217.989C84.6191 238.683 83.8499 257.431 83.2896 271.021C82.9856 277.792 82.7482 283.272 82.5773 287.09C82.4823 288.97 82.4063 290.433 82.3588 291.459C82.3304 291.943 82.3019 292.313 82.2924 292.598C82.2544 292.855 82.2449 292.988 82.2354 292.978Z" fill="#455A64"/>
<path d="M74.9701 215.738C74.9891 215.871 72.7858 216.365 70.0506 216.83C67.9992 217.182 66.2328 217.429 65.4635 217.467V217.277C65.7199 217.343 65.8624 217.4 65.8529 217.438C65.8434 217.476 65.701 217.486 65.435 217.476L64.8557 217.448L65.435 217.277C66.1758 217.058 67.9233 216.697 69.9746 216.346C72.7098 215.871 74.9511 215.596 74.9701 215.738Z" fill="#455A64"/>
<path d="M74.5427 218.464C74.5237 218.597 72.5483 218.445 70.1076 218.264C67.6668 218.075 65.6914 217.913 65.7009 217.78C65.7009 217.647 67.6953 217.581 70.1551 217.771C72.6053 217.961 74.5617 218.331 74.5427 218.464Z" fill="#455A64"/>
<path opacity="0.2" d="M28.1969 146.656C29.2131 148.09 30.6661 148.594 32.3566 148.869C34.0471 149.145 35.7661 148.964 37.4661 148.774C48.3402 147.568 59.8507 146.457 70.497 143.864C56.7167 144.633 42.1671 144.377 28.3868 145.146C28.3868 145.146 28.2729 146.096 28.2444 146.324" fill="black"/>
<g opacity="0.2">
<path d="M42.3951 166.078L50.1637 196.212L49.6129 167.351L42.3951 166.078Z" fill="black"/>
</g>
</svg>
