<svg id="Layer_1" data-name="Layer 1" xmlns="http://www.w3.org/2000/svg" viewBox="0 0 96 96"><circle cx="48" cy="48" r="48" style="fill:#f6f6e0"/><path d="M38,40.5A2.51,2.51,0,1,1,35.49,38,2.51,2.51,0,0,1,38,40.5ZM78,66.76V48.89a31.57,31.57,0,0,0-9.55-22.6A29,29,0,0,0,47.07,18,30.45,30.45,0,0,0,18,47.65a28.59,28.59,0,0,0,8.29,20.62C32.47,74.55,41.19,78,50.83,78H66.75A11.27,11.27,0,0,0,78,66.76ZM66.72,28.09a29.09,29.09,0,0,1,8.79,20.8V66.76a8.77,8.77,0,0,1-8.75,8.75H50.83c-9,0-17-3.19-22.76-9a26.11,26.11,0,0,1-7.58-18.83A27.91,27.91,0,0,1,47.16,20.51l.93,0a26.65,26.65,0,0,1,18.63,7.6ZM31.38,60.14,44.62,46.9a1.24,1.24,0,0,1,1.76,0l6.47,6.47a3.77,3.77,0,0,0,5.31,0L68.89,42.63a1.25,1.25,0,0,0,0-1.77,1.27,1.27,0,0,0-1.77,0L56.39,51.6a1.25,1.25,0,0,1-1.77,0l-6.47-6.47a3.75,3.75,0,0,0-5.3,0L29.61,58.37a1.25,1.25,0,0,0,1.77,1.77Z" style="fill:#998e18"/></svg>