<?xml version="1.0" standalone="no"?>
<!DOCTYPE svg PUBLIC "-//W3C//DTD SVG 20010904//EN"
 "http://www.w3.org/TR/2001/REC-SVG-20010904/DTD/svg10.dtd">
<svg version="1.0" xmlns="http://www.w3.org/2000/svg"
 width="224.000000pt" height="255.000000pt" viewBox="0 0 224.000000 255.000000"
 preserveAspectRatio="xMidYMid meet">

<g transform="translate(0.000000,255.000000) scale(0.100000,-0.100000)"
fill="#000000" stroke="none">
<path d="M1365 2380 l-160 -160 288 -288 287 -287 162 163 163 162 -285 285
c-157 157 -287 285 -290 285 -3 0 -77 -72 -165 -160z m444 -134 c216 -216 248
-252 247 -277 -1 -23 -28 -56 -125 -153 -104 -105 -128 -123 -152 -122 -24 1
-74 46 -277 249 -219 219 -247 250 -246 278 1 25 22 51 124 154 103 104 127
122 151 121 24 -1 74 -46 278 -250z"/>
<path d="M1582 2249 c-85 -42 -121 -138 -84 -221 48 -110 181 -142 269 -65 63
56 80 134 44 205 -23 46 -46 67 -94 87 -50 20 -84 19 -135 -6z m166 -73 c10
-6 10 -11 2 -21 -8 -9 -8 -15 0 -20 14 -9 13 -45 -2 -45 -6 0 -24 15 -39 33
-20 23 -30 29 -39 21 -8 -8 -6 -22 10 -52 34 -65 4 -114 -56 -92 -19 7 -30 7
-40 -1 -15 -12 -16 -10 -20 31 -1 14 -5 35 -9 46 -10 31 23 41 34 11 11 -28
49 -63 58 -53 4 4 1 21 -6 39 -24 57 -25 89 -6 103 18 14 91 14 113 0z"/>
<path d="M664 2479 c-111 -14 -216 -90 -270 -196 -26 -52 -29 -68 -29 -153 0
-107 17 -157 77 -230 60 -73 174 -130 263 -130 23 0 45 -15 102 -72 l73 -72 0
90 0 90 50 38 c98 74 145 180 138 305 -6 94 -31 154 -94 221 -79 85 -191 124
-310 109z m286 -194 l34 -36 -157 -157 -157 -157 -110 110 -110 109 32 33 c18
18 37 33 42 33 6 0 41 -30 78 -67 l68 -68 118 118 c64 64 119 117 122 117 4 0
21 -16 40 -35z"/>
<path d="M1245 1890 c-3 -11 -16 -26 -28 -33 -22 -12 -22 -12 11 -44 30 -30
33 -30 42 -12 6 10 23 25 38 33 15 9 21 15 14 16 -8 0 -27 14 -42 30 -27 29
-29 29 -35 10z"/>
<path d="M177 1378 c-92 -187 -166 -342 -165 -343 2 -2 89 -46 194 -98 l190
-95 173 345 c94 190 171 346 169 347 -2 0 -87 43 -191 94 -103 50 -191 92
-195 92 -4 0 -83 -154 -175 -342z m362 237 c132 -66 150 -78 156 -103 5 -25
-19 -79 -142 -326 -129 -258 -151 -296 -174 -301 -35 -8 -308 126 -326 160
-11 21 2 52 137 328 124 254 153 306 172 310 13 2 24 5 26 6 1 0 69 -33 151
-74z"/>
<path d="M300 1428 c-137 -70 -108 -280 42 -304 57 -10 104 4 142 39 66 63 72
157 13 224 -57 65 -122 79 -197 41z m40 -93 c-21 -22 -26 -50 -12 -59 5 -3 23
11 41 29 18 19 40 35 49 35 26 0 52 -31 52 -62 0 -15 4 -28 10 -28 5 0 7 -7 4
-15 -4 -8 -14 -15 -24 -15 -10 0 -23 -7 -30 -15 -7 -8 -18 -15 -26 -15 -25 0
-24 19 1 44 25 25 32 50 17 60 -5 3 -24 -10 -42 -29 -19 -19 -41 -35 -49 -35
-22 0 -51 31 -51 55 0 11 -5 26 -11 32 -14 14 -2 36 16 29 7 -2 21 4 31 15 13
15 20 16 31 7 11 -9 10 -15 -7 -33z"/>
<path d="M667 1282 c-15 -17 -17 -59 -17 -404 0 -360 1 -386 18 -401 17 -15
64 -17 475 -17 l457 0 0 365 0 365 -446 0 -445 0 3 36 3 36 231 -1 c225 -2
232 -1 237 19 5 20 2 20 -247 20 -232 0 -254 -1 -269 -18z"/>
<path d="M1911 659 c-1 -17 -36 -53 -61 -62 -12 -4 -12 -6 2 -6 9 -1 27 -14
40 -29 l23 -28 31 33 31 33 -24 15 c-13 9 -28 26 -33 38 -6 14 -9 17 -9 6z"/>
<path d="M333 413 c9 -2 23 -2 30 0 6 3 -1 5 -18 5 -16 0 -22 -2 -12 -5z"/>
<path d="M1641 249 c-9 -16 -10 -24 0 -35 11 -13 14 -13 27 0 12 12 13 17 0
34 l-14 21 -13 -20z"/>
<path d="M282 234 c-11 -12 -10 -17 3 -30 15 -15 17 -15 30 2 7 11 13 19 12
19 -1 1 -9 6 -17 12 -11 8 -18 8 -28 -3z"/>
<path d="M585 145 l-30 -32 30 -29 30 -29 31 32 c29 29 30 33 13 38 -11 4 -25
17 -32 29 l-12 23 -30 -32z"/>
</g>
</svg>
