<?xml version="1.0" encoding="utf-8"?>
<!-- Generator: Adobe Illustrator 24.2.3, SVG Export Plug-In . SVG Version: 6.00 Build 0)  -->
<svg version="1.1" id="Layer_1" xmlns="http://www.w3.org/2000/svg" xmlns:xlink="http://www.w3.org/1999/xlink" x="0px" y="0px"
	 viewBox="0 0 1366 768" style="enable-background:new 0 0 1366 768;" xml:space="preserve">
<style type="text/css">
	.st0{fill:#FFFFFF;}
</style>
<g>
	<path d="M448.35,489.3c-1.53-1.9-3.7-3.58-4.45-5.74c-1.3-3.75,1.96-7.61,6.26-7.85c3.7-0.21,7.42-0.04,11.77-0.04
		c0-1.96,0-3.62,0-5.28c0-83.56,0-167.13,0-250.69c0-8.68,1.92-10.61,10.5-10.61c16.37,0,32.73,0,49.1,0c1.43,0,2.86,0,4.74,0
		c0-1.82,0-3.25,0-4.68c0-16.63-0.02-33.27,0.01-49.9c0.01-7.61,2.08-9.64,9.77-9.67c5.7-0.02,11.41,0,17.72,0c0-3.15,0-6.01,0-8.87
		c0-6.12-0.01-12.24,0-18.36c0.02-7.28,2.2-9.45,9.58-9.48c7.45-0.03,14.9-0.01,22.35-0.01c1.44,0,2.88,0,4.79,0
		c0-5.66-0.01-10.94,0-16.21c0-1.6-0.1-3.21,0.1-4.78c0.47-3.83,3.4-6.55,6.85-6.53c3.73,0.01,6.58,2.77,6.73,6.97
		c0.19,5.18,0.08,10.38,0.09,15.57c0,1.45,0,2.89,0,4.76c1.71,0.09,3.12,0.22,4.53,0.23c7.98,0.02,15.97-0.07,23.95,0.04
		c5.87,0.08,8.16,2.44,8.22,8.32c0.08,7.85,0.02,15.7,0.02,23.55c0,1.43,0,2.85,0,4.55c4.76,0,9.07,0,13.92,0c0-4.26,0-8.33,0-12.41
		c0.01-5.59-0.09-11.18,0.06-16.76c0.12-4.53,2.39-6.78,6.86-7.2c1.32-0.12,2.66-0.08,3.99-0.09c40.19,0,80.37,0,120.56,0
		c9.2,0,10.86,1.69,10.86,11c0,116.96,0,233.93,0,350.89c0,1.71,0,3.41,0,5.61c3.21,0,6.1,0.08,8.98-0.02c4-0.15,7.54,0.51,8.96,4.9
		c1.39,4.28-1.34,6.66-4.36,8.83C690.02,489.3,569.19,489.3,448.35,489.3z M783.26,475.37c0-118.06,0-235.61,0-353.22
		c-38.27,0-76.25,0-114.34,0c0,56.59,0,112.92,0,169.42c7.6,0,14.97,0,22.28,0c1.4-6.39,3.37-8.79,7.13-8.92
		c3.81-0.13,5.8,2.18,7.73,9.02c4.2,0,8.43,0,12.75,0c0.21-1.18,0.34-2.23,0.59-3.25c0.88-3.63,3.81-6,7.08-5.76
		c3.46,0.26,5.92,2.76,6.31,6.57c0.16,1.58,0.13,3.19,0.13,4.78c0.01,58.81,0,117.61,0.02,176.42c0,1.66,0.17,3.31,0.26,4.93
		C750.14,475.37,766.59,475.37,783.26,475.37z M507.93,475.36c0-1.63,0-3.06,0-4.49c0.01-8.11-0.08-16.23,0.05-24.34
		c0.08-4.88,2.39-7.54,6.86-7.59c12.24-0.15,24.48-0.14,36.71,0.01c4.34,0.05,6.73,2.89,6.88,7.67c0.14,4.39,0.03,8.78,0.04,13.17
		c0,5.14,0,10.28,0,15.53c10.92,0,21.34,0,31.72,0c0-84.26,0-168.24,0-252.15c-38.3,0-76.26,0-114.29,0c0,84.21,0,168.09,0,252.2
		C486.46,475.36,496.79,475.36,507.93,475.36z M604.55,305.73c0,56.76,0,113.09,0,169.64c38.22,0,76.18,0,114.28,0
		c0-56.66,0-113.08,0-169.64C680.66,305.73,642.78,305.73,604.55,305.73z M604.86,218.37c6.55,0,12.92-0.09,19.29,0.03
		c4.73,0.09,7.76,2.91,7.71,6.85c-0.04,3.92-3.11,6.66-7.83,6.86c-2.66,0.11-5.32,0.02-7.98,0.02c-3.8,0-7.61,0-11.76,0
		c0,6.78,0.16,13.02-0.07,19.24c-0.11,3.08,0.98,3.87,3.89,3.77c5.58-0.19,11.18-0.16,16.76,0.04c4.19,0.15,6.97,3.04,6.97,6.74
		c0.01,3.45-2.7,6.35-6.56,6.84c-1.57,0.2-3.19,0.1-4.78,0.11c-5.28,0.01-10.55,0-16.22,0c0,6.58,0.17,12.68-0.07,18.76
		c-0.13,3.27,0.82,4.33,4.2,4.29c13.97-0.18,27.94-0.2,41.91,0.01c3.65,0.05,4.68-0.93,4.67-4.63
		c-0.13-41.38-0.08-82.75-0.08-124.13c0-1.41,0-2.82,0-4.24c-38.57,0-76.55,0-114.54,0c0,16.82,0,33.36,0,50.16
		c1.73,0,3.17,0,4.61,0c16.1,0,32.2,0,48.29,0C601.82,209.09,602.9,209.91,604.86,218.37z M567.73,144.52c19.89,0,39.58,0,59.22,0
		c0-7.67,0-15.04,0-22.32c-19.89,0-39.48,0-59.22,0C567.73,129.74,567.73,136.99,567.73,144.52z M525.75,475.42
		c0.25-0.64,0.42-0.88,0.43-1.13c0.05-2.92,0.05-5.84,0.13-8.76c0.15-5.38,2.71-8.36,7.05-8.25c4.11,0.1,6.6,3.12,6.71,8.26
		c0.07,3.27,0.01,6.55,0.01,10.13c1.82-0.16,3.05-0.27,4.28-0.38c0-7.76,0-15.13,0-22.46c-7.66,0-15.03,0-22.41,0
		c0,7.66,0,15.04,0,22.58C523.34,475.42,524.49,475.42,525.75,475.42z"/>
	<path class="st0" d="M525.75,475.42c-1.26,0-2.41,0-3.79,0c0-7.54,0-14.92,0-22.58c7.37,0,14.74,0,22.41,0c0,7.33,0,14.7,0,22.46
		c-1.23,0.11-2.47,0.22-4.28,0.38c0-3.58,0.06-6.86-0.01-10.13c-0.11-5.13-2.61-8.15-6.71-8.26c-4.34-0.11-6.9,2.86-7.05,8.25
		c-0.08,2.92-0.07,5.84-0.13,8.76C526.17,474.54,526,474.78,525.75,475.42z"/>
	<path d="M760.66,294.25c-0.15,1.98-0.07,4.01-0.49,5.93c-0.73,3.36-3.83,5.69-6.99,5.27c-3.52-0.47-5.97-2.41-6.23-6.14
		c-0.23-3.31-0.23-6.65-0.05-9.96c0.21-3.9,3.02-6.61,6.58-6.71c3.48-0.09,6.48,2.59,6.94,6.41c0.21,1.7,0.03,3.45,0.03,5.18
		C760.52,294.24,760.59,294.25,760.66,294.25z"/>
	<path d="M733,202.7c-0.1,1.61-0.08,3.49-0.37,5.32c-0.55,3.54-2.99,5.39-6.31,5.56c-3.17,0.16-6.1-1.41-6.53-4.68
		c-0.56-4.28-0.58-8.73-0.1-13.02c0.39-3.47,3.31-5.2,6.68-5c3.53,0.21,5.92,2.26,6.33,6C732.91,198.72,732.9,200.59,733,202.7z"/>
	<path d="M760.64,386.23c-0.13,1.82-0.04,3.85-0.45,5.77c-0.71,3.36-3.8,5.72-6.96,5.33c-3.54-0.43-6-2.38-6.26-6.1
		c-0.25-3.44-0.24-6.92-0.03-10.36c0.23-3.63,3.08-6.38,6.49-6.31c3.59,0.07,6.08,1.94,6.82,5.54
		C760.64,382.03,760.52,384.06,760.64,386.23z"/>
	<path d="M746.91,201.73c0-1.59-0.14-3.2,0.03-4.78c0.39-3.72,2.76-5.66,6.28-6.11c3.13-0.4,6.52,1.96,6.91,5.33
		c0.46,3.92,0.5,7.98,0.05,11.9c-0.41,3.62-3.18,5.47-6.76,5.55c-3.41,0.08-6.16-2.67-6.51-6.31c-0.17-1.84-0.03-3.72-0.03-5.58
		C746.9,201.73,746.91,201.73,746.91,201.73z"/>
	<path d="M691.6,202.19c0.08-1.86,0.02-3.73,0.28-5.57c0.48-3.53,2.83-5.48,6.17-5.73c3.38-0.26,6.32,1.42,6.79,4.86
		c0.57,4.15,0.55,8.48,0.1,12.65c-0.36,3.38-3.83,5.67-6.96,5.2c-3.51-0.52-5.85-2.49-6.17-6.22c-0.15-1.71-0.02-3.45-0.02-5.18
		C691.73,202.19,691.66,202.19,691.6,202.19z"/>
	<path d="M705.53,156.38c-0.14,1.98-0.03,4.02-0.48,5.93c-0.83,3.53-3.22,5.48-6.93,5.26c-3.67-0.22-5.97-2.33-6.26-5.99
		c-0.28-3.43-0.26-6.91-0.03-10.34c0.25-3.79,2.89-6.15,6.47-6.25c3.54-0.1,6.32,2.11,6.9,5.83c0.28,1.81,0.05,3.7,0.05,5.56
		C705.34,156.38,705.44,156.38,705.53,156.38z"/>
	<path d="M746.89,156.38c0-1.73-0.14-3.47,0.03-5.17c0.36-3.65,2.44-5.81,6.12-6.18c3.57-0.36,6.72,1.76,7.15,5.43
		c0.45,3.79,0.44,7.71,0.04,11.51c-0.38,3.65-3.51,5.83-7.03,5.64c-3.54-0.19-5.99-2.62-6.33-6.45c-0.14-1.58-0.02-3.19-0.02-4.78
		C746.87,156.38,746.88,156.38,746.89,156.38z"/>
	<path d="M760.64,248.46c-0.13,1.81,0.01,3.86-0.46,5.76c-0.86,3.51-3.27,5.45-6.98,5.21c-3.68-0.24-5.95-2.37-6.24-6.03
		c-0.27-3.43-0.26-6.91-0.02-10.35c0.25-3.65,2.43-5.81,6.11-6.17c3.56-0.35,6.49,1.81,7.19,5.44
		C760.63,244.27,760.52,246.3,760.64,248.46z"/>
	<path d="M746.9,340.08c0-1.73-0.14-3.47,0.03-5.17c0.37-3.66,2.48-5.79,6.15-6.16c3.54-0.35,6.72,1.82,7.14,5.46
		c0.43,3.79,0.43,7.71,0.03,11.5c-0.39,3.67-3.47,5.79-7.05,5.59c-3.54-0.19-5.97-2.61-6.3-6.45c-0.14-1.58-0.02-3.18-0.02-4.78
		C746.88,340.08,746.89,340.08,746.9,340.08z"/>
	<path d="M746.9,431.44c0-1.59-0.15-3.2,0.04-4.77c0.43-3.64,2.55-5.76,6.23-6.07c3.54-0.3,6.67,1.91,7.06,5.57
		c0.41,3.8,0.41,7.71-0.02,11.5c-0.42,3.66-3.56,5.81-7.12,5.48c-3.68-0.35-5.79-2.48-6.16-6.13
		C746.75,435.17,746.9,433.3,746.9,431.44z"/>
	<path d="M705.51,248.01c-0.12,1.98-0.02,4.01-0.39,5.94c-0.71,3.67-3.57,5.82-7.15,5.48c-3.68-0.35-5.87-2.49-6.13-6.14
		c-0.24-3.3-0.24-6.64-0.05-9.95c0.23-3.87,2.72-6.27,6.26-6.48c3.7-0.22,6.61,2.09,7.18,5.97c0.25,1.69,0.04,3.44,0.04,5.17
		C705.36,248,705.43,248,705.51,248.01z"/>
	<path d="M732.99,156.81c-0.1,1.59-0.06,3.47-0.37,5.29c-0.56,3.27-2.65,5.16-5.94,5.45c-3.49,0.31-6.39-1.26-6.89-4.63
		c-0.62-4.26-0.64-8.73-0.08-13c0.47-3.6,3.43-5.23,7.08-4.86c3.5,0.35,5.5,2.44,5.91,5.92
		C732.92,152.82,732.9,154.69,732.99,156.81z"/>
	<path d="M733,248.55c-0.1,1.72-0.08,3.46-0.33,5.16c-0.52,3.47-2.63,5.47-6.12,5.71c-3.68,0.25-6.46-1.54-6.92-5.14
		c-0.52-4.02-0.52-8.21-0.01-12.24c0.46-3.6,3.23-5.41,6.91-5.15c3.69,0.26,5.81,2.43,6.18,6.08c0.19,1.84,0.03,3.71,0.03,5.57
		C732.83,248.55,732.92,248.55,733,248.55z"/>
	<path d="M512.29,312.56c0,1.73,0.14,3.47-0.03,5.18c-0.38,3.73-2.77,5.81-6.29,6.06c-3.38,0.25-6.3-1.5-6.76-4.92
		c-0.56-4.16-0.54-8.48-0.07-12.66c0.38-3.35,3.92-5.62,7.03-5.13c3.51,0.56,5.81,2.56,6.12,6.29c0.14,1.72,0.02,3.45,0.02,5.18
		C512.3,312.56,512.3,312.56,512.29,312.56z"/>
	<path d="M567.37,312.38c0,1.86,0.17,3.74-0.04,5.57c-0.4,3.54-2.74,5.52-6.07,5.83c-3.38,0.31-6.39-1.31-6.86-4.74
		c-0.58-4.28-0.57-8.74-0.05-13.03c0.42-3.45,3.4-5.15,6.76-4.9c3.51,0.26,5.9,2.34,6.26,6.08c0.16,1.71,0.03,3.45,0.03,5.18
		C567.39,312.38,567.38,312.38,567.37,312.38z"/>
	<path d="M512.28,404.13c0,1.86,0.17,3.74-0.04,5.58c-0.38,3.42-3.08,6.01-6.36,6.01c-3.42,0-6.27-1.65-6.7-5.06
		c-0.53-4.16-0.52-8.49,0-12.66c0.43-3.44,3.32-5.04,6.71-5.05c3.28-0.01,5.98,2.6,6.37,6.01
		C512.44,400.66,512.28,402.41,512.28,404.13z"/>
	<path d="M526.19,312.21c0.11-1.82,0.09-3.7,0.37-5.53c0.54-3.54,2.97-5.4,6.3-5.58c3.18-0.18,6.13,1.4,6.54,4.66
		c0.54,4.41,0.55,8.99,0,13.4c-0.41,3.25-3.36,4.83-6.55,4.64c-3.33-0.19-5.76-2.05-6.28-5.59
		C526.28,316.25,526.31,314.25,526.19,312.21z"/>
	<path d="M526.21,404.53c0.08-1.94,0.09-3.67,0.25-5.38c0.36-3.74,2.69-5.69,6.2-6.19c3.15-0.45,6.52,1.83,6.92,5.25
		c0.47,4.04,0.45,8.21,0,12.26c-0.39,3.48-3.15,5.14-6.54,5.26c-3.24,0.11-6.01-2.43-6.5-5.83
		C526.27,408.06,526.3,406.18,526.21,404.53z"/>
	<path d="M567.37,404.21c0,1.86,0.18,3.74-0.04,5.57c-0.4,3.4-3.17,5.98-6.42,5.93c-3.41-0.05-6.23-1.7-6.63-5.15
		c-0.48-4.17-0.48-8.49,0.05-12.65c0.44-3.47,3.38-5.16,6.74-4.93c3.51,0.24,5.92,2.3,6.3,6.04c0.17,1.71,0.03,3.45,0.03,5.18
		C567.39,404.21,567.38,404.21,567.37,404.21z"/>
	<path d="M512.29,266.62c0,1.73,0.17,3.47-0.03,5.17c-0.44,3.65-2.6,5.77-6.28,6c-3.71,0.23-6.41-1.69-6.9-5.23
		c-0.54-3.9-0.5-7.96-0.06-11.89c0.4-3.65,3.59-5.78,7.15-5.42c3.69,0.37,5.75,2.54,6.11,6.19c0.17,1.71,0.03,3.45,0.03,5.17
		C512.3,266.62,512.29,266.62,512.29,266.62z"/>
	<path d="M512.29,358.85c0,1.59,0.15,3.2-0.03,4.77c-0.43,3.65-2.57,5.79-6.25,6.04c-3.7,0.24-6.43-1.64-6.92-5.19
		c-0.55-3.9-0.51-7.96-0.09-11.89c0.39-3.65,3.59-5.82,7.13-5.47c3.68,0.36,5.78,2.51,6.14,6.16c0.19,1.84,0.03,3.71,0.03,5.57
		C512.3,358.85,512.3,358.85,512.29,358.85z"/>
	<path d="M567.41,358.37c0,1.73,0.15,3.47-0.03,5.17c-0.38,3.66-2.49,5.83-6.18,6.1c-3.68,0.27-6.48-1.53-6.95-5.11
		c-0.54-4.03-0.54-8.23-0.01-12.26c0.47-3.56,3.24-5.42,6.93-5.16c3.68,0.27,5.81,2.42,6.2,6.08
		C567.56,354.91,567.41,356.65,567.41,358.37z"/>
	<path d="M567.4,266.6c0,1.72,0.16,3.47-0.03,5.17c-0.42,3.66-2.57,5.79-6.25,6.03c-3.7,0.24-6.44-1.65-6.89-5.21
		c-0.51-4.03-0.5-8.24,0.05-12.26c0.49-3.58,3.31-5.35,6.99-5.06c3.49,0.27,5.61,2.3,6.06,5.77c0.24,1.83,0.04,3.71,0.04,5.57
		C567.38,266.6,567.39,266.6,567.4,266.6z"/>
	<path d="M526.2,358.16c0.1-1.74,0.06-3.62,0.35-5.44c0.55-3.47,2.73-5.41,6.21-5.61c3.49-0.2,6.27,1.48,6.72,4.89
		c0.55,4.15,0.58,8.47,0.05,12.62c-0.46,3.6-3.32,5.32-6.99,5.02c-3.49-0.29-5.57-2.32-6.03-5.8
		C526.27,362.01,526.3,360.14,526.2,358.16z"/>
	<path d="M540.24,267.14c-0.18,1.67-0.16,3.84-0.7,5.85c-0.9,3.37-3.36,5.04-6.85,4.8c-3.49-0.23-5.8-2.19-6.11-5.68
		c-0.32-3.55-0.3-7.16-0.08-10.73c0.23-3.66,2.44-5.8,6.12-6.14c3.6-0.33,6.37,1.75,7.12,5.5
		C540.13,262.68,540.07,264.7,540.24,267.14z"/>
	<path d="M696.15,390.29c0,20.34,0.01,40.67-0.01,61.01c0,1.59,0.02,3.21-0.25,4.77c-0.56,3.28-2.64,5.14-5.94,5.45
		c-3.29,0.31-5.75-1.13-6.86-4.24c-0.56-1.58-0.69-3.38-0.69-5.08c-0.04-41.07-0.03-82.14-0.01-123.21c0-1.58,0.11-3.21,0.54-4.71
		c0.98-3.39,3.54-5.06,6.92-4.76c3.33,0.29,5.65,2.25,6.09,5.8c0.2,1.58,0.2,3.18,0.2,4.77
		C696.15,350.15,696.15,370.22,696.15,390.29z"/>
	<path d="M641.02,390.29c0,20.34,0,40.67-0.01,61.01c0,1.59,0.04,3.21-0.23,4.77c-0.57,3.27-2.63,5.15-5.94,5.45
		c-3.29,0.3-5.75-1.12-6.86-4.23c-0.56-1.58-0.68-3.38-0.69-5.08c-0.04-41.07-0.03-82.14-0.01-123.21c0-1.58,0.1-3.21,0.53-4.71
		c0.98-3.39,3.54-5.06,6.92-4.76c3.33,0.29,5.65,2.25,6.09,5.79c0.2,1.57,0.19,3.18,0.19,4.77
		C641.02,350.15,641.02,370.22,641.02,390.29z"/>
	<path d="M654.94,390.43c0-20.2,0-40.41,0.01-60.61c0-1.46,0-2.93,0.16-4.38c0.39-3.55,2.64-5.54,5.98-5.91
		c3.39-0.37,5.94,1.27,7.02,4.61c0.44,1.36,0.55,2.87,0.55,4.31c0.03,41.34,0.03,82.67-0.01,124.01c0,1.7-0.15,3.51-0.77,5.06
		c-1.22,3.06-3.75,4.38-7.03,3.96c-3.31-0.42-5.26-2.38-5.73-5.67c-0.21-1.44-0.18-2.92-0.18-4.38
		C654.94,431.1,654.94,410.76,654.94,390.43z"/>
	<path d="M597.44,181.59c8.65,0,17.29,0.01,25.94,0c3.07-0.01,5.84,0.59,7.51,3.52c2.04,3.57,0.48,8.14-3.39,9.56
		c-1.34,0.49-2.86,0.68-4.29,0.68c-17.16,0.04-34.32,0.02-51.48,0.04c-3.74,0-6.96-0.99-8.27-4.86c-1.57-4.65,1.72-8.78,7.25-8.88
		c8.91-0.16,17.82-0.04,26.74-0.04C597.44,181.6,597.44,181.6,597.44,181.59z"/>
</g>
</svg>
