<svg id="Layer_1" data-name="Layer 1" xmlns="http://www.w3.org/2000/svg" viewBox="0 0 96 96"><circle cx="48" cy="47.87" r="48" style="fill:#def5f2"/><path d="M19.29,69.19a1.36,1.36,0,0,1-1.35-1.25A18.54,18.54,0,0,1,22.68,54.1a18.14,18.14,0,0,1,12.91-6,18.21,18.21,0,0,1,13.33,5.58,18.53,18.53,0,0,1,5.18,13.9,1.36,1.36,0,0,1-1.43,1.27,1.34,1.34,0,0,1-1.27-1.43A15.83,15.83,0,0,0,47,55.56a15,15,0,0,0-22.28.36,15.62,15.62,0,0,0-4.05,11.81,1.35,1.35,0,0,1-1.24,1.45Z" style="fill:#52090e"/><path d="M76.76,63.14a1.36,1.36,0,0,1-1.35-1.31A15.59,15.59,0,0,0,59.65,46.71a15.17,15.17,0,0,0-9.76,3.92,1.36,1.36,0,1,1-1.81-2A18,18,0,0,1,59.59,44,18.3,18.3,0,0,1,78.12,61.73a1.35,1.35,0,0,1-1.31,1.4Z" style="fill:#52090e"/><path d="M36,46.71a7.78,7.78,0,1,1,7.78-7.78A7.79,7.79,0,0,1,36,46.71Zm0-12.86a5.08,5.08,0,1,0,5.07,5.08A5.09,5.09,0,0,0,36,33.85Z" style="fill:#52090e"/><path d="M61.09,42.11a7.78,7.78,0,1,1,7.78-7.78A7.79,7.79,0,0,1,61.09,42.11Zm0-12.85a5.07,5.07,0,1,0,5.07,5.07A5.07,5.07,0,0,0,61.09,29.26Z" style="fill:#52090e"/></svg>