<?xml version="1.0" standalone="no"?>
<!DOCTYPE svg PUBLIC "-//W3C//DTD SVG 20010904//EN"
 "http://www.w3.org/TR/2001/REC-SVG-20010904/DTD/svg10.dtd">
<svg version="1.0" xmlns="http://www.w3.org/2000/svg"
 width="900.000000pt" height="891.000000pt" viewBox="0 0 900.000000 891.000000"
 preserveAspectRatio="xMidYMid meet">

<g transform="translate(0.000000,891.000000) scale(0.100000,-0.100000)"
fill="#000000" stroke="none">
<path d="M0 8270 l0 -640 449 0 c420 0 450 -1 455 -17 3 -10 21 -94 41 -188
20 -93 54 -251 75 -350 64 -290 134 -617 210 -970 39 -181 93 -431 120 -555
26 -124 74 -344 105 -490 31 -146 83 -386 115 -535 64 -299 150 -706 206 -975
46 -227 82 -338 156 -484 115 -225 296 -434 488 -562 97 -64 185 -105 307
-141 54 -17 220 -18 2716 -21 l2657 -2 0 640 0 640 -2452 2 -2453 3 -46 21
c-31 15 -50 32 -61 55 -14 30 -42 198 -64 382 l-6 57 2218 0 c1221 0 2253 3
2294 6 173 13 268 51 349 139 69 76 112 170 220 480 49 143 151 436 226 650
75 215 178 512 230 660 52 149 162 466 245 705 151 435 200 600 200 675 -1
126 -65 270 -165 370 -78 78 -152 122 -265 157 l-75 23 -3150 3 -3150 2 -64
358 c-35 196 -71 398 -80 447 l-16 90 -1018 3 -1017 2 0 -640z m1770 -162 c45
-233 85 -435 87 -450 l5 -28 3242 0 c2122 0 3265 -4 3311 -10 92 -14 169 -50
189 -89 33 -63 19 -127 -100 -456 -41 -115 -223 -640 -404 -1165 -440 -1278
-447 -1299 -468 -1334 -13 -23 -30 -34 -62 -43 -34 -8 -668 -12 -2532 -12
-2106 -1 -2488 -3 -2488 -15 0 -13 57 -376 125 -799 20 -120 44 -241 55 -269
44 -117 107 -173 211 -189 41 -6 925 -8 2422 -7 l2357 3 0 -263 0 -262 -2433
3 -2432 2 -80 22 c-105 28 -162 53 -237 104 -141 96 -239 237 -314 452 -31 91
-79 311 -315 1457 -169 821 -262 1273 -329 1600 -94 459 -164 801 -225 1095
-30 149 -68 333 -83 410 l-28 140 -432 3 -432 2 0 260 0 260 654 0 653 0 83
-422z"/>
<path d="M5470 6305 l-795 -795 -397 397 -398 398 -132 -133 -133 -132 530
-530 530 -530 930 930 930 930 -130 130 c-71 71 -132 130 -135 130 -3 0 -363
-358 -800 -795z"/>
<path d="M3095 1874 c-161 -23 -235 -44 -345 -99 -136 -68 -287 -208 -373
-347 -161 -257 -181 -602 -52 -887 111 -242 346 -437 613 -508 82 -22 119 -26
237 -27 122 0 153 3 240 27 353 97 615 379 682 732 21 112 13 322 -17 425
-112 390 -457 664 -860 684 -52 2 -108 2 -125 0z m215 -389 c91 -24 178 -73
251 -143 131 -123 198 -313 170 -482 -37 -228 -200 -410 -416 -465 -76 -19
-204 -19 -279 0 -187 49 -346 202 -398 383 -23 80 -27 214 -9 292 46 195 219
369 414 416 71 17 201 17 267 -1z"/>
<path d="M6590 1870 c-334 -42 -631 -269 -756 -578 -50 -125 -59 -177 -59
-352 0 -196 13 -255 85 -406 280 -582 1049 -714 1504 -258 371 370 366 976
-11 1335 -129 123 -260 196 -424 238 -88 22 -249 32 -339 21z m245 -385 c189
-48 338 -188 402 -374 27 -78 31 -235 9 -317 -17 -63 -77 -178 -115 -221 -86
-94 -206 -163 -318 -184 -87 -17 -225 -6 -304 23 -138 51 -252 157 -314 293
-76 163 -74 319 6 482 115 234 386 361 634 298z"/>
</g>
</svg>
