<svg id="Layer_1" data-name="Layer 1" xmlns="http://www.w3.org/2000/svg" viewBox="0 0 96 96"><circle cx="48" cy="48" r="48" style="fill:#f6e4e4"/><path d="M56.75,55.5h10V58h-10ZM78,51.75V78H18V51.75a6.25,6.25,0,0,1,6.25-6.25h6.25V24.24A6.26,6.26,0,0,1,36.75,18h22.5a6.26,6.26,0,0,1,6.26,6.25V45.5h6.25A6.25,6.25,0,0,1,78,51.75ZM33,45.5H63V24.24a3.76,3.76,0,0,0-3.76-3.75H36.75A3.76,3.76,0,0,0,33,24.24Zm-12.5,30H46.75V48H24.24a3.75,3.75,0,0,0-3.75,3.75Zm55-23.76A3.75,3.75,0,0,0,71.76,48H49.25V75.51H75.51ZM29.24,55.5V58h10V55.5ZM43,30.49H53V28H43Z" style="fill:#52090e"/></svg>