<svg id="Layer_1" data-name="Layer 1" xmlns="http://www.w3.org/2000/svg" viewBox="0 0 479.06 479.15"><path d="M197.72,574.65c-51.24-3.71-93.1-24.83-124.58-65.07-24.22-31-35.86-66.51-35-105.78,1-43.76,16.8-81.72,47.27-113.16s68.06-47.93,112.28-50.8v-5.52c0-13.8,0-27.61,0-41.42.06-15,10.13-25.22,25-25.24q98.32-.06,196.65.15a14.42,14.42,0,0,1,9.14,3.83q42.61,42.09,84.7,84.69a14.39,14.39,0,0,1,3.83,9.15q.29,178.15.14,356.31c0,14.62-10.21,24.94-24.75,25q-135,.07-270,0c-14.28,0-24.55-10.31-24.64-24.55C197.64,606.57,197.72,590.94,197.72,574.65Zm16,.43v44.27c0,9.14,2.33,11.45,11.51,11.45H489.71c9.16,0,11.5-2.32,11.5-11.46V271.45c-21.12,0-41.56,0-62,0-15.86,0-25.82-10-25.85-25.87q0-28.2,0-56.39v-5.57H225.1c-9.13,0-11.42,2.31-11.42,11.54V399.23H361.61c9.72,0,12.09,2.28,11.68,12.15-.27,6.64-.89,13.27-1.76,19.86-8.95,67.87-63.25,126-130.47,139.59C232.14,572.63,223.06,573.65,213.68,575.08ZM104.53,519.53c38.74,36.3,101.35,51.89,159.12,28,63.13-26.15,91.86-84.9,93.25-132-1.11-.11-2.23-.33-3.35-.33-47.06,0-94.12-.05-141.18.12a10.11,10.11,0,0,0-6.28,2.95q-32.26,31.94-64.28,64.11C129.46,494.71,117.09,507,104.53,519.53ZM93.25,508.17c.73-.65,1.25-1.07,1.72-1.53q50.11-50.11,100.14-100.32a10.85,10.85,0,0,0,2.5-7q.21-69.12.1-138.24v-5.22C137.79,258.4,84.3,298,63.15,355.35,42.24,412.06,58.79,471.86,93.25,508.17ZM429.32,196.35c0,16.4,0,32.93,0,49.46,0,6.8,2.89,9.63,9.75,9.66,12.45.05,24.9,0,37.35,0h12.05Z" transform="translate(-38.12 -167.63)"/><path d="M317.45,383.25H240.64c-8.48,0-11-2.49-11-11q0-76.8,0-153.61c0-8.74,2.51-11.17,11.35-11,78.87,1.08,148,59.87,161.41,137.54a250.25,250.25,0,0,1,2.8,27.22c.51,8.13-2.41,10.85-10.47,10.86Q356.11,383.27,317.45,383.25ZM388.8,367C386,291.7,322.93,227.2,246,224.08V367Z" transform="translate(-38.12 -167.63)"/><path d="M413.23,471.1a71.86,71.86,0,1,1-71.75,71.71A72,72,0,0,1,413.23,471.1Zm56,71.7a55.9,55.9,0,1,0-55.64,56.05A56,56,0,0,0,469.25,542.8Z" transform="translate(-38.12 -167.63)"/><path d="M421.56,319V303.66h63.26V319Z" transform="translate(-38.12 -167.63)"/><path d="M485,351.7V367H421.61V351.7Z" transform="translate(-38.12 -167.63)"/><path d="M421.57,414.84V399.49h63.25v15.35Z" transform="translate(-38.12 -167.63)"/><path d="M368.25,549.14l11.13-11.91,17.29,18.58,42.63-42.73,10.85,12c-.47.54-1.35,1.68-2.35,2.68q-21.32,21.36-42.67,42.67c-6,6-9.46,6-15.53-.05Z" transform="translate(-38.12 -167.63)"/></svg>