<svg id="Layer_1" data-name="Layer 1" xmlns="http://www.w3.org/2000/svg" viewBox="0 0 96 96"><circle cx="48" cy="48" r="48" style="fill:#f1f8f2"/><path d="M64.08,21.4H25.86A7.88,7.88,0,0,0,18,29.27V58.49a7.89,7.89,0,0,0,7.87,7.88H34l8.77,7.37A3.39,3.39,0,0,0,45,74.6a3.3,3.3,0,0,0,2.2-.83l7.47-6.17c-.47-.6-.92-1.21-1.33-1.82l-7.6,6.29a1.16,1.16,0,0,1-1.52,0l-9.1-7.67a1.11,1.11,0,0,0-.72-.27H25.86a5.63,5.63,0,0,1-5.62-5.62V29.27a5.63,5.63,0,0,1,5.62-5.62H64.08a5.62,5.62,0,0,1,5.61,5.62v20.5a7.23,7.23,0,0,1,2.23-.36h0V29.27A7.88,7.88,0,0,0,64.08,21.4Z" style="fill:#3c5929"/><path d="M71.07,51.11a6.84,6.84,0,0,0-5.87,3.61,6.78,6.78,0,0,0-5.87-3.61c-3.82,0-6.94,3.46-6.94,7.71,0,5.55,6.47,11.7,10.31,14.88a3.9,3.9,0,0,0,2.5.9,3.94,3.94,0,0,0,2.5-.9C71.54,70.52,78,64.37,78,58.82,78,54.57,74.89,51.11,71.07,51.11Zm-4.72,21a1.78,1.78,0,0,1-2.28,0c-2.88-2.37-9.54-8.39-9.54-13.24,0-3.08,2.15-5.57,4.8-5.57s4.8,2.49,4.8,5.57a1.07,1.07,0,1,0,2.14,0c0-3.08,2.15-5.57,4.8-5.57s4.81,2.49,4.81,5.57C75.88,63.67,69.21,69.69,66.35,72.06Z" style="fill:#3c5929"/></svg>