<?xml version="1.0" encoding="utf-8"?>
<!-- Generator: Adobe Illustrator 24.2.3, SVG Export Plug-In . SVG Version: 6.00 Build 0)  -->
<svg version="1.1" id="Layer_1" xmlns="http://www.w3.org/2000/svg" xmlns:xlink="http://www.w3.org/1999/xlink" x="0px" y="0px"
	 viewBox="0 0 328.5 288" style="enable-background:new 0 0 328.5 288;" xml:space="preserve">
<g>
	<path d="M57.19,136.28c-5.57,0-10.61,0.02-15.66,0c-6.68-0.02-8.9-2.91-7.14-9.48c5.33-19.96,10.72-39.9,16.09-59.85
		c2.09-7.76,4.21-15.52,6.3-23.28c1.36-5.05,2.77-6.18,8.09-6.18c31.2-0.02,62.41-0.02,93.61-0.02c39.37,0,78.75,0.01,118.12,0.01
		c5.78,0,7.37,1.25,8.87,6.81c7.39,27.47,14.79,54.94,22.21,82.4c1.78,6.59-0.48,9.57-7.38,9.6c-4.93,0.02-9.86,0-15.17,0
		c-0.07,1.59-0.19,2.89-0.19,4.2c-0.01,39.12-0.01,78.24-0.02,117.36c0,5.62-1.43,7.12-6.94,7.13c-71.2,0.01-142.39,0.01-213.59,0
		c-5.67,0-7.21-1.59-7.21-7.32c0-38.5,0-77,0.01-115.5C57.19,140.34,57.19,138.53,57.19,136.28z M47.29,124.37
		c82.95,0,165.4,0,248.11,0c-6.7-24.79-13.31-49.13-19.8-73.5c-0.63-2.37-2.02-2.36-3.84-2.35c-9.53,0.03-19.07,0.02-28.6,0.02
		c-57.07,0-114.14,0.03-171.22-0.09c-3.41-0.01-4.69,1.13-5.46,4.28c-1.96,8.05-4.26,16.01-6.42,24.01
		C55.85,92.48,51.62,108.23,47.29,124.37z M69.1,136.75c-0.09,1.21-0.2,1.94-0.2,2.67c-0.01,36.88,0.02,73.76-0.07,110.64
		c-0.01,2.92,1.05,3.44,3.69,3.44c42.33-0.07,84.66-0.04,126.99-0.05c1.2,0,2.39-0.11,3.69-0.17c0-39.05,0-77.73,0-116.53
		C158.45,136.75,113.94,136.75,69.1,136.75z M272.99,253.22c0-39,0-77.58,0-116.43c-19.29,0-38.4,0-57.65,0
		c0,38.84,0,77.52,0,116.43C234.55,253.22,253.55,253.22,272.99,253.22z"/>
	<path d="M236.06,103.91c0-11.29,0-22.36,0-33.42c5.44-1.55,6.37-1.17,9.05,3.25c2.95,4.87,5.95,9.7,8.96,14.53
		c0.61,0.98,1.35,1.88,2.72,3.77c0-8.01,0-14.85,0-21.95c2.18,0,3.96,0,6.06,0c0,11.27,0,22.44,0,33.59c-6,1.14-6.3,1.03-9.4-3.87
		c-3.5-5.51-6.96-11.05-11.27-16.44c0,6.77,0,13.54,0,20.53C239.94,103.91,238.26,103.91,236.06,103.91z"/>
	<path d="M190.73,86.77c0-11.25,5.75-17.52,16.07-17.53c11.18-0.01,17.66,6.34,17.74,17.39c0.08,10.52-6.68,17.51-16.92,17.49
		C197.24,104.11,190.73,97.42,190.73,86.77z M217.55,86.08c-0.02-6.3-1.77-9.14-6.56-10.64c-5.75-1.8-11.57,0.87-12.9,5.92
		c-2.1,8,1,15.32,7.13,16.78c0.48,0.11,0.97,0.15,1.46,0.19C213.49,98.87,217.57,94.27,217.55,86.08z"/>
	<path d="M79.85,92.75c3.68-0.75,6.48-1.29,8.16,3.18c1.41,3.72,8.87,4.26,11.74,1.4c2.5-2.49,1.57-6.08-2.02-7.24
		c-2.93-0.95-5.95-1.62-8.93-2.42c-6.23-1.67-8.71-4.79-8.05-10.11c0.56-4.51,5.04-8.35,10.41-8.18c3.62,0.12,7.36,0.76,10.76,1.96
		c3.4,1.2,4.76,4.31,4.78,8.17c-3.34,0.06-6.59,1.96-8.46-2.79c-1.06-2.68-8.27-2.37-9.99,0.07c-1.45,2.05-0.33,3.68,1.43,4.58
		c1.84,0.94,3.94,1.38,5.94,1.99c1.89,0.57,3.84,0.96,5.68,1.63c4.67,1.71,6.72,4.41,6.77,8.64c0.05,4.26-2.43,8.35-6.6,9.85
		c-5.44,1.96-10.95,1.96-16.14-0.98C81.69,100.45,80.07,97.15,79.85,92.75z"/>
	<path d="M148.82,103.78c-7.08,0.92-7.22,0.96-9.21-4.7c-0.74-2.09-1.82-2.65-3.8-2.52c-1.72,0.11-3.49,0.24-5.19-0.01
		c-4.41-0.64-6.99,0.54-8,5.45c-0.86,4.19-4.77,1.26-7.92,2.47c0.6-1.76,0.93-2.86,1.34-3.92c3.68-9.44,7.31-18.9,11.14-28.28
		c0.43-1.05,2.01-2.31,3.05-2.3c1.99,0.02,5.27,0.32,5.76,1.47C140.49,81.99,144.51,92.73,148.82,103.78z M136.23,90.05
		c-1.59-4.32-2.99-8.12-4.75-12.92c-1.74,4.92-3.1,8.77-4.57,12.92C130.22,90.05,132.9,90.05,136.23,90.05z"/>
	<path d="M158.17,70.63c2.17,0,4.19,0,6.56,0c0,9.22,0,18.2,0,27.65c5.93,0,11.55,0,17.4,0c0,2.11,0,3.75,0,5.64
		c-8.02,0-15.87,0-23.96,0C158.17,92.77,158.17,81.83,158.17,70.63z"/>
	<path d="M175.89,194.63c0,10.65,0.01,21.29,0,31.94c-0.01,5.83-1.69,7.51-7.54,7.52c-21.3,0.01-42.59,0.01-63.89-0.01
		c-5.56,0-7.33-1.76-7.33-7.33c-0.02-21.29-0.03-42.59-0.01-63.88c0.01-6.09,1.59-7.68,7.73-7.68c21.3-0.03,42.59-0.02,63.89,0.02
		c5.43,0.01,7.12,1.74,7.14,7.12C175.9,173.09,175.88,183.86,175.89,194.63z M164.09,222.32c0-18.51,0-36.87,0-55.36
		c-18.52,0-36.76,0-55.06,0c0,18.61,0,36.96,0,55.36C127.52,222.32,145.69,222.32,164.09,222.32z"/>
	<path d="M234.37,194.41c0,1.61,0.23,3.26-0.05,4.82c-0.55,3.01-2.46,4.82-5.6,4.96c-3.05,0.14-5.49-1.95-5.76-5.13
		c-0.23-2.7-0.2-5.45-0.06-8.16c0.19-3.77,2.36-5.81,5.87-5.79c3.43,0.02,5.5,2.18,5.68,5.96c0.05,1.11,0.01,2.23,0.01,3.34
		C234.42,194.41,234.39,194.41,234.37,194.41z"/>
</g>
</svg>
