<?xml version="1.0" encoding="utf-8"?>
<!-- Generator: Adobe Illustrator 24.2.3, SVG Export Plug-In . SVG Version: 6.00 Build 0)  -->
<svg version="1.1" id="Layer_1" xmlns="http://www.w3.org/2000/svg" xmlns:xlink="http://www.w3.org/1999/xlink" x="0px" y="0px"
	 viewBox="0 0 1366 768" style="enable-background:new 0 0 1366 768;" xml:space="preserve">
<style type="text/css">
	.st0{fill:none;stroke:#646464;stroke-width:6;stroke-miterlimit:10;}
</style>
<g>
	<path class="st0" d="M569.89,408.91c75.76,0,150.68,0,226.23,0c0,2.18,0,4.12,0,6.06c0,44.49,0.05,88.97-0.09,133.46
		c-0.01,3.87,0.96,5.39,4.89,6.2c21.87,4.54,43.53,10.11,63.37,20.62c8.41,4.46,15.88,10.77,23.48,16.63
		c2.25,1.74,3.76,4.67,5.07,7.33c2.34,4.75-0.28,9.1-5.54,9.69c-1.15,0.13-2.33,0.05-3.5,0.05c-133.79,0-267.58,0-401.37,0
		c-1.33,0-2.68,0.1-3.99-0.08c-4.96-0.67-8-5.36-5.21-9.39c3.82-5.52,8.2-11.02,13.45-15.1c14.27-11.09,31.19-16.98,48.27-22.14
		c9.7-2.93,19.61-5.23,29.51-7.38c4.08-0.88,5.58-2.3,5.56-6.76c-0.2-44.32-0.12-88.64-0.12-132.96
		C569.89,413.19,569.89,411.23,569.89,408.91z M667.92,543.71c10.07,0,19.47,0,29.2,0c0-15.45-0.01-30.57,0.01-45.7
		c0-3.12-1.59-4.62-4.59-4.64c-6.66-0.04-13.32-0.06-19.98,0.02c-2.89,0.03-4.67,1.34-4.66,4.57
		C667.94,513.09,667.92,528.22,667.92,543.71z M746.76,522.81c3.33,0,6.66,0.01,9.98,0c3.26-0.02,4.92-1.69,4.93-4.94
		c0.02-6.49,0.02-12.98,0-19.47c-0.01-3.18-1.51-5.03-4.84-5.04c-6.66-0.01-13.31-0.04-19.97,0.04c-2.94,0.04-4.66,1.59-4.67,4.66
		c-0.02,6.66-0.05,13.31,0.02,19.97c0.03,3.24,1.79,4.83,5.06,4.79C740.43,522.78,743.6,522.81,746.76,522.81z M761.68,452.68
		c0-2.99-0.04-5.99,0.01-8.98c0.06-3.84-1.42-5.88-5.62-5.75c-6.15,0.19-12.31,0.13-18.46,0.02c-3.8-0.07-5.49,1.64-5.45,5.39
		c0.06,6.15,0.05,12.31,0,18.46c-0.03,3.67,1.47,5.61,5.37,5.44c3.15-0.13,6.32,0.01,9.48-0.03
		C763.41,467.07,761.59,469.42,761.68,452.68z M633.18,508.07c0-3.16-0.08-6.32,0.02-9.48c0.11-3.54-1.49-5.26-5.03-5.24
		c-6.49,0.03-12.98-0.03-19.46,0.04c-3.19,0.03-4.84,1.57-4.78,4.98c0.11,6.32,0.14,12.64-0.01,18.96c-0.09,4.17,1.92,5.6,5.81,5.52
		c5.65-0.12,11.31,0.01,16.97-0.04c5.78-0.05,6.45-0.77,6.49-6.76C633.21,513.39,633.19,510.73,633.18,508.07z M682.43,467.24
		c3.16,0,6.32-0.09,9.47,0.02c3.84,0.14,5.37-1.61,5.27-5.42c-0.16-6.15-0.11-12.3-0.02-18.45c0.06-3.73-1.42-5.59-5.31-5.42
		c-3.15,0.14-6.31,0.01-9.47,0.03c-16.68,0.12-14.42-1.92-14.42,14.67C667.95,469.48,665.77,467.05,682.43,467.24z M633.17,454.03
		c0-4.69,0-8.01,0-11.34c0-3-1.33-4.69-4.49-4.68c-6.65,0.01-13.3,0.01-19.95,0c-3.3-0.01-4.84,1.58-4.8,4.91
		c0.06,6.48,0.06,12.96,0.01,19.45c-0.03,3.29,1.41,4.95,4.78,4.89c3.32-0.05,6.65,0.03,9.97-0.01
		C635.54,467.07,632.96,469.33,633.17,454.03z"/>
	<path class="st0" d="M571.15,350.93c14.58-52.33,48.09-82.16,101.87-90.61c0-1.24,0-2.98,0-4.72c0-28.5-0.01-57,0-85.5
		c0-7.99,2.09-10.1,10-10.1c19.67-0.01,39.33-0.08,59,0.11c2.21,0.02,5.74,1.06,6.27,2.5c0.71,1.93-0.32,5.12-1.64,7.06
		c-4.6,6.73-9.64,13.16-14.85,20.16c4.52,6.06,9.27,12.02,13.51,18.33c1.7,2.53,2.3,5.81,3.39,8.75c-2.99,0.94-5.97,2.65-8.97,2.71
		c-15.32,0.28-30.65,0.13-46.37,0.13c0,13.47,0,26.72,0,40.17c53.1,8,86.9,38.03,101.45,90.42c6.77,0,13.74-0.02,20.71,0
		c7.79,0.02,9.5,1.7,9.52,9.27c0.01,6.5,0.08,13-0.03,19.5c-0.08,4.86-2.16,6.9-6.99,7.19c-1.16,0.07-2.33,0.03-3.5,0.03
		c-87.66,0-175.33,0-262.99,0c-1.5,0-3.01,0.05-4.5-0.1c-3.9-0.37-6.06-2.48-6.07-6.5c-0.02-7.33-0.04-14.67,0.01-22
		c0.03-4.45,2.36-6.78,6.83-6.79C555.63,350.91,563.45,350.93,571.15,350.93z"/>
</g>
</svg>
