<svg id="Layer_1" data-name="Layer 1" xmlns="http://www.w3.org/2000/svg" viewBox="0 0 96 96"><circle cx="48" cy="47.87" r="48" style="fill:#def5f2"/><path d="M76.18,33.33H34.59a1.94,1.94,0,1,1,0-3.87H76.18a1.94,1.94,0,1,1,0,3.87Z" style="fill:#385f25"/><path d="M76.18,49.8H34.59a1.94,1.94,0,1,1,0-3.87H76.18a1.94,1.94,0,1,1,0,3.87Z" style="fill:#385f25"/><path d="M76.18,66.28H34.59a1.94,1.94,0,0,1,0-3.88H76.18a1.94,1.94,0,0,1,0,3.88Z" style="fill:#385f25"/><path d="M23.82,37.34a5.94,5.94,0,1,1,5.94-5.94A6,6,0,0,1,23.82,37.34Zm0-9.82A3.88,3.88,0,1,0,27.7,31.4,3.88,3.88,0,0,0,23.82,27.52Z" style="fill:#385f25"/><path d="M23.82,53.81a5.94,5.94,0,1,1,5.94-5.94A6,6,0,0,1,23.82,53.81Zm0-9.82a3.88,3.88,0,1,0,3.88,3.88A3.88,3.88,0,0,0,23.82,44Z" style="fill:#385f25"/><path d="M23.82,70.28a5.94,5.94,0,1,1,5.94-5.94A5.95,5.95,0,0,1,23.82,70.28Zm0-9.81a3.87,3.87,0,1,0,3.88,3.87A3.88,3.88,0,0,0,23.82,60.47Z" style="fill:#385f25"/></svg>